<?xml version="1.0" encoding="UTF-8" standalone="no"?>
<!DOCTYPE svg PUBLIC "-//W3C//DTD SVG 1.1//EN" "http://www.w3.org/Graphics/SVG/1.1/DTD/svg11.dtd">
<svg width="100%" height="100%" viewBox="0 0 271 270" version="1.1" xmlns="http://www.w3.org/2000/svg" xmlns:xlink="http://www.w3.org/1999/xlink" xml:space="preserve" xmlns:serif="http://www.serif.com/" style="fill-rule:evenodd;clip-rule:evenodd;stroke-linejoin:round;stroke-miterlimit:2;">
    <g id="AL" transform="matrix(1.00914,0,0,1.00914,37.9576,-0.388302)">
        <g id="Alabama" transform="matrix(2.36491,0,0,2.33766,-1434.22,-815.646)">
            <path d="M626.598,460.409L624.982,445.213L622.234,426.46L622.396,412.395L623.204,381.357L623.042,364.705L623.207,358.286L630.964,357.916L658.769,355.329L667.692,354.667L667.544,356.849L667.706,358.951L668.352,362.346L671.747,370.267L674.172,380.129L675.627,386.272L677.244,391.121L678.699,398.073L680.8,404.378L683.387,407.773L683.872,411.167L685.812,411.976L685.973,414.077L684.195,418.927L683.71,422.16L683.548,424.1L685.165,428.465L685.488,433.8L684.68,436.225L685.327,437.033L686.782,437.841L687.817,440.377L681.512,440.377L674.722,441.023L649.18,443.933L638.768,445.34L638.672,449.092L640.45,450.871L643.037,452.811L643.618,460.746L638.076,463.319L635.327,462.996L638.076,461.056L638.076,460.086L635.004,454.104L632.741,453.458L631.286,457.822L629.993,460.571L629.346,460.409L626.598,460.409Z" style="fill:rgb(46,98,126);fill-opacity:0.15;fill-rule:nonzero;"/>
        </g>
        <g id="Alabama1" serif:id="Alabama" transform="matrix(2.36491,0,0,2.33766,-1446.22,-827.646)">
            <path d="M626.598,460.409L624.982,445.213L622.234,426.46L622.396,412.395L623.204,381.357L623.042,364.705L623.207,358.286L630.964,357.916L658.769,355.329L667.692,354.667L667.544,356.849L667.706,358.951L668.352,362.346L671.747,370.267L674.172,380.129L675.627,386.272L677.244,391.121L678.699,398.073L680.8,404.378L683.387,407.773L683.872,411.167L685.812,411.976L685.973,414.077L684.195,418.927L683.71,422.16L683.548,424.1L685.165,428.465L685.488,433.8L684.68,436.225L685.327,437.033L686.782,437.841L687.817,440.377L681.512,440.377L674.722,441.023L649.18,443.933L638.768,445.34L638.672,449.092L640.45,450.871L643.037,452.811L643.618,460.746L638.076,463.319L635.327,462.996L638.076,461.056L638.076,460.086L635.004,454.104L632.741,453.458L631.286,457.822L629.993,460.571L629.346,460.409L626.598,460.409Z" style="fill:rgb(0,156,244);fill-rule:nonzero;"/>
        </g>
    </g>
</svg>
