<?xml version="1.0" encoding="UTF-8" standalone="no"?>
<!DOCTYPE svg PUBLIC "-//W3C//DTD SVG 1.1//EN" "http://www.w3.org/Graphics/SVG/1.1/DTD/svg11.dtd">
<svg width="100%" height="100%" viewBox="0 0 271 270" version="1.1" xmlns="http://www.w3.org/2000/svg" xmlns:xlink="http://www.w3.org/1999/xlink" xml:space="preserve" xmlns:serif="http://www.serif.com/" style="fill-rule:evenodd;clip-rule:evenodd;stroke-linejoin:round;stroke-miterlimit:2;">
    <g id="AL" transform="matrix(1.03904,0,0,1.05881,-1.87153,0.211364)">
        <g id="Alaska" transform="matrix(1.18556,0,0,1.1719,4.67192,-457.107)">
            <path d="M159.077,447.313L158.753,532.67L160.37,533.64L163.442,533.802L164.897,532.67L167.483,532.67L167.645,535.58L174.596,542.37L175.081,544.957L178.476,543.017L179.123,542.855L179.446,539.783L180.901,538.167L182.033,538.005L183.973,536.55L187.044,538.652L187.691,541.562L189.631,542.693L190.762,545.118L194.642,546.897L198.037,552.878L200.785,556.758L203.049,559.506L204.504,563.224L209.515,565.003L214.688,567.104L215.658,571.469L216.143,574.541L215.173,577.936L213.395,580.199L211.778,579.39L210.323,576.319L207.575,574.864L205.797,573.732L204.988,574.541L206.443,577.289L206.605,581.007L205.473,581.492L203.534,579.552L201.432,578.259L201.917,579.875L203.21,581.654L202.402,582.462C202.402,582.462 201.594,582.139 201.109,581.492C200.624,580.845 199.007,578.097 199.007,578.097L198.037,575.834C198.037,575.834 197.714,577.127 197.067,576.804C196.42,576.481 195.774,575.349 195.774,575.349L197.552,573.409L196.097,571.954L196.097,566.943L195.289,566.943L194.481,570.337L193.349,570.822L192.379,567.104L191.732,563.386L190.924,562.901L191.247,568.559L191.247,569.691L189.792,568.398L186.236,562.416L184.134,561.931L183.488,558.213L181.871,555.303L180.254,554.171L180.254,551.908L182.356,550.615L181.871,550.291L179.284,550.938L175.889,548.513L173.303,545.603L168.453,543.017L164.412,540.43L165.705,537.197L165.705,535.58L163.927,537.197L161.017,538.329L157.298,537.197L151.64,534.772L146.144,534.772L145.497,535.257L139.031,531.377L136.929,531.054L134.181,525.234L130.624,525.557L127.068,527.012L127.553,531.539L128.684,528.629L129.654,528.952L128.199,533.317L131.433,530.569L132.079,532.185L128.199,536.55L126.906,536.227L126.421,534.287L125.128,533.479L123.835,534.61L121.086,532.832L118.015,534.934L116.236,537.035L112.842,539.137L108.153,538.975L107.668,536.874L111.387,536.227L111.387,534.934L109.123,534.287L110.093,531.862L112.357,527.982L112.357,526.204L112.518,525.396L116.883,523.132L117.853,524.426L120.601,524.426L119.308,521.839L115.59,521.516L110.578,524.264L108.153,527.659L106.375,530.245L105.244,532.509L101.04,533.964L97.969,536.55L97.645,538.167L99.909,539.137L100.717,541.238L97.969,544.472L91.502,548.675L83.743,552.878L81.641,554.01L76.306,555.141L70.971,557.405L72.75,558.698L71.295,560.153L70.81,561.284L68.061,560.314L64.828,560.476L64.02,562.739L63.05,562.739L63.373,560.314L59.817,561.608L56.907,562.578L53.512,561.284L50.602,563.224L47.369,563.224L45.267,564.518L43.651,565.326L41.549,565.003L38.962,563.871L36.699,564.518L35.729,565.488L34.113,564.356L34.113,562.416L37.184,561.123L43.489,561.769L47.854,560.153L49.955,558.051L52.865,557.405L54.644,556.596L57.392,556.758L59.008,558.051L59.978,557.728L62.242,554.98L65.313,554.01L68.708,553.363L70.001,553.04L70.648,553.525L71.456,553.525L72.75,549.806L76.791,548.352L78.731,544.633L80.994,540.107L82.611,538.652L82.934,536.065L81.318,537.359L77.923,538.005L77.276,535.58L75.983,535.257L75.013,536.227L74.851,539.137L73.396,538.975L71.941,533.155L70.648,534.449L69.516,533.964L69.193,532.024L65.152,532.185L63.05,533.317L60.463,532.994L61.918,531.539L62.403,528.952L61.757,527.012L63.212,526.042L64.505,525.881L63.858,524.102L63.858,519.737L62.888,518.768L62.08,520.222L55.937,520.222L54.482,518.929L53.835,515.049L51.734,511.493L51.734,510.523L53.835,509.714L53.997,507.613L55.129,506.481L54.32,505.996L53.027,506.481L51.895,503.733L52.865,498.722L57.392,495.488L59.978,493.872L61.918,490.153L64.667,488.86L67.253,489.992L67.576,492.417L70.001,492.093L73.235,489.668L74.851,490.315L75.821,490.962L77.438,490.962L79.701,489.668L80.509,485.304C80.509,485.304 80.833,482.394 81.479,481.909C82.126,481.424 82.449,480.939 82.449,480.939L81.318,478.999L78.731,479.807L75.498,480.615L73.558,480.13L70.001,478.352L64.99,478.191L61.433,474.472L61.918,470.592L62.565,468.168L60.463,466.389L58.523,462.671L59.008,461.863L65.798,461.378L67.9,461.378L68.87,462.348L69.516,462.348L69.355,460.731L73.235,460.084L75.821,460.408L77.276,461.539L75.821,463.641L75.336,465.096L78.084,466.713L83.096,468.491L84.874,467.521L82.611,463.156L81.641,459.923L82.611,459.115L79.216,457.175L78.731,456.043L79.216,454.426L78.408,450.546L75.498,445.858L73.073,441.655L75.983,439.715L79.216,439.715L80.994,440.362L85.198,440.2L88.916,436.644L90.047,433.572L93.766,431.147L95.382,432.117L98.13,431.47L101.849,429.369L102.98,429.207L103.95,430.016L108.477,429.854L111.225,426.782L112.357,426.782L115.913,429.207L117.853,431.309L117.368,432.44L118.015,433.572L119.631,431.955L123.511,432.279L123.835,435.997L125.775,437.452L132.888,438.099L139.192,442.302L140.647,441.332L145.82,443.918L147.922,443.272L149.862,442.463L154.712,444.403L159.077,447.313ZM43.974,476.251L46.076,481.585L45.914,482.555L43.004,482.232L41.226,478.191L39.447,476.736L37.022,476.736L36.861,474.149L38.639,471.724L39.771,474.149L41.226,475.604L43.974,476.251ZM41.387,509.714L45.106,510.523L48.824,511.493L49.632,512.463L48.015,516.181L44.944,516.019L41.549,512.463L41.387,509.714ZM20.695,495.65L21.826,498.237L22.958,499.853L21.826,500.661L19.725,497.59L19.725,495.65L20.695,495.65ZM6.953,568.721L10.348,566.458L13.743,565.488L16.33,565.811L16.815,567.428L18.755,567.913L20.695,565.973L20.371,564.356L23.12,563.709L26.03,566.296L24.898,568.074L20.533,569.206L17.785,568.721L14.067,567.589L9.702,569.044L8.085,569.367L6.953,568.721ZM55.937,564.194L57.553,566.134L59.655,564.518L58.2,563.224L55.937,564.194ZM58.847,567.266L59.978,565.003L62.08,565.326L61.272,567.266L58.847,567.266ZM82.449,565.326L83.904,567.104L84.874,565.973L84.066,564.033L82.449,565.326ZM91.179,552.878L92.311,558.698L95.221,559.506L100.232,556.596L104.597,554.01L102.98,551.585L103.465,549.16L101.364,550.453L98.454,549.645L100.07,548.513L102.01,549.321L105.89,547.543L106.375,546.088L103.95,545.28L104.759,543.34L102.01,545.28L97.322,548.837L92.472,551.746L91.179,552.878ZM133.534,532.994L135.959,531.539L134.989,529.76L133.211,530.73L133.534,532.994Z" style="fill:rgb(46,98,126);fill-opacity:0.15;fill-rule:nonzero;"/>
        </g>
        <g id="Alaska1" serif:id="Alaska" transform="matrix(1.18556,0,0,1.1719,-5.34326,-469.613)">
            <path d="M159.077,447.313L158.753,532.67L160.37,533.64L163.442,533.802L164.897,532.67L167.483,532.67L167.645,535.58L174.596,542.37L175.081,544.957L178.476,543.017L179.123,542.855L179.446,539.783L180.901,538.167L182.033,538.005L183.973,536.55L187.044,538.652L187.691,541.562L189.631,542.693L190.762,545.118L194.642,546.897L198.037,552.878L200.785,556.758L203.049,559.506L204.504,563.224L209.515,565.003L214.688,567.104L215.658,571.469L216.143,574.541L215.173,577.936L213.395,580.199L211.778,579.39L210.323,576.319L207.575,574.864L205.797,573.732L204.988,574.541L206.443,577.289L206.605,581.007L205.473,581.492L203.534,579.552L201.432,578.259L201.917,579.875L203.21,581.654L202.402,582.462C202.402,582.462 201.594,582.139 201.109,581.492C200.624,580.845 199.007,578.097 199.007,578.097L198.037,575.834C198.037,575.834 197.714,577.127 197.067,576.804C196.42,576.481 195.774,575.349 195.774,575.349L197.552,573.409L196.097,571.954L196.097,566.943L195.289,566.943L194.481,570.337L193.349,570.822L192.379,567.104L191.732,563.386L190.924,562.901L191.247,568.559L191.247,569.691L189.792,568.398L186.236,562.416L184.134,561.931L183.488,558.213L181.871,555.303L180.254,554.171L180.254,551.908L182.356,550.615L181.871,550.291L179.284,550.938L175.889,548.513L173.303,545.603L168.453,543.017L164.412,540.43L165.705,537.197L165.705,535.58L163.927,537.197L161.017,538.329L157.298,537.197L151.64,534.772L146.144,534.772L145.497,535.257L139.031,531.377L136.929,531.054L134.181,525.234L130.624,525.557L127.068,527.012L127.553,531.539L128.684,528.629L129.654,528.952L128.199,533.317L131.433,530.569L132.079,532.185L128.199,536.55L126.906,536.227L126.421,534.287L125.128,533.479L123.835,534.61L121.086,532.832L118.015,534.934L116.236,537.035L112.842,539.137L108.153,538.975L107.668,536.874L111.387,536.227L111.387,534.934L109.123,534.287L110.093,531.862L112.357,527.982L112.357,526.204L112.518,525.396L116.883,523.132L117.853,524.426L120.601,524.426L119.308,521.839L115.59,521.516L110.578,524.264L108.153,527.659L106.375,530.245L105.244,532.509L101.04,533.964L97.969,536.55L97.645,538.167L99.909,539.137L100.717,541.238L97.969,544.472L91.502,548.675L83.743,552.878L81.641,554.01L76.306,555.141L70.971,557.405L72.75,558.698L71.295,560.153L70.81,561.284L68.061,560.314L64.828,560.476L64.02,562.739L63.05,562.739L63.373,560.314L59.817,561.608L56.907,562.578L53.512,561.284L50.602,563.224L47.369,563.224L45.267,564.518L43.651,565.326L41.549,565.003L38.962,563.871L36.699,564.518L35.729,565.488L34.113,564.356L34.113,562.416L37.184,561.123L43.489,561.769L47.854,560.153L49.955,558.051L52.865,557.405L54.644,556.596L57.392,556.758L59.008,558.051L59.978,557.728L62.242,554.98L65.313,554.01L68.708,553.363L70.001,553.04L70.648,553.525L71.456,553.525L72.75,549.806L76.791,548.352L78.731,544.633L80.994,540.107L82.611,538.652L82.934,536.065L81.318,537.359L77.923,538.005L77.276,535.58L75.983,535.257L75.013,536.227L74.851,539.137L73.396,538.975L71.941,533.155L70.648,534.449L69.516,533.964L69.193,532.024L65.152,532.185L63.05,533.317L60.463,532.994L61.918,531.539L62.403,528.952L61.757,527.012L63.212,526.042L64.505,525.881L63.858,524.102L63.858,519.737L62.888,518.768L62.08,520.222L55.937,520.222L54.482,518.929L53.835,515.049L51.734,511.493L51.734,510.523L53.835,509.714L53.997,507.613L55.129,506.481L54.32,505.996L53.027,506.481L51.895,503.733L52.865,498.722L57.392,495.488L59.978,493.872L61.918,490.153L64.667,488.86L67.253,489.992L67.576,492.417L70.001,492.093L73.235,489.668L74.851,490.315L75.821,490.962L77.438,490.962L79.701,489.668L80.509,485.304C80.509,485.304 80.833,482.394 81.479,481.909C82.126,481.424 82.449,480.939 82.449,480.939L81.318,478.999L78.731,479.807L75.498,480.615L73.558,480.13L70.001,478.352L64.99,478.191L61.433,474.472L61.918,470.592L62.565,468.168L60.463,466.389L58.523,462.671L59.008,461.863L65.798,461.378L67.9,461.378L68.87,462.348L69.516,462.348L69.355,460.731L73.235,460.084L75.821,460.408L77.276,461.539L75.821,463.641L75.336,465.096L78.084,466.713L83.096,468.491L84.874,467.521L82.611,463.156L81.641,459.923L82.611,459.115L79.216,457.175L78.731,456.043L79.216,454.426L78.408,450.546L75.498,445.858L73.073,441.655L75.983,439.715L79.216,439.715L80.994,440.362L85.198,440.2L88.916,436.644L90.047,433.572L93.766,431.147L95.382,432.117L98.13,431.47L101.849,429.369L102.98,429.207L103.95,430.016L108.477,429.854L111.225,426.782L112.357,426.782L115.913,429.207L117.853,431.309L117.368,432.44L118.015,433.572L119.631,431.955L123.511,432.279L123.835,435.997L125.775,437.452L132.888,438.099L139.192,442.302L140.647,441.332L145.82,443.918L147.922,443.272L149.862,442.463L154.712,444.403L159.077,447.313ZM43.974,476.251L46.076,481.585L45.914,482.555L43.004,482.232L41.226,478.191L39.447,476.736L37.022,476.736L36.861,474.149L38.639,471.724L39.771,474.149L41.226,475.604L43.974,476.251ZM41.387,509.714L45.106,510.523L48.824,511.493L49.632,512.463L48.015,516.181L44.944,516.019L41.549,512.463L41.387,509.714ZM20.695,495.65L21.826,498.237L22.958,499.853L21.826,500.661L19.725,497.59L19.725,495.65L20.695,495.65ZM6.953,568.721L10.348,566.458L13.743,565.488L16.33,565.811L16.815,567.428L18.755,567.913L20.695,565.973L20.371,564.356L23.12,563.709L26.03,566.296L24.898,568.074L20.533,569.206L17.785,568.721L14.067,567.589L9.702,569.044L8.085,569.367L6.953,568.721ZM55.937,564.194L57.553,566.134L59.655,564.518L58.2,563.224L55.937,564.194ZM58.847,567.266L59.978,565.003L62.08,565.326L61.272,567.266L58.847,567.266ZM82.449,565.326L83.904,567.104L84.874,565.973L84.066,564.033L82.449,565.326ZM91.179,552.878L92.311,558.698L95.221,559.506L100.232,556.596L104.597,554.01L102.98,551.585L103.465,549.16L101.364,550.453L98.454,549.645L100.07,548.513L102.01,549.321L105.89,547.543L106.375,546.088L103.95,545.28L104.759,543.34L102.01,545.28L97.322,548.837L92.472,551.746L91.179,552.878ZM133.534,532.994L135.959,531.539L134.989,529.76L133.211,530.73L133.534,532.994Z" style="fill:rgb(0,156,244);fill-rule:nonzero;"/>
        </g>
    </g>
</svg>
