<?xml version="1.0" encoding="UTF-8" standalone="no"?>
<!DOCTYPE svg PUBLIC "-//W3C//DTD SVG 1.1//EN" "http://www.w3.org/Graphics/SVG/1.1/DTD/svg11.dtd">
<svg width="100%" height="100%" viewBox="0 0 271 270" version="1.1" xmlns="http://www.w3.org/2000/svg" xmlns:xlink="http://www.w3.org/1999/xlink" xml:space="preserve" xmlns:serif="http://www.serif.com/" style="fill-rule:evenodd;clip-rule:evenodd;stroke-linejoin:round;stroke-miterlimit:2;">
    <g id="AZ" transform="matrix(1.00566,0,0,1.00566,11.6452,0.0759418)">
        <g id="Arizona" transform="matrix(1.91627,-0.170799,0.168831,1.89419,-302.129,-502.527)">
            <path d="M138.747,381.139L136.12,383.297L135.797,384.752L136.282,385.722L155.196,396.391L167.32,403.99L182.032,412.558L198.844,422.58L211.13,425.005L236.258,427.71L238.789,415.203L242.542,387.96L249.507,335.079L253.764,304.114L229.167,300.435L201.961,295.862L168.532,289.545L165.61,307.636L165.153,308.094L163.438,310.723L160.923,310.609L159.666,307.865L156.922,307.522L156.008,306.379L155.094,306.379L154.179,306.951L152.236,307.979L152.121,314.952L151.893,316.667L151.321,329.241L149.835,331.413L149.264,334.728L152.007,339.644L153.265,345.474L154.065,346.502L155.094,347.074L154.979,349.36L153.379,350.732L149.949,352.447L148.006,354.39L146.52,358.048L145.949,362.963L143.091,365.707L141.033,366.392L140.919,372.222L140.462,373.937L140.919,374.737L144.577,375.309L144.005,378.052L142.519,380.224L138.747,381.139Z" style="fill:rgb(46,98,126);fill-opacity:0.15;fill-rule:nonzero;"/>
        </g>
        <g id="Arizona1" serif:id="Arizona" transform="matrix(1.91627,-0.170799,0.168831,1.89419,-316.129,-518.527)">
            <path d="M138.747,381.139L136.12,383.297L135.797,384.752L136.282,385.722L155.196,396.391L167.32,403.99L182.032,412.558L198.844,422.58L211.13,425.005L236.258,427.71L238.789,415.203L242.542,387.96L249.507,335.079L253.764,304.114L229.167,300.435L201.961,295.862L168.532,289.545L165.61,307.636L165.153,308.094L163.438,310.723L160.923,310.609L159.666,307.865L156.922,307.522L156.008,306.379L155.094,306.379L154.179,306.951L152.236,307.979L152.121,314.952L151.893,316.667L151.321,329.241L149.835,331.413L149.264,334.728L152.007,339.644L153.265,345.474L154.065,346.502L155.094,347.074L154.979,349.36L153.379,350.732L149.949,352.447L148.006,354.39L146.52,358.048L145.949,362.963L143.091,365.707L141.033,366.392L140.919,372.222L140.462,373.937L140.919,374.737L144.577,375.309L144.005,378.052L142.519,380.224L138.747,381.139Z" style="fill:rgb(0,156,244);fill-rule:nonzero;"/>
        </g>
    </g>
</svg>
