<?xml version="1.0" encoding="UTF-8" standalone="no"?>
<!DOCTYPE svg PUBLIC "-//W3C//DTD SVG 1.1//EN" "http://www.w3.org/Graphics/SVG/1.1/DTD/svg11.dtd">
<svg width="100%" height="100%" viewBox="0 0 271 270" version="1.1" xmlns="http://www.w3.org/2000/svg" xmlns:xlink="http://www.w3.org/1999/xlink" xml:space="preserve" xmlns:serif="http://www.serif.com/" style="fill-rule:evenodd;clip-rule:evenodd;stroke-linejoin:round;stroke-miterlimit:2;">
    <g id="AK" transform="matrix(0.987145,0,0,0.987145,0.0161169,2.20758)">
        <g id="Arkansas" transform="matrix(2.97294,0,0,2.93869,-1486.14,-933.029)">
            <path d="M591.952,338.592L588.105,339.529L581.932,339.072L582.618,336.1L585.819,333.356L586.276,331.07L584.447,328.098L573.473,328.555L552.668,329.47L529.349,330.156L506.029,330.613L507.63,337.472L507.63,345.702L509.001,356.676L509.23,394.513L511.516,396.456L514.488,395.085L517.232,396.228L517.662,406.551L540.548,406.409L559.412,405.608L569.533,405.41L570.679,403.32L570.392,399.77L568.567,396.798L570.166,395.313L568.567,392.802L569.251,390.292L570.619,384.686L573.138,382.624L572.452,380.339L576.11,374.967L578.853,373.599L578.74,372.105L578.394,370.28L581.251,364.681L583.654,363.424L584.038,359.997L585.809,358.755L586.666,354.521L585.324,350.51L589.366,348.134L589.916,346.115L591.151,341.847L591.952,338.592Z" style="fill:rgb(46,98,126);fill-opacity:0.15;fill-rule:nonzero;"/>
        </g>
        <g id="Arkansas1" serif:id="Arkansas" transform="matrix(2.97294,0,0,2.93869,-1503.14,-948.029)">
            <path d="M591.952,338.592L588.105,339.529L581.932,339.072L582.618,336.1L585.819,333.356L586.276,331.07L584.447,328.098L573.473,328.555L552.668,329.47L529.349,330.156L506.029,330.613L507.63,337.472L507.63,345.702L509.001,356.676L509.23,394.513L511.516,396.456L514.488,395.085L517.232,396.228L517.662,406.551L540.548,406.409L559.412,405.608L569.533,405.41L570.679,403.32L570.392,399.77L568.567,396.798L570.166,395.313L568.567,392.802L569.251,390.292L570.619,384.686L573.138,382.624L572.452,380.339L576.11,374.967L578.853,373.599L578.74,372.105L578.394,370.28L581.251,364.681L583.654,363.424L584.038,359.997L585.809,358.755L586.666,354.521L585.324,350.51L589.366,348.134L589.916,346.115L591.151,341.847L591.952,338.592Z" style="fill:rgb(0,156,244);fill-rule:nonzero;"/>
        </g>
    </g>
</svg>
