<?xml version="1.0" encoding="UTF-8" standalone="no"?>
<!DOCTYPE svg PUBLIC "-//W3C//DTD SVG 1.1//EN" "http://www.w3.org/Graphics/SVG/1.1/DTD/svg11.dtd">
<svg width="100%" height="100%" viewBox="0 0 271 270" version="1.1" xmlns="http://www.w3.org/2000/svg" xmlns:xlink="http://www.w3.org/1999/xlink" xml:space="preserve" xmlns:serif="http://www.serif.com/" style="fill-rule:evenodd;clip-rule:evenodd;stroke-linejoin:round;stroke-miterlimit:2;">
    <g id="CA" transform="matrix(1.01878,-0.00845233,0.00845233,1.01878,23.9389,1.04013)">
        <g id="California" transform="matrix(1.043,0,0,1.03099,44.3829,-127.854)">
            <path d="M137.741,380.392L141.556,379.903L143.042,377.892L143.774,375.951L140.598,375.861L139.499,374.098L140.277,372.383L140.231,366.232L142.449,364.904L145.146,362.321L145.557,357.406L147.204,353.908L149.147,351.805L152.416,350.09L153.695,349.36L154.452,347.876L153.583,346.984L152.623,345.474L151.686,340.125L148.782,334.889L148.879,332.103L146.678,328.854L131.679,305.625L112.247,276.911L89.82,243.877L77.117,224.332L78.914,217.124L85.726,191.175L93.842,159.74L81.477,156.403L67.988,152.973L55.414,148.858L47.87,146.801L36.438,143.828L29.388,141.417L27.807,146.141L27.646,153.577L22.473,165.379L19.401,167.965L19.078,169.097L17.3,169.905L15.845,174.108L15.036,177.342L17.785,181.545L19.401,185.748L20.533,189.304L20.209,195.771L18.431,198.842L17.785,204.662L16.815,208.38L18.593,212.26L21.341,216.787L23.604,221.637L24.898,225.678L24.574,228.911L24.251,229.396L24.251,231.498L29.909,237.803L29.424,240.227L28.777,242.491L28.131,244.431L28.292,252.675L30.394,256.394L32.334,258.98L35.082,259.465L36.052,262.213L34.921,265.77L32.819,267.386L31.687,267.386L30.879,271.266L31.364,274.176L34.597,278.541L36.214,283.876L37.669,288.564L38.962,291.636L42.357,297.455L43.812,300.042L44.297,302.952L45.913,303.922L45.913,306.347L45.105,308.287L43.327,315.4L42.842,317.34L45.267,320.088L49.47,320.573L53.996,322.351L57.876,324.453L60.786,324.453L63.696,327.524L66.283,332.374L67.414,334.637L71.294,336.739L76.144,337.547L77.599,339.649L78.246,342.882L76.791,343.529L77.114,344.498L80.347,345.307L83.095,345.468L86.005,350.157L89.885,354.36L90.693,356.623L93.28,360.826L93.603,364.059L93.603,373.436L94.088,375.214L104.111,376.669L123.834,379.417L137.741,380.392ZM49.794,330.675L51.087,332.211L50.925,333.504L47.692,333.423L47.126,332.211L46.48,330.756L49.794,330.675ZM51.734,330.675L52.946,330.029L56.503,332.13L59.574,333.343L58.685,333.989L54.158,333.747L52.542,332.13L51.734,330.675ZM72.426,350.479L74.204,352.823L75.013,353.793L76.549,354.358L77.114,352.904L76.144,351.125L73.477,349.104L72.426,349.266L72.426,350.479ZM70.971,359.127L72.749,362.28L73.962,364.22L72.507,364.462L71.214,363.25C71.214,363.25 70.486,361.795 70.486,361.391L70.486,359.208L70.971,359.127Z" style="fill:rgb(46,98,126);fill-opacity:0.15;fill-rule:nonzero;"/>
        </g>
        <g id="California1" serif:id="California" transform="matrix(1.043,0,0,1.03099,35.3829,-143.854)">
            <path d="M137.741,380.392L141.556,379.903L143.042,377.892L143.774,375.951L140.598,375.861L139.499,374.098L140.277,372.383L140.231,366.232L142.449,364.904L145.146,362.321L145.557,357.406L147.204,353.908L149.147,351.805L152.416,350.09L153.695,349.36L154.452,347.876L153.583,346.984L152.623,345.474L151.686,340.125L148.782,334.889L148.879,332.103L146.678,328.854L131.679,305.625L112.247,276.911L89.82,243.877L77.117,224.332L78.914,217.124L85.726,191.175L93.842,159.74L81.477,156.403L67.988,152.973L55.414,148.858L47.87,146.801L36.438,143.828L29.388,141.417L27.807,146.141L27.646,153.577L22.473,165.379L19.401,167.965L19.078,169.097L17.3,169.905L15.845,174.108L15.036,177.342L17.785,181.545L19.401,185.748L20.533,189.304L20.209,195.771L18.431,198.842L17.785,204.662L16.815,208.38L18.593,212.26L21.341,216.787L23.604,221.637L24.898,225.678L24.574,228.911L24.251,229.396L24.251,231.498L29.909,237.803L29.424,240.227L28.777,242.491L28.131,244.431L28.292,252.675L30.394,256.394L32.334,258.98L35.082,259.465L36.052,262.213L34.921,265.77L32.819,267.386L31.687,267.386L30.879,271.266L31.364,274.176L34.597,278.541L36.214,283.876L37.669,288.564L38.962,291.636L42.357,297.455L43.812,300.042L44.297,302.952L45.913,303.922L45.913,306.347L45.105,308.287L43.327,315.4L42.842,317.34L45.267,320.088L49.47,320.573L53.996,322.351L57.876,324.453L60.786,324.453L63.696,327.524L66.283,332.374L67.414,334.637L71.294,336.739L76.144,337.547L77.599,339.649L78.246,342.882L76.791,343.529L77.114,344.498L80.347,345.307L83.095,345.468L86.005,350.157L89.885,354.36L90.693,356.623L93.28,360.826L93.603,364.059L93.603,373.436L94.088,375.214L104.111,376.669L123.834,379.417L137.741,380.392ZM49.794,330.675L51.087,332.211L50.925,333.504L47.692,333.423L47.126,332.211L46.48,330.756L49.794,330.675ZM51.734,330.675L52.946,330.029L56.503,332.13L59.574,333.343L58.685,333.989L54.158,333.747L52.542,332.13L51.734,330.675ZM72.426,350.479L74.204,352.823L75.013,353.793L76.549,354.358L77.114,352.904L76.144,351.125L73.477,349.104L72.426,349.266L72.426,350.479ZM70.971,359.127L72.749,362.28L73.962,364.22L72.507,364.462L71.214,363.25C71.214,363.25 70.486,361.795 70.486,361.391L70.486,359.208L70.971,359.127Z" style="fill:rgb(0,156,244);fill-rule:nonzero;"/>
        </g>
    </g>
</svg>
