<?xml version="1.0" encoding="UTF-8" standalone="no"?>
<!DOCTYPE svg PUBLIC "-//W3C//DTD SVG 1.1//EN" "http://www.w3.org/Graphics/SVG/1.1/DTD/svg11.dtd">
<svg width="100%" height="100%" viewBox="0 0 271 270" version="1.1" xmlns="http://www.w3.org/2000/svg" xmlns:xlink="http://www.w3.org/1999/xlink" xml:space="preserve" xmlns:serif="http://www.serif.com/" style="fill-rule:evenodd;clip-rule:evenodd;stroke-linejoin:round;stroke-miterlimit:2;">
    <g id="CO" transform="matrix(1.04043,-0.0519455,0.0518777,1.03908,-11.2131,0.615156)">
        <g id="Colorado" transform="matrix(1.974,0,0,1.95126,-489.361,-371.519)">
            <path d="M379.621,250.435L381.061,229.153L348.966,226.088L324.503,223.389L287.237,219.274L266.547,216.759L263.918,238.935L260.717,261.34L256.965,289.327L255.459,300.435L255.208,303.198L289.135,306.992L326.875,311.259L358.836,314.425L375.444,315.271" style="fill:rgb(46,98,126);fill-opacity:0.15;fill-rule:nonzero;"/>
        </g>
        <g id="Colorado1" serif:id="Colorado" transform="matrix(1.974,0,0,1.95126,-501.361,-385.519)">
            <path d="M379.621,250.435L381.061,229.153L348.966,226.088L324.503,223.389L287.237,219.274L266.547,216.759L263.918,238.935L260.717,261.34L256.965,289.327L255.459,300.435L255.208,303.198L289.135,306.992L326.875,311.259L358.836,314.425L375.444,315.271" style="fill:rgb(0,156,244);fill-rule:nonzero;"/>
        </g>
    </g>
</svg>
