<?xml version="1.0" encoding="UTF-8" standalone="no"?>
<!DOCTYPE svg PUBLIC "-//W3C//DTD SVG 1.1//EN" "http://www.w3.org/Graphics/SVG/1.1/DTD/svg11.dtd">
<svg width="100%" height="100%" viewBox="0 0 271 270" version="1.1" xmlns="http://www.w3.org/2000/svg" xmlns:xlink="http://www.w3.org/1999/xlink" xml:space="preserve" xmlns:serif="http://www.serif.com/" style="fill-rule:evenodd;clip-rule:evenodd;stroke-linejoin:round;stroke-miterlimit:2;">
    <g id="CT" transform="matrix(1.01732,0,0,1.01732,0.157617,9.09537)">
        <g id="Connecticut" transform="matrix(8.11809,1.30244,-1.28744,8.02456,-6612.38,-2362.83)">
            <path d="M874.193,173.689L873.566,169.484L872.757,165.119L871.141,159.138L866.989,160.043L845.165,164.812L845.811,168.126L847.266,175.4L847.266,183.483L846.135,185.747L847.967,187.856L852.923,184.455L856.479,181.221L858.419,179.12L859.227,179.766L861.975,178.312L867.149,177.18L874.193,173.689Z" style="fill:rgb(46,98,126);fill-opacity:0.15;fill-rule:nonzero;"/>
        </g>
        <g id="Connecticut1" serif:id="Connecticut" transform="matrix(8.11809,1.30244,-1.28744,8.02456,-6628.38,-2374.83)">
            <path d="M874.193,173.689L873.566,169.484L872.757,165.119L871.141,159.138L866.989,160.043L845.165,164.812L845.811,168.126L847.266,175.4L847.266,183.483L846.135,185.747L847.967,187.856L852.923,184.455L856.479,181.221L858.419,179.12L859.227,179.766L861.975,178.312L867.149,177.18L874.193,173.689Z" style="fill:rgb(0,156,244);fill-rule:nonzero;"/>
        </g>
    </g>
</svg>
