<?xml version="1.0" encoding="UTF-8" standalone="no"?>
<!DOCTYPE svg PUBLIC "-//W3C//DTD SVG 1.1//EN" "http://www.w3.org/Graphics/SVG/1.1/DTD/svg11.dtd">
<svg width="100%" height="100%" viewBox="0 0 271 270" version="1.1" xmlns="http://www.w3.org/2000/svg" xmlns:xlink="http://www.w3.org/1999/xlink" xml:space="preserve" xmlns:serif="http://www.serif.com/" style="fill-rule:evenodd;clip-rule:evenodd;stroke-linejoin:round;stroke-miterlimit:2;">
    <g id="DE" transform="matrix(1.02526,0,0,1.03359,10.7698,-3.17379)">
        <g id="Delaware" transform="matrix(8.66041,0,0,8.56063,-7026.37,-1873.89)">
            <path d="M823.353,224.061L823.942,221.959L823.963,220.754L822.694,220.665L820.592,222.282L819.137,223.737L820.592,227.94L822.856,233.598L824.957,243.298L826.574,249.603L831.585,249.441L837.727,248.229L835.463,240.874L834.493,241.359L830.937,238.934L829.158,234.246L827.218,230.689L824.955,229.72L822.854,226.163L823.353,224.061Z" style="fill:rgb(46,98,126);fill-opacity:0.15;fill-rule:nonzero;"/>
        </g>
        <g id="Delaware1" serif:id="Delaware" transform="matrix(8.66041,0,0,8.56063,-7045.37,-1883.86)">
            <path d="M823.353,224.061L823.942,221.959L823.963,220.754L822.694,220.665L820.592,222.282L819.137,223.737L820.592,227.94L822.856,233.598L824.957,243.298L826.574,249.603L831.585,249.441L837.727,248.229L835.463,240.874L834.493,241.359L830.937,238.934L829.158,234.246L827.218,230.689L824.955,229.72L822.854,226.163L823.353,224.061Z" style="fill:rgb(0,156,244);fill-rule:nonzero;"/>
        </g>
    </g>
</svg>
