<?xml version="1.0" encoding="UTF-8" standalone="no"?>
<!DOCTYPE svg PUBLIC "-//W3C//DTD SVG 1.1//EN" "http://www.w3.org/Graphics/SVG/1.1/DTD/svg11.dtd">
<svg width="100%" height="100%" viewBox="0 0 271 270" version="1.1" xmlns="http://www.w3.org/2000/svg" xmlns:xlink="http://www.w3.org/1999/xlink" xml:space="preserve" xmlns:serif="http://www.serif.com/" style="fill-rule:evenodd;clip-rule:evenodd;stroke-linejoin:round;stroke-miterlimit:2;">
    <g id="FL" transform="matrix(1.0238,0,0,1.02934,-0.47523,18.1862)">
        <g id="Florida" transform="matrix(1.55853,0,0,1.54057,-981.674,-646.542)">
            <path d="M756.397,439.145L758.663,446.464L762.393,456.206L767.727,465.582L771.446,471.887L776.295,477.383L780.337,481.102L781.954,484.011L780.822,485.305L780.014,486.598L782.924,494.034L785.833,496.944L788.42,502.279L791.977,508.099L796.503,516.344L797.796,523.942L798.281,535.904L798.928,537.683L798.605,541.078L796.18,542.371L796.503,544.311L795.856,546.251L796.18,548.676L796.665,550.616L793.916,553.849L790.845,555.304L786.965,555.465L785.51,557.082L783.085,558.052L781.792,557.567L780.66,556.597L780.337,553.687L779.529,550.292L776.134,545.119L772.577,542.856L768.697,542.533L767.889,543.826L764.818,539.461L764.171,535.904L761.584,531.863L759.806,530.731L758.189,532.833L756.411,532.51L754.31,527.498L751.4,523.618L748.49,518.283L745.903,515.212L742.347,511.494L744.448,509.069L747.682,503.572L747.52,501.956L742.993,500.986L741.377,501.632L741.7,502.279L744.287,503.249L742.832,507.776L742.023,508.261L740.245,504.219L738.952,499.369L738.629,496.621L740.083,491.933L740.083,482.395L737.012,478.677L735.719,475.605L730.546,474.312L728.606,473.665L726.989,471.079L723.594,469.462L722.462,466.067L719.714,465.097L717.289,461.379L713.086,459.924L710.176,458.469L707.59,458.469L703.548,459.277L703.387,461.217L704.195,462.187L703.71,463.319L700.638,463.157L696.92,466.714L693.364,468.654L689.484,468.654L686.251,469.947L685.927,467.199L684.311,465.259L681.401,464.127L679.784,462.672L671.701,458.792L664.103,457.014L659.738,457.661L653.757,458.146L647.775,460.247L644.296,460.86L644.058,452.811L641.472,450.871L639.693,449.092L640.017,446.021L650.201,444.728L675.744,441.818L682.533,441.171L687.969,441.451L690.556,445.331L692.011,446.786L700.109,447.301L710.929,446.655L732.441,445.361L737.887,444.687L742.464,444.715L742.626,447.625L746.45,448.433L746.773,443.626L745.157,439.1L746.111,438.367L751.224,438.822L756.397,439.145ZM768.943,571.55L771.368,570.903L772.661,570.661L774.116,568.317L776.46,566.7L777.753,567.185L779.451,567.509L779.855,568.559L776.379,569.772L772.176,571.227L769.832,572.439L768.943,571.55ZM782.441,566.539L783.654,567.589L786.402,565.488L791.737,561.285L795.455,557.405L797.961,550.777L798.931,549.079L799.092,545.684L798.365,546.169L797.395,548.998L795.94,553.606L792.707,558.86L788.342,563.063L784.947,565.003L782.441,566.539Z" style="fill:rgb(46,98,126);fill-opacity:0.15;fill-rule:nonzero;"/>
        </g>
        <g id="Florida1" serif:id="Florida" transform="matrix(1.55853,0,0,1.54057,-995.674,-659.542)">
            <path d="M756.397,439.145L758.663,446.464L762.393,456.206L767.727,465.582L771.446,471.887L776.295,477.383L780.337,481.102L781.954,484.011L780.822,485.305L780.014,486.598L782.924,494.034L785.833,496.944L788.42,502.279L791.977,508.099L796.503,516.344L797.796,523.942L798.281,535.904L798.928,537.683L798.605,541.078L796.18,542.371L796.503,544.311L795.856,546.251L796.18,548.676L796.665,550.616L793.916,553.849L790.845,555.304L786.965,555.465L785.51,557.082L783.085,558.052L781.792,557.567L780.66,556.597L780.337,553.687L779.529,550.292L776.134,545.119L772.577,542.856L768.697,542.533L767.889,543.826L764.818,539.461L764.171,535.904L761.584,531.863L759.806,530.731L758.189,532.833L756.411,532.51L754.31,527.498L751.4,523.618L748.49,518.283L745.903,515.212L742.347,511.494L744.448,509.069L747.682,503.572L747.52,501.956L742.993,500.986L741.377,501.632L741.7,502.279L744.287,503.249L742.832,507.776L742.023,508.261L740.245,504.219L738.952,499.369L738.629,496.621L740.083,491.933L740.083,482.395L737.012,478.677L735.719,475.605L730.546,474.312L728.606,473.665L726.989,471.079L723.594,469.462L722.462,466.067L719.714,465.097L717.289,461.379L713.086,459.924L710.176,458.469L707.59,458.469L703.548,459.277L703.387,461.217L704.195,462.187L703.71,463.319L700.638,463.157L696.92,466.714L693.364,468.654L689.484,468.654L686.251,469.947L685.927,467.199L684.311,465.259L681.401,464.127L679.784,462.672L671.701,458.792L664.103,457.014L659.738,457.661L653.757,458.146L647.775,460.247L644.296,460.86L644.058,452.811L641.472,450.871L639.693,449.092L640.017,446.021L650.201,444.728L675.744,441.818L682.533,441.171L687.969,441.451L690.556,445.331L692.011,446.786L700.109,447.301L710.929,446.655L732.441,445.361L737.887,444.687L742.464,444.715L742.626,447.625L746.45,448.433L746.773,443.626L745.157,439.1L746.111,438.367L751.224,438.822L756.397,439.145ZM768.943,571.55L771.368,570.903L772.661,570.661L774.116,568.317L776.46,566.7L777.753,567.185L779.451,567.509L779.855,568.559L776.379,569.772L772.176,571.227L769.832,572.439L768.943,571.55ZM782.441,566.539L783.654,567.589L786.402,565.488L791.737,561.285L795.455,557.405L797.961,550.777L798.931,549.079L799.092,545.684L798.365,546.169L797.395,548.998L795.94,553.606L792.707,558.86L788.342,563.063L784.947,565.003L782.441,566.539Z" style="fill:rgb(0,156,244);fill-rule:nonzero;"/>
        </g>
    </g>
</svg>
