<?xml version="1.0" encoding="UTF-8" standalone="no"?>
<!DOCTYPE svg PUBLIC "-//W3C//DTD SVG 1.1//EN" "http://www.w3.org/Graphics/SVG/1.1/DTD/svg11.dtd">
<svg width="100%" height="100%" viewBox="0 0 271 270" version="1.1" xmlns="http://www.w3.org/2000/svg" xmlns:xlink="http://www.w3.org/1999/xlink" xml:space="preserve" xmlns:serif="http://www.serif.com/" style="fill-rule:evenodd;clip-rule:evenodd;stroke-linejoin:round;stroke-miterlimit:2;">
    <g id="GA" transform="matrix(1.0305,0,0,1.01922,-11.3802,0.171125)">
        <g id="Georgia" transform="matrix(2.47897,0.231501,-0.228834,2.4504,-1532.74,-1006.45)">
            <path d="M690.616,351.611L685.767,352.419L677.36,353.551L668.792,354.44L668.792,356.622L668.954,358.724L669.601,362.119L672.995,370.04L675.42,379.902L676.875,386.045L678.492,390.895L679.947,397.846L682.048,404.151L684.635,407.546L685.12,410.94L687.06,411.749L687.222,413.85L685.443,418.7L684.958,421.933L684.797,423.873L686.413,428.238L686.737,433.573L685.928,435.998L686.575,436.806L688.03,437.614L688.677,441.009L691.263,444.889L692.718,446.344L700.639,446.506L711.459,445.859L732.972,444.566L738.417,443.892L742.995,443.919L743.156,446.829L745.743,447.637L746.066,443.273L744.45,438.746L745.581,437.129L751.401,437.938L756.378,438.256L755.603,431.957L757.866,421.934L759.321,417.731L758.836,415.144L762.171,408.9L761.66,407.548L759.747,408.253L757.16,406.959L756.514,404.858L755.22,401.301L752.957,399.2L750.37,398.553L748.754,393.703L745.829,387.368L741.626,385.428L739.524,383.488L738.231,380.902L736.129,378.962L733.866,377.669L731.603,374.759L728.531,372.495L724.005,370.717L723.52,369.262L721.095,366.352L720.61,364.897L717.215,359.989L713.82,360.151L709.69,357.107L708.397,355.814L708.074,354.036L708.882,352.096L711.233,350.861L710.1,349.639L710.177,349.348L704.358,350.318L697.406,351.126L690.616,351.611Z" style="fill:rgb(46,98,126);fill-opacity:0.15;fill-rule:nonzero;"/>
        </g>
        <g id="Georgia1" serif:id="Georgia" transform="matrix(2.47897,0.231501,-0.228834,2.4504,-1550.74,-1019.45)">
            <path d="M690.616,351.611L685.767,352.419L677.36,353.551L668.792,354.44L668.792,356.622L668.954,358.724L669.601,362.119L672.995,370.04L675.42,379.902L676.875,386.045L678.492,390.895L679.947,397.846L682.048,404.151L684.635,407.546L685.12,410.94L687.06,411.749L687.222,413.85L685.443,418.7L684.958,421.933L684.797,423.873L686.413,428.238L686.737,433.573L685.928,435.998L686.575,436.806L688.03,437.614L688.677,441.009L691.263,444.889L692.718,446.344L700.639,446.506L711.459,445.859L732.972,444.566L738.417,443.892L742.995,443.919L743.156,446.829L745.743,447.637L746.066,443.273L744.45,438.746L745.581,437.129L751.401,437.938L756.378,438.256L755.603,431.957L757.866,421.934L759.321,417.731L758.836,415.144L762.171,408.9L761.66,407.548L759.747,408.253L757.16,406.959L756.514,404.858L755.22,401.301L752.957,399.2L750.37,398.553L748.754,393.703L745.829,387.368L741.626,385.428L739.524,383.488L738.231,380.902L736.129,378.962L733.866,377.669L731.603,374.759L728.531,372.495L724.005,370.717L723.52,369.262L721.095,366.352L720.61,364.897L717.215,359.989L713.82,360.151L709.69,357.107L708.397,355.814L708.074,354.036L708.882,352.096L711.233,350.861L710.1,349.639L710.177,349.348L704.358,350.318L697.406,351.126L690.616,351.611Z" style="fill:rgb(0,156,244);fill-rule:nonzero;"/>
        </g>
    </g>
</svg>
