<?xml version="1.0" encoding="UTF-8" standalone="no"?>
<!DOCTYPE svg PUBLIC "-//W3C//DTD SVG 1.1//EN" "http://www.w3.org/Graphics/SVG/1.1/DTD/svg11.dtd">
<svg width="100%" height="100%" viewBox="0 0 271 270" version="1.1" xmlns="http://www.w3.org/2000/svg" xmlns:xlink="http://www.w3.org/1999/xlink" xml:space="preserve" xmlns:serif="http://www.serif.com/" style="fill-rule:evenodd;clip-rule:evenodd;stroke-linejoin:round;stroke-miterlimit:2;">
    <g id="HI" transform="matrix(1.01701,0,0,1.01701,0.884646,31.3771)">
        <g id="Hawaii" transform="matrix(2.1427,0,0,2.11802,-483.799,-1023.3)">
            <path d="M234.088,512.948L236.027,509.391L238.291,509.068L238.614,509.876L236.512,512.948L234.088,512.948ZM244.272,509.23L250.415,511.816L252.517,511.493L254.134,507.613L253.487,504.218L249.284,503.733L245.242,505.511L244.272,509.23ZM274.988,519.253L278.706,524.749L281.131,524.426L282.263,523.941L283.717,525.234L287.436,525.072L288.406,523.617L285.496,521.839L283.556,518.121L281.454,514.564L275.634,517.474L274.988,519.253ZM295.195,528.144L296.489,526.204L301.177,527.174L301.824,526.689L307.967,527.336L307.643,528.629L305.057,530.084L300.692,529.76L295.195,528.144ZM300.53,533.317L302.47,537.197L305.542,536.065L305.865,534.449L304.248,532.347L300.53,532.024L300.53,533.317ZM307.482,532.185L309.745,529.275L314.433,531.7L318.798,532.832L323.163,535.58L323.163,537.52L319.606,539.298L314.756,540.268L312.332,538.814L307.482,532.185ZM324.133,547.705L325.749,546.412L329.144,548.028L336.742,551.585L340.137,553.686L341.754,556.111L343.694,560.476L347.735,563.063L347.412,564.356L343.532,567.589L339.329,569.044L337.874,568.398L334.802,570.176L332.378,573.409L330.114,576.319L328.336,576.157L324.779,573.571L324.456,569.044L325.103,566.619L323.486,560.961L321.385,559.183L321.223,556.596L323.486,555.626L325.588,552.555L326.073,551.585L324.456,549.806L324.133,547.705Z" style="fill:rgb(46,98,126);fill-opacity:0.15;fill-rule:nonzero;"/>
        </g>
        <g id="Hawaii1" serif:id="Hawaii" transform="matrix(2.1427,0,0,2.11802,-494.799,-1030.3)">
            <path d="M234.088,512.948L236.027,509.391L238.291,509.068L238.614,509.876L236.512,512.948L234.088,512.948ZM244.272,509.23L250.415,511.816L252.517,511.493L254.134,507.613L253.487,504.218L249.284,503.733L245.242,505.511L244.272,509.23ZM274.988,519.253L278.706,524.749L281.131,524.426L282.263,523.941L283.717,525.234L287.436,525.072L288.406,523.617L285.496,521.839L283.556,518.121L281.454,514.564L275.634,517.474L274.988,519.253ZM295.195,528.144L296.489,526.204L301.177,527.174L301.824,526.689L307.967,527.336L307.643,528.629L305.057,530.084L300.692,529.76L295.195,528.144ZM300.53,533.317L302.47,537.197L305.542,536.065L305.865,534.449L304.248,532.347L300.53,532.024L300.53,533.317ZM307.482,532.185L309.745,529.275L314.433,531.7L318.798,532.832L323.163,535.58L323.163,537.52L319.606,539.298L314.756,540.268L312.332,538.814L307.482,532.185ZM324.133,547.705L325.749,546.412L329.144,548.028L336.742,551.585L340.137,553.686L341.754,556.111L343.694,560.476L347.735,563.063L347.412,564.356L343.532,567.589L339.329,569.044L337.874,568.398L334.802,570.176L332.378,573.409L330.114,576.319L328.336,576.157L324.779,573.571L324.456,569.044L325.103,566.619L323.486,560.961L321.385,559.183L321.223,556.596L323.486,555.626L325.588,552.555L326.073,551.585L324.456,549.806L324.133,547.705Z" style="fill:rgb(0,156,244);fill-rule:nonzero;"/>
        </g>
    </g>
</svg>
