<?xml version="1.0" encoding="UTF-8" standalone="no"?>
<!DOCTYPE svg PUBLIC "-//W3C//DTD SVG 1.1//EN" "http://www.w3.org/Graphics/SVG/1.1/DTD/svg11.dtd">
<svg width="100%" height="100%" viewBox="0 0 271 270" version="1.1" xmlns="http://www.w3.org/2000/svg" xmlns:xlink="http://www.w3.org/1999/xlink" xml:space="preserve" xmlns:serif="http://www.serif.com/" style="fill-rule:evenodd;clip-rule:evenodd;stroke-linejoin:round;stroke-miterlimit:2;">
    <g id="IL" transform="matrix(1,0,0,1,20,1)">
        <g id="Illinois" transform="matrix(2.1264,0,0,2.1019,-1134.2,-395.557)">
            <path d="M618.805,295.24L618.805,291.635L619.063,286.768L621.44,283.631L623.218,279.865L625.805,276.002L625.433,270.75L623.428,267.207L623.331,263.86L624.026,258.591L623.201,251.412L622.134,235.635L620.841,220.618L619.919,208.978L619.646,208.057L618.838,205.47L617.545,201.752L615.928,199.974L614.473,197.387L614.24,191.898L604.337,193.211L577.131,194.925L568.443,194.497L568.672,196.869L570.958,197.555L571.873,198.698L572.33,200.527L576.216,203.956L576.902,206.242L576.216,209.672L574.387,213.33L573.702,215.844L571.415,217.673L569.586,218.359L564.328,219.731L563.642,221.56L562.956,223.618L563.642,224.989L565.471,226.59L565.243,230.705L563.414,232.305L562.728,233.906L562.728,236.649L560.899,237.106L559.298,238.249L559.07,239.621L559.298,241.679L557.584,242.993L556.555,245.794L557.012,249.452L559.298,256.768L566.614,264.312L572.101,267.97L571.873,272.314L572.787,273.686L579.189,274.143L581.932,275.515L581.246,279.173L578.96,285.117L578.274,288.318L580.56,292.204L586.962,297.463L591.534,298.149L593.592,303.178L595.649,306.379L594.735,309.351L596.335,313.466L598.164,315.524L600.109,314.732L600.795,312.568L602.832,311.131L606.068,310.03L609.157,311.21L612.032,312.276L612.823,312.066L612.758,310.824L611.692,308.059L612.129,305.682L614.409,304.114L616.769,303.127L617.931,302.707L617.35,301.383L616.59,299.216L617.835,297.954L618.805,295.24Z" style="fill:rgb(46,98,126);fill-opacity:0.15;fill-rule:nonzero;"/>
        </g>
        <g id="Illinois1" serif:id="Illinois" transform="matrix(2.1264,0,0,2.1019,-1146.62,-401.787)">
            <path d="M618.805,295.24L618.805,291.635L619.063,286.768L621.44,283.631L623.218,279.865L625.805,276.002L625.433,270.75L623.428,267.207L623.331,263.86L624.026,258.591L623.201,251.412L622.134,235.635L620.841,220.618L619.919,208.978L619.646,208.057L618.838,205.47L617.545,201.752L615.928,199.974L614.473,197.387L614.24,191.898L604.337,193.211L577.131,194.925L568.443,194.497L568.672,196.869L570.958,197.555L571.873,198.698L572.33,200.527L576.216,203.956L576.902,206.242L576.216,209.672L574.387,213.33L573.702,215.844L571.415,217.673L569.586,218.359L564.328,219.731L563.642,221.56L562.956,223.618L563.642,224.989L565.471,226.59L565.243,230.705L563.414,232.305L562.728,233.906L562.728,236.649L560.899,237.106L559.298,238.249L559.07,239.621L559.298,241.679L557.584,242.993L556.555,245.794L557.012,249.452L559.298,256.768L566.614,264.312L572.101,267.97L571.873,272.314L572.787,273.686L579.189,274.143L581.932,275.515L581.246,279.173L578.96,285.117L578.274,288.318L580.56,292.204L586.962,297.463L591.534,298.149L593.592,303.178L595.649,306.379L594.735,309.351L596.335,313.466L598.164,315.524L600.109,314.732L600.795,312.568L602.832,311.131L606.068,310.03L609.157,311.21L612.032,312.276L612.823,312.066L612.758,310.824L611.692,308.059L612.129,305.682L614.409,304.114L616.769,303.127L617.931,302.707L617.35,301.383L616.59,299.216L617.835,297.954L618.805,295.24Z" style="fill:rgb(0,156,244);fill-rule:nonzero;"/>
        </g>
    </g>
</svg>
