<?xml version="1.0" encoding="UTF-8" standalone="no"?>
<!DOCTYPE svg PUBLIC "-//W3C//DTD SVG 1.1//EN" "http://www.w3.org/Graphics/SVG/1.1/DTD/svg11.dtd">
<svg width="100%" height="100%" viewBox="0 0 271 270" version="1.1" xmlns="http://www.w3.org/2000/svg" xmlns:xlink="http://www.w3.org/1999/xlink" xml:space="preserve" xmlns:serif="http://www.serif.com/" style="fill-rule:evenodd;clip-rule:evenodd;stroke-linejoin:round;stroke-miterlimit:2;">
    <g id="ID" transform="matrix(1,0,0,1,22,0)">
        <g id="Indiana" transform="matrix(2.86894,0,0,2.83588,-1722.65,-564.575)">
            <path d="M619.42,294.493L619.486,291.635L619.971,287.108L622.234,284.198L624.012,280.319L626.599,276.115L626.114,270.296L624.336,267.547L624.012,264.314L624.821,258.818L624.336,251.866L623.042,235.862L621.749,220.504L620.779,208.784L623.85,209.674L625.305,210.644L626.436,210.32L628.538,208.38L631.367,206.763L636.46,206.601L658.446,204.338L664.022,203.805L665.525,219.761L669.776,256.603L670.375,262.374L670.003,264.638L671.231,266.433L671.328,267.805L668.806,269.405L665.267,270.956L662.065,271.507L661.466,276.373L656.892,279.686L654.095,283.696L654.418,286.073L653.837,287.607L650.511,287.607L648.925,285.991L646.432,287.253L643.749,288.756L643.911,291.81L642.717,292.069L642.249,291.05L640.082,289.547L636.832,290.889L635.28,293.895L633.843,293.087L632.388,291.487L627.923,291.972L622.33,292.942L619.42,294.493Z" style="fill:rgb(46,98,126);fill-opacity:0.15;fill-rule:nonzero;"/>
        </g>
        <g id="Indiana1" serif:id="Indiana" transform="matrix(2.86894,0,0,2.83588,-1736.65,-576.575)">
            <path d="M619.42,294.493L619.486,291.635L619.971,287.108L622.234,284.198L624.012,280.319L626.599,276.115L626.114,270.296L624.336,267.547L624.012,264.314L624.821,258.818L624.336,251.866L623.042,235.862L621.749,220.504L620.779,208.784L623.85,209.674L625.305,210.644L626.436,210.32L628.538,208.38L631.367,206.763L636.46,206.601L658.446,204.338L664.022,203.805L665.525,219.761L669.776,256.603L670.375,262.374L670.003,264.638L671.231,266.433L671.328,267.805L668.806,269.405L665.267,270.956L662.065,271.507L661.466,276.373L656.892,279.686L654.095,283.696L654.418,286.073L653.837,287.607L650.511,287.607L648.925,285.991L646.432,287.253L643.749,288.756L643.911,291.81L642.717,292.069L642.249,291.05L640.082,289.547L636.832,290.889L635.28,293.895L633.843,293.087L632.388,291.487L627.923,291.972L622.33,292.942L619.42,294.493Z" style="fill:rgb(0,156,244);fill-rule:nonzero;"/>
        </g>
    </g>
</svg>
