<?xml version="1.0" encoding="UTF-8" standalone="no"?>
<!DOCTYPE svg PUBLIC "-//W3C//DTD SVG 1.1//EN" "http://www.w3.org/Graphics/SVG/1.1/DTD/svg11.dtd">
<svg width="100%" height="100%" viewBox="0 0 271 270" version="1.1" xmlns="http://www.w3.org/2000/svg" xmlns:xlink="http://www.w3.org/1999/xlink" xml:space="preserve" xmlns:serif="http://www.serif.com/" style="fill-rule:evenodd;clip-rule:evenodd;stroke-linejoin:round;stroke-miterlimit:2;">
    <g id="IA" transform="matrix(0.984716,0,0,0.984716,0.0152647,23.6731)">
        <g id="Iowa" transform="matrix(2.46289,0,0,2.43451,-1144.4,-380.957)">
            <path d="M567.594,195.267L567.764,197.209L570.05,198.349L571.192,199.605L571.536,200.867L575.422,204.069L576.108,206.242L575.309,209.104L573.82,212.649L573.021,215.39L570.848,216.992L569.133,217.565L563.647,219.05L562.961,221.333L562.162,223.618L562.734,224.989L564.45,226.703L564.448,230.364L562.279,231.965L561.82,233.452L561.82,235.968L560.331,236.425L558.617,237.795L558.162,239.281L558.617,240.998L557.243,242.202L554.949,239.511L553.466,236.884L545.125,237.684L534.954,238.254L509.917,238.942L496.882,239.171L487.509,239.399L486.193,239.52L484.538,235.049L484.31,228.419L482.709,224.303L482.024,219.045L479.737,215.387L478.823,210.586L476.079,203.041L474.936,197.669L473.565,195.497L471.964,192.753L473.793,188.41L475.165,182.694L472.421,180.636L471.964,177.893L472.879,175.378L486.139,175.378L535.75,174.692L555.627,174.006L557.477,176.753L559.31,179.375L559.765,180.179L557.935,182.928L558.39,187.15L560.905,191.036L563.874,192.86L566.279,193.091L567.594,195.267Z" style="fill:rgb(46,98,126);fill-opacity:0.15;fill-rule:nonzero;"/>
        </g>
        <g id="Iowa1" serif:id="Iowa" transform="matrix(2.46289,0,0,2.43451,-1161.4,-394.957)">
            <path d="M567.594,195.267L567.764,197.209L570.05,198.349L571.192,199.605L571.536,200.867L575.422,204.069L576.108,206.242L575.309,209.104L573.82,212.649L573.021,215.39L570.848,216.992L569.133,217.565L563.647,219.05L562.961,221.333L562.162,223.618L562.734,224.989L564.45,226.703L564.448,230.364L562.279,231.965L561.82,233.452L561.82,235.968L560.331,236.425L558.617,237.795L558.162,239.281L558.617,240.998L557.243,242.202L554.949,239.511L553.466,236.884L545.125,237.684L534.954,238.254L509.917,238.942L496.882,239.171L487.509,239.399L486.193,239.52L484.538,235.049L484.31,228.419L482.709,224.303L482.024,219.045L479.737,215.387L478.823,210.586L476.079,203.041L474.936,197.669L473.565,195.497L471.964,192.753L473.793,188.41L475.165,182.694L472.421,180.636L471.964,177.893L472.879,175.378L486.139,175.378L535.75,174.692L555.627,174.006L557.477,176.753L559.31,179.375L559.765,180.179L557.935,182.928L558.39,187.15L560.905,191.036L563.874,192.86L566.279,193.091L567.594,195.267Z" style="fill:rgb(0,156,244);fill-rule:nonzero;"/>
        </g>
    </g>
</svg>
