<?xml version="1.0" encoding="UTF-8" standalone="no"?>
<!DOCTYPE svg PUBLIC "-//W3C//DTD SVG 1.1//EN" "http://www.w3.org/Graphics/SVG/1.1/DTD/svg11.dtd">
<svg width="100%" height="100%" viewBox="0 0 271 270" version="1.1" xmlns="http://www.w3.org/2000/svg" xmlns:xlink="http://www.w3.org/1999/xlink" xml:space="preserve" xmlns:serif="http://www.serif.com/" style="fill-rule:evenodd;clip-rule:evenodd;stroke-linejoin:round;stroke-miterlimit:2;">
    <g id="LA" transform="matrix(1.02205,0,0,1.01781,-0.86214,-1.17224)">
        <g id="Louisiana" transform="matrix(2.54119,0,0,2.51191,-1300.93,-986.737)">
            <path d="M603.202,466.633L602.173,464.017L601.03,460.924L597.714,457.383L598.63,450.633L598.511,449.492L597.25,449.834L589.019,450.747L563.991,451.206L563.307,448.811L564.22,440.355L567.536,434.409L572.567,425.718L571.993,423.32L573.249,422.639L573.708,420.687L571.422,418.631L571.31,416.689L569.48,412.343L569.023,406.402L559.298,406.516L540.094,407.43L517.889,407.459L517.918,417.032L518.604,426.406L519.289,430.292L521.804,434.408L522.719,439.437L527.063,444.924L527.291,448.125L527.977,448.811L527.291,457.27L524.319,462.3L525.92,464.357L525.234,466.872L524.548,474.188L523.176,477.389L523.299,481.005L527.985,479.485L536.068,479.162L546.414,482.718L552.881,483.85L556.599,482.395L559.832,483.526L563.065,484.496L563.874,482.395L560.64,481.263L558.054,481.748L555.306,480.132C555.306,480.132 555.467,478.838 556.114,478.677C556.761,478.515 559.185,477.707 559.185,477.707L560.964,479.162L562.742,478.192L565.975,478.838L567.43,481.263L567.753,483.527L572.28,483.85L574.058,485.628L573.25,487.245L571.957,488.053L573.573,489.67L581.98,493.226L585.536,491.933L586.506,489.508L589.093,488.861L590.871,487.406L592.164,488.376L592.972,491.286L590.709,492.095L591.356,492.741L594.751,491.448L597.014,488.053L597.822,487.568L595.721,487.245L596.529,485.628L596.367,484.173L598.469,483.688L599.601,482.395L600.247,483.203C600.247,483.203 600.086,486.275 600.894,486.275C601.702,486.275 605.097,486.921 605.097,486.921L609.139,488.861L610.109,490.316L613.018,490.316L614.15,491.286L616.413,488.215L616.413,486.76L615.12,486.76L611.725,484.011L605.905,483.203L602.672,480.94L603.804,478.192L606.067,478.515L606.229,477.868L604.45,476.898L604.45,476.413L607.684,476.413L609.462,473.342L608.169,471.402L607.845,468.654L606.39,468.815L604.45,470.917L603.804,473.504L600.732,472.857L599.762,471.079L601.541,469.139L603.561,467.36L603.202,466.633Z" style="fill:rgb(46,98,126);fill-opacity:0.15;fill-rule:nonzero;"/>
        </g>
        <g id="Louisiana1" serif:id="Louisiana" transform="matrix(2.54119,0,0,2.51191,-1314.16,-1000.7)">
            <path d="M603.202,466.633L602.173,464.017L601.03,460.924L597.714,457.383L598.63,450.633L598.511,449.492L597.25,449.834L589.019,450.747L563.991,451.206L563.307,448.811L564.22,440.355L567.536,434.409L572.567,425.718L571.993,423.32L573.249,422.639L573.708,420.687L571.422,418.631L571.31,416.689L569.48,412.343L569.023,406.402L559.298,406.516L540.094,407.43L517.889,407.459L517.918,417.032L518.604,426.406L519.289,430.292L521.804,434.408L522.719,439.437L527.063,444.924L527.291,448.125L527.977,448.811L527.291,457.27L524.319,462.3L525.92,464.357L525.234,466.872L524.548,474.188L523.176,477.389L523.299,481.005L527.985,479.485L536.068,479.162L546.414,482.718L552.881,483.85L556.599,482.395L559.832,483.526L563.065,484.496L563.874,482.395L560.64,481.263L558.054,481.748L555.306,480.132C555.306,480.132 555.467,478.838 556.114,478.677C556.761,478.515 559.185,477.707 559.185,477.707L560.964,479.162L562.742,478.192L565.975,478.838L567.43,481.263L567.753,483.527L572.28,483.85L574.058,485.628L573.25,487.245L571.957,488.053L573.573,489.67L581.98,493.226L585.536,491.933L586.506,489.508L589.093,488.861L590.871,487.406L592.164,488.376L592.972,491.286L590.709,492.095L591.356,492.741L594.751,491.448L597.014,488.053L597.822,487.568L595.721,487.245L596.529,485.628L596.367,484.173L598.469,483.688L599.601,482.395L600.247,483.203C600.247,483.203 600.086,486.275 600.894,486.275C601.702,486.275 605.097,486.921 605.097,486.921L609.139,488.861L610.109,490.316L613.018,490.316L614.15,491.286L616.413,488.215L616.413,486.76L615.12,486.76L611.725,484.011L605.905,483.203L602.672,480.94L603.804,478.192L606.067,478.515L606.229,477.868L604.45,476.898L604.45,476.413L607.684,476.413L609.462,473.342L608.169,471.402L607.845,468.654L606.39,468.815L604.45,470.917L603.804,473.504L600.732,472.857L599.762,471.079L601.541,469.139L603.561,467.36L603.202,466.633Z" style="fill:rgb(0,156,244);fill-rule:nonzero;"/>
        </g>
    </g>
</svg>
