<?xml version="1.0" encoding="UTF-8" standalone="no"?>
<!DOCTYPE svg PUBLIC "-//W3C//DTD SVG 1.1//EN" "http://www.w3.org/Graphics/SVG/1.1/DTD/svg11.dtd">
<svg width="100%" height="100%" viewBox="0 0 271 270" version="1.1" xmlns="http://www.w3.org/2000/svg" xmlns:xlink="http://www.w3.org/1999/xlink" xml:space="preserve" xmlns:serif="http://www.serif.com/" style="fill-rule:evenodd;clip-rule:evenodd;stroke-linejoin:round;stroke-miterlimit:2;">
    <g id="Maine" transform="matrix(2.56002,0.379704,-0.375329,2.53052,-2132.86,-398.558)">
        <path d="M924.215,70.969L926.155,73.071L928.418,76.789L928.418,78.729L926.316,83.417L924.376,84.063L920.982,87.135L916.132,92.631L914.838,92.631C914.192,92.631 913.868,90.53 913.868,90.53L912.09,90.692L911.12,92.146L908.695,93.601L907.725,95.056L909.342,96.511L908.857,97.158L908.372,99.906L906.432,99.745L906.432,98.128L906.109,96.835L904.654,97.158L902.876,93.925L900.774,95.218L902.067,96.673L902.391,97.805L901.582,99.098L901.906,102.169L902.067,103.786L900.451,106.373L897.541,106.858L897.217,109.767L891.883,112.839L890.589,113.324L888.973,111.869L885.901,115.426L886.871,118.659L885.416,119.952L885.255,124.317L884.131,130.576L881.669,129.42L881.184,126.349L877.304,125.217L876.981,122.469L869.706,99.028L865.508,85.388L866.928,85.27L868.442,85.68L868.442,83.093L869.25,77.597L871.837,72.909L873.292,68.867L871.352,66.442L871.352,60.461L872.16,59.491L872.968,56.743L872.807,55.288L872.645,50.438L874.423,45.588L877.333,36.697L879.435,32.494L880.728,32.494L882.021,32.655L882.021,33.787L883.315,36.05L886.063,36.697L886.871,35.889L886.871,34.919L890.913,32.009L892.691,30.231L894.146,30.392L900.127,32.817L902.067,33.787L911.12,63.694L917.102,63.694L917.91,65.634L918.072,70.484L920.982,72.747L921.79,72.747L921.952,72.262L921.467,71.131L924.215,70.969ZM903.283,101.116L904.819,99.581L906.193,100.632L906.759,103.056L905.061,103.946L903.283,101.116ZM909.992,95.216L911.77,97.075C911.77,97.075 913.064,97.156 913.064,96.832C913.064,96.509 913.306,94.812 913.306,94.812L914.195,94.003L913.387,92.225L911.366,92.953L909.992,95.216Z" style="fill:rgb(46,98,126);fill-opacity:0.16;fill-rule:nonzero;"/>
    </g>
    <g id="Maine1" serif:id="Maine" transform="matrix(2.56002,0.379704,-0.375329,2.53052,-2123.96,-412.711)">
        <path d="M924.215,70.969L926.155,73.071L928.418,76.789L928.418,78.729L926.316,83.417L924.376,84.063L920.982,87.135L916.132,92.631L914.838,92.631C914.192,92.631 913.868,90.53 913.868,90.53L912.09,90.692L911.12,92.146L908.695,93.601L907.725,95.056L909.342,96.511L908.857,97.158L908.372,99.906L906.432,99.745L906.432,98.128L906.109,96.835L904.654,97.158L902.876,93.925L900.774,95.218L902.067,96.673L902.391,97.805L901.582,99.098L901.906,102.169L902.067,103.786L900.451,106.373L897.541,106.858L897.217,109.767L891.883,112.839L890.589,113.324L888.973,111.869L885.901,115.426L886.871,118.659L885.416,119.952L885.255,124.317L884.131,130.576L881.669,129.42L881.184,126.349L877.304,125.217L876.981,122.469L869.706,99.028L865.508,85.388L866.928,85.27L868.442,85.68L868.442,83.093L869.25,77.597L871.837,72.909L873.292,68.867L871.352,66.442L871.352,60.461L872.16,59.491L872.968,56.743L872.807,55.288L872.645,50.438L874.423,45.588L877.333,36.697L879.435,32.494L880.728,32.494L882.021,32.655L882.021,33.787L883.315,36.05L886.063,36.697L886.871,35.889L886.871,34.919L890.913,32.009L892.691,30.231L894.146,30.392L900.127,32.817L902.067,33.787L911.12,63.694L917.102,63.694L917.91,65.634L918.072,70.484L920.982,72.747L921.79,72.747L921.952,72.262L921.467,71.131L924.215,70.969ZM903.283,101.116L904.819,99.581L906.193,100.632L906.759,103.056L905.061,103.946L903.283,101.116ZM909.992,95.216L911.77,97.075C911.77,97.075 913.064,97.156 913.064,96.832C913.064,96.509 913.306,94.812 913.306,94.812L914.195,94.003L913.387,92.225L911.366,92.953L909.992,95.216Z" style="fill:rgb(0,156,244);fill-rule:nonzero;"/>
    </g>
</svg>
