<?xml version="1.0" encoding="UTF-8" standalone="no"?>
<!DOCTYPE svg PUBLIC "-//W3C//DTD SVG 1.1//EN" "http://www.w3.org/Graphics/SVG/1.1/DTD/svg11.dtd">
<svg width="100%" height="100%" viewBox="0 0 271 270" version="1.1" xmlns="http://www.w3.org/2000/svg" xmlns:xlink="http://www.w3.org/1999/xlink" xml:space="preserve" xmlns:serif="http://www.serif.com/" style="fill-rule:evenodd;clip-rule:evenodd;stroke-linejoin:round;stroke-miterlimit:2;">
    <g id="MD" transform="matrix(1,0,0,1,1,32)">
        <g id="Maryland" transform="matrix(3.21006,0.204715,-0.201396,3.15801,-2371.27,-817.467)">
            <path d="M837.953,248.943L831.812,250.235L826.006,250.397L824.163,243.298L822.061,233.598L819.798,227.94L818.51,223.542L811.004,225.164L796.127,227.988L758.676,235.538L759.807,240.55L760.777,246.208L761.101,245.885L763.202,243.46L765.465,240.842L767.89,240.227L769.345,238.772L771.124,236.185L772.417,236.832L775.327,236.509L777.913,234.407L779.92,232.954L781.765,232.469L783.41,233.599L786.32,235.054L788.26,236.832L789.472,238.368L793.594,240.065L793.594,242.975L799.091,244.268L800.235,244.81L801.647,242.782L804.529,244.752L803.251,247.234L802.486,251.22L800.707,253.806L800.707,255.908L801.354,257.686L806.418,259.042L810.729,258.98L813.801,259.95L815.902,260.273L816.872,258.172L815.417,256.07L815.417,254.292L812.992,252.19L810.891,246.694L812.184,241.359L812.022,239.258L810.729,237.964C810.729,237.964 812.184,236.348 812.184,235.701C812.184,235.054 812.669,233.599 812.669,233.599L814.609,232.306L816.549,230.69L817.034,231.659L815.579,233.276L814.286,236.994L814.609,238.126L816.387,238.449L816.872,243.946L814.771,244.916L815.094,248.472L815.579,248.31L816.711,246.371L818.327,248.149L816.711,249.442L816.387,252.837L818.974,256.232L822.854,256.717L824.47,255.909L827.707,260.091L829.065,260.628L835.719,257.831L837.726,253.807L837.953,248.943ZM821.321,257.928L822.452,260.433L822.614,262.212L823.746,264.071C823.746,264.071 824.635,263.182 824.635,262.858C824.635,262.535 823.907,259.787 823.907,259.787L823.18,257.443L821.321,257.928Z" style="fill:rgb(46,98,126);fill-opacity:0.15;fill-rule:nonzero;"/>
        </g>
        <g id="Maryland1" serif:id="Maryland" transform="matrix(3.21006,0.204715,-0.201396,3.15801,-2385.27,-828.467)">
            <path d="M837.953,248.943L831.812,250.235L826.006,250.397L824.163,243.298L822.061,233.598L819.798,227.94L818.51,223.542L811.004,225.164L796.127,227.988L758.676,235.538L759.807,240.55L760.777,246.208L761.101,245.885L763.202,243.46L765.465,240.842L767.89,240.227L769.345,238.772L771.124,236.185L772.417,236.832L775.327,236.509L777.913,234.407L779.92,232.954L781.765,232.469L783.41,233.599L786.32,235.054L788.26,236.832L789.472,238.368L793.594,240.065L793.594,242.975L799.091,244.268L800.235,244.81L801.647,242.782L804.529,244.752L803.251,247.234L802.486,251.22L800.707,253.806L800.707,255.908L801.354,257.686L806.418,259.042L810.729,258.98L813.801,259.95L815.902,260.273L816.872,258.172L815.417,256.07L815.417,254.292L812.992,252.19L810.891,246.694L812.184,241.359L812.022,239.258L810.729,237.964C810.729,237.964 812.184,236.348 812.184,235.701C812.184,235.054 812.669,233.599 812.669,233.599L814.609,232.306L816.549,230.69L817.034,231.659L815.579,233.276L814.286,236.994L814.609,238.126L816.387,238.449L816.872,243.946L814.771,244.916L815.094,248.472L815.579,248.31L816.711,246.371L818.327,248.149L816.711,249.442L816.387,252.837L818.974,256.232L822.854,256.717L824.47,255.909L827.707,260.091L829.065,260.628L835.719,257.831L837.726,253.807L837.953,248.943ZM821.321,257.928L822.452,260.433L822.614,262.212L823.746,264.071C823.746,264.071 824.635,263.182 824.635,262.858C824.635,262.535 823.907,259.787 823.907,259.787L823.18,257.443L821.321,257.928Z" style="fill:rgb(0,156,244);fill-rule:nonzero;"/>
        </g>
    </g>
</svg>
