<?xml version="1.0" encoding="UTF-8" standalone="no"?>
<!DOCTYPE svg PUBLIC "-//W3C//DTD SVG 1.1//EN" "http://www.w3.org/Graphics/SVG/1.1/DTD/svg11.dtd">
<svg width="100%" height="100%" viewBox="0 0 271 270" version="1.1" xmlns="http://www.w3.org/2000/svg" xmlns:xlink="http://www.w3.org/1999/xlink" xml:space="preserve" xmlns:serif="http://www.serif.com/" style="fill-rule:evenodd;clip-rule:evenodd;stroke-linejoin:round;stroke-miterlimit:2;">
    <g id="MA" transform="matrix(1.03322,0,0,1.03322,0.0805491,6.75887)">
        <g id="Massachusetts" transform="matrix(4.08291,0.597279,-0.590397,4.03587,-3338.3,-1005.98)">
            <path d="M900.977,167.489L903.149,166.804L903.606,165.089L904.635,165.203L905.664,167.489L904.406,167.947L900.52,168.061L900.977,167.489ZM891.603,168.29L893.89,165.66L895.49,165.66L897.319,167.147L894.919,168.175L892.747,169.204L891.603,168.29ZM856.804,146.301L874.264,142.098L876.527,141.452L878.629,138.218L882.365,136.555L885.255,140.968L882.83,146.141L882.506,147.596L884.446,150.183L885.578,149.374L887.356,149.374L889.619,151.961L893.499,157.942L897.056,158.427L899.319,157.457L901.097,155.679L900.289,152.931L898.187,151.314L896.732,152.122L895.763,150.829L896.247,150.344L898.349,150.183L900.127,150.991L902.067,153.416L903.037,156.326L903.361,158.751L899.157,160.206L895.278,162.145L891.398,166.672L889.458,168.127L889.458,167.157L891.883,165.702L892.368,163.924L891.559,160.852L888.649,162.307L887.841,163.762L888.326,166.025L886.26,167.026L883.513,162.499L880.118,158.134L878.047,156.321L871.514,158.197L866.422,159.248L844.597,164.017L844.195,159.073L844.841,148.484L850.015,147.595L856.804,146.301Z" style="fill:rgb(46,98,126);fill-opacity:0.15;fill-rule:nonzero;"/>
        </g>
        <g id="Massachusetts1" serif:id="Massachusetts" transform="matrix(4.08291,0.597279,-0.590397,4.03587,-3349.3,-1017.98)">
            <path d="M900.977,167.489L903.149,166.804L903.606,165.089L904.635,165.203L905.664,167.489L904.406,167.947L900.52,168.061L900.977,167.489ZM891.603,168.29L893.89,165.66L895.49,165.66L897.319,167.147L894.919,168.175L892.747,169.204L891.603,168.29ZM856.804,146.301L874.264,142.098L876.527,141.452L878.629,138.218L882.365,136.555L885.255,140.968L882.83,146.141L882.506,147.596L884.446,150.183L885.578,149.374L887.356,149.374L889.619,151.961L893.499,157.942L897.056,158.427L899.319,157.457L901.097,155.679L900.289,152.931L898.187,151.314L896.732,152.122L895.763,150.829L896.247,150.344L898.349,150.183L900.127,150.991L902.067,153.416L903.037,156.326L903.361,158.751L899.157,160.206L895.278,162.145L891.398,166.672L889.458,168.127L889.458,167.157L891.883,165.702L892.368,163.924L891.559,160.852L888.649,162.307L887.841,163.762L888.326,166.025L886.26,167.026L883.513,162.499L880.118,158.134L878.047,156.321L871.514,158.197L866.422,159.248L844.597,164.017L844.195,159.073L844.841,148.484L850.015,147.595L856.804,146.301Z" style="fill:rgb(0,156,244);fill-rule:nonzero;"/>
        </g>
    </g>
</svg>
