<?xml version="1.0" encoding="UTF-8" standalone="no"?>
<!DOCTYPE svg PUBLIC "-//W3C//DTD SVG 1.1//EN" "http://www.w3.org/Graphics/SVG/1.1/DTD/svg11.dtd">
<svg width="100%" height="100%" viewBox="0 0 271 270" version="1.1" xmlns="http://www.w3.org/2000/svg" xmlns:xlink="http://www.w3.org/1999/xlink" xml:space="preserve" xmlns:serif="http://www.serif.com/" style="fill-rule:evenodd;clip-rule:evenodd;stroke-linejoin:round;stroke-miterlimit:2;">
    <g id="MI" transform="matrix(1.01303,0,0,1.01303,4.97485,-0.038481)">
        <g id="Michigan" transform="matrix(1.8435,0,0,1.82226,-1036.08,-110.654)">
            <path d="M582.619,75.697L584.448,73.64L586.62,72.839L591.993,68.953L594.279,68.381L594.736,68.839L589.592,73.983L586.277,75.926L584.22,76.84L582.619,75.697ZM668.794,107.825L669.44,110.331L672.674,110.493L673.967,109.28C673.967,109.28 673.886,107.825 673.563,107.664C673.239,107.502 671.946,105.805 671.946,105.805L669.764,106.047L668.147,106.209L667.824,107.34L668.794,107.825ZM698.86,170.875L695.627,162.63L693.364,153.577L690.939,150.344L688.352,148.566L686.736,149.698L682.856,151.476L680.916,156.487L678.168,160.206L677.036,160.852L675.581,160.206C675.581,160.206 672.994,158.751 673.156,158.104C673.318,157.457 673.641,153.092 673.641,153.092L677.036,151.799L677.844,148.404L678.491,145.818L680.916,144.201L680.592,134.178L678.976,131.915L677.683,131.107L676.874,129.005L677.683,128.197L679.299,128.52L679.461,126.903L677.036,124.64L675.743,122.054L673.156,122.054L668.63,120.599L663.133,117.204L660.385,117.204L659.738,117.85L658.768,117.365L655.697,115.102L652.787,116.881L649.877,119.144L650.2,122.7L651.17,123.024L653.272,123.509L653.757,124.317L651.17,125.125L648.584,125.449L647.129,127.227L646.805,129.328L647.129,130.945L647.452,136.441L643.896,138.543L643.249,138.381L643.249,134.178L644.542,131.753L645.189,129.328L644.38,128.52L642.441,129.328L641.471,133.532L638.722,134.663L636.944,136.603L636.782,137.573L637.429,138.381L636.782,140.968L634.519,141.453L634.519,142.585L635.328,145.009L634.196,151.153L632.579,155.194L633.226,159.882L633.711,161.014L632.903,163.439L632.579,164.247L632.256,166.995L635.812,172.977L638.722,179.443L640.177,184.293L639.369,188.981L638.399,194.963L635.974,200.136L635.651,202.884L632.392,205.969L636.801,205.807L658.219,203.544L665.497,202.557L665.593,204.223L672.445,203.011L682.743,201.507L686.598,201.047L686.736,200.459L686.897,199.004L688.999,195.286L690.999,193.548L690.777,188.496L692.374,186.899L693.465,186.556L693.687,183L695.223,179.969L696.274,180.575L696.435,181.221L697.243,181.383L699.183,180.413L698.86,170.875ZM568.492,104.851L569.208,104.271L571.957,103.463L575.513,101.199L575.513,100.229L576.16,99.583L582.141,98.613L584.566,96.673L588.931,94.571L589.093,93.278L591.033,90.368L592.811,89.56L594.104,87.782L596.367,85.518L600.732,83.093L605.42,82.608L606.552,83.74L606.229,84.71L602.51,85.68L601.055,88.752L598.792,89.56L598.307,91.985L595.882,95.218L595.559,97.805L596.367,98.29L597.337,97.158L600.894,94.248L602.187,95.541L604.45,95.541L607.684,96.511L609.139,97.643L610.593,100.714L613.342,103.463L617.222,103.301L618.676,102.331L620.293,103.624L621.91,104.109L623.203,103.301L624.335,103.301L625.951,102.331L629.993,98.775L633.388,97.643L640.016,97.32L644.542,95.38L647.129,94.086L648.584,94.248L648.584,99.906L649.069,100.229L651.979,101.038L653.918,100.553L660.062,98.936L661.193,97.805L662.648,98.29L662.648,105.241L665.881,108.313L667.175,108.959L668.468,109.929L667.175,110.252L666.366,109.929L662.648,109.444L660.547,110.091L658.283,109.929L655.05,111.384L653.272,111.384L647.452,110.091L642.279,110.252L640.339,112.839L633.388,113.486L630.963,114.294L629.831,117.366L628.538,118.497L628.053,118.335L626.598,116.719L622.071,119.144L621.425,119.144L620.293,117.527L619.485,117.689L617.545,122.054L616.575,126.095L613.394,133.096L612.217,132.062L610.845,131.03L608.904,120.742L605.36,119.372L603.307,117.086L591.187,114.343L588.332,113.313L580.101,111.14L572.211,109.997L568.492,104.851Z" style="fill:rgb(46,98,126);fill-opacity:0.15;fill-rule:nonzero;"/>
        </g>
        <g id="Michigan1" serif:id="Michigan" transform="matrix(1.8435,0,0,1.82226,-1046.08,-121.654)">
            <path d="M582.619,75.697L584.448,73.64L586.62,72.839L591.993,68.953L594.279,68.381L594.736,68.839L589.592,73.983L586.277,75.926L584.22,76.84L582.619,75.697ZM668.794,107.825L669.44,110.331L672.674,110.493L673.967,109.28C673.967,109.28 673.886,107.825 673.563,107.664C673.239,107.502 671.946,105.805 671.946,105.805L669.764,106.047L668.147,106.209L667.824,107.34L668.794,107.825ZM698.86,170.875L695.627,162.63L693.364,153.577L690.939,150.344L688.352,148.566L686.736,149.698L682.856,151.476L680.916,156.487L678.168,160.206L677.036,160.852L675.581,160.206C675.581,160.206 672.994,158.751 673.156,158.104C673.318,157.457 673.641,153.092 673.641,153.092L677.036,151.799L677.844,148.404L678.491,145.818L680.916,144.201L680.592,134.178L678.976,131.915L677.683,131.107L676.874,129.005L677.683,128.197L679.299,128.52L679.461,126.903L677.036,124.64L675.743,122.054L673.156,122.054L668.63,120.599L663.133,117.204L660.385,117.204L659.738,117.85L658.768,117.365L655.697,115.102L652.787,116.881L649.877,119.144L650.2,122.7L651.17,123.024L653.272,123.509L653.757,124.317L651.17,125.125L648.584,125.449L647.129,127.227L646.805,129.328L647.129,130.945L647.452,136.441L643.896,138.543L643.249,138.381L643.249,134.178L644.542,131.753L645.189,129.328L644.38,128.52L642.441,129.328L641.471,133.532L638.722,134.663L636.944,136.603L636.782,137.573L637.429,138.381L636.782,140.968L634.519,141.453L634.519,142.585L635.328,145.009L634.196,151.153L632.579,155.194L633.226,159.882L633.711,161.014L632.903,163.439L632.579,164.247L632.256,166.995L635.812,172.977L638.722,179.443L640.177,184.293L639.369,188.981L638.399,194.963L635.974,200.136L635.651,202.884L632.392,205.969L636.801,205.807L658.219,203.544L665.497,202.557L665.593,204.223L672.445,203.011L682.743,201.507L686.598,201.047L686.736,200.459L686.897,199.004L688.999,195.286L690.999,193.548L690.777,188.496L692.374,186.899L693.465,186.556L693.687,183L695.223,179.969L696.274,180.575L696.435,181.221L697.243,181.383L699.183,180.413L698.86,170.875ZM568.492,104.851L569.208,104.271L571.957,103.463L575.513,101.199L575.513,100.229L576.16,99.583L582.141,98.613L584.566,96.673L588.931,94.571L589.093,93.278L591.033,90.368L592.811,89.56L594.104,87.782L596.367,85.518L600.732,83.093L605.42,82.608L606.552,83.74L606.229,84.71L602.51,85.68L601.055,88.752L598.792,89.56L598.307,91.985L595.882,95.218L595.559,97.805L596.367,98.29L597.337,97.158L600.894,94.248L602.187,95.541L604.45,95.541L607.684,96.511L609.139,97.643L610.593,100.714L613.342,103.463L617.222,103.301L618.676,102.331L620.293,103.624L621.91,104.109L623.203,103.301L624.335,103.301L625.951,102.331L629.993,98.775L633.388,97.643L640.016,97.32L644.542,95.38L647.129,94.086L648.584,94.248L648.584,99.906L649.069,100.229L651.979,101.038L653.918,100.553L660.062,98.936L661.193,97.805L662.648,98.29L662.648,105.241L665.881,108.313L667.175,108.959L668.468,109.929L667.175,110.252L666.366,109.929L662.648,109.444L660.547,110.091L658.283,109.929L655.05,111.384L653.272,111.384L647.452,110.091L642.279,110.252L640.339,112.839L633.388,113.486L630.963,114.294L629.831,117.366L628.538,118.497L628.053,118.335L626.598,116.719L622.071,119.144L621.425,119.144L620.293,117.527L619.485,117.689L617.545,122.054L616.575,126.095L613.394,133.096L612.217,132.062L610.845,131.03L608.904,120.742L605.36,119.372L603.307,117.086L591.187,114.343L588.332,113.313L580.101,111.14L572.211,109.997L568.492,104.851Z" style="fill:rgb(0,156,244);fill-rule:nonzero;"/>
        </g>
    </g>
</svg>
