<?xml version="1.0" encoding="UTF-8" standalone="no"?>
<!DOCTYPE svg PUBLIC "-//W3C//DTD SVG 1.1//EN" "http://www.w3.org/Graphics/SVG/1.1/DTD/svg11.dtd">
<svg width="100%" height="100%" viewBox="0 0 271 270" version="1.1" xmlns="http://www.w3.org/2000/svg" xmlns:xlink="http://www.w3.org/1999/xlink" xml:space="preserve" xmlns:serif="http://www.serif.com/" style="fill-rule:evenodd;clip-rule:evenodd;stroke-linejoin:round;stroke-miterlimit:2;">
    <g id="MN" transform="matrix(1.0082,0,0,1.0082,12.9208,0.988021)">
        <g id="Minnesota" transform="matrix(1.99948,0,0,1.97644,-906.589,-78.5591)">
            <path d="M472.879,122.109L472.422,113.65L470.593,106.334L468.764,92.845L468.307,83.015L466.478,79.585L464.877,74.556L464.877,64.268L465.563,60.381L463.742,54.929L493.875,54.965L494.198,46.72L494.845,46.558L497.108,47.043L499.048,47.851L499.856,53.348L501.311,59.491L502.928,61.108L507.777,61.108L508.101,62.563L514.405,62.886L514.405,64.988L519.255,64.988L519.579,63.694L520.71,62.563L522.973,61.916L524.267,62.886L527.177,62.886L531.057,65.472L536.391,67.897L538.816,68.382L539.301,67.412L540.756,66.927L541.241,69.837L543.828,71.131L544.313,70.646L545.606,70.807L545.606,72.909L548.193,73.879L551.264,73.879L552.881,73.071L556.114,69.837L558.7,69.352L559.509,71.131L559.994,72.424L560.964,72.424L561.934,71.616L570.825,71.292L572.603,74.364L573.25,74.364L573.963,73.28L578.403,72.909L577.791,75.188L573.853,77.025L564.607,81.087L559.832,83.093L556.761,85.68L554.336,89.237L552.072,93.116L550.294,93.925L545.768,98.936L544.474,99.098L540.633,102.032L537.816,105.193L537.588,108.163L537.815,115.941L536.218,117.542L530.959,121.655L529.127,127.372L531.645,131.02L532.104,133.54L530.956,136.514L530.729,140.174L531.186,147.258L534.612,151.364L537.588,151.364L540.097,153.657L543.3,155.022L546.959,160.057L554.047,165.08L555.877,167.143L556.111,172.645L535.523,173.331L475.275,173.79L474.937,138.113L474.479,135.141L470.364,131.711L469.221,129.882L469.221,128.282L471.279,126.682L472.65,125.31L472.879,122.109Z" style="fill:rgb(46,98,126);fill-opacity:0.15;fill-rule:nonzero;"/>
        </g>
        <g id="Minnesota1" serif:id="Minnesota" transform="matrix(1.99948,0,0,1.97644,-917.589,-90.5591)">
            <path d="M472.879,122.109L472.422,113.65L470.593,106.334L468.764,92.845L468.307,83.015L466.478,79.585L464.877,74.556L464.877,64.268L465.563,60.381L463.742,54.929L493.875,54.965L494.198,46.72L494.845,46.558L497.108,47.043L499.048,47.851L499.856,53.348L501.311,59.491L502.928,61.108L507.777,61.108L508.101,62.563L514.405,62.886L514.405,64.988L519.255,64.988L519.579,63.694L520.71,62.563L522.973,61.916L524.267,62.886L527.177,62.886L531.057,65.472L536.391,67.897L538.816,68.382L539.301,67.412L540.756,66.927L541.241,69.837L543.828,71.131L544.313,70.646L545.606,70.807L545.606,72.909L548.193,73.879L551.264,73.879L552.881,73.071L556.114,69.837L558.7,69.352L559.509,71.131L559.994,72.424L560.964,72.424L561.934,71.616L570.825,71.292L572.603,74.364L573.25,74.364L573.963,73.28L578.403,72.909L577.791,75.188L573.853,77.025L564.607,81.087L559.832,83.093L556.761,85.68L554.336,89.237L552.072,93.116L550.294,93.925L545.768,98.936L544.474,99.098L540.633,102.032L537.816,105.193L537.588,108.163L537.815,115.941L536.218,117.542L530.959,121.655L529.127,127.372L531.645,131.02L532.104,133.54L530.956,136.514L530.729,140.174L531.186,147.258L534.612,151.364L537.588,151.364L540.097,153.657L543.3,155.022L546.959,160.057L554.047,165.08L555.877,167.143L556.111,172.645L535.523,173.331L475.275,173.79L474.937,138.113L474.479,135.141L470.364,131.711L469.221,129.882L469.221,128.282L471.279,126.682L472.65,125.31L472.879,122.109Z" style="fill:rgb(0,156,244);fill-rule:nonzero;"/>
        </g>
    </g>
</svg>
