<?xml version="1.0" encoding="UTF-8" standalone="no"?>
<!DOCTYPE svg PUBLIC "-//W3C//DTD SVG 1.1//EN" "http://www.w3.org/Graphics/SVG/1.1/DTD/svg11.dtd">
<svg width="100%" height="100%" viewBox="0 0 271 270" version="1.1" xmlns="http://www.w3.org/2000/svg" xmlns:xlink="http://www.w3.org/1999/xlink" xml:space="preserve" xmlns:serif="http://www.serif.com/" style="fill-rule:evenodd;clip-rule:evenodd;stroke-linejoin:round;stroke-miterlimit:2;">
    <g id="NE" transform="matrix(1.01379,0,0,1.01379,-0.0097848,-5.08987)">
        <g id="Nebraska" transform="matrix(1.77858,0,0,1.75809,-607.954,-226.929)">
            <path d="M485.244,240.628L486.616,243.303L486.708,245.429L489.063,249.155L491.782,252.307L486.733,252.307L443.25,251.369L402.463,250.478L381.272,249.518L382.344,228.19L348.966,225.447L353.309,181.437L368.856,182.465L388.975,183.609L406.807,184.752L430.584,185.895L441.329,185.438L443.387,187.724L448.188,190.696L449.331,191.61L453.675,190.239L457.561,189.781L460.305,189.553L462.134,190.924L467.163,192.525L470.136,194.125L470.593,195.726L471.507,197.783L473.336,197.783L474.134,197.829L475.117,203.042L477.86,211.068L479.096,215.708L481.222,219.527L481.747,224.464L483.187,228.74L483.736,235.209" style="fill:rgb(46,98,126);fill-opacity:0.15;fill-rule:nonzero;"/>
        </g>
        <g id="Nebraska1" serif:id="Nebraska" transform="matrix(1.77858,0,0,1.75809,-619.954,-239.929)">
            <path d="M485.244,240.628L486.616,243.303L486.708,245.429L489.063,249.155L491.782,252.307L486.733,252.307L443.25,251.369L402.463,250.478L381.272,249.518L382.344,228.19L348.966,225.447L353.309,181.437L368.856,182.465L388.975,183.609L406.807,184.752L430.584,185.895L441.329,185.438L443.387,187.724L448.188,190.696L449.331,191.61L453.675,190.239L457.561,189.781L460.305,189.553L462.134,190.924L467.163,192.525L470.136,194.125L470.593,195.726L471.507,197.783L473.336,197.783L474.134,197.829L475.117,203.042L477.86,211.068L479.096,215.708L481.222,219.527L481.747,224.464L483.187,228.74L483.736,235.209" style="fill:rgb(0,156,244);fill-rule:nonzero;"/>
        </g>
    </g>
</svg>
