<?xml version="1.0" encoding="UTF-8" standalone="no"?>
<!DOCTYPE svg PUBLIC "-//W3C//DTD SVG 1.1//EN" "http://www.w3.org/Graphics/SVG/1.1/DTD/svg11.dtd">
<svg width="100%" height="100%" viewBox="0 0 271 270" version="1.1" xmlns="http://www.w3.org/2000/svg" xmlns:xlink="http://www.w3.org/1999/xlink" xml:space="preserve" xmlns:serif="http://www.serif.com/" style="fill-rule:evenodd;clip-rule:evenodd;stroke-linejoin:round;stroke-miterlimit:2;">
    <g id="NV" transform="matrix(1,0,0,1,21,-1)">
        <g id="Nevada" transform="matrix(1.56483,-0.189943,0.187754,1.5468,-127.989,-213.646)">
            <path d="M141.658,171.21L162.638,175.721L172.355,177.665L181.614,179.494L188.228,181.127L187.67,186.992L184.126,204.321L180.033,224.301L178.09,234.02L175.918,247.302L172.763,263.717L169.242,279.402L167.273,289.582L164.808,306.353L164.351,307.452L163.278,309.921L161.405,309.806L160.308,307.063L157.564,306.559L156.168,305.577L154.131,305.898L153.216,306.63L151.915,307.979L151.48,314.952L150.93,316.667L150.519,328.76L149.197,330.474L147.32,328.213L132.803,305.465L113.37,276.43L90.622,242.593L78.24,224.011L79.877,217.445L86.85,191.496L94.737,160.148L128.345,168.291L142.062,171.263" style="fill:rgb(46,98,126);fill-opacity:0.15;fill-rule:nonzero;"/>
        </g>
        <g id="Nevada1" serif:id="Nevada" transform="matrix(1.56483,-0.189943,0.187754,1.5468,-138.989,-226.646)">
            <path d="M141.658,171.21L162.638,175.721L172.355,177.665L181.614,179.494L188.228,181.127L187.67,186.992L184.126,204.321L180.033,224.301L178.09,234.02L175.918,247.302L172.763,263.717L169.242,279.402L167.273,289.582L164.808,306.353L164.351,307.452L163.278,309.921L161.405,309.806L160.308,307.063L157.564,306.559L156.168,305.577L154.131,305.898L153.216,306.63L151.915,307.979L151.48,314.952L150.93,316.667L150.519,328.76L149.197,330.474L147.32,328.213L132.803,305.465L113.37,276.43L90.622,242.593L78.24,224.011L79.877,217.445L86.85,191.496L94.737,160.148L128.345,168.291L142.062,171.263" style="fill:rgb(0,156,244);fill-rule:nonzero;"/>
        </g>
    </g>
</svg>
