<?xml version="1.0" encoding="UTF-8" standalone="no"?>
<!DOCTYPE svg PUBLIC "-//W3C//DTD SVG 1.1//EN" "http://www.w3.org/Graphics/SVG/1.1/DTD/svg11.dtd">
<svg width="100%" height="100%" viewBox="0 0 271 270" version="1.1" xmlns="http://www.w3.org/2000/svg" xmlns:xlink="http://www.w3.org/1999/xlink" xml:space="preserve" xmlns:serif="http://www.serif.com/" style="fill-rule:evenodd;clip-rule:evenodd;stroke-linejoin:round;stroke-miterlimit:2;">
    <g id="NH" transform="matrix(1.02559,0,0,1.02747,18.0199,-1.61304)">
        <g id="NewHampshire" transform="matrix(4.26591,0.496208,-0.490491,4.21676,-3508.12,-776.219)">
            <path d="M881.799,136.063L882.668,134.986L883.758,131.695L881.215,130.782L880.73,127.71L876.85,126.579L876.527,123.831L869.252,100.39L864.651,85.847L863.754,85.842L863.107,87.458L862.46,86.973L861.491,86.003L860.036,87.943L859.987,92.975L860.299,98.643L862.239,101.391L862.239,105.432L858.52,110.495L855.934,111.627L855.934,112.758L857.065,114.537L857.065,123.105L856.257,132.319L856.096,137.169L857.065,138.462L856.904,142.989L856.419,144.767L857.874,145.653L874.264,140.963L876.527,140.317L878.061,137.764L881.799,136.063Z" style="fill:rgb(46,98,126);fill-opacity:0.15;fill-rule:nonzero;"/>
        </g>
        <g id="NewHampshire1" serif:id="NewHampshire" transform="matrix(4.26591,0.496208,-0.490491,4.21676,-3524.12,-787.219)">
            <path d="M881.799,136.063L882.668,134.986L883.758,131.695L881.215,130.782L880.73,127.71L876.85,126.579L876.527,123.831L869.252,100.39L864.651,85.847L863.754,85.842L863.107,87.458L862.46,86.973L861.491,86.003L860.036,87.943L859.987,92.975L860.299,98.643L862.239,101.391L862.239,105.432L858.52,110.495L855.934,111.627L855.934,112.758L857.065,114.537L857.065,123.105L856.257,132.319L856.096,137.169L857.065,138.462L856.904,142.989L856.419,144.767L857.874,145.653L874.264,140.963L876.527,140.317L878.061,137.764L881.799,136.063Z" style="fill:rgb(0,156,244);fill-rule:nonzero;"/>
        </g>
    </g>
</svg>
