<?xml version="1.0" encoding="UTF-8" standalone="no"?>
<!DOCTYPE svg PUBLIC "-//W3C//DTD SVG 1.1//EN" "http://www.w3.org/Graphics/SVG/1.1/DTD/svg11.dtd">
<svg width="100%" height="100%" viewBox="0 0 271 270" version="1.1" xmlns="http://www.w3.org/2000/svg" xmlns:xlink="http://www.w3.org/1999/xlink" xml:space="preserve" xmlns:serif="http://www.serif.com/" style="fill-rule:evenodd;clip-rule:evenodd;stroke-linejoin:round;stroke-miterlimit:2;">
    <g id="NY" transform="matrix(1.02354,0,0,1.02354,1.03837,9.8505)">
        <g id="NewYork" transform="matrix(1.94761,0.182518,-0.180415,1.92517,-1403.79,-312.033)">
            <path d="M829.614,183.061L828.483,182.091L825.896,181.929L823.633,179.989L822.002,173.86L818.544,173.95L816.1,171.242L796.715,175.624L753.713,184.354L746.183,185.582L745.445,179.114L746.873,177.988L748.167,176.857L749.136,175.24L750.915,174.108L752.855,172.33L753.34,170.713L755.441,167.965L756.573,166.995L756.411,166.025L755.118,162.954L753.34,162.792L751.4,156.649L754.31,154.871L758.674,153.416L762.716,152.122L765.949,151.637L772.254,151.476L774.194,152.769L775.81,152.931L777.912,151.637L780.499,150.506L785.672,150.021L787.773,148.243L789.552,145.009L791.168,143.069L793.27,143.069L795.21,141.938L795.371,139.675L793.916,137.573L793.593,136.118L794.725,134.016L794.725,132.562L792.946,132.562L791.168,131.753L790.36,130.622L790.198,128.035L796.018,122.539L796.665,121.73L798.12,118.82L801.029,114.294L803.778,110.576L805.879,108.151L808.294,106.325L811.376,105.079L816.872,103.786L820.105,103.948L824.632,102.493L832.197,100.422L832.717,105.401L835.142,111.868L835.95,117.041L834.98,120.921L837.567,125.447L838.375,127.549L837.567,130.459L840.477,131.752L841.123,132.075L844.195,143.068L843.659,148.128L843.174,158.959L843.982,164.456L844.79,168.012L846.245,175.287L846.245,183.37L845.113,185.633L846.953,187.626L847.749,189.304L845.809,191.083L846.133,192.376L847.426,192.053L848.881,190.759L851.144,188.173L852.276,187.526L853.892,188.173L856.156,188.334L864.077,184.455L866.987,181.706L868.28,180.251L872.483,181.868L869.089,185.425L865.209,188.334L858.096,193.669L855.509,194.639L849.689,196.579L845.648,197.711L844.473,197.178L844.229,193.489L844.714,190.741L844.552,188.639L841.739,186.94L837.212,185.97L833.332,184.839L829.614,183.061Z" style="fill:rgb(46,98,126);fill-opacity:0.15;fill-rule:nonzero;"/>
        </g>
        <g id="NewYork1" serif:id="NewYork" transform="matrix(1.94761,0.182518,-0.180415,1.92517,-1417.79,-323.033)">
            <path d="M829.614,183.061L828.483,182.091L825.896,181.929L823.633,179.989L822.002,173.86L818.544,173.95L816.1,171.242L796.715,175.624L753.713,184.354L746.183,185.582L745.445,179.114L746.873,177.988L748.167,176.857L749.136,175.24L750.915,174.108L752.855,172.33L753.34,170.713L755.441,167.965L756.573,166.995L756.411,166.025L755.118,162.954L753.34,162.792L751.4,156.649L754.31,154.871L758.674,153.416L762.716,152.122L765.949,151.637L772.254,151.476L774.194,152.769L775.81,152.931L777.912,151.637L780.499,150.506L785.672,150.021L787.773,148.243L789.552,145.009L791.168,143.069L793.27,143.069L795.21,141.938L795.371,139.675L793.916,137.573L793.593,136.118L794.725,134.016L794.725,132.562L792.946,132.562L791.168,131.753L790.36,130.622L790.198,128.035L796.018,122.539L796.665,121.73L798.12,118.82L801.029,114.294L803.778,110.576L805.879,108.151L808.294,106.325L811.376,105.079L816.872,103.786L820.105,103.948L824.632,102.493L832.197,100.422L832.717,105.401L835.142,111.868L835.95,117.041L834.98,120.921L837.567,125.447L838.375,127.549L837.567,130.459L840.477,131.752L841.123,132.075L844.195,143.068L843.659,148.128L843.174,158.959L843.982,164.456L844.79,168.012L846.245,175.287L846.245,183.37L845.113,185.633L846.953,187.626L847.749,189.304L845.809,191.083L846.133,192.376L847.426,192.053L848.881,190.759L851.144,188.173L852.276,187.526L853.892,188.173L856.156,188.334L864.077,184.455L866.987,181.706L868.28,180.251L872.483,181.868L869.089,185.425L865.209,188.334L858.096,193.669L855.509,194.639L849.689,196.579L845.648,197.711L844.473,197.178L844.229,193.489L844.714,190.741L844.552,188.639L841.739,186.94L837.212,185.97L833.332,184.839L829.614,183.061Z" style="fill:rgb(0,156,244);fill-rule:nonzero;"/>
        </g>
    </g>
</svg>
