<?xml version="1.0" encoding="UTF-8" standalone="no"?>
<!DOCTYPE svg PUBLIC "-//W3C//DTD SVG 1.1//EN" "http://www.w3.org/Graphics/SVG/1.1/DTD/svg11.dtd">
<svg width="100%" height="100%" viewBox="0 0 271 270" version="1.1" xmlns="http://www.w3.org/2000/svg" xmlns:xlink="http://www.w3.org/1999/xlink" xml:space="preserve" xmlns:serif="http://www.serif.com/" style="fill-rule:evenodd;clip-rule:evenodd;stroke-linejoin:round;stroke-miterlimit:2;">
    <g id="NJ" transform="matrix(0.988409,0,0,0.988409,12.7633,1.00414)">
        <g id="NewJersey" transform="matrix(4.76541,0,0,4.7105,-3851.01,-849.226)">
            <path d="M829.16,183.968L827.059,186.393L827.059,189.465L825.119,192.536L824.957,194.153L826.25,195.446L826.089,197.871L823.826,199.003L824.634,201.751L824.796,202.883L827.544,203.206L828.514,205.793L832.07,208.218L834.495,209.834L834.495,210.642L831.262,213.714L829.645,215.977L828.19,218.725L825.927,220.019L824.715,220.746L824.472,221.959L823.863,224.565L824.955,226.81L828.188,229.72L833.038,231.983L837.08,232.629L837.241,234.084L836.433,235.054L836.756,237.803L837.565,237.803L839.666,235.378L840.475,230.528L843.223,226.486L846.294,220.02L847.426,214.523L846.779,213.392L846.618,204.016L845.001,200.621L843.87,201.429L841.121,201.752L840.636,201.267L841.768,200.297L843.87,198.357L843.933,197.264L843.548,193.83L844.033,191.081L843.872,188.98L841.285,187.848L836.758,186.878L832.879,185.747L829.16,183.968Z" style="fill:rgb(46,98,126);fill-opacity:0.15;fill-rule:nonzero;"/>
        </g>
        <g id="NewJersey1" serif:id="NewJersey" transform="matrix(4.76541,0,0,4.7105,-3860.01,-866.226)">
            <path d="M829.16,183.968L827.059,186.393L827.059,189.465L825.119,192.536L824.957,194.153L826.25,195.446L826.089,197.871L823.826,199.003L824.634,201.751L824.796,202.883L827.544,203.206L828.514,205.793L832.07,208.218L834.495,209.834L834.495,210.642L831.262,213.714L829.645,215.977L828.19,218.725L825.927,220.019L824.715,220.746L824.472,221.959L823.863,224.565L824.955,226.81L828.188,229.72L833.038,231.983L837.08,232.629L837.241,234.084L836.433,235.054L836.756,237.803L837.565,237.803L839.666,235.378L840.475,230.528L843.223,226.486L846.294,220.02L847.426,214.523L846.779,213.392L846.618,204.016L845.001,200.621L843.87,201.429L841.121,201.752L840.636,201.267L841.768,200.297L843.87,198.357L843.933,197.264L843.548,193.83L844.033,191.081L843.872,188.98L841.285,187.848L836.758,186.878L832.879,185.747L829.16,183.968Z" style="fill:rgb(0,156,244);fill-rule:nonzero;"/>
        </g>
    </g>
</svg>
