<?xml version="1.0" encoding="UTF-8" standalone="no"?>
<!DOCTYPE svg PUBLIC "-//W3C//DTD SVG 1.1//EN" "http://www.w3.org/Graphics/SVG/1.1/DTD/svg11.dtd">
<svg width="100%" height="100%" viewBox="0 0 271 270" version="1.1" xmlns="http://www.w3.org/2000/svg" xmlns:xlink="http://www.w3.org/1999/xlink" xml:space="preserve" xmlns:serif="http://www.serif.com/" style="fill-rule:evenodd;clip-rule:evenodd;stroke-linejoin:round;stroke-miterlimit:2;">
    <g id="NC" transform="matrix(1.0148,0,0,1.0239,-0.247192,18.6199)">
        <g id="NorthCarolina" transform="matrix(1.61745,0.153803,-0.152031,1.59882,-1053.62,-519.994)">
            <path d="M833.107,292.11L834.817,296.809L838.373,303.275L840.798,305.7L841.445,307.963L839.02,308.125L839.828,308.772L839.505,312.975L836.918,314.268L836.271,316.37L834.978,319.279L831.26,320.896L828.835,320.573L827.38,320.411L825.764,319.118L826.087,320.411L826.087,321.381L828.027,321.381L828.835,322.674L826.895,328.979L831.098,328.979L831.745,330.596L834.008,328.332L835.302,327.847L833.362,331.404L830.29,336.254L828.997,336.254L827.865,335.769L825.117,336.415L819.944,338.84L813.477,344.175L810.082,348.863L808.143,355.33L807.658,357.755L802.969,358.24L797.516,359.576L787.57,351.374L774.96,343.776L772.05,342.967L759.441,344.422L755.164,345.172L753.548,341.939L750.577,339.823L734.088,340.308L726.813,341.116L717.76,345.642L711.617,348.229L710.001,348.552L704.181,349.522L697.229,350.33L690.44,350.815L690.94,346.761L692.718,345.306L695.466,344.66L696.113,340.941L700.316,338.193L704.196,336.738L708.399,333.182L712.764,331.08L713.411,328.008L717.291,324.129L717.937,323.967C717.937,323.967 717.937,325.099 718.745,325.099C719.554,325.099 720.685,325.422 720.685,325.422L722.949,321.865L725.05,321.219L727.313,321.542L728.93,317.986L731.84,315.399L732.325,313.297L732.325,309.337L736.851,310.064L743.988,308.771L759.807,306.831L776.943,304.244L796.865,300.244L816.598,296.079L827.963,293.283L833.107,292.11ZM837.002,325.098L839.589,322.592L842.741,320.006L844.277,319.359L844.438,317.338L843.792,311.195L842.337,308.851L841.69,306.992L842.418,306.749L845.166,312.246L845.57,316.691L845.408,320.086L842.013,321.622L839.184,324.047L838.053,325.26L837.002,325.098Z" style="fill:rgb(46,98,126);fill-opacity:0.15;fill-rule:nonzero;"/>
        </g>
        <g id="NorthCarolina1" serif:id="NorthCarolina" transform="matrix(1.61745,0.153803,-0.152031,1.59882,-1062.62,-531.994)">
            <path d="M833.107,292.11L834.817,296.809L838.373,303.275L840.798,305.7L841.445,307.963L839.02,308.125L839.828,308.772L839.505,312.975L836.918,314.268L836.271,316.37L834.978,319.279L831.26,320.896L828.835,320.573L827.38,320.411L825.764,319.118L826.087,320.411L826.087,321.381L828.027,321.381L828.835,322.674L826.895,328.979L831.098,328.979L831.745,330.596L834.008,328.332L835.302,327.847L833.362,331.404L830.29,336.254L828.997,336.254L827.865,335.769L825.117,336.415L819.944,338.84L813.477,344.175L810.082,348.863L808.143,355.33L807.658,357.755L802.969,358.24L797.516,359.576L787.57,351.374L774.96,343.776L772.05,342.967L759.441,344.422L755.164,345.172L753.548,341.939L750.577,339.823L734.088,340.308L726.813,341.116L717.76,345.642L711.617,348.229L710.001,348.552L704.181,349.522L697.229,350.33L690.44,350.815L690.94,346.761L692.718,345.306L695.466,344.66L696.113,340.941L700.316,338.193L704.196,336.738L708.399,333.182L712.764,331.08L713.411,328.008L717.291,324.129L717.937,323.967C717.937,323.967 717.937,325.099 718.745,325.099C719.554,325.099 720.685,325.422 720.685,325.422L722.949,321.865L725.05,321.219L727.313,321.542L728.93,317.986L731.84,315.399L732.325,313.297L732.325,309.337L736.851,310.064L743.988,308.771L759.807,306.831L776.943,304.244L796.865,300.244L816.598,296.079L827.963,293.283L833.107,292.11ZM837.002,325.098L839.589,322.592L842.741,320.006L844.277,319.359L844.438,317.338L843.792,311.195L842.337,308.851L841.69,306.992L842.418,306.749L845.166,312.246L845.57,316.691L845.408,320.086L842.013,321.622L839.184,324.047L838.053,325.26L837.002,325.098Z" style="fill:rgb(0,156,244);fill-rule:nonzero;"/>
        </g>
    </g>
</svg>
