<?xml version="1.0" encoding="UTF-8" standalone="no"?>
<!DOCTYPE svg PUBLIC "-//W3C//DTD SVG 1.1//EN" "http://www.w3.org/Graphics/SVG/1.1/DTD/svg11.dtd">
<svg width="100%" height="100%" viewBox="0 0 271 270" version="1.1" xmlns="http://www.w3.org/2000/svg" xmlns:xlink="http://www.w3.org/1999/xlink" xml:space="preserve" xmlns:serif="http://www.serif.com/" style="fill-rule:evenodd;clip-rule:evenodd;stroke-linejoin:round;stroke-miterlimit:2;">
    <g id="OH" transform="matrix(1.04795,0,0,1.04615,9.93685,-2.29519)">
        <g id="Ohio" transform="matrix(3.08205,0,0,3.04654,-2035.6,-566.762)">
            <path d="M732.436,188.646L726.342,192.699L722.463,194.963L719.068,198.681L715.026,202.561L711.793,203.369L708.883,203.854L703.387,206.44L701.285,206.602L697.89,203.531L692.717,204.177L690.13,202.722L687.749,201.371L682.857,202.075L672.672,203.691L664.912,204.904L666.206,219.534L667.984,233.275L670.571,256.716L671.136,261.547L675.259,261.418L677.684,260.61L681.047,262.113L683.118,266.478L688.257,266.461L690.149,268.58L691.91,268.514L694.448,267.173L696.952,267.544L698.926,268.999L700.653,266.867L702.999,265.573L705.07,264.892L705.716,267.641L707.494,268.611L710.97,270.955L713.153,270.874L714.298,269.725L714.233,268.339L715.85,266.884L716.011,261.872L716.981,257.992L718.501,256.551L720.022,257.456L720.847,258.667L722.058,258.491L721.635,256.08L721.071,255.437L721.071,253.012L722.041,251.719L724.304,248.324L725.597,246.869L727.699,247.354L729.962,245.737L733.034,242.342L735.297,238.462L735.507,233.031L735.992,228.02L735.992,223.332L734.86,220.26L735.83,218.805L736.751,217.851L735.346,208.008L732.436,188.646Z" style="fill:rgb(46,98,126);fill-opacity:0.15;fill-rule:nonzero;"/>
        </g>
        <g id="Ohio1" serif:id="Ohio" transform="matrix(3.08205,0,0,3.04654,-2046.6,-571.762)">
            <path d="M732.436,188.646L726.342,192.699L722.463,194.963L719.068,198.681L715.026,202.561L711.793,203.369L708.883,203.854L703.387,206.44L701.285,206.602L697.89,203.531L692.717,204.177L690.13,202.722L687.749,201.371L682.857,202.075L672.672,203.691L664.912,204.904L666.206,219.534L667.984,233.275L670.571,256.716L671.136,261.547L675.259,261.418L677.684,260.61L681.047,262.113L683.118,266.478L688.257,266.461L690.149,268.58L691.91,268.514L694.448,267.173L696.952,267.544L698.926,268.999L700.653,266.867L702.999,265.573L705.07,264.892L705.716,267.641L707.494,268.611L710.97,270.955L713.153,270.874L714.298,269.725L714.233,268.339L715.85,266.884L716.011,261.872L716.981,257.992L718.501,256.551L720.022,257.456L720.847,258.667L722.058,258.491L721.635,256.08L721.071,255.437L721.071,253.012L722.041,251.719L724.304,248.324L725.597,246.869L727.699,247.354L729.962,245.737L733.034,242.342L735.297,238.462L735.507,233.031L735.992,228.02L735.992,223.332L734.86,220.26L735.83,218.805L736.751,217.851L735.346,208.008L732.436,188.646Z" style="fill:rgb(0,156,244);fill-rule:nonzero;"/>
        </g>
    </g>
</svg>
