<?xml version="1.0" encoding="UTF-8" standalone="no"?>
<!DOCTYPE svg PUBLIC "-//W3C//DTD SVG 1.1//EN" "http://www.w3.org/Graphics/SVG/1.1/DTD/svg11.dtd">
<svg width="100%" height="100%" viewBox="0 0 271 270" version="1.1" xmlns="http://www.w3.org/2000/svg" xmlns:xlink="http://www.w3.org/1999/xlink" xml:space="preserve" xmlns:serif="http://www.serif.com/" style="fill-rule:evenodd;clip-rule:evenodd;stroke-linejoin:round;stroke-miterlimit:2;">
    <g id="OK" transform="matrix(1.02961,0,0,1.02961,-0.00383134,-1.93979)">
        <g id="Oklahoma" transform="matrix(1.69793,0,0,1.71209,-602.053,-466.246)">
            <path d="M376.343,316.21L365.655,315.753L359.225,315.267L359.482,315.467L358.779,325.889L380.744,327.296L412.8,328.599L410.465,353.018L410.008,370.851L410.236,372.451L414.58,376.109L416.638,377.252L417.324,377.023L418.01,374.966L419.381,376.795L421.439,376.795L421.439,375.423L424.182,376.795L423.725,380.681L427.84,380.91L430.355,382.053L434.47,382.739L436.985,384.568L439.272,382.51L442.701,383.196L445.216,386.625L446.13,386.625L446.13,388.912L448.416,389.598L450.703,387.311L452.532,387.997L455.046,387.997L455.961,390.512L460.762,392.341L462.134,391.655L463.963,387.54L465.106,387.54L466.249,389.598L470.364,390.283L474.022,391.655L476.994,392.57L478.823,391.655L479.509,389.14L483.853,389.14L485.911,390.055L488.654,387.997L489.797,387.997L490.483,389.598L494.598,389.598L496.199,387.54L498.028,387.997L500.085,390.512L503.286,392.341L506.487,393.256L508.428,394.374L508.039,357.157L506.667,346.183L506.506,337.311L505.066,330.773L504.288,323.594L504.22,319.778L492.083,320.096L445.673,319.639L400.634,317.581L376.343,316.21Z" style="fill:rgb(46,98,126);fill-opacity:0.15;fill-rule:nonzero;"/>
        </g>
        <g id="Oklahoma1" serif:id="Oklahoma" transform="matrix(1.69793,0,0,1.71209,-609.053,-474.246)">
            <path d="M376.343,316.21L365.655,315.753L359.225,315.267L359.482,315.467L358.779,325.889L380.744,327.296L412.8,328.599L410.465,353.018L410.008,370.851L410.236,372.451L414.58,376.109L416.638,377.252L417.324,377.023L418.01,374.966L419.381,376.795L421.439,376.795L421.439,375.423L424.182,376.795L423.725,380.681L427.84,380.91L430.355,382.053L434.47,382.739L436.985,384.568L439.272,382.51L442.701,383.196L445.216,386.625L446.13,386.625L446.13,388.912L448.416,389.598L450.703,387.311L452.532,387.997L455.046,387.997L455.961,390.512L460.762,392.341L462.134,391.655L463.963,387.54L465.106,387.54L466.249,389.598L470.364,390.283L474.022,391.655L476.994,392.57L478.823,391.655L479.509,389.14L483.853,389.14L485.911,390.055L488.654,387.997L489.797,387.997L490.483,389.598L494.598,389.598L496.199,387.54L498.028,387.997L500.085,390.512L503.286,392.341L506.487,393.256L508.428,394.374L508.039,357.157L506.667,346.183L506.506,337.311L505.066,330.773L504.288,323.594L504.22,319.778L492.083,320.096L445.673,319.639L400.634,317.581L376.343,316.21Z" style="fill:rgb(0,156,244);fill-rule:nonzero;"/>
        </g>
    </g>
</svg>
