<?xml version="1.0" encoding="UTF-8" standalone="no"?>
<!DOCTYPE svg PUBLIC "-//W3C//DTD SVG 1.1//EN" "http://www.w3.org/Graphics/SVG/1.1/DTD/svg11.dtd">
<svg width="100%" height="100%" viewBox="0 0 271 270" version="1.1" xmlns="http://www.w3.org/2000/svg" xmlns:xlink="http://www.w3.org/1999/xlink" xml:space="preserve" xmlns:serif="http://www.serif.com/" style="fill-rule:evenodd;clip-rule:evenodd;stroke-linejoin:round;stroke-miterlimit:2;">
    <g transform="matrix(1.04058,0,0,1.0337,-0.351711,7.13915)">
        <g id="Oregon" transform="matrix(1.81416,-0.230772,0.228113,1.79326,-65.6134,-49.7875)">
            <path d="M141.306,170.324L145.603,152.424L150.268,134.545L151.319,130.316L153.673,124.692L153.058,123.529L150.543,123.483L149.261,121.812L149.719,120.348L150.222,117.102L154.68,111.615L156.509,110.515L157.652,109.372L159.138,105.807L163.185,100.137L166.751,96.275L166.98,92.824L163.711,90.355L162.502,85.845L149.264,82.1L134.175,78.557L118.743,78.671L118.285,77.299L112.798,79.357L108.34,78.785L105.94,77.185L104.682,77.871L99.995,77.642L98.281,76.27L93.022,74.213L92.222,74.327L87.878,72.841L85.935,74.67L79.762,74.327L73.818,70.212L74.504,69.412L74.733,61.639L72.446,57.752L68.331,57.18L67.645,54.666L65.291,54.199L59.493,56.258L57.23,62.724L53.996,72.747L50.763,79.214L45.752,93.278L39.285,106.858L31.202,119.467L29.262,122.377L28.454,130.945L27.161,136.926L29.869,140.454L36.599,142.705L48.19,145.998L56.056,148.537L68.47,152.171L81.798,155.761L94.966,159.326" style="fill:rgb(46,98,126);fill-opacity:0.15;fill-rule:nonzero;"/>
        </g>
        <g id="Oregon1" serif:id="Oregon" transform="matrix(1.81416,-0.230772,0.228113,1.79326,-77.6134,-62.7875)">
            <path d="M141.306,170.324L145.603,152.424L150.268,134.545L151.319,130.316L153.673,124.692L153.058,123.529L150.543,123.483L149.261,121.812L149.719,120.348L150.222,117.102L154.68,111.615L156.509,110.515L157.652,109.372L159.138,105.807L163.185,100.137L166.751,96.275L166.98,92.824L163.711,90.355L162.502,85.845L149.264,82.1L134.175,78.557L118.743,78.671L118.285,77.299L112.798,79.357L108.34,78.785L105.94,77.185L104.682,77.871L99.995,77.642L98.281,76.27L93.022,74.213L92.222,74.327L87.878,72.841L85.935,74.67L79.762,74.327L73.818,70.212L74.504,69.412L74.733,61.639L72.446,57.752L68.331,57.18L67.645,54.666L65.291,54.199L59.493,56.258L57.23,62.724L53.996,72.747L50.763,79.214L45.752,93.278L39.285,106.858L31.202,119.467L29.262,122.377L28.454,130.945L27.161,136.926L29.869,140.454L36.599,142.705L48.19,145.998L56.056,148.537L68.47,152.171L81.798,155.761L94.966,159.326" style="fill:rgb(0,156,244);fill-rule:nonzero;"/>
        </g>
    </g>
</svg>
