<?xml version="1.0" encoding="UTF-8" standalone="no"?>
<!DOCTYPE svg PUBLIC "-//W3C//DTD SVG 1.1//EN" "http://www.w3.org/Graphics/SVG/1.1/DTD/svg11.dtd">
<svg width="100%" height="100%" viewBox="0 0 271 270" version="1.1" xmlns="http://www.w3.org/2000/svg" xmlns:xlink="http://www.w3.org/1999/xlink" xml:space="preserve" xmlns:serif="http://www.serif.com/" style="fill-rule:evenodd;clip-rule:evenodd;stroke-linejoin:round;stroke-miterlimit:2;">
    <g id="PA" transform="matrix(1,0,0,1,1,7)">
        <g id="Pennsylvania" transform="matrix(2.64373,0.355777,-0.351678,2.61327,-1859.05,-675.257)">
            <path d="M823.207,220.098L824.339,219.451L826.602,218.839L828.057,216.091L829.673,213.827L832.907,210.756L832.907,209.948L830.482,208.331L826.925,205.906L825.955,203.32L823.207,202.996L823.045,201.865L822.237,199.116L824.5,197.985L824.662,195.56L823.369,194.267L823.53,192.65L825.47,189.578L825.47,186.507L827.814,184.082L828.029,182.998L825.442,182.837L823.179,180.897L820.754,175.562L817.749,174.631L815.419,172.49L796.828,176.532L753.826,185.262L744.935,186.717L744.439,179.633L738.952,185.263L737.659,185.748L733.456,188.757L736.367,207.894L738.849,217.624L742.421,236.885L745.69,236.247L757.633,234.745L795.56,227.08L810.436,224.256L818.737,222.634L819.004,222.396L821.105,220.779L823.207,220.098Z" style="fill:rgb(46,98,126);fill-opacity:0.15;fill-rule:nonzero;"/>
        </g>
        <g id="Pennsylvania1" serif:id="Pennsylvania" transform="matrix(2.64373,0.355777,-0.351678,2.61327,-1872.05,-686.257)">
            <path d="M823.207,220.098L824.339,219.451L826.602,218.839L828.057,216.091L829.673,213.827L832.907,210.756L832.907,209.948L830.482,208.331L826.925,205.906L825.955,203.32L823.207,202.996L823.045,201.865L822.237,199.116L824.5,197.985L824.662,195.56L823.369,194.267L823.53,192.65L825.47,189.578L825.47,186.507L827.814,184.082L828.029,182.998L825.442,182.837L823.179,180.897L820.754,175.562L817.749,174.631L815.419,172.49L796.828,176.532L753.826,185.262L744.935,186.717L744.439,179.633L738.952,185.263L737.659,185.748L733.456,188.757L736.367,207.894L738.849,217.624L742.421,236.885L745.69,236.247L757.633,234.745L795.56,227.08L810.436,224.256L818.737,222.634L819.004,222.396L821.105,220.779L823.207,220.098Z" style="fill:rgb(0,156,244);fill-rule:nonzero;"/>
        </g>
    </g>
</svg>
