<?xml version="1.0" encoding="UTF-8" standalone="no"?>
<!DOCTYPE svg PUBLIC "-//W3C//DTD SVG 1.1//EN" "http://www.w3.org/Graphics/SVG/1.1/DTD/svg11.dtd">
<svg width="100%" height="100%" viewBox="0 0 271 270" version="1.1" xmlns="http://www.w3.org/2000/svg" xmlns:xlink="http://www.w3.org/1999/xlink" xml:space="preserve" xmlns:serif="http://www.serif.com/" style="fill-rule:evenodd;clip-rule:evenodd;stroke-linejoin:round;stroke-miterlimit:2;">
    <g id="SD" transform="matrix(1.0158,0,0,1.0158,0.991408,19.3491)">
        <g id="SouthDakota" transform="matrix(2.08032,0,0,2.05635,-721.778,-184.744)">
            <path d="M473.797,196.819L472.843,195.738L471.323,192.112L473.152,188.41L474.202,182.855L471.619,180.797L471.323,178.053L471.916,175.057L474.066,174.255L474.363,168.519L474.295,138.434L473.677,135.462L469.562,131.872L468.579,129.882L468.579,127.961L470.476,126.682L472.009,124.828L472.191,122.109L414.809,120.509L358.635,116.622L357.868,121.901L356.255,137.77L354.91,155.717L353.309,180.313L369.337,181.342L388.975,182.485L406.968,183.789L430.744,185.092L441.49,184.314L444.35,186.6L448.669,189.573L449.652,190.327L453.193,189.436L457.24,189.139L459.984,189.071L463.097,190.283L467.645,191.722L470.778,193.483L471.395,195.405L472.31,197.302L473.015,196.82L473.797,196.819Z" style="fill:rgb(46,98,126);fill-opacity:0.15;fill-rule:nonzero;"/>
        </g>
        <g id="SouthDakota1" serif:id="SouthDakota" transform="matrix(2.08032,0,0,2.05635,-734.453,-198.616)">
            <path d="M473.797,196.819L472.843,195.738L471.323,192.112L473.152,188.41L474.202,182.855L471.619,180.797L471.323,178.053L471.916,175.057L474.066,174.255L474.363,168.519L474.295,138.434L473.677,135.462L469.562,131.872L468.579,129.882L468.579,127.961L470.476,126.682L472.009,124.828L472.191,122.109L414.809,120.509L358.635,116.622L357.868,121.901L356.255,137.77L354.91,155.717L353.309,180.313L369.337,181.342L388.975,182.485L406.968,183.789L430.744,185.092L441.49,184.314L444.35,186.6L448.669,189.573L449.652,190.327L453.193,189.436L457.24,189.139L459.984,189.071L463.097,190.283L467.645,191.722L470.778,193.483L471.395,195.405L472.31,197.302L473.015,196.82L473.797,196.819Z" style="fill:rgb(0,156,244);fill-rule:nonzero;"/>
        </g>
    </g>
</svg>
