<?xml version="1.0" encoding="UTF-8" standalone="no"?>
<!DOCTYPE svg PUBLIC "-//W3C//DTD SVG 1.1//EN" "http://www.w3.org/Graphics/SVG/1.1/DTD/svg11.dtd">
<svg width="100%" height="100%" viewBox="0 0 271 270" version="1.1" xmlns="http://www.w3.org/2000/svg" xmlns:xlink="http://www.w3.org/1999/xlink" xml:space="preserve" xmlns:serif="http://www.serif.com/" style="fill-rule:evenodd;clip-rule:evenodd;stroke-linejoin:round;stroke-miterlimit:2;">
    <g id="SC" transform="matrix(1.02773,0,0,1.02773,-0.0493786,1.95929)">
        <g id="SouthCarolina" transform="matrix(2.87035,0,0,2.83728,-2026.43,-919.903)">
            <path d="M762.231,406.576L760.454,407.546L757.867,406.252L757.221,404.151L755.927,400.594L753.664,398.493L751.078,397.846L749.461,392.996L746.713,387.015L742.51,385.075L740.408,383.135L739.115,380.548L737.013,378.608L734.75,377.315L732.487,374.405L729.415,372.142L724.889,370.364L724.404,368.909L721.979,365.999L721.494,364.544L718.099,359.371L714.704,359.532L710.662,357.107L709.369,355.814L709.046,354.036L709.854,352.096L712.117,351.126L711.794,349.024L717.937,346.438L726.99,341.911L734.265,341.103L750.754,340.618L753.018,342.558L754.634,345.791L758.999,345.306L771.609,343.851L774.518,344.66L787.128,352.258L797.236,360.379L791.815,365.838L789.228,371.981L788.743,378.285L787.127,379.094L785.995,381.842L783.57,382.489L781.469,386.045L778.72,388.793L776.457,392.188L774.84,392.997L771.284,396.391L768.374,396.553L769.344,399.786L764.333,405.283L762.231,406.576Z" style="fill:rgb(46,98,126);fill-opacity:0.15;fill-rule:nonzero;"/>
        </g>
        <g id="SouthCarolina1" serif:id="SouthCarolina" transform="matrix(2.87035,0,0,2.83728,-2033.43,-928.903)">
            <path d="M762.231,406.576L760.454,407.546L757.867,406.252L757.221,404.151L755.927,400.594L753.664,398.493L751.078,397.846L749.461,392.996L746.713,387.015L742.51,385.075L740.408,383.135L739.115,380.548L737.013,378.608L734.75,377.315L732.487,374.405L729.415,372.142L724.889,370.364L724.404,368.909L721.979,365.999L721.494,364.544L718.099,359.371L714.704,359.532L710.662,357.107L709.369,355.814L709.046,354.036L709.854,352.096L712.117,351.126L711.794,349.024L717.937,346.438L726.99,341.911L734.265,341.103L750.754,340.618L753.018,342.558L754.634,345.791L758.999,345.306L771.609,343.851L774.518,344.66L787.128,352.258L797.236,360.379L791.815,365.838L789.228,371.981L788.743,378.285L787.127,379.094L785.995,381.842L783.57,382.489L781.469,386.045L778.72,388.793L776.457,392.188L774.84,392.997L771.284,396.391L768.374,396.553L769.344,399.786L764.333,405.283L762.231,406.576Z" style="fill:rgb(0,156,244);fill-rule:nonzero;"/>
        </g>
    </g>
</svg>
