<?xml version="1.0" encoding="UTF-8" standalone="no"?>
<!DOCTYPE svg PUBLIC "-//W3C//DTD SVG 1.1//EN" "http://www.w3.org/Graphics/SVG/1.1/DTD/svg11.dtd">
<svg width="100%" height="100%" viewBox="0 0 271 270" version="1.1" xmlns="http://www.w3.org/2000/svg" xmlns:xlink="http://www.w3.org/1999/xlink" xml:space="preserve" xmlns:serif="http://www.serif.com/" style="fill-rule:evenodd;clip-rule:evenodd;stroke-linejoin:round;stroke-miterlimit:2;">
    <g transform="matrix(1,0,0,1,0,22.5374)">
        <g id="Tennessee" transform="matrix(1.79907,0,0,1.77834,-1046.69,-482.784)">
            <path d="M698.053,314.267L646.16,319.279L630.4,321.057L625.779,321.57L621.911,321.542L621.911,325.422L613.504,325.907L606.553,326.554L595.457,326.606L595.192,332.442L593.054,338.717L592.059,341.733L590.71,346.115L590.387,348.701L586.345,350.964L587.8,354.521L586.83,358.886L585.862,359.675L593.118,359.481L617.205,357.541L622.54,357.379L630.623,356.894L658.429,354.308L668.6,353.5L677.02,352.53L685.426,351.398L690.276,350.59L690.145,346.08L691.924,344.625L694.672,343.979L695.319,340.261L699.522,337.512L703.402,336.057L707.605,332.501L711.97,330.399L712.843,326.874L717.177,322.994L717.824,322.832C717.824,322.832 717.824,323.964 718.632,323.964C719.44,323.964 720.572,324.287 720.572,324.287L722.835,320.731L724.937,320.084L727.2,320.407L728.817,316.851L730.932,314.605L731.531,313.638L731.707,309.706L730.223,309.418L727.798,311.357L719.877,311.519L707.882,313.42L698.053,314.267Z" style="fill:rgb(46,98,126);fill-opacity:0.15;fill-rule:nonzero;"/>
        </g>
        <g id="Tennessee1" serif:id="Tennessee" transform="matrix(1.79907,0,0,1.77834,-1052.78,-491.478)">
            <path d="M698.053,314.267L646.16,319.279L630.4,321.057L625.779,321.57L621.911,321.542L621.911,325.422L613.504,325.907L606.553,326.554L595.457,326.606L595.192,332.442L593.054,338.717L592.059,341.733L590.71,346.115L590.387,348.701L586.345,350.964L587.8,354.521L586.83,358.886L585.862,359.675L593.118,359.481L617.205,357.541L622.54,357.379L630.623,356.894L658.429,354.308L668.6,353.5L677.02,352.53L685.426,351.398L690.276,350.59L690.145,346.08L691.924,344.625L694.672,343.979L695.319,340.261L699.522,337.512L703.402,336.057L707.605,332.501L711.97,330.399L712.843,326.874L717.177,322.994L717.824,322.832C717.824,322.832 717.824,323.964 718.632,323.964C719.44,323.964 720.572,324.287 720.572,324.287L722.835,320.731L724.937,320.084L727.2,320.407L728.817,316.851L730.932,314.605L731.531,313.638L731.707,309.706L730.223,309.418L727.798,311.357L719.877,311.519L707.882,313.42L698.053,314.267Z" style="fill:rgb(0,156,244);fill-rule:nonzero;"/>
        </g>
    </g>
</svg>
