<?xml version="1.0" encoding="UTF-8" standalone="no"?>
<!DOCTYPE svg PUBLIC "-//W3C//DTD SVG 1.1//EN" "http://www.w3.org/Graphics/SVG/1.1/DTD/svg11.dtd">
<svg width="100%" height="100%" viewBox="0 0 271 270" version="1.1" xmlns="http://www.w3.org/2000/svg" xmlns:xlink="http://www.w3.org/1999/xlink" xml:space="preserve" xmlns:serif="http://www.serif.com/" style="fill-rule:evenodd;clip-rule:evenodd;stroke-linejoin:round;stroke-miterlimit:2;">
    <g id="TX" transform="matrix(1.01228,0,0,1.01228,-0.0122672,5.95906)">
        <g id="Texas" transform="matrix(1.04751,0,0,1.03544,-285.404,-328.042)">
            <path d="M358.053,327.012L380.744,328.098L411.837,329.241L409.502,352.697L409.205,370.851L409.274,372.932L413.617,376.751L415.354,377.573L417.163,377.826L417.849,376.57L418.739,377.437L420.476,377.918L422.081,377.188L423.22,377.597L422.923,381.002L427.198,382.033L429.874,382.855L433.829,383.381L436.022,385.21L439.271,383.634L442.059,383.999L444.092,386.786L445.167,387.107L445.007,389.072L448.095,390.239L450.863,388.435L452.371,388.8L454.725,388.96L455.159,390.833L459.799,392.822L462.455,392.618L464.444,388.503L464.785,388.503L465.928,390.4L470.364,391.407L473.701,392.618L476.994,393.372L479.144,392.618L479.99,390.103L483.692,390.103L485.59,390.857L488.654,389.281L489.316,389.281L489.681,390.4L493.956,390.4L496.359,389.145L498.027,389.441L499.443,391.314L502.323,392.983L505.845,394.058L508.588,395.476L511.035,397.098L514.328,396.208L516.269,397.19L516.78,407.33L517.115,417.032L517.801,426.566L518.327,430.613L521.002,435.21L522.077,439.277L525.939,445.566L526.489,448.446L527.014,449.453L526.328,456.949L523.677,461.337L524.636,464.197L524.271,466.712L523.424,474.027L522.053,476.747L522.657,481.133L516.992,482.718L507.131,487.245L506.161,489.185L503.574,491.125L501.473,492.579L500.179,493.388L494.521,498.723L491.773,500.824L486.438,504.057L480.78,506.482L474.475,509.877L472.697,511.332L466.877,514.889L463.482,515.535L459.603,521.032L455.561,521.355L454.591,523.295L456.854,525.235L455.399,530.731L454.106,535.258L452.974,539.138L452.166,543.664L452.974,546.089L454.753,553.04L455.723,559.184L457.501,561.932L456.531,563.387L453.459,565.327L447.801,561.447L442.305,560.315L441.012,560.8L437.778,560.154L433.575,557.082L428.402,555.95L420.804,552.555L418.702,548.676L417.409,542.209L414.176,540.269L413.529,538.006L414.176,537.359L414.499,533.965L413.206,533.318L412.559,532.348L413.853,527.983L412.236,525.72L409.003,524.427L405.608,520.062L402.051,513.434L397.848,510.847L398.01,508.907L392.675,496.621L391.867,492.418L390.089,490.478L389.927,489.023L383.945,483.688L381.359,480.617L381.359,479.485L378.772,477.383L371.983,476.252L364.546,475.605L361.475,473.342L356.948,475.12L353.392,476.575L351.128,479.808L350.158,483.526L345.794,489.67L343.369,492.094L340.782,491.125L339.004,489.993L337.064,489.346L333.184,487.083L333.184,486.436L331.406,484.496L326.233,482.395L318.796,474.635L316.533,469.947L316.533,461.864L313.3,455.398L312.815,452.649L311.198,451.679L310.067,449.578L305.055,447.476L303.762,445.86L296.649,437.938L295.356,434.705L290.667,432.442L289.212,428.077L286.626,425.167L284.686,424.682L284.037,420.004L292.039,420.69L321.074,423.434L350.109,425.034L352.395,401.257L356.281,345.702L357.882,326.955L359.254,326.984M458.23,560.961L457.664,553.848L454.916,546.654L454.35,539.622L455.886,531.377L459.2,524.507L462.676,519.091L465.828,515.535L466.475,515.777L461.706,522.405L457.341,528.952L455.32,535.581L454.997,540.754L455.886,546.897L458.473,554.091L458.958,559.264L459.119,560.719L458.23,560.961Z" style="fill:rgb(46,98,126);fill-opacity:0.15;fill-rule:nonzero;"/>
        </g>
        <g id="Texas1" serif:id="Texas" transform="matrix(1.04751,0,0,1.03544,-296.532,-335.21)">
            <path d="M358.053,327.012L380.744,328.098L411.837,329.241L409.502,352.697L409.205,370.851L409.274,372.932L413.617,376.751L415.354,377.573L417.163,377.826L417.849,376.57L418.739,377.437L420.476,377.918L422.081,377.188L423.22,377.597L422.923,381.002L427.198,382.033L429.874,382.855L433.829,383.381L436.022,385.21L439.271,383.634L442.059,383.999L444.092,386.786L445.167,387.107L445.007,389.072L448.095,390.239L450.863,388.435L452.371,388.8L454.725,388.96L455.159,390.833L459.799,392.822L462.455,392.618L464.444,388.503L464.785,388.503L465.928,390.4L470.364,391.407L473.701,392.618L476.994,393.372L479.144,392.618L479.99,390.103L483.692,390.103L485.59,390.857L488.654,389.281L489.316,389.281L489.681,390.4L493.956,390.4L496.359,389.145L498.027,389.441L499.443,391.314L502.323,392.983L505.845,394.058L508.588,395.476L511.035,397.098L514.328,396.208L516.269,397.19L516.78,407.33L517.115,417.032L517.801,426.566L518.327,430.613L521.002,435.21L522.077,439.277L525.939,445.566L526.489,448.446L527.014,449.453L526.328,456.949L523.677,461.337L524.636,464.197L524.271,466.712L523.424,474.027L522.053,476.747L522.657,481.133L516.992,482.718L507.131,487.245L506.161,489.185L503.574,491.125L501.473,492.579L500.179,493.388L494.521,498.723L491.773,500.824L486.438,504.057L480.78,506.482L474.475,509.877L472.697,511.332L466.877,514.889L463.482,515.535L459.603,521.032L455.561,521.355L454.591,523.295L456.854,525.235L455.399,530.731L454.106,535.258L452.974,539.138L452.166,543.664L452.974,546.089L454.753,553.04L455.723,559.184L457.501,561.932L456.531,563.387L453.459,565.327L447.801,561.447L442.305,560.315L441.012,560.8L437.778,560.154L433.575,557.082L428.402,555.95L420.804,552.555L418.702,548.676L417.409,542.209L414.176,540.269L413.529,538.006L414.176,537.359L414.499,533.965L413.206,533.318L412.559,532.348L413.853,527.983L412.236,525.72L409.003,524.427L405.608,520.062L402.051,513.434L397.848,510.847L398.01,508.907L392.675,496.621L391.867,492.418L390.089,490.478L389.927,489.023L383.945,483.688L381.359,480.617L381.359,479.485L378.772,477.383L371.983,476.252L364.546,475.605L361.475,473.342L356.948,475.12L353.392,476.575L351.128,479.808L350.158,483.526L345.794,489.67L343.369,492.094L340.782,491.125L339.004,489.993L337.064,489.346L333.184,487.083L333.184,486.436L331.406,484.496L326.233,482.395L318.796,474.635L316.533,469.947L316.533,461.864L313.3,455.398L312.815,452.649L311.198,451.679L310.067,449.578L305.055,447.476L303.762,445.86L296.649,437.938L295.356,434.705L290.667,432.442L289.212,428.077L286.626,425.167L284.686,424.682L284.037,420.004L292.039,420.69L321.074,423.434L350.109,425.034L352.395,401.257L356.281,345.702L357.882,326.955L359.254,326.984M458.23,560.961L457.664,553.848L454.916,546.654L454.35,539.622L455.886,531.377L459.2,524.507L462.676,519.091L465.828,515.535L466.475,515.777L461.706,522.405L457.341,528.952L455.32,535.581L454.997,540.754L455.886,546.897L458.473,554.091L458.958,559.264L459.119,560.719L458.23,560.961Z" style="fill:rgb(0,156,244);fill-rule:nonzero;"/>
        </g>
    </g>
</svg>
