<?xml version="1.0" encoding="UTF-8" standalone="no"?>
<!DOCTYPE svg PUBLIC "-//W3C//DTD SVG 1.1//EN" "http://www.w3.org/Graphics/SVG/1.1/DTD/svg11.dtd">
<svg width="100%" height="100%" viewBox="0 0 271 270" version="1.1" xmlns="http://www.w3.org/2000/svg" xmlns:xlink="http://www.w3.org/1999/xlink" xml:space="preserve" xmlns:serif="http://www.serif.com/" style="fill-rule:evenodd;clip-rule:evenodd;stroke-linejoin:round;stroke-miterlimit:2;">
    <g id="UT" transform="matrix(1.00758,0,0,1.00758,0.220228,-0.783348)">
        <g id="Utah" transform="matrix(2.19601,-0.221865,0.219308,2.17071,-386.03,-333.049)">
            <path d="M253.971,302.945L229.328,299.472L202.764,294.579L168.937,288.559L170.526,279.402L173.726,264.198L177.041,247.623L179.213,234.02L181.156,225.104L184.929,204.642L188.472,187.152L189.587,181.58L202.304,183.837L214.307,185.895L224.595,187.724L232.939,189.096L236.617,189.575L235.132,200.205L232.821,213.378L240.629,214.306L257.035,216.111L265.246,216.967L263.116,238.935L259.915,261.501L256.162,289.327L254.496,300.435L253.971,302.945Z" style="fill:rgb(46,98,126);fill-opacity:0.15;fill-rule:nonzero;"/>
        </g>
        <g id="Utah1" serif:id="Utah" transform="matrix(2.19601,-0.221865,0.219308,2.17071,-400.03,-350.049)">
            <path d="M253.971,302.945L229.328,299.472L202.764,294.579L168.937,288.559L170.526,279.402L173.726,264.198L177.041,247.623L179.213,234.02L181.156,225.104L184.929,204.642L188.472,187.152L189.587,181.58L202.304,183.837L214.307,185.895L224.595,187.724L232.939,189.096L236.617,189.575L235.132,200.205L232.821,213.378L240.629,214.306L257.035,216.111L265.246,216.967L263.116,238.935L259.915,261.501L256.162,289.327L254.496,300.435L253.971,302.945Z" style="fill:rgb(0,156,244);fill-rule:nonzero;"/>
        </g>
    </g>
</svg>
