<?xml version="1.0" encoding="UTF-8" standalone="no"?>
<!DOCTYPE svg PUBLIC "-//W3C//DTD SVG 1.1//EN" "http://www.w3.org/Graphics/SVG/1.1/DTD/svg11.dtd">
<svg width="100%" height="100%" viewBox="0 0 271 270" version="1.1" xmlns="http://www.w3.org/2000/svg" xmlns:xlink="http://www.w3.org/1999/xlink" xml:space="preserve" xmlns:serif="http://www.serif.com/" style="fill-rule:evenodd;clip-rule:evenodd;stroke-linejoin:round;stroke-miterlimit:2;">
    <g id="VT" transform="matrix(1.01082,0,0,1.01082,18.6595,0.0949061)">
        <g id="Vermont" transform="matrix(4.83014,0.410676,-0.405944,4.77449,-3915.06,-784.953)">
            <path d="M845.344,147.365L844.535,141.707L842.145,131.735L841.498,131.412L838.588,130.118L839.396,127.208L838.588,125.107L835.888,120.467L836.858,116.587L836.05,111.414L833.625,104.947L832.819,100.025L859.067,93.277L859.391,99.096L861.331,101.845L861.331,105.886L857.613,109.928L855.026,111.059L855.026,112.191L856.158,113.969L856.158,122.537L855.349,131.752L855.188,136.602L856.158,137.895L855.996,142.422L855.511,144.2L856.172,145.767L849.22,147.141L845.344,147.365Z" style="fill:rgb(46,98,126);fill-opacity:0.15;fill-rule:nonzero;"/>
        </g>
        <g id="Vermont1" serif:id="Vermont" transform="matrix(4.83014,0.410676,-0.405944,4.77449,-3931.34,-796.14)">
            <path d="M845.344,147.365L844.535,141.707L842.145,131.735L841.498,131.412L838.588,130.118L839.396,127.208L838.588,125.107L835.888,120.467L836.858,116.587L836.05,111.414L833.625,104.947L832.819,100.025L859.067,93.277L859.391,99.096L861.331,101.845L861.331,105.886L857.613,109.928L855.026,111.059L855.026,112.191L856.158,113.969L856.158,122.537L855.349,131.752L855.188,136.602L856.158,137.895L855.996,142.422L855.511,144.2L856.172,145.767L849.22,147.141L845.344,147.365Z" style="fill:rgb(0,156,244);fill-rule:nonzero;"/>
        </g>
    </g>
</svg>
