<?xml version="1.0" encoding="UTF-8" standalone="no"?>
<!DOCTYPE svg PUBLIC "-//W3C//DTD SVG 1.1//EN" "http://www.w3.org/Graphics/SVG/1.1/DTD/svg11.dtd">
<svg width="100%" height="100%" viewBox="0 0 271 270" version="1.1" xmlns="http://www.w3.org/2000/svg" xmlns:xlink="http://www.w3.org/1999/xlink" xml:space="preserve" xmlns:serif="http://www.serif.com/" style="fill-rule:evenodd;clip-rule:evenodd;stroke-linejoin:round;stroke-miterlimit:2;">
    <g id="VA" transform="matrix(1.02997,0,0,1.02997,-1.08992,10.9165)">
        <g id="Virginia" transform="matrix(1.88525,0,0,1.86353,-1313.71,-397.35)">
            <path d="M829.907,262.884L829.763,260.937L836.216,258.387L835.446,261.605L832.526,265.384L832.108,269.97L832.569,273.36L830.741,278.338L828.577,280.255L827.107,275.614L827.553,270.165L829.14,265.982L829.907,262.884ZM832.186,291.185L774.012,303.761L736.585,309.04L729.907,308.665L727.321,310.591L719.982,310.812L711.6,311.789L702.674,312.741L711.155,307.793L711.142,305.718L712.662,303.572L723.215,292.07L727.162,296.548L730.945,297.512L733.489,296.371L735.726,295.06L738.262,296.404L742.177,294.976L744.053,290.42L746.654,290.96L749.509,288.828L751.309,289.322L754.136,285.645L754.484,283.562L753.521,282.287L754.523,280.42L759.798,268.143L760.414,262.408L761.643,261.884L763.822,264.327L767.758,264.026L769.687,256.452L772.481,255.892L773.531,253.151L776.11,250.804L777.378,248.461L778.882,245.108L778.967,240.041L788.789,243.864C789.469,244.204 789.445,239.08 789.445,239.08L793.495,240.457L793.033,243.086L801.189,246.026L802.482,247.82L801.614,251.502L800.351,252.828L799.845,254.574L800.339,256.977L802.298,258.255L806.216,259.7L809.165,260.668L814.021,261.61L816.174,263.699L819.364,264.101L820.232,265.301L819.793,269.991L821.167,271.094L820.688,273.024L821.918,273.814L821.696,275.199L819.002,275.104L819.091,276.719L821.372,278.262L821.493,279.674L823.267,281.459L823.758,283.984L821.205,285.365L822.778,286.859L828.579,285.173L832.186,291.185Z" style="fill:rgb(46,98,126);fill-opacity:0.15;fill-rule:nonzero;"/>
        </g>
        <g id="Virginia1" serif:id="Virginia" transform="matrix(1.88525,0,0,1.86353,-1321.71,-409.379)">
            <path d="M829.907,262.884L829.763,260.937L836.216,258.387L835.446,261.605L832.526,265.384L832.108,269.97L832.569,273.36L830.741,278.338L828.577,280.255L827.107,275.614L827.553,270.165L829.14,265.982L829.907,262.884ZM832.186,291.185L774.012,303.761L736.585,309.04L729.907,308.665L727.321,310.591L719.982,310.812L711.6,311.789L702.674,312.741L711.155,307.793L711.142,305.718L712.662,303.572L723.215,292.07L727.162,296.548L730.945,297.512L733.489,296.371L735.726,295.06L738.262,296.404L742.177,294.976L744.053,290.42L746.654,290.96L749.509,288.828L751.309,289.322L754.136,285.645L754.484,283.562L753.521,282.287L754.523,280.42L759.798,268.143L760.414,262.408L761.643,261.884L763.822,264.327L767.758,264.026L769.687,256.452L772.481,255.892L773.531,253.151L776.11,250.804L777.378,248.461L778.882,245.108L778.967,240.041L788.789,243.864C789.469,244.204 789.445,239.08 789.445,239.08L793.495,240.457L793.033,243.086L801.189,246.026L802.482,247.82L801.614,251.502L800.351,252.828L799.845,254.574L800.339,256.977L802.298,258.255L806.216,259.7L809.165,260.668L814.021,261.61L816.174,263.699L819.364,264.101L820.232,265.301L819.793,269.991L821.167,271.094L820.688,273.024L821.918,273.814L821.696,275.199L819.002,275.104L819.091,276.719L821.372,278.262L821.493,279.674L823.267,281.459L823.758,283.984L821.205,285.365L822.778,286.859L828.579,285.173L832.186,291.185Z" style="fill:rgb(0,156,244);fill-rule:nonzero;"/>
        </g>
    </g>
</svg>
