<?xml version="1.0" encoding="UTF-8" standalone="no"?>
<!DOCTYPE svg PUBLIC "-//W3C//DTD SVG 1.1//EN" "http://www.w3.org/Graphics/SVG/1.1/DTD/svg11.dtd">
<svg width="100%" height="100%" viewBox="0 0 271 270" version="1.1" xmlns="http://www.w3.org/2000/svg" xmlns:xlink="http://www.w3.org/1999/xlink" xml:space="preserve" xmlns:serif="http://www.serif.com/" style="fill-rule:evenodd;clip-rule:evenodd;stroke-linejoin:round;stroke-miterlimit:2;">
    <g id="WA" transform="matrix(1.05066,0,0,1.05066,-5.69374,3.92351)">
        <g id="Washington1" transform="matrix(2.14287,-0.0728875,0.0720477,2.11818,-114.313,51.4705)">
            <path d="M146.764,80.381C138.389,78.116 133.266,77.354 127.528,77.519C123.226,77.643 119.393,77.431 119.01,77.048C118.627,76.665 116.879,76.851 115.125,77.463C113.344,78.084 110.627,78.199 108.967,77.725C107.333,77.258 104.988,76.754 103.756,76.606C102.524,76.457 98.61,75.382 95.059,74.216C91.156,72.935 86.986,72.305 84.517,72.624C78.689,73.377 75.206,70.899 75.857,66.464C76.466,62.314 74.239,56.605 72.011,56.605C71.103,56.605 69.79,55.825 69.093,54.873C68.397,53.92 66.386,53.07 64.625,52.984C62.864,52.897 61.064,52.332 60.625,51.726C59.321,49.929 59.682,47.908 61.307,47.908C63.392,47.908 64.446,44.693 62.951,42.892C61.357,40.971 62.472,38.124 64.819,38.124C66.465,38.124 66.441,37.89 64.586,35.84C62.909,33.987 62.562,32.112 62.75,25.915C62.877,21.713 62.49,17.358 61.89,16.236C60.721,14.053 62.397,5.509 63.994,5.509C64.464,5.509 66.035,6.779 67.485,8.331C70.596,11.661 73.552,13.293 81.581,16.112C87.901,18.332 90.233,18.233 90.233,15.747C90.233,14.9 91.089,14.245 92.135,14.292C93.272,14.344 93.491,14.599 92.679,14.927C91.931,15.228 91.32,16.185 91.32,17.053C91.32,18.82 94.452,23.991 95.522,23.991C96.769,23.991 96.067,7.198 94.715,4.672C92.6,0.721 94.104,0.188 101.364,2.313C113.664,5.913 149.236,15.2 161.984,18.14C168.86,19.725 174.617,21.129 174.778,21.258C174.938,21.388 174.084,24.624 172.879,28.45C169.853,38.054 161.984,75.247 161.984,79.941C161.984,84.57 162.227,84.563 146.764,80.381L146.764,80.381Z" style="fill:rgb(46,98,126);fill-opacity:0.15;fill-rule:nonzero;"/>
        </g>
        <g id="Washington11" serif:id="Washington1" transform="matrix(2.14287,-0.0728875,0.0720477,2.11818,-125.313,36.4705)">
            <path d="M146.764,80.381C138.389,78.116 133.266,77.354 127.528,77.519C123.226,77.643 119.393,77.431 119.01,77.048C118.627,76.665 116.879,76.851 115.125,77.463C113.344,78.084 110.627,78.199 108.967,77.725C107.333,77.258 104.988,76.754 103.756,76.606C102.524,76.457 98.61,75.382 95.059,74.216C91.156,72.935 86.986,72.305 84.517,72.624C78.689,73.377 75.206,70.899 75.857,66.464C76.466,62.314 74.239,56.605 72.011,56.605C71.103,56.605 69.79,55.825 69.093,54.873C68.397,53.92 66.386,53.07 64.625,52.984C62.864,52.897 61.064,52.332 60.625,51.726C59.321,49.929 59.682,47.908 61.307,47.908C63.392,47.908 64.446,44.693 62.951,42.892C61.357,40.971 62.472,38.124 64.819,38.124C66.465,38.124 66.441,37.89 64.586,35.84C62.909,33.987 62.562,32.112 62.75,25.915C62.877,21.713 62.49,17.358 61.89,16.236C60.721,14.053 62.397,5.509 63.994,5.509C64.464,5.509 66.035,6.779 67.485,8.331C70.596,11.661 73.552,13.293 81.581,16.112C87.901,18.332 90.233,18.233 90.233,15.747C90.233,14.9 91.089,14.245 92.135,14.292C93.272,14.344 93.491,14.599 92.679,14.927C91.931,15.228 91.32,16.185 91.32,17.053C91.32,18.82 94.452,23.991 95.522,23.991C96.769,23.991 96.067,7.198 94.715,4.672C92.6,0.721 94.104,0.188 101.364,2.313C113.664,5.913 149.236,15.2 161.984,18.14C168.86,19.725 174.617,21.129 174.778,21.258C174.938,21.388 174.084,24.624 172.879,28.45C169.853,38.054 161.984,75.247 161.984,79.941C161.984,84.57 162.227,84.563 146.764,80.381L146.764,80.381Z" style="fill:rgb(0,156,244);fill-rule:nonzero;"/>
        </g>
    </g>
</svg>
