<?xml version="1.0" encoding="UTF-8" standalone="no"?>
<!DOCTYPE svg PUBLIC "-//W3C//DTD SVG 1.1//EN" "http://www.w3.org/Graphics/SVG/1.1/DTD/svg11.dtd">
<svg width="100%" height="100%" viewBox="0 0 271 270" version="1.1" xmlns="http://www.w3.org/2000/svg" xmlns:xlink="http://www.w3.org/1999/xlink" xml:space="preserve" xmlns:serif="http://www.serif.com/" style="fill-rule:evenodd;clip-rule:evenodd;stroke-linejoin:round;stroke-miterlimit:2;">
    <g id="WI" transform="matrix(1.00365,0,0,1.00365,14.0125,0.00418212)">
        <g id="Wisconsin" transform="matrix(2.62522,0.0721995,-0.0713676,2.59498,-1367.91,-276.775)">
            <path d="M613.941,190.819L614.312,187.849L612.695,183.323L612.048,177.18L610.917,174.755L611.887,171.683L612.695,168.774L614.15,166.187L613.503,162.792L612.857,159.236L613.342,157.457L615.282,155.032L615.443,152.284L614.635,150.991L615.282,148.404L615.767,145.171L618.515,139.513L621.425,132.723L621.586,130.46L621.263,129.49L620.455,129.975L616.252,136.28L613.503,140.321L611.563,142.1L610.755,144.363L609.3,145.171L608.169,147.111L606.714,146.788L606.552,145.009L607.845,142.585L609.947,137.896L611.725,136.28L612.826,133.988L611.196,133.083L609.824,131.711L608.224,121.423L604.566,120.28L603.194,117.994L590.62,115.25L588.105,114.107L579.874,111.821L571.644,110.678L567.475,105.273L566.945,106.534L565.814,106.373L565.167,105.241L562.419,104.433L561.287,104.594L559.509,105.564L558.539,104.918L559.185,102.978L561.125,99.906L562.257,98.775L560.317,97.32L558.215,98.128L555.306,100.068L547.869,103.301L544.959,103.948L542.049,103.463L541.068,102.584L538.951,105.42L538.722,108.163L538.722,116.622L537.579,118.223L532.321,122.109L530.035,128.053L530.492,128.282L533.007,130.339L533.693,133.54L531.864,136.741L531.864,140.628L532.321,147.258L535.293,150.23L538.722,150.23L540.551,153.43L543.981,153.888L547.867,159.603L554.955,163.718L557.012,166.462L557.927,173.892L558.613,177.207L560.899,178.807L561.127,180.179L559.07,183.609L559.298,186.809L561.813,190.696L564.328,191.839L567.3,192.296L568.643,193.676L577.816,193.676L603.883,192.189L613.941,190.819Z" style="fill:rgb(46,98,126);fill-opacity:0.15;fill-rule:nonzero;"/>
        </g>
        <g id="Wisconsin1" serif:id="Wisconsin" transform="matrix(2.62522,0.0721995,-0.0713676,2.59498,-1381.07,-291.955)">
            <path d="M613.941,190.819L614.312,187.849L612.695,183.323L612.048,177.18L610.917,174.755L611.887,171.683L612.695,168.774L614.15,166.187L613.503,162.792L612.857,159.236L613.342,157.457L615.282,155.032L615.443,152.284L614.635,150.991L615.282,148.404L615.767,145.171L618.515,139.513L621.425,132.723L621.586,130.46L621.263,129.49L620.455,129.975L616.252,136.28L613.503,140.321L611.563,142.1L610.755,144.363L609.3,145.171L608.169,147.111L606.714,146.788L606.552,145.009L607.845,142.585L609.947,137.896L611.725,136.28L612.826,133.988L611.196,133.083L609.824,131.711L608.224,121.423L604.566,120.28L603.194,117.994L590.62,115.25L588.105,114.107L579.874,111.821L571.644,110.678L567.475,105.273L566.945,106.534L565.814,106.373L565.167,105.241L562.419,104.433L561.287,104.594L559.509,105.564L558.539,104.918L559.185,102.978L561.125,99.906L562.257,98.775L560.317,97.32L558.215,98.128L555.306,100.068L547.869,103.301L544.959,103.948L542.049,103.463L541.068,102.584L538.951,105.42L538.722,108.163L538.722,116.622L537.579,118.223L532.321,122.109L530.035,128.053L530.492,128.282L533.007,130.339L533.693,133.54L531.864,136.741L531.864,140.628L532.321,147.258L535.293,150.23L538.722,150.23L540.551,153.43L543.981,153.888L547.867,159.603L554.955,163.718L557.012,166.462L557.927,173.892L558.613,177.207L560.899,178.807L561.127,180.179L559.07,183.609L559.298,186.809L561.813,190.696L564.328,191.839L567.3,192.296L568.643,193.676L577.816,193.676L603.883,192.189L613.941,190.819Z" style="fill:rgb(0,156,244);fill-rule:nonzero;"/>
        </g>
    </g>
</svg>
