<svg xmlns="http://www.w3.org/2000/svg" width="227.6" height="190.665" viewBox="0 0 227.6 190.665"><defs><style>.a{fill:#c30124;}.b{fill:#19436b;}.c{fill:#0c3459;}</style></defs><g transform="translate(-1478.977 -165.359)"><g transform="translate(1478.976 254.548)"><path class="a" d="M1500.511,1171.937c.228,1.167.459,2.346.687,3.519,36.166,5.266,71.031,24.293,101.331,43.768,30.869,19.3,57.6,39.195,90.279,42.071q3.938-11.649,7.874-23.3c-35.47.639-64.314-15.193-96.426-30.893-31.882-15.966-67.348-31.911-103.745-35.164" transform="translate(-1498.344 -1159.818)"/><path class="a" d="M1478.976,1052.415c.22,1.157.444,2.313.664,3.475,36.964-1.2,73.856,7.94,109.344,16.15,34.962,7.731,68.466,14.52,109.754,5.945q3.923-11.655,7.839-23.312c-43.754,12.216-79.34,9.513-115.624,5.362-37.154-4.729-74.737-10.813-111.976-7.62" transform="translate(-1478.976 -1051.526)"/><path class="a" d="M1489.648,1115.97q.338,1.745.676,3.495c36.546,2.025,72.391,16.1,105.248,29.931,32.887,13.507,63.017,26.861,100.13,24.06q3.933-11.653,7.855-23.305c-39.737,6.376-71.968-2.9-106.135-12.82-34.486-10.338-70.975-21.342-107.773-21.361" transform="translate(-1488.574 -1109.484)"/></g><path class="b" d="M2284.915,505.363a10.379,10.379,0,0,1,4.154-.884,13.146,13.146,0,0,1,5.483,1.124,13.917,13.917,0,0,1,4.324,3.03,13.593,13.593,0,0,1,2.86,4.493,14.907,14.907,0,0,1,1.023,5.518,14.482,14.482,0,0,1-1.058,5.513,13.85,13.85,0,0,1-2.959,4.528,14.041,14.041,0,0,1-4.53,3.066,14.462,14.462,0,0,1-5.756,1.125,12.564,12.564,0,0,1-4.7-.818,12.787,12.787,0,0,1-3.476-2.01,8.957,8.957,0,0,1-2.177-2.552,5.187,5.187,0,0,1-.751-2.451,2.083,2.083,0,0,1,.512-1.363,1.721,1.721,0,0,1,1.4-.615,2.1,2.1,0,0,1,1.5.513,4.558,4.558,0,0,1,.922,1.223c.249.481.5,1.012.748,1.6a6.059,6.059,0,0,0,.99,1.6,5.03,5.03,0,0,0,1.667,1.224,6.522,6.522,0,0,0,2.825.51,4.279,4.279,0,0,0,2.519-.817,6.96,6.96,0,0,0,2.008-2.316,13.253,13.253,0,0,0,1.329-3.5,19.331,19.331,0,0,0,.476-4.459,14.839,14.839,0,0,0-1.8-7.835q-1.8-2.923-4.527-2.925a7.952,7.952,0,0,0-2.011.237,4.387,4.387,0,0,0-1.7.886,7.049,7.049,0,0,0-1.5,1.84,14.58,14.58,0,0,0-1.327,3.164h-3.066l2.111-23.356H2292.2a18.022,18.022,0,0,0,3.71-.307,5.71,5.71,0,0,0,2.214-.921,3.484,3.484,0,0,0,1.19-1.6,20.774,20.774,0,0,0,.717-2.348h1.905l-1.634,12.8h-17.294l-1.021,9.193a6.859,6.859,0,0,1,2.925-2.11" transform="translate(-718.028 -287.901)"/><path class="c" d="M2600.4,531.1a9.566,9.566,0,0,0-6.91,2.963,10.813,10.813,0,0,0-2.113,3.231,10.333,10.333,0,0,0,0,7.9,10.783,10.783,0,0,0,2.113,3.235,9.546,9.546,0,0,0,13.819,0,10.667,10.667,0,0,0,2.114-3.235,10.348,10.348,0,0,0,0-7.9,10.7,10.7,0,0,0-2.114-3.231,9.555,9.555,0,0,0-6.908-2.963m0-5.722a15.3,15.3,0,0,1,6.163,1.261,16,16,0,0,1,8.445,8.446,15.3,15.3,0,0,1,1.26,6.162,15.523,15.523,0,0,1-1.26,6.2,15.878,15.878,0,0,1-8.445,8.477,15.659,15.659,0,0,1-12.326,0,15.888,15.888,0,0,1-8.441-8.477,15.439,15.439,0,0,1-1.264-6.2,15.214,15.214,0,0,1,1.264-6.162,16.008,16.008,0,0,1,8.441-8.446,15.3,15.3,0,0,1,6.164-1.261" transform="translate(-994.29 -323.781)"/><path class="c" d="M3062.184,603.636l2.1,6.452h6.783l-5.488,3.982,2.1,6.453-5.489-3.986-5.485,3.986,2.1-6.453-5.489-3.982h6.783Z" transform="translate(-1415.881 -394.167)"/><path class="c" d="M1956.349,603.636l2.1,6.452h6.782l-5.488,3.982,2.1,6.453-5.487-3.986-5.489,3.986,2.1-6.453-5.489-3.982h6.783Z" transform="translate(-421.342 -394.167)"/><path class="c" d="M1533.208,189.518a3.841,3.841,0,0,0,1.354-.914,3.59,3.59,0,0,0,.8-1.336,5.421,5.421,0,0,0,0-3.283,3.6,3.6,0,0,0-.8-1.336,3.885,3.885,0,0,0-1.354-.914,4.9,4.9,0,0,0-1.894-.339H1528.3V186.1a12.473,12.473,0,0,0,.12,1.945,2.314,2.314,0,0,0,.457,1.134,1.67,1.67,0,0,0,.981.541,8.5,8.5,0,0,0,1.693.135h-.237a4.89,4.89,0,0,0,1.894-.338m-4.907-9.646h1.9a3.5,3.5,0,0,0,2.809-1.066,3.793,3.793,0,0,0,.914-2.555,4.426,4.426,0,0,0-.22-1.4,3.252,3.252,0,0,0-.677-1.167,3.1,3.1,0,0,0-1.168-.8,4.41,4.41,0,0,0-1.657-.288h-1.9Zm7.649.474a5.911,5.911,0,0,1,3.1,2.064,5.309,5.309,0,0,1,1.1,3.282,5.231,5.231,0,0,1-.475,2.217,5.313,5.313,0,0,1-1.371,1.811,6.531,6.531,0,0,1-2.148,1.219,8.547,8.547,0,0,1-2.842.439h-12.454V190.4a8.465,8.465,0,0,0,1.691-.135,1.6,1.6,0,0,0,.981-.575,2.5,2.5,0,0,0,.44-1.218,16.342,16.342,0,0,0,.1-2.031V176.015a16.25,16.25,0,0,0-.1-2.048,2.489,2.489,0,0,0-.44-1.2,1.609,1.609,0,0,0-.981-.575,8.5,8.5,0,0,0-1.691-.136v-.981h11.505a7.439,7.439,0,0,1,2.522.406,6.141,6.141,0,0,1,1.928,1.083,4.582,4.582,0,0,1,1.219,1.607,4.744,4.744,0,0,1,.422,1.98,4.62,4.62,0,0,1-.659,2.419,4.982,4.982,0,0,1-1.845,1.777" transform="translate(-37.666 -5.14)"/><path class="c" d="M1751.86,191.374v-.982a8.564,8.564,0,0,0,1.691-.134,1.6,1.6,0,0,0,.983-.576,2.506,2.506,0,0,0,.439-1.219,16.092,16.092,0,0,0,.1-2.03V176.01a16.047,16.047,0,0,0-.1-2.048,2.485,2.485,0,0,0-.439-1.2,1.607,1.607,0,0,0-.983-.575,8.551,8.551,0,0,0-1.691-.135v-.982h10.694v.982a8.571,8.571,0,0,0-1.693.135,1.6,1.6,0,0,0-.981.575,2.593,2.593,0,0,0-.456,1.2,13.755,13.755,0,0,0-.12,2.048v10.423a13.8,13.8,0,0,0,.12,2.03,2.612,2.612,0,0,0,.456,1.219,1.6,1.6,0,0,0,.981.576,8.584,8.584,0,0,0,1.693.134v.982Z" transform="translate(-245.42 -5.134)"/><path class="c" d="M1903.594,173.967a2.49,2.49,0,0,0-.44-1.2,1.609,1.609,0,0,0-.981-.575,8.516,8.516,0,0,0-1.693-.135v-.981h10.694v.981a8.511,8.511,0,0,0-1.691.135,1.609,1.609,0,0,0-.983.575,2.6,2.6,0,0,0-.456,1.2,13.785,13.785,0,0,0-.118,2.048V185.9a13.862,13.862,0,0,0,.118,2.031,2.614,2.614,0,0,0,.456,1.218,1.6,1.6,0,0,0,.983.575,8.464,8.464,0,0,0,1.691.135h3.893a9.175,9.175,0,0,0,1.877-.151,2.843,2.843,0,0,0,1.1-.458,1.753,1.753,0,0,0,.592-.8,10.693,10.693,0,0,0,.355-1.168l.169-.677h.981l-.271,4.772H1900.48V190.4a8.47,8.47,0,0,0,1.693-.135,1.6,1.6,0,0,0,.981-.575,2.505,2.505,0,0,0,.44-1.218,16.394,16.394,0,0,0,.1-2.031V176.015a16.311,16.311,0,0,0-.1-2.048" transform="translate(-379.082 -5.14)"/><path class="c" d="M2133.256,173.967a2.487,2.487,0,0,0-.44-1.2,1.605,1.605,0,0,0-.981-.575,8.517,8.517,0,0,0-1.693-.135v-.981h10.694v.981a8.512,8.512,0,0,0-1.691.135,1.612,1.612,0,0,0-.982.575,2.614,2.614,0,0,0-.456,1.2,13.807,13.807,0,0,0-.118,2.048V185.9a13.884,13.884,0,0,0,.118,2.031,2.63,2.63,0,0,0,.456,1.218,1.606,1.606,0,0,0,.982.575,8.465,8.465,0,0,0,1.691.135h3.893a9.175,9.175,0,0,0,1.877-.151,2.843,2.843,0,0,0,1.1-.458,1.751,1.751,0,0,0,.592-.8,11,11,0,0,0,.356-1.168l.168-.677h.981l-.27,4.772h-19.393V190.4a8.471,8.471,0,0,0,1.693-.135,1.6,1.6,0,0,0,.981-.575,2.5,2.5,0,0,0,.44-1.218,16.386,16.386,0,0,0,.1-2.031V176.015a16.3,16.3,0,0,0-.1-2.048" transform="translate(-585.629 -5.14)"/><path class="c" d="M2466.032,175.84h-.98l-.169-.677a10.552,10.552,0,0,0-.356-1.167,1.746,1.746,0,0,0-.592-.795,2.82,2.82,0,0,0-1.1-.458,9.191,9.191,0,0,0-1.878-.152h-3.384v13.842a13.86,13.86,0,0,0,.118,2.031,2.627,2.627,0,0,0,.457,1.219,1.6,1.6,0,0,0,.981.576,8.571,8.571,0,0,0,1.691.134v.982h-10.694v-.982a8.576,8.576,0,0,0,1.693-.134,1.6,1.6,0,0,0,.981-.576,2.493,2.493,0,0,0,.44-1.219,16.132,16.132,0,0,0,.1-2.031V172.591h-3.384a8.972,8.972,0,0,0-1.845.152,2.831,2.831,0,0,0-1.1.458,1.746,1.746,0,0,0-.592.795,10.317,10.317,0,0,0-.355,1.167l-.169.677h-1.016l.3-4.772h20.577Z" transform="translate(-868.691 -5.134)"/><path class="c" d="M2706.957,179.738a4.315,4.315,0,0,0,1.066-2.944,4.38,4.38,0,0,0-1.066-2.961,4.084,4.084,0,0,0-3.267-1.235h-1.859v8.36h1.859a4.117,4.117,0,0,0,3.267-1.219m2.893,6.328q1.119,1.218,1.964,2.013a13.677,13.677,0,0,0,1.556,1.287,5.483,5.483,0,0,0,1.371.71,7.652,7.652,0,0,0,1.439.322v.981h-7.346l-6.022-8.9h-.981v3.959a14,14,0,0,0,.117,2.03,2.637,2.637,0,0,0,.458,1.219,1.593,1.593,0,0,0,.981.576,8.543,8.543,0,0,0,1.691.135v.981h-10.694V190.4a8.576,8.576,0,0,0,1.693-.135,1.6,1.6,0,0,0,.981-.576,2.515,2.515,0,0,0,.44-1.219,16.339,16.339,0,0,0,.1-2.03V176.015a16.292,16.292,0,0,0-.1-2.048,2.494,2.494,0,0,0-.44-1.2,1.6,1.6,0,0,0-.981-.575,8.57,8.57,0,0,0-1.693-.135v-.981h11.337a8.26,8.26,0,0,1,2.843.456,6.826,6.826,0,0,1,2.15,1.236,5.329,5.329,0,0,1,1.37,1.811,5.249,5.249,0,0,1,.474,2.216,5.182,5.182,0,0,1-1.609,3.824,6.961,6.961,0,0,1-4.382,1.862Z" transform="translate(-1093.083 -5.14)"/><path class="c" d="M2930.733,171.755l-2.674,6.193h5.381Zm-4.74,10.932c-.384.9-.4,1.556-.067,1.962s1.207.61,2.605.61v.981h-8.19v-.981a7.015,7.015,0,0,0,1.489-.135,2.946,2.946,0,0,0,1.066-.458,3.23,3.23,0,0,0,.83-.9,11.114,11.114,0,0,0,.779-1.488l7.343-16.922h.71l7.379,16.922c.247.541.473,1,.676,1.371a3.162,3.162,0,0,0,.727.913,2.711,2.711,0,0,0,1.068.525,6.661,6.661,0,0,0,1.657.169v.981h-11.1v-.981a7.98,7.98,0,0,0,1.761-.153,1.727,1.727,0,0,0,.913-.457.984.984,0,0,0,.219-.795,3.891,3.891,0,0,0-.355-1.168l-1.422-3.216h-6.7Z" transform="translate(-1296.299)"/><path class="c" d="M3186.412,185.868q-.172-.609-.356-1.151a1.518,1.518,0,0,0-.524-.778,9.723,9.723,0,0,1-2.893,2.115,7.859,7.859,0,0,1-3.4.762,9.773,9.773,0,0,1-4.027-.846,10.768,10.768,0,0,1-6.362-9.882,10.77,10.77,0,0,1,.813-4.163,10.592,10.592,0,0,1,5.549-5.719,9.764,9.764,0,0,1,4.027-.846,8.016,8.016,0,0,1,3.4.744,9.227,9.227,0,0,1,2.893,2.132,1.737,1.737,0,0,0,.524-.778c.124-.339.242-.722.356-1.15h.947v7.445h-.982a8.983,8.983,0,0,0-2.587-5.042,6.4,6.4,0,0,0-4.417-1.726,4.79,4.79,0,0,0-2.876.829,6.1,6.1,0,0,0-1.844,2.148,9.713,9.713,0,0,0-.966,2.928,18.987,18.987,0,0,0,0,6.379,9.715,9.715,0,0,0,.966,2.945,6.092,6.092,0,0,0,1.844,2.148,4.786,4.786,0,0,0,2.876.829,6.331,6.331,0,0,0,4.417-1.759,9.11,9.11,0,0,0,2.587-5.009h.982v7.446Z" transform="translate(-1519.792)"/><path class="c" d="M3428.431,188.4a5.592,5.592,0,0,0,1.05.811,8.231,8.231,0,0,0,1.235.628,10.567,10.567,0,0,0,1.185.405,3.59,3.59,0,0,0,.9.153v.981h-11.237V190.4a2.483,2.483,0,0,0,1.777-.474q.458-.473-.526-1.523l-6.666-7.242-1.455,1.184v4.095a14.031,14.031,0,0,0,.118,2.031,2.608,2.608,0,0,0,.457,1.218,1.593,1.593,0,0,0,.981.576,8.519,8.519,0,0,0,1.693.135v.981h-10.694V190.4a8.5,8.5,0,0,0,1.691-.135,1.594,1.594,0,0,0,.981-.576,2.5,2.5,0,0,0,.44-1.218,16.415,16.415,0,0,0,.1-2.031V176.015a16.353,16.353,0,0,0-.1-2.048,2.486,2.486,0,0,0-.44-1.2,1.606,1.606,0,0,0-.981-.576,8.562,8.562,0,0,0-1.691-.134v-.982h10.694v.982a8.578,8.578,0,0,0-1.693.134,1.605,1.605,0,0,0-.981.576,2.6,2.6,0,0,0-.457,1.2,13.977,13.977,0,0,0-.118,2.048v4.535l7.107-5.719q.305-.271.761-.729a3.438,3.438,0,0,0,.678-.914.749.749,0,0,0-.018-.795q-.238-.338-1.285-.338v-.982h8.155v.982a8.472,8.472,0,0,0-1.862.185,6.426,6.426,0,0,0-1.506.542,9.495,9.495,0,0,0-1.371.863q-.678.508-1.489,1.185l-4.8,3.858Z" transform="translate(-1734.199 -5.14)"/></g></svg>