<svg width="100%" height="100%" viewBox="0 0 313 17" version="1.1" xmlns="http://www.w3.org/2000/svg" xmlns:xlink="http://www.w3.org/1999/xlink" xml:space="preserve" xmlns:serif="http://www.serif.com/" style="fill-rule:evenodd;clip-rule:evenodd;stroke-linejoin:round;stroke-miterlimit:2;"><g><path d="M4.005,6.706l0,9.025l-1.587,0l-0,-9.025l-2.418,0l-0,-1.492l6.416,0l0,1.492l-2.411,0Z" style="fill:#FFFFFF;fill-rule:nonzero;"/><path d="M9.42,9.328l4.536,0l0,-4.114l1.587,0l0,10.517l-1.587,0l0,-4.911l-4.536,0l-0,4.911l-1.587,0l-0,-10.517l1.587,0l-0,4.114Z" style="fill:#FFFFFF;fill-rule:nonzero;"/><path d="M23.867,6.706l-4.217,0l0,2.527l4.094,0l0,1.492l-4.094,-0l0,3.514l4.217,0l-0,1.492l-5.804,0l0,-10.517l5.804,0l-0,1.492Z" style="fill:#FFFFFF;fill-rule:nonzero;"/><path d="M43.246,1.886l-0,2.615c-1.276,-1.067 -2.597,-1.601 -3.961,-1.601c-1.504,-0 -2.771,0.54 -3.8,1.62c-1.037,1.074 -1.555,2.388 -1.555,3.943c0,1.535 0.518,2.83 1.555,3.885c1.036,1.055 2.305,1.582 3.809,1.582c0.777,0 1.437,-0.126 1.981,-0.379c0.303,-0.126 0.617,-0.297 0.943,-0.511c0.325,-0.215 0.668,-0.474 1.028,-0.777l-0,2.663c-1.264,0.713 -2.59,1.07 -3.98,1.07c-2.091,0 -3.876,-0.729 -5.355,-2.189c-1.472,-1.472 -2.208,-3.247 -2.208,-5.326c0,-1.863 0.616,-3.525 1.848,-4.984c1.517,-1.788 3.478,-2.682 5.885,-2.682c1.314,-0 2.584,0.357 3.81,1.071Z" style="fill:#FFFFFF;fill-rule:nonzero;"/><path d="M51.342,6.706l-4.216,0l-0,2.527l4.093,0l0,1.492l-4.093,-0l-0,3.514l4.216,0l0,1.492l-5.803,0l-0,-10.517l5.803,0l0,1.492Z" style="fill:#FFFFFF;fill-rule:nonzero;"/><path d="M53.426,15.731l0,-11.232l7.67,8.024l-0,-7.309l1.587,0l-0,11.157l-7.67,-8.003l0,7.363l-1.587,0Z" style="fill:#FFFFFF;fill-rule:nonzero;"/><path d="M68.104,6.706l0,9.025l-1.587,0l0,-9.025l-2.418,0l0,-1.492l6.417,0l-0,1.492l-2.412,0Z" style="fill:#FFFFFF;fill-rule:nonzero;"/><path d="M77.736,6.706l-4.217,0l0,2.527l4.094,0l-0,1.492l-4.094,-0l0,3.514l4.217,0l-0,1.492l-5.804,0l0,-10.517l5.804,0l-0,1.492Z" style="fill:#FFFFFF;fill-rule:nonzero;"/><path d="M83.382,11.249l3.256,4.482l-1.941,0l-3.004,-4.305l-0.286,0l-0,4.305l-1.587,0l-0,-10.517l1.859,0c1.39,0 2.393,0.262 3.011,0.784c0.681,0.581 1.022,1.348 1.022,2.302c-0,0.745 -0.214,1.385 -0.641,1.921c-0.427,0.536 -0.99,0.878 -1.689,1.028Zm-1.975,-1.205l0.504,-0c1.503,-0 2.254,-0.575 2.254,-1.724c0,-1.076 -0.731,-1.614 -2.193,-1.614l-0.565,0l-0,3.338Z" style="fill:#FFFFFF;fill-rule:nonzero;"/><path d="M97.774,6.706l-3.664,0l-0,2.527l3.535,0l-0,1.492l-3.535,-0l-0,5.006l-1.587,0l-0,-10.517l5.251,0l0,1.492Z" style="fill:#FFFFFF;fill-rule:nonzero;"/><path d="M99.102,10.425c0,-1.48 0.543,-2.752 1.628,-3.814c1.081,-1.063 2.38,-1.594 3.896,-1.594c1.499,-0 2.784,0.536 3.856,1.607c1.076,1.072 1.614,2.359 1.614,3.862c-0,1.512 -0.541,2.795 -1.621,3.849c-1.085,1.058 -2.396,1.587 -3.93,1.587c-1.358,-0 -2.577,-0.47 -3.658,-1.41c-1.19,-1.04 -1.785,-2.402 -1.785,-4.087Zm1.601,0.02c0,1.163 0.391,2.119 1.172,2.868c0.776,0.749 1.673,1.124 2.69,1.124c1.104,-0 2.034,-0.382 2.793,-1.144c0.758,-0.772 1.137,-1.712 1.137,-2.82c0,-1.122 -0.374,-2.062 -1.124,-2.82c-0.744,-0.763 -1.666,-1.144 -2.765,-1.144c-1.094,-0 -2.018,0.381 -2.772,1.144c-0.754,0.754 -1.131,1.685 -1.131,2.792Z" style="fill:#FFFFFF;fill-rule:nonzero;"/><path d="M115.654,11.249l3.256,4.482l-1.942,0l-3.003,-4.305l-0.286,0l-0,4.305l-1.587,0l-0,-10.517l1.859,0c1.39,0 2.393,0.262 3.011,0.784c0.681,0.581 1.021,1.348 1.021,2.302c0,0.745 -0.213,1.385 -0.64,1.921c-0.427,0.536 -0.99,0.878 -1.689,1.028Zm-1.975,-1.205l0.504,-0c1.503,-0 2.254,-0.575 2.254,-1.724c0,-1.076 -0.731,-1.614 -2.193,-1.614l-0.565,0l-0,3.338Z" style="fill:#FFFFFF;fill-rule:nonzero;"/><path d="M126.46,15.731l3.08,-15.731l5.023,11.372l5.202,-11.372l2.767,15.731l-2.264,0l-1.412,-8.832l-4.331,9.505l-4.208,-9.515l-1.573,8.842l-2.284,0Z" style="fill:#FFFFFF;fill-rule:nonzero;"/><path d="M150.941,6.706l-4.216,0l0,2.527l4.094,0l-0,1.492l-4.094,-0l0,3.514l4.216,0l0,1.492l-5.803,0l0,-10.517l5.803,0l0,1.492Z" style="fill:#FFFFFF;fill-rule:nonzero;"/><path d="M153.026,15.731l-0,-10.517l2.207,0c1.058,0 1.893,0.105 2.506,0.314c0.658,0.204 1.256,0.551 1.791,1.042c1.086,0.99 1.628,2.291 1.628,3.903c0,1.616 -0.565,2.924 -1.696,3.923c-0.567,0.5 -1.162,0.847 -1.784,1.042c-0.581,0.195 -1.406,0.293 -2.473,0.293l-2.179,0Zm1.587,-1.492l0.715,0c0.713,0 1.305,-0.075 1.778,-0.224c0.472,-0.159 0.899,-0.411 1.28,-0.756c0.781,-0.713 1.172,-1.642 1.172,-2.786c-0,-1.154 -0.386,-2.089 -1.158,-2.806c-0.695,-0.641 -1.719,-0.961 -3.072,-0.961l-0.715,0l-0,7.533Z" style="fill:#FFFFFF;fill-rule:nonzero;"/><rect x="163.154" y="5.214" width="1.587" height="10.517" style="fill:#FFFFFF;fill-rule:nonzero;"/><path d="M173.446,13.177l-4.502,-0l-1.172,2.554l-1.71,0l5.204,-11.177l5.02,11.177l-1.737,0l-1.103,-2.554Zm-0.647,-1.492l-1.56,-3.576l-1.635,3.576l3.195,0Z" style="fill:#FFFFFF;fill-rule:nonzero;"/><path d="M188.083,13.177l-4.502,-0l-1.172,2.554l-1.709,0l5.204,-11.177l5.019,11.177l-1.736,0l-1.104,-2.554Zm-0.647,-1.492l-1.56,-3.576l-1.634,3.576l3.194,0Z" style="fill:#FFFFFF;fill-rule:nonzero;"/><path d="M192.238,15.731l0,-11.232l7.669,8.024l0,-7.309l1.588,0l-0,11.157l-7.67,-8.003l0,7.363l-1.587,0Z" style="fill:#FFFFFF;fill-rule:nonzero;"/><path d="M204.015,15.731l-0,-10.517l2.207,0c1.058,0 1.893,0.105 2.506,0.314c0.658,0.204 1.256,0.551 1.791,1.042c1.086,0.99 1.628,2.291 1.628,3.903c0,1.616 -0.565,2.924 -1.696,3.923c-0.567,0.5 -1.162,0.847 -1.784,1.042c-0.581,0.195 -1.406,0.293 -2.473,0.293l-2.179,0Zm1.587,-1.492l0.715,0c0.713,0 1.305,-0.075 1.778,-0.224c0.472,-0.159 0.899,-0.411 1.28,-0.756c0.781,-0.713 1.172,-1.642 1.172,-2.786c-0,-1.154 -0.386,-2.089 -1.158,-2.806c-0.695,-0.641 -1.719,-0.961 -3.072,-0.961l-0.715,0l-0,7.533Z" style="fill:#FFFFFF;fill-rule:nonzero;"/><path d="M220.625,15.731l0,-14.632l3.071,0c1.472,0 2.634,0.146 3.487,0.436c0.916,0.284 1.747,0.768 2.492,1.45c1.51,1.377 2.265,3.187 2.265,5.43c0,2.249 -0.786,4.069 -2.359,5.459c-0.79,0.695 -1.618,1.178 -2.483,1.45c-0.809,0.271 -1.956,0.407 -3.44,0.407l-3.033,0Zm2.208,-2.075l0.995,-0c0.992,-0 1.817,-0.105 2.474,-0.313c0.657,-0.221 1.251,-0.572 1.781,-1.052c1.087,-0.992 1.63,-2.284 1.63,-3.876c0,-1.605 -0.537,-2.906 -1.611,-3.904c-0.966,-0.891 -2.391,-1.336 -4.274,-1.336l-0.995,-0l0,10.481Z" style="fill:#FFFFFF;fill-rule:nonzero;"/><path d="M240.027,6.706l-4.216,0l-0,2.527l4.093,0l0,1.492l-4.093,-0l-0,3.514l4.216,0l-0,1.492l-5.803,0l-0,-10.517l5.803,0l-0,1.492Z" style="fill:#FFFFFF;fill-rule:nonzero;"/><path d="M241.743,15.731l2.214,-11.307l3.61,8.174l3.739,-8.174l1.989,11.307l-1.628,0l-1.015,-6.348l-3.112,6.832l-3.024,-6.839l-1.131,6.355l-1.642,0Z" style="fill:#FFFFFF;fill-rule:nonzero;"/><path d="M254.998,10.425c0,-1.48 0.543,-2.752 1.628,-3.814c1.081,-1.063 2.379,-1.594 3.896,-1.594c1.498,-0 2.784,0.536 3.855,1.607c1.076,1.072 1.614,2.359 1.614,3.862c0,1.512 -0.54,2.795 -1.621,3.849c-1.085,1.058 -2.395,1.587 -3.93,1.587c-1.357,-0 -2.577,-0.47 -3.657,-1.41c-1.19,-1.04 -1.785,-2.402 -1.785,-4.087Zm1.601,0.02c-0,1.163 0.39,2.119 1.171,2.868c0.777,0.749 1.674,1.124 2.691,1.124c1.103,-0 2.034,-0.382 2.792,-1.144c0.759,-0.772 1.138,-1.712 1.138,-2.82c-0,-1.122 -0.375,-2.062 -1.124,-2.82c-0.745,-0.763 -1.667,-1.144 -2.765,-1.144c-1.095,-0 -2.019,0.381 -2.773,1.144c-0.753,0.754 -1.13,1.685 -1.13,2.792Z" style="fill:#FFFFFF;fill-rule:nonzero;"/><path d="M275.759,5.78l-0,1.88c-0.918,-0.768 -1.867,-1.151 -2.847,-1.151c-1.081,-0 -1.992,0.388 -2.732,1.164c-0.744,0.772 -1.117,1.717 -1.117,2.834c0,1.103 0.373,2.034 1.117,2.792c0.745,0.759 1.658,1.138 2.738,1.138c0.559,-0 1.033,-0.091 1.424,-0.273c0.218,-0.09 0.444,-0.213 0.678,-0.367c0.234,-0.155 0.48,-0.341 0.739,-0.559l-0,1.914c-0.908,0.513 -1.862,0.77 -2.861,0.77c-1.503,-0 -2.786,-0.525 -3.848,-1.574c-1.058,-1.058 -1.587,-2.334 -1.587,-3.828c-0,-1.339 0.442,-2.533 1.328,-3.582c1.09,-1.285 2.5,-1.928 4.23,-1.928c0.944,0 1.857,0.257 2.738,0.77Z" style="fill:#FFFFFF;fill-rule:nonzero;"/><path d="M281.324,11.249l3.255,4.482l-1.941,0l-3.004,-4.305l-0.286,0l0,4.305l-1.587,0l0,-10.517l1.86,0c1.389,0 2.393,0.262 3.01,0.784c0.681,0.581 1.022,1.348 1.022,2.302c-0,0.745 -0.213,1.385 -0.64,1.921c-0.427,0.536 -0.99,0.878 -1.689,1.028Zm-1.976,-1.205l0.504,-0c1.503,-0 2.255,-0.575 2.255,-1.724c-0,-1.076 -0.731,-1.614 -2.193,-1.614l-0.566,0l0,3.338Z" style="fill:#FFFFFF;fill-rule:nonzero;"/><path d="M292.337,13.177l-4.502,-0l-1.171,2.554l-1.71,0l5.204,-11.177l5.02,11.177l-1.737,0l-1.104,-2.554Zm-0.647,-1.492l-1.56,-3.576l-1.634,3.576l3.194,0Z" style="fill:#FFFFFF;fill-rule:nonzero;"/><path d="M303.773,5.78l0,1.88c-0.917,-0.768 -1.866,-1.151 -2.847,-1.151c-1.08,-0 -1.991,0.388 -2.731,1.164c-0.745,0.772 -1.117,1.717 -1.117,2.834c-0,1.103 0.372,2.034 1.117,2.792c0.745,0.759 1.657,1.138 2.738,1.138c0.559,-0 1.033,-0.091 1.424,-0.273c0.218,-0.09 0.444,-0.213 0.677,-0.367c0.234,-0.155 0.481,-0.341 0.739,-0.559l0,1.914c-0.908,0.513 -1.861,0.77 -2.86,0.77c-1.503,-0 -2.786,-0.525 -3.849,-1.574c-1.058,-1.058 -1.587,-2.334 -1.587,-3.828c0,-1.339 0.443,-2.533 1.329,-3.582c1.089,-1.285 2.499,-1.928 4.229,-1.928c0.945,0 1.857,0.257 2.738,0.77Z" style="fill:#FFFFFF;fill-rule:nonzero;"/><path d="M307.901,11.188l-3.433,-5.974l1.826,0l2.404,4.203l2.411,-4.203l1.826,0l-3.447,5.974l0,4.543l-1.587,0l0,-4.543Z" style="fill:#FFFFFF;fill-rule:nonzero;"/></g></svg>