<?xml version="1.0" encoding="UTF-8" standalone="no"?>
<!DOCTYPE svg PUBLIC "-//W3C//DTD SVG 1.1//EN" "http://www.w3.org/Graphics/SVG/1.1/DTD/svg11.dtd">
<svg width="100%" height="100%" viewBox="0 0 271 270" version="1.1" xmlns="http://www.w3.org/2000/svg" xmlns:xlink="http://www.w3.org/1999/xlink" xml:space="preserve" xmlns:serif="http://www.serif.com/" style="fill-rule:evenodd;clip-rule:evenodd;stroke-linejoin:round;stroke-miterlimit:2;">
    <g id="ID" transform="matrix(1,0,0,1,15,0)">
        <g id="Idaho" transform="matrix(1.54441,0,0,1.52662,-173.523,-19.7062)">
            <path d="M163.119,174.598C140.509,170.255 148.972,171.751 141.979,170.247L146.406,152.745L150.75,135.026L152.121,130.797L154.636,124.853L153.379,122.567L150.864,122.681L150.064,121.652L150.521,120.509L150.864,117.423L155.322,111.936L157.151,111.478L158.294,110.335L158.866,107.134L159.78,106.449L163.667,100.619L167.553,96.275L167.782,92.503L164.353,89.873L163.038,85.473L163.438,75.813L167.096,59.352L171.554,38.548L175.327,25.059L176.089,21.256L189.085,23.784L184.927,45.292L187.874,52.997L186.824,57.569L188.813,62.142L192.014,63.835L196.474,73.641L199.169,77.46L199.787,78.603L203.216,79.746L203.674,82.285L196.747,99.086L197.068,102.404L199.743,105.283L201.62,105.765L206.422,102.151L206.786,101.65L206.943,102.496L207.195,106.631L209.778,119.526L213.232,122.201L213.665,123.048L215.815,125.495L215.037,128.282L215.723,132.032L217.668,132.947L219.794,131.302L222.377,130.821L225.738,132.421L228.253,131.828L232.047,131.667L236.026,133.268L238.769,132.971L239.708,130.641L242.199,128.992L242.929,130.685L243.546,132.923L245.855,135.462L242.082,159.443L236.938,188.452L232.779,188.133L224.595,186.601L214.788,184.772L202.625,182.393L190.097,179.889L181.614,178.049L172.355,176.381L163.119,174.598Z" style="fill:rgb(46,98,126);fill-opacity:0.15;fill-rule:nonzero;"/>
        </g>
        <g id="Idaho1" serif:id="Idaho" transform="matrix(1.54441,0,0,1.52662,-180.523,-29.7062)">
            <path d="M163.119,174.598C140.509,170.255 148.972,171.751 141.979,170.247L146.406,152.745L150.75,135.026L152.121,130.797L154.636,124.853L153.379,122.567L150.864,122.681L150.064,121.652L150.521,120.509L150.864,117.423L155.322,111.936L157.151,111.478L158.294,110.335L158.866,107.134L159.78,106.449L163.667,100.619L167.553,96.275L167.782,92.503L164.353,89.873L163.038,85.473L163.438,75.813L167.096,59.352L171.554,38.548L175.327,25.059L176.089,21.256L189.085,23.784L184.927,45.292L187.874,52.997L186.824,57.569L188.813,62.142L192.014,63.835L196.474,73.641L199.169,77.46L199.787,78.603L203.216,79.746L203.674,82.285L196.747,99.086L197.068,102.404L199.743,105.283L201.62,105.765L206.422,102.151L206.786,101.65L206.943,102.496L207.195,106.631L209.778,119.526L213.232,122.201L213.665,123.048L215.815,125.495L215.037,128.282L215.723,132.032L217.668,132.947L219.794,131.302L222.377,130.821L225.738,132.421L228.253,131.828L232.047,131.667L236.026,133.268L238.769,132.971L239.708,130.641L242.199,128.992L242.929,130.685L243.546,132.923L245.855,135.462L242.082,159.443L236.938,188.452L232.779,188.133L224.595,186.601L214.788,184.772L202.625,182.393L190.097,179.889L181.614,178.049L172.355,176.381L163.119,174.598Z" style="fill:rgb(0,156,244);fill-rule:nonzero;"/>
        </g>
    </g>
</svg>
