<?xml version="1.0" encoding="UTF-8" standalone="no"?>
<!DOCTYPE svg PUBLIC "-//W3C//DTD SVG 1.1//EN" "http://www.w3.org/Graphics/SVG/1.1/DTD/svg11.dtd">
<svg width="100%" height="100%" viewBox="0 0 271 270" version="1.1" xmlns="http://www.w3.org/2000/svg" xmlns:xlink="http://www.w3.org/1999/xlink" xml:space="preserve" xmlns:serif="http://www.serif.com/" style="fill-rule:evenodd;clip-rule:evenodd;stroke-linejoin:round;stroke-miterlimit:2;">
    <g id="KY" transform="matrix(1.03451,0,0,1.03451,-0.0208548,-13.4164)">
        <g id="Kentucky" transform="matrix(2.00029,0,0,2.17798,-1184.99,-492.308)">
            <path d="M722.783,291.456L720.458,294.139L716.255,297.696L711.956,303.598L710.177,305.376L710.177,307.478L706.298,309.579L700.639,312.974L697.12,313.359L645.252,318.258L629.492,320.036L624.871,320.549L621.003,320.521L620.776,324.741L612.597,324.886L605.645,325.532L595.215,325.738L597.127,325.516L599.307,323.754L601.365,322.611L601.594,319.41L602.508,317.581L600.901,315.043L601.703,313.136L603.966,311.357L606.068,310.711L608.816,312.004L612.373,313.297L613.504,312.974L613.666,310.711L612.373,308.286L612.696,306.023L614.636,304.568L617.223,303.921L618.839,303.274L618.031,301.496L617.384,299.556L618.516,298.748L619.567,295.434L622.557,293.736L628.377,292.766L631.934,292.282L633.389,294.221L635.167,295.03L636.945,291.797L639.855,290.342L641.795,291.958L642.603,293.09L644.705,292.605L644.543,289.21L647.453,287.593L648.585,286.785L649.716,288.402L654.404,288.402L655.213,286.3L654.889,284.037L657.799,280.48L662.488,276.6L662.973,272.074L665.721,271.751L669.601,269.972L672.349,268.032L672.026,266.092L670.571,264.638L671.136,262.455L675.259,262.213L677.684,261.404L680.594,263.021L682.21,267.386L688.03,267.709L689.808,269.487L691.91,269.649L694.335,268.194L697.406,268.679L698.7,270.134L701.448,267.547L703.226,266.254L704.843,266.254L705.489,269.002L707.268,269.972L709.689,272.187L709.851,277.684L710.659,279.3L713.246,280.755L713.893,283.019L716.802,286.737L719.389,289.485L722.783,291.456Z" style="fill:rgb(46,98,126);fill-opacity:0.15;fill-rule:nonzero;"/>
        </g>
        <g id="Kentucky1" serif:id="Kentucky" transform="matrix(2.00029,0,0,2.17798,-1189.99,-499.308)">
            <path d="M722.783,291.456L720.458,294.139L716.255,297.696L711.956,303.598L710.177,305.376L710.177,307.478L706.298,309.579L700.639,312.974L697.12,313.359L645.252,318.258L629.492,320.036L624.871,320.549L621.003,320.521L620.776,324.741L612.597,324.886L605.645,325.532L595.215,325.738L597.127,325.516L599.307,323.754L601.365,322.611L601.594,319.41L602.508,317.581L600.901,315.043L601.703,313.136L603.966,311.357L606.068,310.711L608.816,312.004L612.373,313.297L613.504,312.974L613.666,310.711L612.373,308.286L612.696,306.023L614.636,304.568L617.223,303.921L618.839,303.274L618.031,301.496L617.384,299.556L618.516,298.748L619.567,295.434L622.557,293.736L628.377,292.766L631.934,292.282L633.389,294.221L635.167,295.03L636.945,291.797L639.855,290.342L641.795,291.958L642.603,293.09L644.705,292.605L644.543,289.21L647.453,287.593L648.585,286.785L649.716,288.402L654.404,288.402L655.213,286.3L654.889,284.037L657.799,280.48L662.488,276.6L662.973,272.074L665.721,271.751L669.601,269.972L672.349,268.032L672.026,266.092L670.571,264.638L671.136,262.455L675.259,262.213L677.684,261.404L680.594,263.021L682.21,267.386L688.03,267.709L689.808,269.487L691.91,269.649L694.335,268.194L697.406,268.679L698.7,270.134L701.448,267.547L703.226,266.254L704.843,266.254L705.489,269.002L707.268,269.972L709.689,272.187L709.851,277.684L710.659,279.3L713.246,280.755L713.893,283.019L716.802,286.737L719.389,289.485L722.783,291.456Z" style="fill:rgb(0,156,244);fill-rule:nonzero;"/>
        </g>
    </g>
</svg>
