<?xml version="1.0" encoding="UTF-8" standalone="no"?>
<!DOCTYPE svg PUBLIC "-//W3C//DTD SVG 1.1//EN" "http://www.w3.org/Graphics/SVG/1.1/DTD/svg11.dtd">
<svg width="100%" height="100%" viewBox="0 0 271 270" version="1.1" xmlns="http://www.w3.org/2000/svg" xmlns:xlink="http://www.w3.org/1999/xlink" xml:space="preserve" xmlns:serif="http://www.serif.com/" style="fill-rule:evenodd;clip-rule:evenodd;stroke-linejoin:round;stroke-miterlimit:2;">
    <g id="MS" transform="matrix(1.01621,0,0,1.01621,22.5225,-2.05355)">
        <g id="Mississippi" transform="matrix(2.37923,0,0,2.35182,-1304.21,-831.433)">
            <path d="M625.559,460.608L625.305,461.864L620.131,461.864L618.676,461.056L616.575,460.732L609.785,462.672L608.007,461.864L605.42,466.067L604.318,466.845L603.194,464.357L602.051,460.471L598.621,457.27L599.765,449.725L599.079,448.811L597.25,449.039L589.019,449.725L564.785,450.411L564.328,448.811L565.014,440.809L568.443,434.636L573.702,425.491L572.787,423.434L573.93,423.434L574.616,420.233L572.33,418.404L572.559,416.575L570.501,412.003L570.215,406.659L571.587,404.001L571.187,399.657L569.815,396.685L571.187,395.313L569.815,393.256L570.272,391.427L571.187,385.254L574.159,382.51L573.473,380.453L577.131,375.194L579.874,374.28L579.874,371.765L579.189,370.393L581.932,365.135L584.676,363.992L584.783,360.58L593.458,360.502L617.546,358.562L622.126,358.334L622.134,364.706L622.296,381.357L621.488,412.395L621.326,426.46L624.074,445.213L625.559,460.608Z" style="fill:rgb(46,98,126);fill-opacity:0.15;fill-rule:nonzero;"/>
        </g>
        <g id="Mississippi1" serif:id="Mississippi" transform="matrix(2.37923,0,0,2.35182,-1313.21,-839.433)">
            <path d="M625.559,460.608L625.305,461.864L620.131,461.864L618.676,461.056L616.575,460.732L609.785,462.672L608.007,461.864L605.42,466.067L604.318,466.845L603.194,464.357L602.051,460.471L598.621,457.27L599.765,449.725L599.079,448.811L597.25,449.039L589.019,449.725L564.785,450.411L564.328,448.811L565.014,440.809L568.443,434.636L573.702,425.491L572.787,423.434L573.93,423.434L574.616,420.233L572.33,418.404L572.559,416.575L570.501,412.003L570.215,406.659L571.587,404.001L571.187,399.657L569.815,396.685L571.187,395.313L569.815,393.256L570.272,391.427L571.187,385.254L574.159,382.51L573.473,380.453L577.131,375.194L579.874,374.28L579.874,371.765L579.189,370.393L581.932,365.135L584.676,363.992L584.783,360.58L593.458,360.502L617.546,358.562L622.126,358.334L622.134,364.706L622.296,381.357L621.488,412.395L621.326,426.46L624.074,445.213L625.559,460.608Z" style="fill:rgb(0,156,244);fill-rule:nonzero;"/>
        </g>
    </g>
</svg>
