<?xml version="1.0" encoding="UTF-8" standalone="no"?>
<!DOCTYPE svg PUBLIC "-//W3C//DTD SVG 1.1//EN" "http://www.w3.org/Graphics/SVG/1.1/DTD/svg11.dtd">
<svg width="100%" height="100%" viewBox="0 0 271 270" version="1.1" xmlns="http://www.w3.org/2000/svg" xmlns:xlink="http://www.w3.org/1999/xlink" xml:space="preserve" xmlns:serif="http://www.serif.com/" style="fill-rule:evenodd;clip-rule:evenodd;stroke-linejoin:round;stroke-miterlimit:2;">
    <g id="MI" transform="matrix(1.01701,0,0,1.01701,-0.0426394,5.74136)">
        <g id="Missouri" transform="matrix(2.21811,0,0,2.19255,-1069.56,-497.163)">
            <path d="M556.789,243.166L554.269,240.078L553.126,237.792L545.352,238.478L535.522,238.935L510.145,239.85L496.656,240.078L488.768,240.193L486.482,240.307L487.74,242.822L487.511,245.108L490.026,248.995L493.112,253.11L496.199,255.853L498.485,256.082L499.857,256.996L499.857,259.969L498.028,261.569L497.57,263.855L499.628,267.284L502.143,270.257L504.658,272.086L506.029,283.745L505.343,319.067L505.572,323.754L506.029,329.138L529.462,329.021L552.668,328.335L573.473,327.534L585.128,327.304L587.297,330.73L586.613,334.037L583.526,336.44L582.953,338.278L588.332,338.735L592.227,338.049L593.944,332.555L594.595,326.699L596.914,324.674L598.627,323.187L600.684,322.157L600.799,319.297L601.373,317.581L600.342,315.833L597.597,315.978L595.427,313.353L594.054,309.124L594.855,306.606L592.911,303.178L591.08,298.602L586.281,297.803L579.312,292.204L577.593,288.091L578.393,284.89L580.452,278.832L580.911,275.969L578.962,274.937L572.106,274.14L571.078,272.428L570.967,268.197L565.48,264.766L558.504,256.995L556.218,249.679L555.988,245.454L556.789,243.166Z" style="fill:rgb(46,98,126);fill-opacity:0.15;fill-rule:nonzero;"/>
        </g>
        <g id="Missouri1" serif:id="Missouri" transform="matrix(2.21811,0,0,2.19255,-1076.56,-506.163)">
            <path d="M556.789,243.166L554.269,240.078L553.126,237.792L545.352,238.478L535.522,238.935L510.145,239.85L496.656,240.078L488.768,240.193L486.482,240.307L487.74,242.822L487.511,245.108L490.026,248.995L493.112,253.11L496.199,255.853L498.485,256.082L499.857,256.996L499.857,259.969L498.028,261.569L497.57,263.855L499.628,267.284L502.143,270.257L504.658,272.086L506.029,283.745L505.343,319.067L505.572,323.754L506.029,329.138L529.462,329.021L552.668,328.335L573.473,327.534L585.128,327.304L587.297,330.73L586.613,334.037L583.526,336.44L582.953,338.278L588.332,338.735L592.227,338.049L593.944,332.555L594.595,326.699L596.914,324.674L598.627,323.187L600.684,322.157L600.799,319.297L601.373,317.581L600.342,315.833L597.597,315.978L595.427,313.353L594.054,309.124L594.855,306.606L592.911,303.178L591.08,298.602L586.281,297.803L579.312,292.204L577.593,288.091L578.393,284.89L580.452,278.832L580.911,275.969L578.962,274.937L572.106,274.14L571.078,272.428L570.967,268.197L565.48,264.766L558.504,256.995L556.218,249.679L555.988,245.454L556.789,243.166Z" style="fill:rgb(0,156,244);fill-rule:nonzero;"/>
        </g>
    </g>
</svg>
