<?xml version="1.0" encoding="UTF-8" standalone="no"?>
<!DOCTYPE svg PUBLIC "-//W3C//DTD SVG 1.1//EN" "http://www.w3.org/Graphics/SVG/1.1/DTD/svg11.dtd">
<svg width="100%" height="100%" viewBox="0 0 271 270" version="1.1" xmlns="http://www.w3.org/2000/svg" xmlns:xlink="http://www.w3.org/1999/xlink" xml:space="preserve" xmlns:serif="http://www.serif.com/" style="fill-rule:evenodd;clip-rule:evenodd;stroke-linejoin:round;stroke-miterlimit:2;">
    <g id="MT" transform="matrix(1.0082,0,0,1.0082,-1.01885,9.68268)">
        <g id="Montana" transform="matrix(1.43512,0,0,1.41858,-253.555,16.7494)">
            <path d="M357.671,115.912L358.318,104.761L360.577,79.974C361.034,74.945 361.661,71.502 361.949,64.564L362.888,50.013L332.214,47.205L302.954,43.648L273.693,39.607L241.361,34.272L222.932,30.877L190.208,23.944L185.729,45.292L189.158,52.836L187.787,57.409L189.616,61.981L192.816,63.353L197.437,74.123L200.132,77.299L200.589,78.442L204.019,79.585L204.476,81.643L197.389,99.247L197.389,101.762L199.904,104.962L200.818,104.962L205.619,101.99L206.305,100.847L207.905,101.533L207.677,106.791L210.42,119.366L213.392,121.881L214.307,122.566L216.136,124.853L215.679,128.282L216.364,131.711L217.508,132.626L219.794,130.34L222.537,130.34L225.738,131.94L228.253,131.025L232.368,131.025L236.026,132.626L238.769,132.169L239.227,129.196L242.199,128.511L243.57,129.882L244.028,133.083L245.807,134.448L247.341,122.883L268.033,125.855L296.222,129.81L312.775,131.707L344.221,135.163L355.211,136.687L356.263,121.26L357.671,115.912Z" style="fill:rgb(46,98,126);fill-opacity:0.15;fill-rule:nonzero;"/>
        </g>
        <g id="Montana1" serif:id="Montana" transform="matrix(1.43512,0,0,1.41858,-264.245,4.71268)">
            <path d="M357.671,115.912L358.318,104.761L360.577,79.974C361.034,74.945 361.661,71.502 361.949,64.564L362.888,50.013L332.214,47.205L302.954,43.648L273.693,39.607L241.361,34.272L222.932,30.877L190.208,23.944L185.729,45.292L189.158,52.836L187.787,57.409L189.616,61.981L192.816,63.353L197.437,74.123L200.132,77.299L200.589,78.442L204.019,79.585L204.476,81.643L197.389,99.247L197.389,101.762L199.904,104.962L200.818,104.962L205.619,101.99L206.305,100.847L207.905,101.533L207.677,106.791L210.42,119.366L213.392,121.881L214.307,122.566L216.136,124.853L215.679,128.282L216.364,131.711L217.508,132.626L219.794,130.34L222.537,130.34L225.738,131.94L228.253,131.025L232.368,131.025L236.026,132.626L238.769,132.169L239.227,129.196L242.199,128.511L243.57,129.882L244.028,133.083L245.807,134.448L247.341,122.883L268.033,125.855L296.222,129.81L312.775,131.707L344.221,135.163L355.211,136.687L356.263,121.26L357.671,115.912Z" style="fill:rgb(0,156,244);fill-rule:nonzero;"/>
        </g>
    </g>
</svg>
