<?xml version="1.0" encoding="UTF-8" standalone="no"?>
<!DOCTYPE svg PUBLIC "-//W3C//DTD SVG 1.1//EN" "http://www.w3.org/Graphics/SVG/1.1/DTD/svg11.dtd">
<svg width="100%" height="100%" viewBox="0 0 33 33" version="1.1" xmlns="http://www.w3.org/2000/svg" xmlns:xlink="http://www.w3.org/1999/xlink" xml:space="preserve" xmlns:serif="http://www.serif.com/" style="fill-rule:evenodd;clip-rule:evenodd;stroke-linejoin:round;stroke-miterlimit:2;">
    <g id="Twitter" transform="matrix(1,0,0,1,-818.5,-4087.5)">
        <circle cx="835" cy="4104" r="16" style="fill:none;"/>
        <clipPath id="_clip1">
            <circle cx="835" cy="4104" r="16"/>
        </clipPath>
        <g clip-path="url(#_clip1)">
            <path id="Twitter-Icon" serif:id="Twitter Icon" d="M841.359,4101.24C841.365,4101.38 841.367,4101.52 841.367,4101.66C841.367,4106 838.068,4111.01 832.034,4111.01C830.181,4111.01 828.458,4110.46 827.006,4109.53C827.263,4109.56 827.523,4109.57 827.788,4109.57C829.325,4109.57 830.74,4109.05 831.863,4108.17C830.427,4108.14 829.215,4107.19 828.797,4105.89C828.998,4105.93 829.205,4105.95 829.416,4105.95C829.714,4105.95 830.003,4105.91 830.28,4105.83C828.779,4105.53 827.647,4104.2 827.647,4102.61L827.647,4102.57C828.09,4102.82 828.597,4102.97 829.135,4102.98C828.253,4102.39 827.674,4101.39 827.674,4100.25C827.674,4099.65 827.836,4099.09 828.119,4098.6C829.736,4100.59 832.155,4101.89 834.881,4102.03C834.825,4101.79 834.796,4101.54 834.796,4101.28C834.796,4099.47 836.264,4098 838.077,4098C839.02,4098 839.872,4098.4 840.47,4099.04C841.218,4098.89 841.92,4098.61 842.555,4098.24C842.308,4099 841.789,4099.65 841.111,4100.05C841.775,4099.98 842.408,4099.8 842.995,4099.54C842.555,4100.2 842,4100.77 841.359,4101.24Z" style="fill:white;"/>
        </g>
        <circle cx="835" cy="4104" r="16" style="fill:none;stroke:white;stroke-width:1px;"/>
    </g>
</svg>
