<?xml version="1.0" encoding="UTF-8" standalone="no"?>
<!DOCTYPE svg PUBLIC "-//W3C//DTD SVG 1.1//EN" "http://www.w3.org/Graphics/SVG/1.1/DTD/svg11.dtd">
<svg width="100%" height="100%" viewBox="0 0 271 270" version="1.1" xmlns="http://www.w3.org/2000/svg" xmlns:xlink="http://www.w3.org/1999/xlink" xml:space="preserve" xmlns:serif="http://www.serif.com/" style="fill-rule:evenodd;clip-rule:evenodd;stroke-linejoin:round;stroke-miterlimit:2;">
    <g id="WestVirginia" transform="matrix(3.4052,-0.0146344,0.0144658,3.36597,-2418.61,-717.697)">
        <path d="M757.561,235.606L758.673,240.55L759.756,247.456L763.316,244.708L765.579,241.637L768.117,241.021L769.572,239.566L771.35,236.98L772.53,237.626L775.44,237.303L778.027,235.201L780.034,233.748L781.879,233.263L783.183,234.279L785.412,235.394L787.352,237.172L788.726,238.466L788.583,243.137L782.925,240.065L778.398,238.287L778.237,243.622L777.752,245.723L776.135,248.471L775.488,250.088L772.417,252.513L771.932,254.776L768.537,255.1L768.214,258.171L767.082,263.668L764.495,263.668L763.202,262.859L761.586,260.111L759.807,260.273L759.484,264.638L757.382,271.266L752.371,282.097L753.179,283.39L753.018,286.138L750.916,288.078L749.461,287.755L746.228,290.18L743.641,289.21L741.863,293.898C741.863,293.898 738.145,294.706 737.498,294.868C736.851,295.03 735.073,293.575 735.073,293.575L732.648,295.838L730.062,296.485L727.152,295.676L725.859,294.383L723.666,291.36L720.524,289.372L717.937,286.623L715.027,282.905L714.381,280.642L711.794,279.187L710.986,277.57L710.743,272.316L712.926,272.236L714.866,271.427L715.027,268.679L716.644,267.224L716.806,262.213L717.775,258.333L719.069,257.686L720.362,258.818L720.847,260.596L722.625,259.626L723.11,258.009L721.979,256.231L721.979,253.806L722.949,252.513L725.212,249.118L726.505,247.663L728.607,248.148L730.87,246.532L733.942,243.137L736.205,239.257L736.528,233.599L737.013,228.587L737.013,223.899L735.881,220.827L736.851,219.373L738.135,218.079L741.626,237.906L746.257,237.155L757.561,235.606Z" style="fill:rgb(46,98,126);fill-opacity:0.16;fill-rule:nonzero;"/>
    </g>
    <g id="WestVirginia1" serif:id="WestVirginia" transform="matrix(3.4052,-0.0146344,0.0144658,3.36597,-2424.16,-723.245)">
        <path d="M757.561,235.606L758.673,240.55L759.756,247.456L763.316,244.708L765.579,241.637L768.117,241.021L769.572,239.566L771.35,236.98L772.53,237.626L775.44,237.303L778.027,235.201L780.034,233.748L781.879,233.263L783.183,234.279L785.412,235.394L787.352,237.172L788.726,238.466L788.583,243.137L782.925,240.065L778.398,238.287L778.237,243.622L777.752,245.723L776.135,248.471L775.488,250.088L772.417,252.513L771.932,254.776L768.537,255.1L768.214,258.171L767.082,263.668L764.495,263.668L763.202,262.859L761.586,260.111L759.807,260.273L759.484,264.638L757.382,271.266L752.371,282.097L753.179,283.39L753.018,286.138L750.916,288.078L749.461,287.755L746.228,290.18L743.641,289.21L741.863,293.898C741.863,293.898 738.145,294.706 737.498,294.868C736.851,295.03 735.073,293.575 735.073,293.575L732.648,295.838L730.062,296.485L727.152,295.676L725.859,294.383L723.666,291.36L720.524,289.372L717.937,286.623L715.027,282.905L714.381,280.642L711.794,279.187L710.986,277.57L710.743,272.316L712.926,272.236L714.866,271.427L715.027,268.679L716.644,267.224L716.806,262.213L717.775,258.333L719.069,257.686L720.362,258.818L720.847,260.596L722.625,259.626L723.11,258.009L721.979,256.231L721.979,253.806L722.949,252.513L725.212,249.118L726.505,247.663L728.607,248.148L730.87,246.532L733.942,243.137L736.205,239.257L736.528,233.599L737.013,228.587L737.013,223.899L735.881,220.827L736.851,219.373L738.135,218.079L741.626,237.906L746.257,237.155L757.561,235.606Z" style="fill:rgb(0,156,244);fill-rule:nonzero;"/>
    </g>
</svg>
