<?xml version="1.0" encoding="UTF-8" standalone="no"?><!DOCTYPE svg PUBLIC "-//W3C//DTD SVG 1.1//EN" "http://www.w3.org/Graphics/SVG/1.1/DTD/svg11.dtd"><svg width="100%" height="100%" viewBox="0 0 302 114" version="1.1" xmlns="http://www.w3.org/2000/svg" xmlns:xlink="http://www.w3.org/1999/xlink" xml:space="preserve" xmlns:serif="http://www.serif.com/" style="fill-rule:evenodd;clip-rule:evenodd;stroke-linejoin:round;stroke-miterlimit:2;"><g id="Brand"><g id="Vectors"><g><path d="M73.037,109.944c-0.553,0 -1.062,-0.142 -1.527,-0.425c-0.461,-0.284 -0.83,-0.662 -1.106,-1.136c-0.276,-0.474 -0.414,-0.994 -0.414,-1.561l0,-0.714c0,-0.056 0.025,-0.084 0.076,-0.084l1.747,-0c0.041,-0 0.061,0.028 0.061,0.084l0,0.714c0,0.339 0.114,0.632 0.342,0.877c0.228,0.246 0.501,0.369 0.821,0.369c0.324,-0 0.6,-0.126 0.828,-0.376c0.228,-0.251 0.342,-0.541 0.342,-0.87c-0,-0.38 -0.249,-0.712 -0.745,-0.996c-0.081,-0.05 -0.186,-0.112 -0.315,-0.186c-0.129,-0.073 -0.283,-0.158 -0.46,-0.254c-0.177,-0.096 -0.349,-0.191 -0.517,-0.285c-0.167,-0.094 -0.329,-0.184 -0.486,-0.27c-0.567,-0.334 -0.989,-0.753 -1.265,-1.257c-0.276,-0.504 -0.414,-1.07 -0.414,-1.698c0,-0.578 0.142,-1.099 0.426,-1.565c0.283,-0.461 0.654,-0.827 1.113,-1.098c0.458,-0.271 0.956,-0.406 1.493,-0.406c0.552,-0 1.058,0.136 1.519,0.41c0.461,0.278 0.829,0.648 1.105,1.109c0.276,0.461 0.414,0.978 0.414,1.55l0,1.276c0,0.041 -0.02,0.061 -0.06,0.061l-1.748,-0c-0.04,-0 -0.06,-0.02 -0.06,-0.061l-0.016,-1.276c0,-0.365 -0.114,-0.661 -0.342,-0.889c-0.227,-0.228 -0.498,-0.342 -0.812,-0.342c-0.32,0 -0.593,0.122 -0.821,0.365c-0.228,0.243 -0.342,0.532 -0.342,0.866c0,0.339 0.072,0.623 0.217,0.851c0.144,0.228 0.409,0.445 0.794,0.653c0.04,0.02 0.134,0.071 0.281,0.152c0.147,0.081 0.31,0.171 0.49,0.27c0.18,0.099 0.343,0.187 0.49,0.266c0.147,0.078 0.235,0.125 0.266,0.14c0.516,0.289 0.925,0.643 1.227,1.064c0.301,0.42 0.452,0.937 0.452,1.55c-0,0.592 -0.137,1.124 -0.411,1.595c-0.278,0.471 -0.648,0.843 -1.109,1.117c-0.461,0.273 -0.972,0.41 -1.534,0.41Z" style="fill:#0b659d;fill-rule:nonzero;"/><path d="M80.785,109.792l-1.755,0c-0.046,0 -0.069,-0.025 -0.069,-0.076l0,-8.873l-2.02,-0c-0.051,-0 -0.076,-0.026 -0.076,-0.076l0.015,-1.74c-0,-0.041 0.02,-0.061 0.061,-0.061l5.91,0c0.056,0 0.084,0.02 0.084,0.061l-0,1.74c-0,0.05 -0.02,0.076 -0.061,0.076l-2.044,-0l0.016,8.873c-0,0.051 -0.021,0.076 -0.061,0.076Z" style="fill:#0b659d;fill-rule:nonzero;"/><path d="M82.835,109.716l1.93,-10.689c0.01,-0.041 0.035,-0.061 0.076,-0.061l2.256,0c0.041,0 0.066,0.02 0.076,0.061l1.854,10.689c0.005,0.051 -0.015,0.076 -0.061,0.076l-1.724,0c-0.051,0 -0.079,-0.025 -0.084,-0.076l-0.167,-1.139l-2.12,-0l-0.167,1.139c-0.005,0.051 -0.03,0.076 -0.076,0.076l-1.732,0c-0.041,0 -0.061,-0.025 -0.061,-0.076Zm3.206,-7.172l-0.091,-0.577l-0.068,0.577l-0.699,4.369l1.496,-0l-0.638,-4.369Z" style="fill:#0b659d;fill-rule:nonzero;"/><path d="M92.992,109.792l-1.755,0c-0.046,0 -0.069,-0.025 -0.069,-0.076l0,-8.873l-2.02,-0c-0.051,-0 -0.076,-0.026 -0.076,-0.076l0.015,-1.74c-0,-0.041 0.02,-0.061 0.061,-0.061l5.91,0c0.056,0 0.084,0.02 0.084,0.061l-0,1.74c-0,0.05 -0.02,0.076 -0.061,0.076l-2.044,-0l0.016,8.873c-0,0.051 -0.021,0.076 -0.061,0.076Z" style="fill:#0b659d;fill-rule:nonzero;"/><path d="M101.591,109.792l-5.029,0c-0.041,0 -0.061,-0.025 -0.061,-0.076l0.015,-10.689c-0,-0.041 0.02,-0.061 0.061,-0.061l4.999,0c0.04,0 0.061,0.025 0.061,0.076l-0,1.74c-0,0.04 -0.021,0.061 -0.061,0.061l-3.191,-0l-0,2.431l3.191,-0c0.04,-0 0.061,0.02 0.061,0.061l0.015,1.762c-0,0.041 -0.02,0.061 -0.061,0.061l-3.206,-0l-0,2.72l3.206,-0c0.041,-0 0.061,0.025 0.061,0.076l-0,1.777c-0,0.041 -0.02,0.061 -0.061,0.061Z" style="fill:#0b659d;fill-rule:nonzero;"/><path d="M110.113,109.792l-1.747,0c-0.051,0 -0.076,-0.025 -0.076,-0.076l0.03,-10.689c0,-0.041 0.021,-0.061 0.061,-0.061l4.984,0c0.051,0 0.076,0.02 0.076,0.061l-0,1.755c-0,0.04 -0.02,0.061 -0.061,0.061l-3.191,-0l0,2.416l3.191,-0c0.041,-0 0.061,0.025 0.061,0.076l0.015,1.762c0,0.041 -0.025,0.061 -0.076,0.061l-3.191,-0l0,4.558c0,0.051 -0.025,0.076 -0.076,0.076Z" style="fill:#0b659d;fill-rule:nonzero;"/><path d="M117.284,109.792l-1.762,0c-0.051,0 -0.076,-0.025 -0.076,-0.076l0.015,-10.689c-0,-0.041 0.02,-0.061 0.061,-0.061l1.747,0c0.04,0 0.061,0.02 0.061,0.061l0.015,10.689c-0,0.051 -0.02,0.076 -0.061,0.076Z" style="fill:#0b659d;fill-rule:nonzero;"/><path d="M121.013,109.792l-1.557,0c-0.081,0 -0.122,-0.035 -0.122,-0.106l-0.015,-10.598c0,-0.081 0.041,-0.122 0.122,-0.122l1.405,0l2.629,6.131l-0.076,-6.009c-0,-0.081 0.046,-0.122 0.137,-0.122l1.542,0c0.061,0 0.091,0.041 0.091,0.122l0.015,10.613c0,0.061 -0.025,0.091 -0.076,0.091l-1.367,0l-2.697,-5.728l0.114,5.607c-0,0.081 -0.048,0.121 -0.145,0.121Z" style="fill:#0b659d;fill-rule:nonzero;"/><path d="M126.619,109.716l1.93,-10.689c0.01,-0.041 0.035,-0.061 0.076,-0.061l2.256,0c0.041,0 0.066,0.02 0.076,0.061l1.854,10.689c0.005,0.051 -0.015,0.076 -0.061,0.076l-1.724,0c-0.051,0 -0.079,-0.025 -0.084,-0.076l-0.167,-1.139l-2.12,-0l-0.167,1.139c-0.005,0.051 -0.03,0.076 -0.076,0.076l-1.732,0c-0.04,0 -0.061,-0.025 -0.061,-0.076Zm3.206,-7.172l-0.091,-0.577l-0.068,0.577l-0.699,4.369l1.497,-0l-0.639,-4.369Z" style="fill:#0b659d;fill-rule:nonzero;"/><path d="M136.085,109.792l-1.558,0c-0.081,0 -0.121,-0.035 -0.121,-0.106l-0.016,-10.598c0,-0.081 0.041,-0.122 0.122,-0.122l1.405,0l2.629,6.131l-0.076,-6.009c0,-0.081 0.046,-0.122 0.137,-0.122l1.542,0c0.061,0 0.091,0.041 0.091,0.122l0.015,10.613c0,0.061 -0.025,0.091 -0.075,0.091l-1.368,0l-2.697,-5.728l0.114,5.607c-0,0.081 -0.048,0.121 -0.144,0.121Z" style="fill:#0b659d;fill-rule:nonzero;"/><path d="M145.079,109.944c-0.562,0 -1.076,-0.142 -1.542,-0.425c-0.461,-0.284 -0.827,-0.665 -1.098,-1.144c-0.271,-0.478 -0.407,-1.011 -0.407,-1.599l0.015,-4.855c0,-0.577 0.132,-1.099 0.396,-1.565c0.263,-0.471 0.626,-0.849 1.09,-1.135c0.463,-0.287 0.979,-0.43 1.546,-0.43c0.577,0 1.091,0.14 1.542,0.418c0.456,0.279 0.819,0.655 1.09,1.128c0.271,0.474 0.407,1.002 0.407,1.584l-0,0.715c-0,0.04 -0.021,0.06 -0.061,0.06l-1.747,0c-0.041,0 -0.061,-0.02 -0.061,-0.06l-0,-0.715c-0,-0.344 -0.112,-0.64 -0.334,-0.888c-0.223,-0.249 -0.502,-0.373 -0.836,-0.373c-0.37,0 -0.654,0.127 -0.851,0.38c-0.198,0.253 -0.296,0.547 -0.296,0.881l-0,4.855c-0,0.38 0.111,0.69 0.334,0.931c0.223,0.24 0.494,0.361 0.813,0.361c0.334,-0 0.613,-0.133 0.836,-0.399c0.222,-0.266 0.334,-0.564 0.334,-0.893l-0,-0.722c-0,-0.04 0.02,-0.06 0.061,-0.06l1.762,-0c0.041,-0 0.061,0.02 0.061,0.06l-0,0.722c-0,0.583 -0.137,1.114 -0.41,1.596c-0.279,0.476 -0.646,0.857 -1.102,1.143c-0.456,0.286 -0.97,0.429 -1.542,0.429Z" style="fill:#0b659d;fill-rule:nonzero;"/><path d="M151.703,109.792l-1.763,0c-0.051,0 -0.076,-0.025 -0.076,-0.076l0.015,-10.689c0,-0.041 0.021,-0.061 0.061,-0.061l1.748,0c0.04,0 0.06,0.02 0.06,0.061l0.015,10.689c0,0.051 -0.02,0.076 -0.06,0.076Z" style="fill:#0b659d;fill-rule:nonzero;"/><path d="M153.214,109.716l1.929,-10.689c0.01,-0.041 0.036,-0.061 0.076,-0.061l2.257,0c0.04,0 0.066,0.02 0.076,0.061l1.853,10.689c0.005,0.051 -0.015,0.076 -0.06,0.076l-1.725,0c-0.051,0 -0.078,-0.025 -0.084,-0.076l-0.167,-1.139l-2.119,-0l-0.167,1.139c-0.006,0.051 -0.031,0.076 -0.076,0.076l-1.733,0c-0.04,0 -0.06,-0.025 -0.06,-0.076Zm3.206,-7.172l-0.091,-0.577l-0.069,0.577l-0.699,4.369l1.497,-0l-0.638,-4.369Z" style="fill:#0b659d;fill-rule:nonzero;"/><path d="M166.075,109.792l-5.03,0c-0.04,0 -0.06,-0.025 -0.06,-0.076l0.015,-10.674c-0,-0.051 0.025,-0.076 0.076,-0.076l1.732,0c0.051,0 0.076,0.025 0.076,0.076l-0.015,8.836l3.206,-0c0.051,-0 0.076,0.025 0.076,0.076l-0,1.762c-0,0.051 -0.025,0.076 -0.076,0.076Z" style="fill:#0b659d;fill-rule:nonzero;"/><path d="M175.296,109.944c-0.552,0 -1.061,-0.142 -1.527,-0.425c-0.461,-0.284 -0.832,-0.662 -1.113,-1.136c-0.281,-0.474 -0.422,-0.994 -0.422,-1.561l0.016,-4.931c-0,-0.577 0.139,-1.096 0.417,-1.557c0.274,-0.466 0.644,-0.84 1.11,-1.121c0.466,-0.281 0.972,-0.422 1.519,-0.422c0.567,0 1.076,0.14 1.527,0.418c0.456,0.279 0.822,0.652 1.098,1.121c0.276,0.468 0.414,0.989 0.414,1.561l0.015,4.931c0,0.567 -0.137,1.086 -0.41,1.557c-0.279,0.476 -0.648,0.856 -1.109,1.14c-0.461,0.283 -0.973,0.425 -1.535,0.425Zm0,-1.876c0.314,-0 0.588,-0.128 0.821,-0.384c0.233,-0.256 0.349,-0.543 0.349,-0.862l-0.015,-4.931c-0,-0.344 -0.109,-0.636 -0.327,-0.874c-0.218,-0.238 -0.494,-0.357 -0.828,-0.357c-0.319,0 -0.593,0.117 -0.82,0.35c-0.228,0.233 -0.342,0.527 -0.342,0.881l-0,4.931c-0,0.339 0.114,0.632 0.342,0.877c0.227,0.246 0.501,0.369 0.82,0.369Z" style="fill:#0b659d;fill-rule:nonzero;"/><path d="M181.95,109.792l-1.747,0c-0.051,0 -0.076,-0.025 -0.076,-0.076l0.03,-10.689c0,-0.041 0.021,-0.061 0.061,-0.061l4.984,0c0.051,0 0.076,0.02 0.076,0.061l-0,1.755c-0,0.04 -0.02,0.061 -0.061,0.061l-3.191,-0l0,2.416l3.191,-0c0.041,-0 0.061,0.025 0.061,0.076l0.015,1.762c0,0.041 -0.025,0.061 -0.076,0.061l-3.191,-0l0,4.558c0,0.051 -0.025,0.076 -0.076,0.076Z" style="fill:#0b659d;fill-rule:nonzero;"/><path d="M189.106,109.792l-1.747,0c-0.051,0 -0.076,-0.025 -0.076,-0.076l0.03,-10.689c0,-0.041 0.02,-0.061 0.061,-0.061l4.984,0c0.05,0 0.076,0.02 0.076,0.061l-0,1.755c-0,0.04 -0.021,0.061 -0.061,0.061l-3.191,-0l0,2.416l3.191,-0c0.04,-0 0.061,0.025 0.061,0.076l0.015,1.762c-0,0.041 -0.025,0.061 -0.076,0.061l-3.191,-0l0,4.558c0,0.051 -0.025,0.076 -0.076,0.076Z" style="fill:#0b659d;fill-rule:nonzero;"/><path d="M196.277,109.792l-1.763,0c-0.05,0 -0.076,-0.025 -0.076,-0.076l0.016,-10.689c-0,-0.041 0.02,-0.061 0.06,-0.061l1.748,0c0.04,0 0.061,0.02 0.061,0.061l0.015,10.689c-0,0.051 -0.021,0.076 -0.061,0.076Z" style="fill:#0b659d;fill-rule:nonzero;"/><path d="M201.176,109.944c-0.562,0 -1.076,-0.142 -1.542,-0.425c-0.461,-0.284 -0.827,-0.665 -1.098,-1.144c-0.271,-0.478 -0.406,-1.011 -0.406,-1.599l0.015,-4.855c-0,-0.577 0.132,-1.099 0.395,-1.565c0.263,-0.471 0.627,-0.849 1.09,-1.135c0.464,-0.287 0.979,-0.43 1.546,-0.43c0.578,0 1.092,0.14 1.543,0.418c0.455,0.279 0.819,0.655 1.09,1.128c0.271,0.474 0.406,1.002 0.406,1.584l0,0.715c0,0.04 -0.02,0.06 -0.061,0.06l-1.747,0c-0.04,0 -0.061,-0.02 -0.061,-0.06l0,-0.715c0,-0.344 -0.111,-0.64 -0.334,-0.888c-0.223,-0.249 -0.501,-0.373 -0.836,-0.373c-0.369,0 -0.653,0.127 -0.851,0.38c-0.197,0.253 -0.296,0.547 -0.296,0.881l0,4.855c0,0.38 0.111,0.69 0.334,0.931c0.223,0.24 0.494,0.361 0.813,0.361c0.335,-0 0.613,-0.133 0.836,-0.399c0.223,-0.266 0.334,-0.564 0.334,-0.893l0,-0.722c0,-0.04 0.021,-0.06 0.061,-0.06l1.763,-0c0.04,-0 0.06,0.02 0.06,0.06l0,0.722c0,0.583 -0.136,1.114 -0.41,1.596c-0.278,0.476 -0.646,0.857 -1.101,1.143c-0.456,0.286 -0.97,0.429 -1.543,0.429Z" style="fill:#0b659d;fill-rule:nonzero;"/><path d="M211.052,109.792l-5.03,0c-0.04,0 -0.06,-0.025 -0.06,-0.076l0.015,-10.689c-0,-0.041 0.02,-0.061 0.061,-0.061l4.999,0c0.04,0 0.06,0.025 0.06,0.076l0,1.74c0,0.04 -0.02,0.061 -0.06,0.061l-3.191,-0l-0,2.431l3.191,-0c0.04,-0 0.06,0.02 0.06,0.061l0.016,1.762c-0,0.041 -0.021,0.061 -0.061,0.061l-3.206,-0l-0,2.72l3.206,-0c0.04,-0 0.061,0.025 0.061,0.076l-0,1.777c-0,0.041 -0.021,0.061 -0.061,0.061Z" style="fill:#0b659d;fill-rule:nonzero;"/><path d="M214.925,109.792l-1.762,0c-0.041,0 -0.061,-0.025 -0.061,-0.076l0.03,-10.689c0,-0.041 0.021,-0.061 0.061,-0.061l3.146,0c0.562,0 1.078,0.137 1.549,0.41c0.471,0.274 0.848,0.641 1.129,1.102c0.281,0.461 0.421,0.983 0.421,1.565c0,0.38 -0.058,0.724 -0.174,1.033c-0.117,0.309 -0.252,0.57 -0.407,0.783c-0.154,0.212 -0.295,0.369 -0.422,0.471c0.563,0.623 0.844,1.355 0.844,2.195l0.015,3.191c-0,0.051 -0.025,0.076 -0.076,0.076l-1.763,0c-0.04,0 -0.06,-0.015 -0.06,-0.045l-0,-3.222c-0,-0.374 -0.132,-0.699 -0.395,-0.972c-0.264,-0.274 -0.588,-0.41 -0.973,-0.41l-1.026,-0l-0.015,4.573c0,0.051 -0.02,0.076 -0.061,0.076Zm1.414,-8.965l-1.338,0l0,2.447l1.338,-0c0.319,-0 0.604,-0.119 0.854,-0.357c0.251,-0.238 0.376,-0.53 0.376,-0.874c0,-0.329 -0.121,-0.614 -0.364,-0.855c-0.243,-0.24 -0.532,-0.361 -0.866,-0.361Z" style="fill:#0b659d;fill-rule:nonzero;"/><path d="M223.851,109.944c-0.552,0 -1.061,-0.142 -1.527,-0.425c-0.461,-0.284 -0.829,-0.662 -1.105,-1.136c-0.276,-0.474 -0.414,-0.994 -0.414,-1.561l-0,-0.714c-0,-0.056 0.025,-0.084 0.076,-0.084l1.747,-0c0.041,-0 0.061,0.028 0.061,0.084l-0,0.714c-0,0.339 0.114,0.632 0.342,0.877c0.228,0.246 0.501,0.369 0.82,0.369c0.324,-0 0.601,-0.126 0.828,-0.376c0.228,-0.251 0.342,-0.541 0.342,-0.87c0,-0.38 -0.248,-0.712 -0.744,-0.996c-0.081,-0.05 -0.186,-0.112 -0.316,-0.186c-0.129,-0.073 -0.282,-0.158 -0.459,-0.254c-0.177,-0.096 -0.35,-0.191 -0.517,-0.285c-0.167,-0.094 -0.329,-0.184 -0.486,-0.27c-0.567,-0.334 -0.989,-0.753 -1.265,-1.257c-0.276,-0.504 -0.414,-1.07 -0.414,-1.698c0,-0.578 0.142,-1.099 0.425,-1.565c0.284,-0.461 0.655,-0.827 1.113,-1.098c0.459,-0.271 0.956,-0.406 1.493,-0.406c0.552,-0 1.059,0.136 1.52,0.41c0.461,0.278 0.829,0.648 1.105,1.109c0.276,0.461 0.414,0.978 0.414,1.55l0,1.276c0,0.041 -0.02,0.061 -0.061,0.061l-1.747,-0c-0.04,-0 -0.061,-0.02 -0.061,-0.061l-0.015,-1.276c0,-0.365 -0.114,-0.661 -0.342,-0.889c-0.228,-0.228 -0.499,-0.342 -0.813,-0.342c-0.319,0 -0.592,0.122 -0.82,0.365c-0.228,0.243 -0.342,0.532 -0.342,0.866c-0,0.339 0.072,0.623 0.216,0.851c0.145,0.228 0.409,0.445 0.794,0.653c0.041,0.02 0.135,0.071 0.281,0.152c0.147,0.081 0.311,0.171 0.491,0.27c0.179,0.099 0.343,0.187 0.49,0.266c0.146,0.078 0.235,0.125 0.265,0.14c0.517,0.289 0.926,0.643 1.227,1.064c0.302,0.42 0.452,0.937 0.452,1.55c0,0.592 -0.136,1.124 -0.41,1.595c-0.278,0.471 -0.648,0.843 -1.109,1.117c-0.461,0.273 -0.972,0.41 -1.535,0.41Z" style="fill:#0b659d;fill-rule:nonzero;"/><path d="M235.063,109.792l-1.747,0c-0.051,0 -0.076,-0.025 -0.076,-0.076l0.03,-10.689c0,-0.041 0.02,-0.061 0.061,-0.061l4.984,0c0.05,0 0.076,0.02 0.076,0.061l-0,1.755c-0,0.04 -0.021,0.061 -0.061,0.061l-3.191,-0l-0,2.416l3.191,-0c0.04,-0 0.061,0.025 0.061,0.076l0.015,1.762c-0,0.041 -0.025,0.061 -0.076,0.061l-3.191,-0l-0,4.558c-0,0.051 -0.025,0.076 -0.076,0.076Z" style="fill:#0b659d;fill-rule:nonzero;"/><path d="M243.275,109.944c-0.552,0 -1.061,-0.142 -1.527,-0.425c-0.461,-0.284 -0.832,-0.662 -1.113,-1.136c-0.281,-0.474 -0.422,-0.994 -0.422,-1.561l0.015,-4.931c0,-0.577 0.14,-1.096 0.418,-1.557c0.274,-0.466 0.643,-0.84 1.109,-1.121c0.466,-0.281 0.973,-0.422 1.52,-0.422c0.567,0 1.076,0.14 1.527,0.418c0.456,0.279 0.822,0.652 1.098,1.121c0.276,0.468 0.414,0.989 0.414,1.561l0.015,4.931c-0,0.567 -0.137,1.086 -0.41,1.557c-0.279,0.476 -0.649,0.856 -1.11,1.14c-0.46,0.283 -0.972,0.425 -1.534,0.425Zm-0,-1.876c0.314,-0 0.587,-0.128 0.82,-0.384c0.233,-0.256 0.35,-0.543 0.35,-0.862l-0.015,-4.931c-0,-0.344 -0.109,-0.636 -0.327,-0.874c-0.218,-0.238 -0.494,-0.357 -0.828,-0.357c-0.319,0 -0.593,0.117 -0.821,0.35c-0.228,0.233 -0.342,0.527 -0.342,0.881l0,4.931c0,0.339 0.114,0.632 0.342,0.877c0.228,0.246 0.502,0.369 0.821,0.369Z" style="fill:#0b659d;fill-rule:nonzero;"/><path d="M250.97,109.944c-0.547,0 -1.054,-0.142 -1.52,-0.425c-0.466,-0.284 -0.837,-0.665 -1.113,-1.144c-0.276,-0.478 -0.414,-1.001 -0.414,-1.568l0.031,-7.78c-0,-0.041 0.02,-0.061 0.061,-0.061l1.747,0c0.04,0 0.061,0.02 0.061,0.061l-0,7.78c-0,0.349 0.111,0.647 0.334,0.892c0.223,0.246 0.494,0.369 0.813,0.369c0.334,-0 0.613,-0.123 0.836,-0.369c0.222,-0.245 0.334,-0.543 0.334,-0.892l-0,-7.78c-0,-0.041 0.02,-0.061 0.061,-0.061l1.747,0c0.041,0 0.061,0.02 0.061,0.061l0.03,7.78c0,0.572 -0.137,1.099 -0.41,1.58c-0.279,0.476 -0.648,0.854 -1.109,1.136c-0.461,0.281 -0.978,0.421 -1.55,0.421Z" style="fill:#0b659d;fill-rule:nonzero;"/><path d="M257.563,109.792l-1.557,0c-0.081,0 -0.122,-0.035 -0.122,-0.106l-0.015,-10.598c0,-0.081 0.041,-0.122 0.122,-0.122l1.405,0l2.629,6.131l-0.076,-6.009c-0,-0.081 0.046,-0.122 0.137,-0.122l1.542,0c0.061,0 0.091,0.041 0.091,0.122l0.015,10.613c0,0.061 -0.025,0.091 -0.076,0.091l-1.367,0l-2.697,-5.728l0.114,5.607c-0,0.081 -0.048,0.121 -0.145,0.121Z" style="fill:#0b659d;fill-rule:nonzero;"/><path d="M266.558,109.777l-2.789,0.015c-0.05,0 -0.076,-0.025 -0.076,-0.076l0.031,-10.689c-0,-0.041 0.02,-0.061 0.061,-0.061l2.909,-0.015c0.578,-0.015 1.099,0.116 1.565,0.395c0.471,0.279 0.848,0.655 1.129,1.128c0.281,0.474 0.421,0.997 0.421,1.569l0,4.467c0,0.598 -0.144,1.145 -0.433,1.641c-0.294,0.492 -0.684,0.883 -1.17,1.174c-0.486,0.291 -1.036,0.442 -1.648,0.452Zm0.136,-8.965l-1.086,0.015l-0.015,7.051l0.965,-0c0.385,-0 0.709,-0.134 0.972,-0.403c0.263,-0.268 0.395,-0.59 0.395,-0.965l0,-4.482c0,-0.329 -0.121,-0.617 -0.365,-0.862c-0.243,-0.246 -0.531,-0.364 -0.866,-0.354Z" style="fill:#0b659d;fill-rule:nonzero;"/><path d="M270.804,109.716l1.929,-10.689c0.01,-0.041 0.036,-0.061 0.076,-0.061l2.257,0c0.04,0 0.065,0.02 0.076,0.061l1.853,10.689c0.005,0.051 -0.015,0.076 -0.06,0.076l-1.725,0c-0.051,0 -0.079,-0.025 -0.084,-0.076l-0.167,-1.139l-2.119,-0l-0.168,1.139c-0.005,0.051 -0.03,0.076 -0.075,0.076l-1.733,0c-0.04,0 -0.06,-0.025 -0.06,-0.076Zm3.206,-7.172l-0.092,-0.577l-0.068,0.577l-0.699,4.369l1.497,-0l-0.638,-4.369Z" style="fill:#0b659d;fill-rule:nonzero;"/><path d="M280.96,109.792l-1.755,0c-0.045,0 -0.068,-0.025 -0.068,-0.076l-0,-8.873l-2.021,-0c-0.051,-0 -0.076,-0.026 -0.076,-0.076l0.015,-1.74c0,-0.041 0.02,-0.061 0.061,-0.061l5.911,0c0.055,0 0.083,0.02 0.083,0.061l0,1.74c0,0.05 -0.02,0.076 -0.061,0.076l-2.043,-0l0.015,8.873c-0,0.051 -0.02,0.076 -0.061,0.076Z" style="fill:#0b659d;fill-rule:nonzero;"/><path d="M286.308,109.792l-1.763,0c-0.051,0 -0.076,-0.025 -0.076,-0.076l0.015,-10.689c0,-0.041 0.021,-0.061 0.061,-0.061l1.748,0c0.04,0 0.06,0.02 0.06,0.061l0.015,10.689c0,0.051 -0.02,0.076 -0.06,0.076Z" style="fill:#0b659d;fill-rule:nonzero;"/><path d="M291.222,109.944c-0.552,0 -1.061,-0.142 -1.527,-0.425c-0.461,-0.284 -0.832,-0.662 -1.113,-1.136c-0.281,-0.474 -0.422,-0.994 -0.422,-1.561l0.016,-4.931c-0,-0.577 0.139,-1.096 0.418,-1.557c0.273,-0.466 0.643,-0.84 1.109,-1.121c0.466,-0.281 0.972,-0.422 1.519,-0.422c0.567,0 1.076,0.14 1.527,0.418c0.456,0.279 0.822,0.652 1.098,1.121c0.276,0.468 0.414,0.989 0.414,1.561l0.015,4.931c0,0.567 -0.136,1.086 -0.41,1.557c-0.278,0.476 -0.648,0.856 -1.109,1.14c-0.461,0.283 -0.973,0.425 -1.535,0.425Zm0,-1.876c0.314,-0 0.588,-0.128 0.821,-0.384c0.233,-0.256 0.349,-0.543 0.349,-0.862l-0.015,-4.931c0,-0.344 -0.109,-0.636 -0.327,-0.874c-0.217,-0.238 -0.494,-0.357 -0.828,-0.357c-0.319,0 -0.592,0.117 -0.82,0.35c-0.228,0.233 -0.342,0.527 -0.342,0.881l-0,4.931c-0,0.339 0.114,0.632 0.342,0.877c0.228,0.246 0.501,0.369 0.82,0.369Z" style="fill:#0b659d;fill-rule:nonzero;"/><path d="M297.747,109.792l-1.557,0c-0.081,0 -0.122,-0.035 -0.122,-0.106l-0.015,-10.598c0,-0.081 0.041,-0.122 0.122,-0.122l1.405,0l2.629,6.131l-0.076,-6.009c-0,-0.081 0.045,-0.122 0.137,-0.122l1.542,0c0.061,0 0.091,0.041 0.091,0.122l0.015,10.613c0,0.061 -0.025,0.091 -0.076,0.091l-1.367,0l-2.697,-5.728l0.114,5.607c-0,0.081 -0.048,0.121 -0.145,0.121Z" style="fill:#0b659d;fill-rule:nonzero;"/></g><g><g id="Exposed"><path d="M89.294,93.387l-19.053,-0c-0.154,-0 -0.23,-0.096 -0.23,-0.288l0.057,-40.496c0,-0.153 0.077,-0.23 0.23,-0.23l18.939,0c0.153,0 0.23,0.096 0.23,0.288l-0,6.591c-0,0.153 -0.077,0.23 -0.23,0.23l-12.089,0l0,9.21l12.089,0c0.153,0 0.23,0.077 0.23,0.23l0.057,6.678c0,0.153 -0.076,0.23 -0.23,0.23l-12.146,0l0,10.304l12.146,-0c0.154,-0 0.23,0.096 0.23,0.288l0,6.735c0,0.153 -0.076,0.23 -0.23,0.23Z" style="fill:#af2525;fill-rule:nonzero;"/><path d="M99.864,93.387l-6.62,-0c-0.134,-0 -0.192,-0.096 -0.173,-0.288l6.735,-21.039l-6.619,-19.457c-0.039,-0.153 0.019,-0.23 0.172,-0.23l6.62,0c0.192,0 0.307,0.077 0.345,0.23l3.943,14.017l4.001,-14.017c0.038,-0.153 0.163,-0.23 0.374,-0.23l6.534,0c0.153,0 0.211,0.077 0.172,0.23l-6.591,19.399l6.649,21.097c0.077,0.192 0.019,0.288 -0.173,0.288l-6.591,-0c-0.172,-0 -0.297,-0.096 -0.374,-0.288l-4.001,-15.225l-4.058,15.225c-0.019,0.192 -0.134,0.288 -0.345,0.288Z" style="fill:#af2525;fill-rule:nonzero;"/><path d="M126.062,93.387l-6.62,-0c-0.192,-0 -0.288,-0.096 -0.288,-0.288l0.116,-40.496c-0,-0.153 0.076,-0.23 0.23,-0.23l11.34,0c3.607,0 6.461,1.099 8.562,3.296c2.101,2.197 3.152,5.185 3.152,8.965c-0,2.763 -0.547,5.171 -1.641,7.224c-1.113,2.034 -2.552,3.607 -4.317,4.72c-1.765,1.113 -3.684,1.67 -5.756,1.67l-4.49,-0l-0,14.851c-0,0.192 -0.096,0.288 -0.288,0.288Zm4.778,-34.02l-4.49,0.058l-0,11.685l4.49,-0c1.247,-0 2.331,-0.6 3.252,-1.799c0.921,-1.199 1.382,-2.758 1.382,-4.677c-0,-1.535 -0.413,-2.797 -1.238,-3.785c-0.825,-0.988 -1.957,-1.482 -3.396,-1.482Z" style="fill:#af2525;fill-rule:nonzero;"/><path d="M157.757,93.962c-2.091,0 -4.019,-0.537 -5.785,-1.611c-1.746,-1.075 -3.151,-2.509 -4.216,-4.303c-1.065,-1.794 -1.598,-3.766 -1.598,-5.915l0.058,-18.679c-0,-2.187 0.528,-4.154 1.583,-5.9c1.036,-1.765 2.437,-3.181 4.202,-4.245c1.765,-1.065 3.684,-1.598 5.756,-1.598c2.149,0 4.078,0.528 5.785,1.583c1.727,1.055 3.114,2.471 4.159,4.245c1.046,1.775 1.569,3.747 1.569,5.915l0.058,18.679c-0,2.149 -0.519,4.116 -1.555,5.9c-1.055,1.804 -2.456,3.243 -4.202,4.318c-1.746,1.074 -3.684,1.611 -5.814,1.611Zm0,-7.109c1.19,0 2.226,-0.484 3.109,-1.453c0.882,-0.969 1.324,-2.058 1.324,-3.267l-0.058,-18.679c0,-1.305 -0.412,-2.408 -1.237,-3.31c-0.826,-0.902 -1.871,-1.353 -3.138,-1.353c-1.208,0 -2.245,0.442 -3.108,1.324c-0.863,0.883 -1.295,1.996 -1.295,3.339l-0,18.679c-0,1.286 0.432,2.394 1.295,3.324c0.863,0.931 1.9,1.396 3.108,1.396Z" style="fill:#af2525;fill-rule:nonzero;"/><path d="M184.071,93.962c-2.092,0 -4.02,-0.537 -5.786,-1.611c-1.746,-1.075 -3.141,-2.509 -4.187,-4.303c-1.046,-1.794 -1.569,-3.766 -1.569,-5.915l0,-2.705c0,-0.211 0.096,-0.317 0.288,-0.317l6.62,0c0.153,0 0.23,0.106 0.23,0.317l-0,2.705c-0,1.286 0.432,2.394 1.295,3.324c0.864,0.931 1.9,1.396 3.109,1.396c1.228,0 2.273,-0.475 3.137,-1.424c0.863,-0.95 1.295,-2.049 1.295,-3.296c-0,-1.439 -0.94,-2.696 -2.821,-3.77c-0.307,-0.192 -0.705,-0.427 -1.194,-0.705c-0.489,-0.279 -1.07,-0.6 -1.741,-0.965c-0.672,-0.364 -1.324,-0.724 -1.958,-1.079c-0.633,-0.355 -1.247,-0.695 -1.842,-1.022c-2.149,-1.266 -3.746,-2.854 -4.792,-4.763c-1.045,-1.909 -1.568,-4.053 -1.568,-6.433c-0,-2.187 0.537,-4.163 1.612,-5.929c1.074,-1.746 2.48,-3.132 4.216,-4.158c1.736,-1.027 3.622,-1.54 5.656,-1.54c2.091,-0 4.01,0.518 5.756,1.554c1.746,1.055 3.142,2.456 4.188,4.202c1.045,1.746 1.568,3.703 1.568,5.871l0,4.836c0,0.153 -0.077,0.23 -0.23,0.23l-6.62,-0c-0.153,-0 -0.23,-0.077 -0.23,-0.23l-0.058,-4.836c0,-1.381 -0.431,-2.504 -1.295,-3.367c-0.863,-0.863 -1.89,-1.295 -3.079,-1.295c-1.209,-0 -2.245,0.46 -3.109,1.381c-0.863,0.921 -1.295,2.015 -1.295,3.281c-0,1.286 0.273,2.361 0.82,3.224c0.547,0.863 1.55,1.688 3.008,2.475c0.153,0.077 0.508,0.269 1.065,0.576c0.556,0.307 1.175,0.647 1.856,1.022c0.681,0.374 1.3,0.709 1.857,1.007c0.556,0.297 0.892,0.475 1.007,0.532c1.957,1.094 3.507,2.437 4.648,4.03c1.142,1.592 1.713,3.549 1.713,5.871c-0,2.245 -0.518,4.26 -1.554,6.044c-1.056,1.785 -2.456,3.195 -4.203,4.231c-1.746,1.036 -3.684,1.554 -5.813,1.554Z" style="fill:#af2525;fill-rule:nonzero;"/><path d="M219.306,93.387l-19.053,-0c-0.154,-0 -0.231,-0.096 -0.231,-0.288l0.058,-40.496c0,-0.153 0.077,-0.23 0.23,-0.23l18.938,0c0.154,0 0.231,0.096 0.231,0.288l-0,6.591c-0,0.153 -0.077,0.23 -0.231,0.23l-12.088,0l0,9.21l12.088,0c0.154,0 0.231,0.077 0.231,0.23l0.057,6.678c0,0.153 -0.076,0.23 -0.23,0.23l-12.146,0l0,10.304l12.146,-0c0.154,-0 0.23,0.096 0.23,0.288l0,6.735c0,0.153 -0.076,0.23 -0.23,0.23Z" style="fill:#af2525;fill-rule:nonzero;"/><path d="M235.92,93.329l-10.563,0.058c-0.192,-0 -0.288,-0.096 -0.288,-0.288l0.115,-40.496c0,-0.153 0.077,-0.23 0.231,-0.23l11.023,-0.057c2.187,-0.058 4.164,0.441 5.929,1.496c1.784,1.056 3.209,2.48 4.274,4.274c1.065,1.794 1.597,3.775 1.597,5.944l0,16.923c0,2.264 -0.546,4.337 -1.64,6.217c-1.113,1.861 -2.59,3.343 -4.433,4.447c-1.842,1.103 -3.923,1.674 -6.245,1.712Zm0.518,-33.962l-4.116,0.058l-0.057,26.709l3.655,-0c1.458,-0 2.686,-0.509 3.684,-1.526c0.998,-1.017 1.497,-2.235 1.497,-3.655l-0,-16.981c-0,-1.247 -0.461,-2.336 -1.382,-3.267c-0.921,-0.93 -2.015,-1.376 -3.281,-1.338Z" style="fill:#af2525;fill-rule:nonzero;"/></g><g id="SFOF"><path d="M81.685,48.259c-2.091,0 -4.02,-0.537 -5.785,-1.612c-1.746,-1.074 -3.142,-2.508 -4.188,-4.302c-1.045,-1.795 -1.568,-3.766 -1.568,-5.915l-0,-2.706c-0,-0.211 0.096,-0.316 0.288,-0.316l6.619,-0c0.154,-0 0.231,0.105 0.231,0.316l-0,2.706c-0,1.286 0.431,2.394 1.295,3.324c0.863,0.931 1.899,1.396 3.108,1.396c1.228,0 2.274,-0.475 3.137,-1.425c0.864,-0.949 1.296,-2.048 1.296,-3.295c-0,-1.439 -0.941,-2.696 -2.821,-3.77c-0.307,-0.192 -0.705,-0.427 -1.194,-0.706c-0.49,-0.278 -1.07,-0.599 -1.742,-0.964c-0.671,-0.364 -1.324,-0.724 -1.957,-1.079c-0.633,-0.355 -1.247,-0.696 -1.842,-1.022c-2.149,-1.266 -3.746,-2.854 -4.792,-4.763c-1.046,-1.909 -1.569,-4.054 -1.569,-6.433c0,-2.187 0.538,-4.164 1.612,-5.929c1.075,-1.746 2.48,-3.132 4.217,-4.159c1.736,-1.026 3.621,-1.54 5.655,-1.54c2.092,0 4.01,0.518 5.757,1.555c1.746,1.055 3.142,2.456 4.187,4.202c1.046,1.746 1.569,3.703 1.569,5.871l-0,4.835c-0,0.154 -0.077,0.231 -0.23,0.231l-6.62,-0c-0.154,-0 -0.23,-0.077 -0.23,-0.231l-0.058,-4.835c0,-1.381 -0.432,-2.504 -1.295,-3.367c-0.864,-0.864 -1.89,-1.295 -3.08,-1.295c-1.209,-0 -2.245,0.46 -3.108,1.381c-0.864,0.921 -1.295,2.015 -1.295,3.281c-0,1.286 0.273,2.36 0.82,3.224c0.547,0.863 1.549,1.688 3.008,2.475c0.153,0.077 0.508,0.269 1.065,0.576c0.556,0.307 1.175,0.647 1.856,1.021c0.681,0.374 1.3,0.71 1.856,1.008c0.557,0.297 0.893,0.475 1.008,0.532c1.957,1.094 3.506,2.437 4.648,4.029c1.142,1.593 1.712,3.55 1.712,5.872c0,2.245 -0.518,4.26 -1.554,6.044c-1.055,1.784 -2.456,3.195 -4.202,4.231c-1.746,1.036 -3.684,1.554 -5.814,1.554Z" style="fill:#0b659d;fill-rule:nonzero;"/><path d="M104.545,47.683l-6.62,0c-0.192,0 -0.288,-0.095 -0.288,-0.287l0.115,-40.496c0,-0.153 0.077,-0.23 0.23,-0.23l18.881,-0c0.192,-0 0.288,0.077 0.288,0.23l-0,6.649c-0,0.153 -0.077,0.23 -0.23,0.23l-12.089,-0l0,9.152l12.089,0c0.153,0 0.23,0.096 0.23,0.288l0.058,6.678c-0,0.153 -0.096,0.23 -0.288,0.23l-12.089,-0l0,17.269c0,0.192 -0.095,0.287 -0.287,0.287Z" style="fill:#0b659d;fill-rule:nonzero;"/><path d="M133.65,48.259c-2.092,0 -4.02,-0.537 -5.785,-1.612c-1.746,-1.074 -3.152,-2.508 -4.217,-4.302c-1.065,-1.795 -1.597,-3.766 -1.597,-5.915l0.057,-18.679c0,-2.188 0.528,-4.154 1.583,-5.9c1.036,-1.766 2.437,-3.181 4.202,-4.246c1.766,-1.065 3.684,-1.597 5.757,-1.597c2.149,-0 4.077,0.528 5.785,1.583c1.727,1.055 3.113,2.47 4.159,4.245c1.045,1.775 1.568,3.747 1.568,5.915l0.058,18.679c-0,2.149 -0.518,4.116 -1.554,5.9c-1.056,1.804 -2.456,3.243 -4.202,4.317c-1.747,1.075 -3.684,1.612 -5.814,1.612Zm-0,-7.109c1.189,0 2.225,-0.484 3.108,-1.453c0.883,-0.969 1.324,-2.058 1.324,-3.267l-0.058,-18.679c0,-1.305 -0.412,-2.408 -1.237,-3.31c-0.825,-0.902 -1.871,-1.353 -3.137,-1.353c-1.209,0 -2.245,0.441 -3.109,1.324c-0.863,0.883 -1.295,1.996 -1.295,3.339l0,18.679c0,1.286 0.432,2.394 1.295,3.324c0.864,0.931 1.9,1.396 3.109,1.396Z" style="fill:#0b659d;fill-rule:nonzero;"/><path d="M156.854,47.683l-6.619,0c-0.192,0 -0.288,-0.095 -0.288,-0.287l0.115,-40.496c0,-0.153 0.077,-0.23 0.23,-0.23l18.881,-0c0.192,-0 0.288,0.077 0.288,0.23l-0,6.649c-0,0.153 -0.077,0.23 -0.23,0.23l-12.089,-0l0,9.152l12.089,0c0.153,0 0.23,0.096 0.23,0.288l0.057,6.678c0,0.153 -0.096,0.23 -0.287,0.23l-12.089,-0l0,17.269c0,0.192 -0.096,0.287 -0.288,0.287Z" style="fill:#0b659d;fill-rule:nonzero;"/></g></g></g><g id="Logo"><ellipse cx="32.945" cy="87.762" rx="20.668" ry="22.674" style="fill:#fff;"/><path d="M53.218,69.532l-3.914,-0c1.519,1.591 2.838,3.402 3.914,5.384l-0,-5.384Z" style="fill:#fff;fill-rule:nonzero;"/><path d="M8.151,74.618c1.113,-1.878 2.451,-3.588 3.978,-5.085l-3.978,0.001l0,5.084Z" style="fill:#fff;fill-rule:nonzero;"/><path d="M30.8,38.486c-0.547,0.002 -0.99,0.447 -0.988,0.994l0.016,7.776c0.282,-0.005 0.563,-0.012 0.846,-0.012c0.041,0 0.08,0.001 0.12,0.002c0.009,-0 0.017,-0.001 0.025,-0.001c0.333,-0 0.662,0.007 0.992,0.013l-0.017,-7.782c-0.002,-0.548 -0.447,-0.991 -0.994,-0.99" style="fill:#0f669f;fill-rule:nonzero;"/><path d="M25.11,39.062c-0.547,0.001 -0.99,0.446 -0.989,0.994l0.016,7.524c0,0.019 0.004,0.037 0.006,0.055c0.007,-0.001 0.013,-0.002 0.021,-0.003c0.645,-0.078 1.298,-0.142 1.955,-0.197l-0.015,-7.384c-0.002,-0.547 -0.447,-0.99 -0.994,-0.989" style="fill:#0f669f;fill-rule:nonzero;"/><path d="M20.082,40.686c-0.456,0.002 -0.826,0.372 -0.825,0.828l0.015,6.961c0.006,-0.001 0.012,-0.003 0.019,-0.004c0.537,-0.121 1.081,-0.234 1.633,-0.338l-0.014,-6.622c-0.002,-0.456 -0.372,-0.825 -0.828,-0.825" style="fill:#0f669f;fill-rule:nonzero;"/><path d="M15.419,43.508c-0.365,0.001 -0.661,0.298 -0.66,0.663l0.012,5.58c0,0 0.001,0.001 0.001,0.002c0.006,-0.003 0.014,-0.005 0.021,-0.007c0.426,-0.148 0.859,-0.29 1.299,-0.425l-0.011,-5.153c-0.001,-0.366 -0.297,-0.66 -0.662,-0.66" style="fill:#0f669f;fill-rule:nonzero;"/><path d="M11.175,51.234c0.321,-0.155 0.646,-0.306 0.979,-0.452l-0.01,-4.729c-0.001,-0.274 -0.224,-0.495 -0.497,-0.494c-0.274,0 -0.496,0.223 -0.495,0.496l0.011,5.185l0.012,-0.006Z" style="fill:#0f669f;fill-rule:nonzero;"/><path d="M36.456,39.038c-0.548,0.001 -0.991,0.45 -0.99,1.004l0.016,7.411c0.007,0.001 0.014,0.001 0.021,0.002c0.66,0.058 1.312,0.132 1.959,0.214c0.001,-0.01 0.003,-0.02 0.003,-0.031l-0.016,-7.601c-0.001,-0.553 -0.446,-1 -0.993,-0.999" style="fill:#0f669f;fill-rule:nonzero;"/><path d="M41.584,40.64c-0.456,0.001 -0.825,0.377 -0.824,0.839l0.014,6.722l0.02,0.003c0.551,0.109 1.095,0.226 1.633,0.351l-0.014,-7.079c-0.002,-0.463 -0.373,-0.836 -0.829,-0.836" style="fill:#0f669f;fill-rule:nonzero;"/><path d="M46.144,43.48c-0.365,0 -0.661,0.301 -0.66,0.67l0.011,5.245c0.392,0.123 0.78,0.25 1.16,0.383c0.053,0.018 0.105,0.037 0.156,0.055c0.003,-0.011 0.007,-0.021 0.007,-0.032l-0.012,-5.654c-0.001,-0.369 -0.297,-0.668 -0.662,-0.667" style="fill:#0f669f;fill-rule:nonzero;"/><path d="M50.311,51.299l-0.011,-5.153c-0.001,-0.274 -0.223,-0.495 -0.497,-0.495c-0.274,0.001 -0.495,0.223 -0.495,0.497l0.011,4.686c0.326,0.146 0.646,0.295 0.96,0.45c0.011,0.004 0.021,0.01 0.032,0.015" style="fill:#0f669f;fill-rule:nonzero;"/><path d="M30.716,25.812c-0.729,0.001 -1.321,0.595 -1.32,1.324l0.009,3.729c0.206,-0.005 0.413,-0.008 0.619,-0.01c0.014,-0.001 0.028,-0.001 0.042,-0.002l1.321,0.002c0.221,0.003 0.442,0.004 0.661,0.01l-0.008,-3.734c-0.001,-0.729 -0.595,-1.321 -1.324,-1.319" style="fill:#fff;fill-rule:nonzero;"/><path d="M26.303,26.219c-0.729,0.002 -1.321,0.596 -1.319,1.325l0.008,3.687c0,0.004 0.002,0.007 0.002,0.011c0.21,-0.029 0.423,-0.053 0.635,-0.079c0.008,-0.002 0.016,-0.002 0.025,-0.003l1.32,-0.144c0.213,-0.019 0.424,-0.04 0.637,-0.056c0.008,-0.001 0.016,-0.001 0.025,-0.001l-0.008,-3.421c-0.002,-0.729 -0.596,-1.32 -1.325,-1.319" style="fill:#fff;fill-rule:nonzero;"/><path d="M22.225,27.232c-0.637,0.001 -1.155,0.521 -1.154,1.158l0.008,3.627c0.017,-0.004 0.035,-0.009 0.052,-0.014c0.202,-0.051 0.405,-0.098 0.609,-0.145l0.99,-0.217c0.018,-0.004 0.036,-0.008 0.054,-0.012c0.202,-0.041 0.403,-0.083 0.607,-0.122l-0.007,-3.121c-0.001,-0.638 -0.521,-1.156 -1.159,-1.154" style="fill:#fff;fill-rule:nonzero;"/><path d="M19.635,32.415l-0.006,-2.394c-0.001,-0.547 -0.446,-0.991 -0.993,-0.99c-0.547,0.001 -0.99,0.447 -0.989,0.994l0.007,3.061c0.196,-0.074 0.391,-0.149 0.59,-0.219c0.023,-0.008 0.047,-0.015 0.07,-0.023l0.66,-0.217c0.197,-0.065 0.393,-0.132 0.593,-0.193c0.022,-0.007 0.045,-0.013 0.068,-0.019" style="fill:#fff;fill-rule:nonzero;"/><path d="M15.421,30.357c-0.455,0.001 -0.825,0.387 -0.824,0.861l0.007,3.176l0.142,-0.054c0.026,-0.012 0.053,-0.024 0.078,-0.037c0.144,-0.071 0.293,-0.139 0.44,-0.208l0.33,-0.156c0.048,-0.023 0.095,-0.045 0.143,-0.068c0.17,-0.076 0.344,-0.15 0.518,-0.223l-0.006,-2.434c-0.001,-0.474 -0.373,-0.859 -0.828,-0.857" style="fill:#fff;fill-rule:nonzero;"/><path d="M35.892,31.184c0.025,0.004 0.051,0.006 0.076,0.009c0.195,0.026 0.39,0.053 0.584,0.081c-0,-0.005 0.001,-0.009 0.001,-0.014l-0.008,-3.765c-0.002,-0.744 -0.596,-1.348 -1.325,-1.347c-0.729,0.001 -1.32,0.608 -1.319,1.353l0.007,3.475c0.028,0.003 0.056,0.004 0.082,0.006c0.194,0.016 0.387,0.033 0.58,0.051" style="fill:#fff;fill-rule:nonzero;"/><path d="M39.325,27.195c-0.637,0.001 -1.155,0.532 -1.154,1.182l0.007,3.174c0.018,0.004 0.036,0.007 0.054,0.011c0.203,0.039 0.405,0.079 0.607,0.122l0.992,0.226c0.018,0.005 0.036,0.008 0.053,0.012c0.204,0.05 0.407,0.098 0.608,0.15l-0.008,-3.7c-0.001,-0.651 -0.521,-1.179 -1.159,-1.177" style="fill:#fff;fill-rule:nonzero;"/><path d="M42.908,28.979c-0.546,0.001 -0.99,0.457 -0.989,1.015l0.006,2.486c0.209,0.064 0.415,0.134 0.623,0.202c0.012,0.004 0.025,0.009 0.037,0.013l0.662,0.224c0.209,0.075 0.416,0.152 0.622,0.231c0.013,0.004 0.026,0.009 0.04,0.014l-0.007,-3.174c-0.002,-0.559 -0.447,-1.012 -0.994,-1.011" style="fill:#fff;fill-rule:nonzero;"/><path d="M46.836,31.203c-0.002,-0.486 -0.373,-0.88 -0.828,-0.879c-0.456,0.001 -0.826,0.397 -0.825,0.882l0.006,2.482c0.222,0.097 0.443,0.197 0.661,0.298l0.331,0.155c0.176,0.084 0.353,0.166 0.526,0.254l0.135,0.063l0,-0.038l-0.006,-3.217Z" style="fill:#fff;fill-rule:nonzero;"/><path d="M45.009,104.951c-0.348,0.288 -0.705,0.563 -1.07,0.826c-1.398,1.007 -2.921,1.825 -4.534,2.424c-2.002,0.742 -4.142,1.151 -6.371,1.151c-2.228,0 -4.369,-0.408 -6.37,-1.151c-1.614,-0.598 -3.136,-1.415 -4.534,-2.423c-0.366,-0.263 -0.723,-0.537 -1.071,-0.826c-0.319,-0.264 -0.629,-0.541 -0.934,-0.826c-1.836,-1.721 -3.386,-3.797 -4.549,-6.136c-0.161,-0.325 -0.314,-0.656 -0.461,-0.991c-0.236,-0.541 -0.451,-1.094 -0.646,-1.657c-0.113,-0.327 -0.22,-0.657 -0.319,-0.992c-0.62,-2.094 -0.959,-4.325 -0.959,-6.642c-0.001,-7.612 3.624,-14.315 9.085,-18.175c0.412,-0.29 0.831,-0.569 1.262,-0.826c0.503,-0.3 1.019,-0.573 1.548,-0.826c1.477,-0.708 3.046,-1.224 4.685,-1.52c1.062,-0.193 2.15,-0.298 3.261,-0.298c1.112,0 2.201,0.105 3.263,0.297c1.637,0.297 3.207,0.813 4.684,1.52c0.528,0.252 1.045,0.526 1.548,0.826c0.431,0.257 0.85,0.536 1.261,0.826c5.463,3.86 9.088,10.562 9.088,18.174c0,2.317 -0.339,4.549 -0.959,6.643c-0.099,0.334 -0.205,0.664 -0.318,0.991c-0.196,0.564 -0.411,1.117 -0.647,1.657c-0.146,0.335 -0.299,0.666 -0.462,0.991c-1.161,2.339 -2.71,4.416 -4.547,6.137c-0.304,0.284 -0.614,0.562 -0.934,0.826m2.464,0c0.271,-0.268 0.536,-0.544 0.795,-0.826c1.638,-1.785 3.009,-3.857 4.048,-6.137c0.148,-0.326 0.29,-0.656 0.425,-0.991c0.17,-0.421 0.332,-0.846 0.478,-1.28c0.042,-0.124 0.078,-0.251 0.119,-0.377c0.105,-0.328 0.204,-0.657 0.296,-0.991c0.156,-0.571 0.294,-1.15 0.411,-1.738c0.315,-1.582 0.484,-3.222 0.484,-4.905c-0,-1.682 -0.17,-3.322 -0.484,-4.905c-0.212,-1.063 -0.486,-2.101 -0.827,-3.106c-1.364,-4.024 -3.728,-7.527 -6.76,-10.163c-0.33,-0.286 -0.667,-0.561 -1.011,-0.826c-0.374,-0.287 -0.754,-0.565 -1.144,-0.826c-0.855,-0.572 -1.748,-1.079 -2.675,-1.52c-1.169,-0.554 -2.391,-0.998 -3.655,-1.321c-1.588,-0.407 -3.241,-0.628 -4.941,-0.628c-1.7,-0 -3.352,0.222 -4.94,0.628c-1.265,0.324 -2.487,0.767 -3.655,1.322c-0.927,0.44 -1.821,0.948 -2.674,1.52c-0.391,0.261 -0.772,0.539 -1.145,0.826c-0.344,0.266 -0.681,0.541 -1.011,0.826c-4.914,4.273 -8.069,10.831 -8.069,18.176c0,2.307 0.316,4.535 0.895,6.642c0.092,0.333 0.191,0.664 0.297,0.991c0.18,0.562 0.379,1.115 0.597,1.657c0.135,0.334 0.276,0.665 0.425,0.991c1.039,2.28 2.41,4.352 4.048,6.136c0.259,0.283 0.523,0.558 0.796,0.826c0.289,0.285 0.587,0.559 0.89,0.826c1.037,0.914 2.151,1.728 3.334,2.424c1.433,0.842 2.966,1.508 4.571,1.982c1.8,0.531 3.691,0.82 5.643,0.82c1.953,0 3.844,-0.289 5.643,-0.821c1.606,-0.473 3.138,-1.14 4.572,-1.982c1.182,-0.696 2.297,-1.51 3.333,-2.424c0.303,-0.268 0.601,-0.542 0.891,-0.826" style="fill:#0f669f;fill-rule:nonzero;"/><path d="M44.264,95.341c-0.027,0.588 -0.128,1.14 -0.304,1.656c-0.118,0.345 -0.264,0.677 -0.449,0.991c-0.486,0.824 -1.2,1.547 -2.158,2.178c-1.05,0.692 -2.309,1.21 -3.762,1.554c-0.267,0.064 -0.546,0.117 -0.826,0.168c-0.268,0.05 -0.546,0.091 -0.826,0.129l0,3.947l-1.128,0.001l0,-0.187l-0,-0.827l-0,-2.812c-0.272,0.023 -0.544,0.045 -0.827,0.058c-0.269,0.012 -0.547,0.017 -0.826,0.02c-0.123,0.002 -0.242,0.009 -0.367,0.009c-0.304,0 -0.599,-0.011 -0.893,-0.024c-0.28,-0.012 -0.555,-0.033 -0.826,-0.056c-0.28,-0.024 -0.556,-0.054 -0.826,-0.09l-0,3.909l-1.128,-0l-0,-4.104c-0.281,-0.058 -0.557,-0.122 -0.826,-0.196c-0.281,-0.075 -0.558,-0.157 -0.826,-0.248c-0.896,-0.307 -1.726,-0.697 -2.48,-1.175c-1.015,-0.644 -1.829,-1.392 -2.457,-2.252c-0.229,-0.315 -0.433,-0.646 -0.612,-0.991c-0.158,-0.304 -0.302,-0.615 -0.421,-0.943l3.489,-0.555c0.172,0.534 0.397,1.033 0.669,1.497c0.206,0.351 0.443,0.681 0.706,0.992c0.326,0.386 0.693,0.742 1.106,1.065c0.084,0.066 0.164,0.134 0.253,0.197c0.185,0.134 0.377,0.259 0.572,0.377c0.266,0.16 0.544,0.3 0.827,0.431l-0.001,-2.071l0,-9.646l-0,-2.229c-0.286,-0.149 -0.561,-0.296 -0.826,-0.439c-0.287,-0.156 -0.564,-0.309 -0.827,-0.458c-1.573,-0.894 -2.705,-1.669 -3.38,-2.316c-1.109,-1.062 -1.647,-2.204 -1.647,-3.492c-0,-1.828 0.865,-3.315 2.642,-4.546c0.717,-0.496 1.514,-0.897 2.385,-1.204c0.269,-0.095 0.543,-0.182 0.826,-0.259c0.269,-0.073 0.545,-0.136 0.826,-0.192l0,-3.675l0.678,0l0.451,-0l-0,3.496c0.269,-0.032 0.545,-0.057 0.825,-0.075c0.27,-0.018 0.548,-0.025 0.826,-0.031c0.109,-0.001 0.214,-0.009 0.324,-0.009c0.32,0 0.63,0.009 0.938,0.022c0.281,0.011 0.555,0.029 0.825,0.05c0.282,0.023 0.557,0.05 0.826,0.083l0,-1.998l-0,-1.538l1.128,-0l0,1.695l0.001,2.016c0.282,0.055 0.558,0.116 0.826,0.183c0.284,0.073 0.559,0.152 0.826,0.239c0.714,0.234 1.372,0.516 1.957,0.858c1.503,0.877 2.638,2.125 3.449,3.798l-2.938,0.622c-0.61,-1.325 -1.442,-2.377 -2.468,-3.161c-0.069,-0.053 -0.132,-0.116 -0.203,-0.166c-0.199,-0.142 -0.409,-0.269 -0.623,-0.39c-0.264,-0.148 -0.541,-0.28 -0.826,-0.397l-0,2.209l0,7.513l0,2.195c0.287,0.137 0.563,0.269 0.827,0.397c0.287,0.138 0.566,0.274 0.826,0.402c0.596,0.293 1.121,0.557 1.568,0.789c1.783,0.938 3.107,1.978 3.936,3.091c0.661,0.889 1.037,1.852 1.148,2.923c0.023,0.222 0.038,0.447 0.038,0.679c0,0.107 -0.012,0.208 -0.017,0.313m0.422,-5.098c-1.008,-1.353 -2.556,-2.586 -4.609,-3.665c-0.669,-0.348 -1.504,-0.763 -2.486,-1.237l-0.001,-6.732c0.37,0.524 0.684,1.13 0.938,1.819l0.297,0.803l6.88,-1.456l-0.398,-1.076c-0.971,-2.629 -2.572,-4.61 -4.76,-5.887c-0.874,-0.511 -1.866,-0.913 -2.957,-1.216l-0,-2.063l-0,-1.653l-4.433,0l0,1.653l0.001,1.421c-0.31,-0.011 -0.618,-0.022 -0.938,-0.022c-0.11,-0 -0.215,0.008 -0.324,0.009l0,-3.061l-4.432,0.001l-0,3.699c-1.293,0.383 -2.469,0.93 -3.513,1.653c-2.321,1.606 -3.497,3.684 -3.497,6.177c0,1.83 0.76,3.487 2.257,4.922c0.933,0.895 2.503,1.936 4.754,3.15l0,8.685c-0.164,-0.258 -0.303,-0.535 -0.424,-0.826c-0.129,-0.31 -0.233,-0.641 -0.313,-0.991c-0.013,-0.056 -0.029,-0.109 -0.041,-0.167l-0.19,-0.929l-6.901,1.096l-0.575,0.092l0.208,0.9l0.032,0.135c0.123,0.531 0.292,1.033 0.487,1.522c0.135,0.34 0.288,0.671 0.458,0.991c0.834,1.564 2.071,2.883 3.719,3.927c1.066,0.675 2.252,1.194 3.541,1.572l-0,4.128l4.432,0l0,-3.433c0.295,0.012 0.59,0.025 0.893,0.025c0.125,-0 0.244,-0.008 0.367,-0.009l0,0.752l0.001,0.826l-0,1.839l4.433,-0l-0.001,-1.84l0,-2.036c1.871,-0.393 3.501,-1.028 4.853,-1.919c1.583,-1.043 2.678,-2.326 3.278,-3.834c0.127,-0.319 0.229,-0.651 0.312,-0.991c0.128,-0.527 0.192,-1.082 0.212,-1.656c0.003,-0.106 0.019,-0.207 0.019,-0.314c-0,-0.228 -0.01,-0.454 -0.028,-0.678c-0.12,-1.503 -0.639,-2.882 -1.551,-4.106" style="fill:#af2525;fill-rule:nonzero;"/><path d="M29.117,83.13l-0,-8.348c-0.29,0.117 -0.567,0.25 -0.827,0.4c-0.117,0.069 -0.233,0.136 -0.344,0.211c-0.172,0.116 -0.331,0.239 -0.482,0.367c-0.97,0.826 -1.48,1.892 -1.48,3.114c0,0.956 0.485,1.915 1.48,2.903c0.243,0.241 0.522,0.485 0.827,0.73c0.255,0.206 0.526,0.413 0.826,0.623Z" style="fill:#af2525;fill-rule:nonzero;"/><path d="M32.464,76.179c0.238,0 0.468,0.012 0.693,0.029l0.001,7.006c-0.459,-0.236 -0.878,-0.463 -1.261,-0.68l-0,-6.325c0.188,-0.011 0.368,-0.03 0.567,-0.03m-0.567,8.612c0.402,0.212 0.817,0.425 1.261,0.641c0.265,0.129 0.544,0.261 0.826,0.392c0.06,0.028 0.115,0.055 0.175,0.083c0.223,0.105 0.438,0.206 0.651,0.306l0,-2.191l-0.001,-7.495l0,-2.059c-0.268,-0.065 -0.542,-0.121 -0.826,-0.162c-0.269,-0.039 -0.543,-0.071 -0.826,-0.088c-0.226,-0.014 -0.458,-0.022 -0.693,-0.022c-0.193,0 -0.381,0.007 -0.568,0.016c-0.283,0.014 -0.558,0.038 -0.826,0.073c-0.285,0.037 -0.559,0.088 -0.826,0.149l0.001,2.061l-0,7.363c0.263,0.16 0.538,0.32 0.826,0.483c0.264,0.149 0.54,0.299 0.826,0.45" style="fill:#af2525;fill-rule:nonzero;"/><path d="M31.898,98.834l-0,-9.137c0.448,0.216 0.868,0.428 1.26,0.633l0.001,4.02l-0,4.58c-0.44,-0.005 -0.86,-0.037 -1.261,-0.096m2.913,1.983l-0,-6.467l-0.001,-3.091l0,-2.293c-0.266,-0.147 -0.54,-0.295 -0.826,-0.443c-0.268,-0.14 -0.541,-0.279 -0.826,-0.42c-0.301,-0.148 -0.608,-0.298 -0.928,-0.447l-0.113,-0.052c-0.075,-0.036 -0.145,-0.071 -0.22,-0.106c-0.282,-0.134 -0.557,-0.268 -0.826,-0.399c-0.283,-0.138 -0.558,-0.274 -0.826,-0.408l0.001,2.211l-0,9.492l0,2.098c0.269,0.081 0.545,0.148 0.826,0.206c0.269,0.055 0.546,0.098 0.826,0.132c0.409,0.05 0.829,0.078 1.261,0.082c0.04,0.001 0.079,0.004 0.12,0.004c0.24,0 0.475,-0.008 0.706,-0.021c0.282,-0.016 0.557,-0.042 0.826,-0.078Z" style="fill:#af2525;fill-rule:nonzero;"/><path d="M38.628,95.341c-0.005,0.635 -0.171,1.178 -0.506,1.657c-0.145,0.207 -0.32,0.404 -0.531,0.589l0,-0.589l-0,-1.657l-0,-1.976c0.352,0.368 0.588,0.695 0.748,0.984c0.217,0.393 0.291,0.716 0.291,0.96c0,0.011 -0.002,0.021 -0.002,0.032m-1.037,-4.607c-0.26,-0.196 -0.532,-0.392 -0.826,-0.589c-0.262,-0.176 -0.536,-0.352 -0.826,-0.529l-0,4.734l0,0.991l0,5.253c0.284,-0.074 0.562,-0.157 0.826,-0.256c0.289,-0.109 0.561,-0.238 0.826,-0.377c0.295,-0.154 0.579,-0.322 0.843,-0.514c0.592,-0.428 1.057,-0.917 1.409,-1.458c0.202,-0.313 0.367,-0.643 0.49,-0.991c0.179,-0.515 0.275,-1.066 0.278,-1.657c-0,-0.011 0.001,-0.021 0.001,-0.032c0,-0.321 -0.053,-0.641 -0.139,-0.96c-0.327,-1.206 -1.269,-2.398 -2.882,-3.615" style="fill:#af2525;fill-rule:nonzero;"/><path d="M33.011,111.875c-2.898,0 -5.665,-0.604 -8.209,-1.691c-1.272,-0.543 -2.487,-1.208 -3.634,-1.982c-1.062,-0.718 -2.064,-1.529 -2.998,-2.424c-0.279,-0.268 -0.554,-0.543 -0.821,-0.826c-0.254,-0.269 -0.502,-0.544 -0.744,-0.826c-1.557,-1.811 -2.863,-3.877 -3.855,-6.136c-0.143,-0.327 -0.282,-0.656 -0.412,-0.991c-0.21,-0.542 -0.398,-1.096 -0.573,-1.657c-0.102,-0.327 -0.197,-0.658 -0.286,-0.991c-0.571,-2.137 -0.884,-4.391 -0.884,-6.724c-0,-7.186 2.906,-13.649 7.511,-18.093c0.295,-0.285 0.596,-0.56 0.905,-0.826c0.329,-0.286 0.666,-0.561 1.01,-0.827c0.714,-0.551 1.455,-1.061 2.227,-1.52c0.842,-0.501 1.718,-0.94 2.62,-1.322c0.805,-0.34 1.629,-0.637 2.475,-0.876c0.986,-0.279 1.999,-0.482 3.032,-0.613c0.864,-0.11 1.742,-0.174 2.633,-0.174c2.871,0 5.615,0.593 8.14,1.662c0.903,0.383 1.779,0.822 2.621,1.322c0.771,0.459 1.513,0.969 2.226,1.52c0.344,0.265 0.681,0.54 1.01,0.826c0.309,0.267 0.61,0.542 0.905,0.826c0.338,0.326 0.666,0.662 0.985,1.008c1.76,1.915 3.229,4.143 4.323,6.603c0.305,0.686 0.581,1.39 0.827,2.109c0.336,0.985 0.609,2.003 0.826,3.043c0.357,1.716 0.552,3.498 0.552,5.329c0.001,1.832 -0.195,3.614 -0.552,5.331c-0.098,0.47 -0.208,0.934 -0.331,1.394c-0.089,0.333 -0.184,0.663 -0.286,0.991c-0.068,0.22 -0.135,0.441 -0.209,0.658c-0.115,0.336 -0.236,0.669 -0.364,0.999c-0.13,0.335 -0.269,0.665 -0.412,0.991c-0.017,0.039 -0.033,0.08 -0.049,0.119c-0.986,2.214 -2.275,4.238 -3.805,6.017c-0.242,0.282 -0.49,0.558 -0.744,0.827c-0.267,0.283 -0.542,0.558 -0.821,0.826c-0.934,0.894 -1.936,1.706 -2.998,2.423c-1.146,0.776 -2.362,1.44 -3.634,1.984c-2.543,1.087 -5.311,1.691 -8.207,1.691m-11.95,-1.148l2.533,-0c0.884,0.421 1.798,0.785 2.736,1.087c-1.825,-0.138 -3.59,-0.508 -5.269,-1.087m-3.725,-1.698l3.287,-0c0.55,0.37 1.113,0.715 1.692,1.037l-2.935,0c-0.7,-0.31 -1.383,-0.656 -2.044,-1.037m-1.317,-0.827c-0.41,-0.277 -0.812,-0.567 -1.203,-0.871l3.591,-0c0.349,0.301 0.706,0.591 1.071,0.871c0.072,0.055 0.144,0.111 0.217,0.166l-3.434,-0c-0.082,-0.053 -0.161,-0.111 -0.242,-0.166m-14.034,0.001l-0.001,-10.212l4.516,-0.001l0.001,7.789l5.112,0c0.846,0.878 1.751,1.688 2.712,2.423l-12.34,0.001Zm-0.001,-11.05l-0,-1.81l3.611,-0c0.165,0.561 0.353,1.112 0.553,1.656l-4.164,0l0,0.154Zm-0.001,-30.791l1.16,0l0.001,27.989l-1.16,0l-0.001,-27.989Zm2.861,25.561l-0,2.428l-1.7,0l-0.001,-27.989l1.7,0l0,17.555c-0.198,1.304 -0.304,2.64 -0.304,4.003c0,1.363 0.107,2.699 0.305,4.003m16.287,-26.033l-2.017,0c0.697,-0.32 1.411,-0.606 2.143,-0.85c0.202,-0.068 0.407,-0.126 0.612,-0.187l1.054,-0c-0.116,0.06 -0.229,0.124 -0.343,0.186c-0.494,0.266 -0.977,0.549 -1.449,0.851Zm-5.043,1.698c0.556,-0.372 1.13,-0.717 1.717,-1.037l2.237,-0l0.108,-0c-0.462,0.329 -0.913,0.675 -1.351,1.037l-2.711,0Zm-2.227,1.699c0.227,-0.197 0.456,-0.392 0.691,-0.579c0.197,-0.158 0.399,-0.308 0.601,-0.458l2.876,-0c-0.165,0.149 -0.327,0.303 -0.49,0.458c-0.198,0.189 -0.393,0.382 -0.586,0.579l-3.092,0Zm-1.768,1.698c0.335,-0.358 0.684,-0.701 1.04,-1.037l3.191,0c-0.306,0.336 -0.603,0.683 -0.891,1.037l-3.34,0Zm-1.443,1.698c0.275,-0.354 0.561,-0.699 0.854,-1.037l3.403,0c-0.258,0.338 -0.505,0.685 -0.746,1.037l-3.511,0Zm-1.193,1.699c0.227,-0.353 0.464,-0.698 0.707,-1.037l3.56,-0c-0.217,0.34 -0.427,0.685 -0.629,1.037l-3.638,0Zm-0.992,1.699c0.187,-0.352 0.383,-0.698 0.586,-1.038l3.681,-0c-0.182,0.341 -0.357,0.686 -0.526,1.038l-3.741,-0Zm2.994,1.698l-3.819,-0c0.154,-0.351 0.314,-0.696 0.483,-1.037l0.028,-0.001l3.744,0c-0.153,0.342 -0.298,0.688 -0.436,1.038Zm-0.597,1.698l-3.893,0c0.113,-0.321 0.23,-0.64 0.357,-0.955c0.011,-0.028 0.023,-0.054 0.035,-0.082l3.855,-0c-0.125,0.342 -0.243,0.688 -0.354,1.037Zm-0.48,1.698l-3.943,0c0.021,-0.075 0.039,-0.152 0.061,-0.227c0.077,-0.273 0.162,-0.542 0.248,-0.81l3.907,-0c-0.099,0.342 -0.188,0.689 -0.273,1.037m-4.516,10.852l4.101,-0c0.057,0.347 0.119,0.693 0.19,1.037l-4.102,-0c-0.07,-0.343 -0.132,-0.689 -0.189,-1.037Zm-0.223,-1.699l4.097,0c0.034,0.348 0.075,0.694 0.122,1.037l-3.362,0l-0.735,0.001c-0.047,-0.344 -0.089,-0.689 -0.122,-1.038Zm-0.096,-1.698l4.08,-0c0.013,0.348 0.034,0.693 0.06,1.037l-4.091,0c-0.023,-0.344 -0.039,-0.689 -0.049,-1.037Zm0.006,-1.698l2.599,-0l1.468,-0.001c-0.006,0.232 -0.016,0.463 -0.016,0.696c-0,0.114 0.006,0.228 0.008,0.342l-4.081,-0c0,-0.017 -0.001,-0.032 -0.001,-0.049c0,-0.332 0.011,-0.66 0.023,-0.988m4.473,-4.058l-3.993,-0c0.07,-0.348 0.146,-0.695 0.23,-1.037l0.237,-0l0.826,-0.001l2.906,0c-0.075,0.344 -0.145,0.689 -0.206,1.038Zm-0.314,2.359c-0.03,0.344 -0.056,0.69 -0.073,1.037l-4.049,0c0.022,-0.347 0.049,-0.693 0.085,-1.037l1.651,0l0.826,-0l1.56,-0Zm0.069,-0.661l-4.028,0c0.046,-0.348 0.1,-0.694 0.159,-1.037l1.414,0l0.826,-0.001l1.763,0c-0.051,0.344 -0.095,0.69 -0.134,1.038Zm-3.282,-16.69l0,10.05c-0.466,1.133 -0.855,2.309 -1.16,3.522l-0.001,-15.092l10.826,-0.001c-0.747,0.467 -1.471,0.971 -2.163,1.521l-7.502,-0Zm5.63,1.652c-1.527,1.495 -2.865,3.206 -3.978,5.084l0,-5.084l3.978,-0Zm-1.566,25.228l-4.098,-0c-0.038,-0.136 -0.073,-0.273 -0.109,-0.411c-0.055,-0.208 -0.109,-0.416 -0.158,-0.626l1.128,-0l0.826,-0.001l2.118,0l-0,-0.135c0.057,0.255 0.119,0.509 0.184,0.762c0.035,0.137 0.071,0.275 0.109,0.411Zm-2.411,1.699l-1.146,-0c-0.123,-0.343 -0.237,-0.689 -0.346,-1.038l1.492,0l2.6,-0c0.106,0.349 0.216,0.695 0.334,1.037l-2.934,0.001Zm0,1.698l-0.47,0c-0.025,-0.056 -0.047,-0.113 -0.071,-0.169c-0.097,-0.222 -0.194,-0.446 -0.285,-0.672c-0.026,-0.065 -0.051,-0.131 -0.077,-0.196l0.903,-0l3.177,-0.001c0.111,0.293 0.227,0.582 0.348,0.869c0.023,0.057 0.046,0.113 0.07,0.169l-3.595,0Zm0.367,1.698c-0.125,-0.231 -0.249,-0.464 -0.367,-0.7c-0.055,-0.112 -0.107,-0.225 -0.16,-0.337l0.16,-0l3.887,-0.001c0.161,0.351 0.33,0.697 0.506,1.038l-4.026,-0Zm1.005,1.698c-0.22,-0.34 -0.434,-0.685 -0.638,-1.037l4.012,-0c0.194,0.351 0.395,0.697 0.606,1.037l-3.98,0Zm0.342,2.173c0.062,0.08 0.119,0.163 0.182,0.243c0.039,0.051 0.075,0.105 0.116,0.156l-2.011,-0l-0.001,-2.906c0.072,0.12 0.153,0.233 0.226,0.351c0.033,0.055 0.069,0.107 0.102,0.161c0.433,0.69 0.894,1.356 1.386,1.995m0.865,-0.475c-0.264,-0.338 -0.521,-0.683 -0.768,-1.037l3.965,-0c0.233,0.352 0.474,0.698 0.722,1.037l-3.919,0Zm5.879,2.359c0.053,0.057 0.107,0.111 0.161,0.166c0.287,0.299 0.581,0.589 0.881,0.871l-3.672,0.001c-0.329,-0.282 -0.653,-0.571 -0.967,-0.872c-0.058,-0.055 -0.118,-0.109 -0.175,-0.166l3.772,0Zm-4.419,-0.66c-0.255,-0.269 -0.503,-0.544 -0.745,-0.825c-0.06,-0.071 -0.121,-0.141 -0.18,-0.213l3.884,0c0.056,0.072 0.113,0.142 0.17,0.212c0.225,0.281 0.456,0.556 0.692,0.826l-3.821,-0Zm-10.208,-43.156l13.135,-0l35.659,-0.002l8.538,-0.001l0,0.568l-57.332,0.003l-0,0.991l21.646,-0.002l0.208,0c-0.228,0.044 -0.456,0.084 -0.681,0.134c-1.584,0.351 -3.108,0.877 -4.557,1.553l-16.616,0l-0,-3.244Zm-0,-0.954l13.135,-0.001l35.659,-0.025l8.538,0.023l0,0.954l-8.538,0.001l-35.659,0.002l-13.135,0l-0,-0.954Zm48.921,-1.324l-8.971,0l-11.323,-3.72l-11.21,3.721l-9.656,0.001l20.909,-6.648l20.251,6.646Zm-20.245,-8.86l25.843,8.86l-5.598,0l-20.251,-6.646l-20.673,6.58l-0.236,0.068l-4.832,-0l25.747,-8.862Zm-20.583,3.072l0.438,-0.293c4.946,-2.766 11.78,-4.387 19.134,-4.526l-23.081,8.047c0.553,-0.872 1.956,-2.191 3.509,-3.228m2.078,-2.948c-0.332,0.147 -0.659,0.297 -0.979,0.453l-0.012,0.005c-0.216,0.105 -0.435,0.208 -0.646,0.316l-0,-6.989c0.395,-0.862 1.022,-1.683 1.845,-2.446l0.661,8.286c-0.066,0.029 -0.791,0.34 -0.856,0.369c-0.004,0.001 -0.009,0.004 -0.013,0.006m2.181,-0.879c-0.218,0.084 -1.098,0.418 -1.312,0.504l-0.661,-8.286c0.207,-0.164 1.747,-1.333 1.972,-1.49l0.001,9.272Zm1.757,-0.582c-0.44,0.135 -0.873,0.277 -1.3,0.425c-0.006,0.002 -0.014,0.005 -0.021,0.007c-0.145,0.05 -0.293,0.099 -0.436,0.15l-0.001,-9.272c0.725,-0.453 1.526,-0.877 2.398,-1.265l0.001,9.759c-0.211,0.061 -0.417,0.126 -0.624,0.191c-0.006,0.001 -0.011,0.003 -0.017,0.005m2.612,-0.715c-0.218,0.056 -1.755,0.46 -1.971,0.519l-0.001,-9.759c0.195,-0.079 1.054,-0.436 1.255,-0.512l0.716,-0.259l0.001,10.011Zm2.22,-0.473c-0.552,0.104 -1.096,0.217 -1.634,0.338c-0.006,0.001 -0.011,0.003 -0.018,0.004c-0.19,0.043 -0.379,0.087 -0.568,0.131l-0.001,-10.011c0.837,-0.289 1.72,-0.549 2.642,-0.776l0.661,10.125c-0.135,0.025 -0.929,0.16 -1.064,0.185c-0.006,0.001 -0.012,0.003 -0.018,0.004m2.394,-0.388c-0.219,0.033 -1.095,0.164 -1.312,0.199l-0.661,-10.125c0.216,-0.048 1.753,-0.38 1.972,-0.425l0.001,10.351Zm2.802,-0.31c-0.658,0.055 -1.311,0.119 -1.956,0.197c-0.007,0.001 -0.014,0.002 -0.021,0.003c-0.277,0.034 -0.551,0.073 -0.825,0.11l-0.001,-10.351c1.174,-0.217 2.398,-0.384 3.661,-0.494l0,10.472c-0.28,0.019 -0.56,0.038 -0.839,0.062c-0.006,0 -0.012,0.001 -0.019,0.001m2.831,-0.163l-1.973,0.1l0,-10.472c0.216,-0.016 1.755,-0.115 1.972,-0.127l0.001,10.499Zm1.723,-12.464c7.859,-0 15.178,2.496 20.17,6.854l0.001,1.047c-1.095,-1.432 -2.777,-2.738 -4.995,-3.839c-0.286,-0.142 -0.592,-0.269 -0.891,-0.401l-0.054,-0.025c-3.938,-1.739 -8.934,-2.7 -14.231,-2.7c-3.212,0.001 -6.309,0.362 -9.135,1.025l-0.194,0.046c-1.539,0.371 -3.001,0.826 -4.341,1.379l-0.272,0.122c-0.42,0.179 -0.838,0.359 -1.233,0.556c-2.21,1.097 -3.887,2.398 -4.982,3.823l-0,-1.041c4.991,-4.352 12.306,-6.845 20.157,-6.846m-18.726,2.787c4.676,-3.454 11.455,-5.43 18.726,-5.43c7.138,-0.001 13.805,1.902 18.471,5.238c0.373,0.37 0.679,0.763 0.924,1.135c-5.195,-3.655 -12.088,-5.713 -19.395,-5.713c-7.346,0.001 -14.274,2.081 -19.479,5.773c0.202,-0.324 0.452,-0.668 0.753,-1.003m4.306,-3.947c-0.173,0.073 -0.346,0.147 -0.517,0.224c-0.048,0.022 -0.095,0.045 -0.143,0.067c-0.062,0.03 -0.125,0.06 -0.187,0.089c-0.048,0.022 -0.095,0.045 -0.143,0.067c-0.148,0.069 -0.296,0.136 -0.44,0.208c-0.026,0.013 -0.053,0.025 -0.078,0.038l-0.142,0.053l-0.452,0.169l-0,-5.452c0.792,-0.454 1.657,-0.87 2.582,-1.246l0,5.58c-0.113,0.046 -0.224,0.093 -0.336,0.141c-0.048,0.02 -0.095,0.041 -0.144,0.062m3.381,-1.233c-0.023,0.007 -0.046,0.012 -0.068,0.019c-0.2,0.061 -0.396,0.128 -0.593,0.193c-0.022,0.007 -0.046,0.014 -0.068,0.022c-0.198,0.064 -0.397,0.128 -0.592,0.195c-0.023,0.008 -0.047,0.015 -0.07,0.023c-0.199,0.07 -0.394,0.145 -0.59,0.219c-0.023,0.009 -0.047,0.017 -0.07,0.026c-0.118,0.044 -0.238,0.086 -0.355,0.131l0,-5.577c0.891,-0.34 1.836,-0.643 2.823,-0.91l0,5.541c-0.138,0.04 -0.279,0.077 -0.417,0.118m3.149,-0.786c-0.018,0.004 -0.035,0.008 -0.054,0.012c-0.315,0.065 -0.628,0.132 -0.938,0.204c-0.017,0.004 -0.034,0.008 -0.053,0.013c-0.203,0.047 -0.406,0.095 -0.608,0.145c-0.017,0.005 -0.034,0.01 -0.052,0.014c-0.178,0.046 -0.355,0.092 -0.531,0.14l-0.001,-5.531c1.078,-0.273 2.204,-0.501 3.367,-0.683l0,5.472c-0.156,0.028 -0.313,0.053 -0.469,0.082c-0.018,0.003 -0.036,0.007 -0.054,0.01c-0.203,0.039 -0.405,0.081 -0.607,0.122m4.851,-0.67c-0.007,0 -0.016,0 -0.024,0.001c-0.213,0.016 -0.424,0.037 -0.636,0.056c-0.008,0.002 -0.017,0.002 -0.024,0.003c-0.435,0.04 -0.868,0.087 -1.298,0.141c-0.008,0.001 -0.016,0.001 -0.024,0.003c-0.212,0.026 -0.425,0.05 -0.635,0.079c-0.006,0.001 -0.011,0.002 -0.016,0.002c-0.191,0.028 -0.379,0.061 -0.568,0.091l-0,-5.467c1.232,-0.177 2.501,-0.304 3.8,-0.374l0.001,5.428c-0.192,0.012 -0.384,0.022 -0.576,0.037m2.389,-0.105c-0.206,0.003 -0.413,0.006 -0.619,0.011c-0.014,0.001 -0.028,0 -0.042,0.001c-0.22,0.007 -0.438,0.019 -0.657,0.03l-0,-5.423c0.651,-0.028 1.307,-0.046 1.968,-0.046c0.695,0 1.382,0.02 2.065,0.05l0.001,5.424c-0.244,-0.012 -0.488,-0.027 -0.734,-0.034c-0.219,-0.008 -0.44,-0.009 -0.66,-0.012c-0.224,-0.004 -0.447,-0.012 -0.672,-0.012c-0.204,-0 -0.405,0.007 -0.608,0.011c-0.014,-0 -0.028,0 -0.042,0m5.943,0.339c-0.025,-0.003 -0.05,-0.005 -0.075,-0.009c-0.411,-0.053 -0.824,-0.102 -1.241,-0.143c-0.027,-0.003 -0.054,-0.005 -0.081,-0.007c-0.193,-0.019 -0.385,-0.036 -0.579,-0.052c-0.027,-0.002 -0.055,-0.004 -0.083,-0.006c-0.223,-0.018 -0.448,-0.035 -0.672,-0.049l-0,-5.427c1.363,0.077 2.694,0.216 3.983,0.41l0,5.47c-0.198,-0.033 -0.395,-0.067 -0.595,-0.096c-0.024,-0.004 -0.048,-0.007 -0.072,-0.01c-0.194,-0.029 -0.389,-0.055 -0.585,-0.081m4.525,0.878c-0.201,-0.051 -0.405,-0.099 -0.608,-0.148c-0.017,-0.005 -0.035,-0.008 -0.053,-0.012c-0.311,-0.075 -0.622,-0.149 -0.938,-0.216c-0.018,-0.004 -0.036,-0.007 -0.054,-0.012c-0.202,-0.042 -0.404,-0.082 -0.607,-0.121c-0.018,-0.003 -0.036,-0.007 -0.054,-0.011c-0.155,-0.03 -0.308,-0.062 -0.463,-0.09l-0.001,-5.476c1.165,0.19 2.291,0.428 3.367,0.71l0.001,5.54c-0.18,-0.05 -0.356,-0.103 -0.536,-0.151c-0.019,-0.004 -0.036,-0.008 -0.054,-0.013m3.416,1.093c-0.012,-0.005 -0.026,-0.009 -0.039,-0.014c-0.206,-0.079 -0.413,-0.156 -0.623,-0.231c-0.012,-0.005 -0.025,-0.01 -0.037,-0.014c-0.206,-0.073 -0.415,-0.141 -0.623,-0.21c-0.013,-0.005 -0.025,-0.009 -0.039,-0.013c-0.206,-0.068 -0.413,-0.137 -0.622,-0.202c-0.014,-0.004 -0.026,-0.009 -0.039,-0.012c-0.102,-0.032 -0.206,-0.062 -0.309,-0.093l-0.001,-5.541c0.935,0.261 1.829,0.556 2.675,0.884l-0,5.573c-0.112,-0.044 -0.229,-0.085 -0.343,-0.127m2.934,1.294l-0.134,-0.063c-0.173,-0.087 -0.351,-0.17 -0.527,-0.254c-0.063,-0.03 -0.125,-0.061 -0.188,-0.09c-0.047,-0.023 -0.096,-0.043 -0.143,-0.065c-0.218,-0.101 -0.439,-0.201 -0.662,-0.298c-0.045,-0.019 -0.088,-0.041 -0.133,-0.06c-0.102,-0.044 -0.205,-0.087 -0.308,-0.129l-0,-5.572l0.036,0.004c0.895,0.372 1.73,0.781 2.496,1.226l0,5.506l-0.437,-0.205Zm-17.675,-11.406c0.499,-0.017 1.001,-0.027 1.506,-0.027c0.506,-0 1.008,0.01 1.507,0.026c5.902,0.186 11.331,1.462 15.165,3.572c0.01,0.193 -0.009,0.363 -0.041,0.508l-0.025,-0l-0,0.102c-0.046,0.162 -0.1,0.278 -0.135,0.341c-4.246,-2.212 -10.167,-3.469 -16.47,-3.468c-6.233,0 -12.09,1.23 -16.326,3.397c-0.09,-0.156 -0.245,-0.494 -0.236,-0.938c3.826,-2.075 9.209,-3.329 15.055,-3.513m-12.606,0.561c0.166,-0.099 0.313,-0.196 0.452,-0.291c0.157,-0.091 0.313,-0.183 0.475,-0.27c0.073,-0.04 0.15,-0.077 0.224,-0.116l0.019,0.009c0.004,-0.008 0.009,-0.016 0.014,-0.025c3.461,-1.8 8.049,-2.814 12.928,-2.814c4.88,-0.001 9.467,1.012 12.929,2.813c0.005,0.008 0.01,0.017 0.014,0.025l0.019,-0.009c0.074,0.039 0.151,0.076 0.224,0.115c0.18,0.097 0.352,0.198 0.525,0.299c0.128,0.086 0.265,0.173 0.414,0.262c0.505,0.303 0.934,0.614 1.294,0.93c-1.335,-0.58 -2.797,-1.081 -4.361,-1.491c-3.338,-0.874 -7.125,-1.347 -11.058,-1.347c-3.932,0 -7.719,0.473 -11.056,1.349c-1.549,0.406 -2.997,0.9 -4.321,1.473c0.349,-0.309 0.769,-0.615 1.265,-0.912m3.066,-3.81l0.138,-0.191c1.889,-2.611 4.103,-4.497 6.484,-5.545c-2.376,1.465 -4.037,3.971 -4.937,6.359c-0.956,0.287 -1.869,0.62 -2.729,0.994c0.336,-0.564 0.683,-1.106 1.044,-1.617m8.661,-6.127c-1.619,1.119 -2.998,3.161 -4.061,6.038c-0.794,0.152 -1.566,0.335 -2.316,0.543c1.086,-2.648 3.266,-5.551 6.377,-6.581m-0.793,-7.261c0.824,-0.407 1.932,-0.636 3.114,-0.636c1.066,0 2.07,0.188 2.862,0.522l0.003,0.006l0.182,0.093c0.245,0.127 0.501,0.281 0.713,0.426c-0.058,0.002 -0.12,0.003 -0.188,0.003l-0.141,0c-0.927,-0.452 -2.145,-0.707 -3.431,-0.707c-1.286,0 -2.503,0.255 -3.43,0.707l-0.184,0c-0.067,0 -0.13,-0 -0.187,-0.002c0.204,-0.14 0.449,-0.288 0.687,-0.412m3.093,-2.189c0.964,0.031 1.837,0.531 2.47,1.401c-0.733,-0.222 -1.573,-0.343 -2.449,-0.343c-0.897,-0 -1.759,0.127 -2.503,0.359c0.633,-0.881 1.511,-1.385 2.482,-1.417m-0.049,-2.904c0.105,-0 0.305,0.241 0.305,0.619c0,0.379 -0.2,0.62 -0.305,0.62c-0.105,0 -0.306,-0.241 -0.306,-0.62c-0,-0.378 0.201,-0.619 0.306,-0.619m2.018,12.347c3.13,1.009 5.324,3.855 6.424,6.463c-0.779,-0.201 -1.584,-0.372 -2.407,-0.515c-1.076,-2.865 -2.421,-4.855 -4.017,-5.948m-0.3,-2.433c-0.164,-0.02 -0.657,-0.064 -0.823,-0.078l0,-4.003c0.657,0.09 1.588,0.294 2.086,0.526l-0,3.78c-0.201,-0.047 -0.4,-0.094 -0.601,-0.13l-0.001,-3.282c-0,-0.183 -0.148,-0.331 -0.33,-0.331c-0.183,0 -0.331,0.148 -0.331,0.331l0,3.187Zm-1.026,2.282c1.917,0.761 3.52,2.772 4.778,6.002c-0.825,-0.128 -1.668,-0.223 -2.525,-0.291c-0.364,-1.871 -1.034,-4.113 -2.253,-5.711m1.741,5.671c-0.758,-0.049 -1.525,-0.075 -2.298,-0.075l0,-5.505c1.238,1.49 1.922,3.708 2.298,5.58m-2.915,-11.14l0,3.102c-0.138,0.007 -0.278,0.007 -0.415,0.018l-0.001,-4.002c0.313,-0.035 0.638,-0.053 0.968,-0.053c0.281,-0 0.556,0.015 0.825,0.041l0,4.003c-0.128,-0.008 -0.256,-0.013 -0.385,-0.017l-0.001,-3.092c0,-0.274 -0.222,-0.496 -0.495,-0.496c-0.274,-0 -0.496,0.222 -0.496,0.496m0.122,5.546l0,5.527c-0.781,0.011 -1.554,0.046 -2.317,0.107c0.372,-1.872 1.056,-4.127 2.317,-5.634m-0.578,-0.069c-1.229,1.615 -1.897,3.886 -2.256,5.744c-0.868,0.083 -1.719,0.2 -2.551,0.344c0.945,-2.46 2.474,-5.146 4.807,-6.088m-1.474,-2.13c-0.157,0.032 -0.315,0.064 -0.471,0.102l-0,-3.798c0.47,-0.225 1.366,-0.437 1.985,-0.533l0.001,4.002c-0.175,0.019 -0.681,0.08 -0.854,0.107l-0.001,-3.227c0,-0.183 -0.148,-0.331 -0.329,-0.331c-0.183,0 -0.331,0.148 -0.331,0.331l-0,3.347Zm13.182,7.855l1.094,1.571c0.123,0.194 0.242,0.397 0.361,0.596c-0.996,-0.432 -2.064,-0.805 -3.184,-1.121c-1.006,-2.593 -3.087,-5.506 -6.101,-6.81c2.88,0.784 5.572,2.774 7.83,5.764m9.536,32.31c-0.174,-0.09 -0.356,-0.175 -0.534,-0.262c-0.01,-0.005 -0.021,-0.01 -0.031,-0.015c-0.315,-0.154 -0.635,-0.305 -0.962,-0.45c-0.009,-0.005 -0.019,-0.01 -0.03,-0.014c-0.042,-0.019 -0.746,-0.324 -0.788,-0.343l0.661,-8.194c0.747,0.724 1.316,1.498 1.684,2.307l0,6.971Zm-3.656,-10.824l1.972,1.546l-0.661,8.194c-0.212,-0.088 -1.093,-0.427 -1.31,-0.512l-0.001,-9.228Zm-0.534,9.041c-0.38,-0.133 -0.768,-0.26 -1.16,-0.383c-0.05,-0.016 -0.098,-0.033 -0.148,-0.049c-0.129,-0.04 -0.92,-0.275 -1.049,-0.314l0.661,-9.509c0.808,0.375 1.556,0.78 2.23,1.214l0.001,9.228c-0.125,-0.046 -0.252,-0.089 -0.379,-0.132c-0.051,-0.018 -0.103,-0.037 -0.156,-0.055m-3.668,-11.067l1.017,0.394c0.099,0.041 0.857,0.377 0.955,0.418l-0.661,9.509c-0.214,-0.06 -1.093,-0.29 -1.311,-0.347l-0,-9.974Zm-0.56,9.844c-0.537,-0.126 -1.082,-0.243 -1.634,-0.351l-0.019,-0.003c-0.155,-0.031 -0.968,-0.178 -1.125,-0.207l0.66,-10.1c0.937,0.24 1.833,0.513 2.678,0.817l0,9.974c-0.18,-0.045 -0.364,-0.084 -0.546,-0.127c-0.004,-0.001 -0.009,-0.002 -0.014,-0.003m-4.09,-11.103l0.8,0.165c0.171,0.037 1.003,0.237 1.172,0.277l-0.66,10.1c-0.216,-0.037 -1.094,-0.174 -1.311,-0.208l-0.001,-10.334Zm-2.835,10.003c-0.006,-0.001 -0.013,-0.001 -0.02,-0.002c-0.282,-0.025 -0.567,-0.042 -0.852,-0.062l-0,-10.469c1.282,0.12 2.521,0.3 3.707,0.53l0.001,10.334c-0.287,-0.042 -0.574,-0.079 -0.863,-0.116c-0.005,-0 -0.009,-0.001 -0.013,-0.001c-0.648,-0.082 -1.299,-0.156 -1.96,-0.214m-2.844,-10.673l1.972,0.14l0,10.469c-0.216,-0.013 -1.425,-0.152 -1.972,-0.108l-0,-10.501Zm-1.984,10.462c-0.283,-0 -0.564,0.007 -0.846,0.012c-0.048,0.001 -0.096,0.002 -0.145,0.002c-0.244,0.005 -0.489,0.007 -0.732,0.014l-0.001,-10.499c0.57,-0.023 1.143,-0.037 1.724,-0.037c0.67,-0 1.33,0.017 1.984,0.046l0,10.501c-0.33,-0.011 -0.66,-0.019 -0.992,-0.025c-0.29,-0.005 -0.58,-0.011 -0.872,-0.012c-0.04,-0 -0.079,-0.002 -0.12,-0.002m20.612,6.484c1.389,0.928 2.659,2.081 3.307,2.938l-22.914,-7.755c7.395,0.136 14.266,1.769 19.223,4.56l0.384,0.257Zm8.029,11.309l-16.043,0.001c-1.115,-0.69 -2.461,-1.255 -3.861,-1.685l19.904,-0.001l0,1.685Zm0.002,29.312l-1.301,-0l-0.002,-27.99l1.301,0l0.002,27.99Zm-3.002,-27.99l1.699,0l0.002,27.99l-1.7,-0l-0.001,-27.99Zm-8.752,1.521c-0.632,-0.542 -1.289,-1.05 -1.971,-1.52l10.227,-0.001l0.001,16.469c-0.26,-1.449 -0.47,-2.853 -0.949,-4.203l-0.001,-10.746l-7.307,0.001Zm5.655,7.037c-1.076,-1.983 -2.395,-3.794 -3.914,-5.385l3.914,0l0,5.385Zm6.099,22.079l-4.446,0.001l0,-0.372c0.151,-0.423 0.292,-0.851 0.422,-1.285l4.024,-0l0,1.656Zm-8.617,7.128c0.943,-1.174 1.788,-2.442 2.52,-3.791l-0,3.791l-2.52,0Zm8.618,4.076l-12.776,0c0.958,-0.734 1.863,-1.545 2.707,-2.423l5.623,-0l-0.001,-7.789l4.446,-0l0.001,10.212Zm1.981,1.982l-0,-1.982l0.001,-0l-0.002,-48.432l0,-0.721l-0.511,-0.173l-3.764,-1.386c-0.114,-1.983 -2.826,-4.14 -4.195,-5.107l-0.001,-12.643l-0.043,-0.141c-0.039,-0.131 -0.936,-2.98 -3.521,-4.622l-0.001,-7.536c0.079,-0.419 0.105,-0.914 -0.007,-1.473c-0.303,-1.507 -1.46,-2.872 -3.439,-4.056c-0.182,-0.108 -0.325,-0.202 -0.437,-0.281l-1.337,-1.923c-0.361,-0.564 -0.736,-1.099 -1.122,-1.612l-0.772,-0.973c-2.151,-2.563 -4.637,-4.368 -7.306,-5.288l-0,-3.711c0.532,-0.06 1.131,-0.247 1.27,-0.824c0.059,-0.239 0.229,-0.949 -1.657,-1.971c-0.689,-1.123 -1.591,-1.902 -2.601,-2.238c0.195,-0.32 0.312,-0.714 0.312,-1.148c0,-1.088 -0.715,-1.941 -1.627,-1.941c-0.913,0 -1.628,0.853 -1.628,1.941c0,0.45 0.127,0.854 0.334,1.179c-0.979,0.35 -1.854,1.113 -2.524,2.208c-1.887,1.021 -1.715,1.732 -1.658,1.97c0.14,0.578 0.738,0.764 1.271,0.825l0.001,3.772c-2.6,0.935 -5.02,2.711 -7.122,5.21l-0.998,1.266l-0.139,0.194l-2.307,3.206c-0.066,0.043 -0.142,0.09 -0.226,0.14c-1.96,1.173 -3.089,2.527 -3.355,4.024c-0.08,0.441 -0.071,0.842 -0.019,1.201l0.001,7.703c-2.643,1.635 -3.554,4.537 -3.593,4.669l-0.044,0.14l0.001,12.736c-1.424,1.006 -4.462,3.301 -4.353,5.348l-4.181,1.145l0.002,49.326l0,1.982l17.381,-0c1.362,0.737 2.799,1.335 4.297,1.778c4.934,0.902 8.694,1.205 11.471,1.008c2.128,-0.173 4.19,-0.443 6.055,-1.009c1.493,-0.442 2.927,-1.041 4.286,-1.778l17.807,-0.002Z" style="fill:#0f669f;fill-rule:nonzero;"/></g></g></svg>