<?xml version="1.0" encoding="UTF-8" standalone="no"?>
<!DOCTYPE svg PUBLIC "-//W3C//DTD SVG 1.1//EN" "http://www.w3.org/Graphics/SVG/1.1/DTD/svg11.dtd">
<svg width="100%" height="100%" viewBox="0 0 578 151" version="1.1" xmlns="http://www.w3.org/2000/svg" xmlns:xlink="http://www.w3.org/1999/xlink" xml:space="preserve" xmlns:serif="http://www.serif.com/" style="fill-rule:evenodd;clip-rule:evenodd;stroke-linejoin:round;stroke-miterlimit:2;">
    <g id="Brand---Desktop" serif:id="Brand - Desktop" transform="matrix(1,0,0,1,429.727,-82.014)">
        <g id="Vectors" transform="matrix(1.12011,0,0,1.12011,28.1829,-27.5358)">
            <g transform="matrix(1.01709,0,0,0.192734,-444.726,175.039)">
                <path d="M131.562,196.663C130.574,196.663 129.662,195.324 128.828,192.644C128.003,189.964 127.343,186.387 126.849,181.913C126.355,177.439 126.108,172.523 126.108,167.163L126.108,160.416C126.108,159.89 126.153,159.627 126.244,159.627L129.372,159.627C129.445,159.627 129.481,159.89 129.481,160.416L129.481,167.163C129.481,170.369 129.685,173.133 130.093,175.453C130.501,177.774 130.991,178.935 131.562,178.935C132.142,178.935 132.637,177.75 133.045,175.382C133.453,173.013 133.657,170.274 133.657,167.163C133.657,163.574 133.212,160.44 132.324,157.76C132.179,157.282 131.99,156.696 131.759,156.002C131.528,155.308 131.254,154.507 130.936,153.597C130.619,152.688 130.311,151.791 130.011,150.906C129.712,150.021 129.422,149.171 129.141,148.358C128.125,145.2 127.371,141.24 126.876,136.479C126.382,131.718 126.135,126.37 126.135,120.437C126.135,114.982 126.389,110.053 126.897,105.651C127.405,101.296 128.069,97.839 128.889,95.279C129.71,92.719 130.601,91.439 131.562,91.439C132.55,91.439 133.457,92.731 134.282,95.315C135.107,97.947 135.767,101.44 136.261,105.794C136.755,110.149 137.003,115.03 137.003,120.437L137.003,132.495C137.003,132.878 136.966,133.069 136.894,133.069L133.765,133.069C133.693,133.069 133.657,132.878 133.657,132.495L133.629,120.437C133.629,116.991 133.425,114.192 133.017,112.039C132.609,109.886 132.124,108.809 131.562,108.809C130.991,108.809 130.501,109.957 130.093,112.254C129.685,114.551 129.481,117.279 129.481,120.437C129.481,123.643 129.61,126.322 129.869,128.476C130.127,130.629 130.601,132.687 131.29,134.648C131.363,134.84 131.53,135.318 131.793,136.084C132.056,136.85 132.349,137.699 132.671,138.632C132.992,139.565 133.285,140.403 133.548,141.144C133.811,141.886 133.969,142.329 134.024,142.472C134.949,145.2 135.681,148.549 136.22,152.521C136.76,156.492 137.03,161.373 137.03,167.163C137.03,172.762 136.785,177.786 136.295,182.236C135.797,186.686 135.135,190.203 134.309,192.787C133.484,195.371 132.569,196.663 131.562,196.663Z" style="fill:rgb(11,101,157);fill-rule:nonzero;"/>
                <path d="M145.434,195.228L142.292,195.228C142.21,195.228 142.169,194.989 142.169,194.51L142.169,110.675L138.551,110.675C138.461,110.675 138.415,110.436 138.415,109.957L138.442,93.52C138.442,93.138 138.479,92.946 138.551,92.946L149.133,92.946C149.233,92.946 149.283,93.138 149.283,93.52L149.283,109.957C149.283,110.436 149.246,110.675 149.174,110.675L145.515,110.675L145.542,194.51C145.542,194.989 145.506,195.228 145.434,195.228Z" style="fill:rgb(11,101,157);fill-rule:nonzero;"/>
                <path d="M149.104,194.51L152.559,93.52C152.577,93.138 152.622,92.946 152.695,92.946L156.734,92.946C156.807,92.946 156.852,93.138 156.87,93.52L160.189,194.51C160.198,194.989 160.162,195.228 160.08,195.228L156.993,195.228C156.902,195.228 156.852,194.989 156.843,194.51L156.544,183.744L152.749,183.744L152.45,194.51C152.441,194.989 152.396,195.228 152.314,195.228L149.213,195.228C149.14,195.228 149.104,194.989 149.104,194.51ZM154.844,126.753L154.681,121.298L154.558,126.753L153.307,168.025L155.986,168.025L154.844,126.753Z" style="fill:rgb(11,101,157);fill-rule:nonzero;"/>
                <path d="M167.287,195.228L164.145,195.228C164.064,195.228 164.023,194.989 164.023,194.51L164.023,110.675L160.405,110.675C160.314,110.675 160.269,110.436 160.269,109.957L160.296,93.52C160.296,93.138 160.332,92.946 160.405,92.946L170.987,92.946C171.087,92.946 171.136,93.138 171.136,93.52L171.136,109.957C171.136,110.436 171.1,110.675 171.028,110.675L167.369,110.675L167.396,194.51C167.396,194.989 167.36,195.228 167.287,195.228Z" style="fill:rgb(11,101,157);fill-rule:nonzero;"/>
                <path d="M182.682,195.228L173.678,195.228C173.606,195.228 173.569,194.989 173.569,194.51L173.596,93.52C173.596,93.138 173.633,92.946 173.705,92.946L182.655,92.946C182.727,92.946 182.764,93.186 182.764,93.664L182.764,110.101C182.764,110.484 182.727,110.675 182.655,110.675L176.942,110.675L176.942,133.644L182.655,133.644C182.727,133.644 182.764,133.835 182.764,134.218L182.791,150.87C182.791,151.253 182.755,151.444 182.682,151.444L176.942,151.444L176.942,177.14L182.682,177.14C182.755,177.14 182.791,177.379 182.791,177.858L182.791,194.654C182.791,195.036 182.755,195.228 182.682,195.228Z" style="fill:rgb(11,101,157);fill-rule:nonzero;"/>
                <path d="M197.939,195.228L194.811,195.228C194.72,195.228 194.675,194.989 194.675,194.51L194.729,93.52C194.729,93.138 194.766,92.946 194.838,92.946L203.761,92.946C203.851,92.946 203.897,93.138 203.897,93.52L203.897,110.101C203.897,110.484 203.86,110.675 203.788,110.675L198.075,110.675L198.075,133.5L203.788,133.5C203.86,133.5 203.897,133.739 203.897,134.218L203.924,150.87C203.924,151.253 203.878,151.444 203.788,151.444L198.075,151.444L198.075,194.51C198.075,194.989 198.03,195.228 197.939,195.228Z" style="fill:rgb(11,101,157);fill-rule:nonzero;"/>
                <path d="M210.777,195.228L207.622,195.228C207.531,195.228 207.486,194.989 207.486,194.51L207.513,93.52C207.513,93.138 207.549,92.946 207.622,92.946L210.75,92.946C210.822,92.946 210.859,93.138 210.859,93.52L210.886,194.51C210.886,194.989 210.85,195.228 210.777,195.228Z" style="fill:rgb(11,101,157);fill-rule:nonzero;"/>
                <path d="M217.453,195.228L214.665,195.228C214.52,195.228 214.448,194.893 214.448,194.223L214.42,94.095C214.42,93.329 214.493,92.946 214.638,92.946L217.154,92.946L221.86,150.87L221.724,94.095C221.724,93.329 221.806,92.946 221.969,92.946L224.73,92.946C224.839,92.946 224.893,93.329 224.893,94.095L224.921,194.366C224.921,194.941 224.875,195.228 224.785,195.228L222.336,195.228L217.508,141.108L217.712,194.079C217.712,194.845 217.626,195.228 217.453,195.228Z" style="fill:rgb(11,101,157);fill-rule:nonzero;"/>
                <path d="M227.489,194.51L230.944,93.52C230.962,93.138 231.008,92.946 231.08,92.946L235.12,92.946C235.192,92.946 235.238,93.138 235.256,93.52L238.574,194.51C238.584,194.989 238.547,195.228 238.466,195.228L235.378,195.228C235.288,195.228 235.238,194.989 235.229,194.51L234.929,183.744L231.135,183.744L230.835,194.51C230.826,194.989 230.781,195.228 230.699,195.228L227.598,195.228C227.526,195.228 227.489,194.989 227.489,194.51ZM233.229,126.753L233.066,121.298L232.944,126.753L231.692,168.025L234.372,168.025L233.229,126.753Z" style="fill:rgb(11,101,157);fill-rule:nonzero;"/>
                <path d="M244.435,195.228L241.647,195.228C241.502,195.228 241.429,194.893 241.429,194.223L241.402,94.095C241.402,93.329 241.474,92.946 241.619,92.946L244.136,92.946L248.842,150.87L248.706,94.095C248.706,93.329 248.787,92.946 248.95,92.946L251.712,92.946C251.82,92.946 251.875,93.329 251.875,94.095L251.902,194.366C251.902,194.941 251.857,195.228 251.766,195.228L249.318,195.228L244.489,141.108L244.693,194.079C244.693,194.845 244.607,195.228 244.435,195.228Z" style="fill:rgb(11,101,157);fill-rule:nonzero;"/>
                <path d="M260.537,196.663C259.53,196.663 258.61,195.324 257.776,192.644C256.951,189.964 256.296,186.363 255.811,181.841C255.325,177.32 255.083,172.283 255.083,166.733L255.11,120.867C255.11,115.412 255.346,110.484 255.817,106.081C256.289,101.631 256.939,98.054 257.769,95.351C258.599,92.647 259.521,91.295 260.537,91.295C261.571,91.295 262.491,92.611 263.298,95.243C264.114,97.875 264.765,101.428 265.25,105.902C265.735,110.376 265.977,115.364 265.977,120.867L265.977,127.614C265.977,127.997 265.941,128.189 265.869,128.189L262.74,128.189C262.668,128.189 262.632,127.997 262.632,127.614L262.632,120.867C262.632,117.613 262.432,114.814 262.033,112.469C261.634,110.125 261.135,108.952 260.537,108.952C259.875,108.952 259.367,110.149 259.014,112.541C258.66,114.934 258.483,117.709 258.483,120.867L258.483,166.733C258.483,170.321 258.683,173.252 259.082,175.525C259.481,177.798 259.966,178.935 260.537,178.935C261.135,178.935 261.634,177.678 262.033,175.166C262.432,172.654 262.632,169.843 262.632,166.733L262.632,159.914C262.632,159.531 262.668,159.34 262.74,159.34L265.896,159.34C265.968,159.34 266.005,159.531 266.005,159.914L266.005,166.733C266.005,172.235 265.76,177.26 265.27,181.806C264.772,186.304 264.114,189.904 263.298,192.608C262.482,195.312 261.562,196.663 260.537,196.663Z" style="fill:rgb(11,101,157);fill-rule:nonzero;"/>
                <path d="M272.396,195.228L269.24,195.228C269.149,195.228 269.104,194.989 269.104,194.51L269.131,93.52C269.131,93.138 269.167,92.946 269.24,92.946L272.368,92.946C272.441,92.946 272.477,93.138 272.477,93.52L272.504,194.51C272.504,194.989 272.468,195.228 272.396,195.228Z" style="fill:rgb(11,101,157);fill-rule:nonzero;"/>
                <path d="M275.1,194.51L278.555,93.52C278.573,93.138 278.619,92.946 278.691,92.946L282.731,92.946C282.803,92.946 282.849,93.138 282.867,93.52L286.185,194.51C286.195,194.989 286.158,195.228 286.077,195.228L282.989,195.228C282.898,195.228 282.849,194.989 282.84,194.51L282.54,183.744L278.746,183.744L278.446,194.51C278.437,194.989 278.392,195.228 278.31,195.228L275.209,195.228C275.137,195.228 275.1,194.989 275.1,194.51ZM280.84,126.753L280.677,121.298L280.555,126.753L279.303,168.025L281.983,168.025L280.84,126.753Z" style="fill:rgb(11,101,157);fill-rule:nonzero;"/>
                <path d="M298.126,195.228L289.122,195.228C289.049,195.228 289.013,194.989 289.013,194.51L289.04,93.664C289.04,93.186 289.085,92.946 289.176,92.946L292.277,92.946C292.368,92.946 292.413,93.186 292.413,93.664L292.386,177.14L298.126,177.14C298.216,177.14 298.262,177.379 298.262,177.858L298.262,194.51C298.262,194.989 298.216,195.228 298.126,195.228Z" style="fill:rgb(11,101,157);fill-rule:nonzero;"/>
                <path d="M314.634,196.663C313.646,196.663 312.734,195.324 311.9,192.644C311.075,189.964 310.411,186.387 309.908,181.913C309.404,177.439 309.153,172.523 309.153,167.163L309.18,120.58C309.18,115.125 309.429,110.22 309.928,105.866C310.418,101.464 311.08,97.935 311.914,95.279C312.748,92.623 313.655,91.295 314.634,91.295C315.65,91.295 316.561,92.611 317.368,95.243C318.184,97.875 318.839,101.404 319.333,105.83C319.827,110.256 320.074,115.173 320.074,120.58L320.102,167.163C320.102,172.523 319.857,177.427 319.367,181.877C318.869,186.375 318.207,189.964 317.381,192.644C316.556,195.324 315.64,196.663 314.634,196.663ZM314.634,178.935C315.196,178.935 315.686,177.726 316.103,175.31C316.52,172.893 316.729,170.178 316.729,167.163L316.701,120.58C316.701,117.326 316.506,114.575 316.117,112.326C315.727,110.077 315.232,108.952 314.634,108.952C314.063,108.952 313.573,110.053 313.165,112.254C312.757,114.455 312.553,117.231 312.553,120.58L312.553,167.163C312.553,170.369 312.757,173.133 313.165,175.453C313.573,177.774 314.063,178.935 314.634,178.935Z" style="fill:rgb(11,101,157);fill-rule:nonzero;"/>
                <path d="M326.547,195.228L323.419,195.228C323.328,195.228 323.283,194.989 323.283,194.51L323.337,93.52C323.337,93.138 323.373,92.946 323.446,92.946L332.368,92.946C332.459,92.946 332.504,93.138 332.504,93.52L332.504,110.101C332.504,110.484 332.468,110.675 332.395,110.675L326.683,110.675L326.683,133.5L332.395,133.5C332.468,133.5 332.504,133.739 332.504,134.218L332.531,150.87C332.531,151.253 332.486,151.444 332.395,151.444L326.683,151.444L326.683,194.51C326.683,194.989 326.638,195.228 326.547,195.228Z" style="fill:rgb(11,101,157);fill-rule:nonzero;"/>
                <path d="M339.358,195.228L336.229,195.228C336.139,195.228 336.093,194.989 336.093,194.51L336.148,93.52C336.148,93.138 336.184,92.946 336.256,92.946L345.179,92.946C345.27,92.946 345.315,93.138 345.315,93.52L345.315,110.101C345.315,110.484 345.279,110.675 345.206,110.675L339.494,110.675L339.494,133.5L345.206,133.5C345.279,133.5 345.315,133.739 345.315,134.218L345.342,150.87C345.342,151.253 345.297,151.444 345.206,151.444L339.494,151.444L339.494,194.51C339.494,194.989 339.448,195.228 339.358,195.228Z" style="fill:rgb(11,101,157);fill-rule:nonzero;"/>
                <path d="M352.195,195.228L349.04,195.228C348.949,195.228 348.904,194.989 348.904,194.51L348.931,93.52C348.931,93.138 348.967,92.946 349.04,92.946L352.168,92.946C352.241,92.946 352.277,93.138 352.277,93.52L352.304,194.51C352.304,194.989 352.268,195.228 352.195,195.228Z" style="fill:rgb(11,101,157);fill-rule:nonzero;"/>
                <path d="M360.966,196.663C359.96,196.663 359.04,195.324 358.205,192.644C357.38,189.964 356.725,186.363 356.24,181.841C355.755,177.32 355.512,172.283 355.512,166.733L355.54,120.867C355.54,115.412 355.775,110.484 356.247,106.081C356.718,101.631 357.369,98.054 358.199,95.351C359.028,92.647 359.951,91.295 360.966,91.295C362,91.295 362.92,92.611 363.728,95.243C364.544,97.875 365.194,101.428 365.679,105.902C366.164,110.376 366.407,115.364 366.407,120.867L366.407,127.614C366.407,127.997 366.371,128.189 366.298,128.189L363.17,128.189C363.097,128.189 363.061,127.997 363.061,127.614L363.061,120.867C363.061,117.613 362.862,114.814 362.463,112.469C362.064,110.125 361.565,108.952 360.966,108.952C360.305,108.952 359.797,110.149 359.443,112.541C359.089,114.934 358.913,117.709 358.913,120.867L358.913,166.733C358.913,170.321 359.112,173.252 359.511,175.525C359.91,177.798 360.395,178.935 360.966,178.935C361.565,178.935 362.064,177.678 362.463,175.166C362.862,172.654 363.061,169.843 363.061,166.733L363.061,159.914C363.061,159.531 363.097,159.34 363.17,159.34L366.325,159.34C366.398,159.34 366.434,159.531 366.434,159.914L366.434,166.733C366.434,172.235 366.189,177.26 365.7,181.806C365.201,186.304 364.544,189.904 363.728,192.608C362.911,195.312 361.991,196.663 360.966,196.663Z" style="fill:rgb(11,101,157);fill-rule:nonzero;"/>
                <path d="M378.646,195.228L369.642,195.228C369.57,195.228 369.533,194.989 369.533,194.51L369.561,93.52C369.561,93.138 369.597,92.946 369.67,92.946L378.619,92.946C378.692,92.946 378.728,93.186 378.728,93.664L378.728,110.101C378.728,110.484 378.692,110.675 378.619,110.675L372.907,110.675L372.907,133.644L378.619,133.644C378.692,133.644 378.728,133.835 378.728,134.218L378.755,150.87C378.755,151.253 378.719,151.444 378.646,151.444L372.907,151.444L372.907,177.14L378.646,177.14C378.719,177.14 378.755,177.379 378.755,177.858L378.755,194.654C378.755,195.036 378.719,195.228 378.646,195.228Z" style="fill:rgb(11,101,157);fill-rule:nonzero;"/>
                <path d="M385.581,195.228L382.426,195.228C382.353,195.228 382.317,194.989 382.317,194.51L382.371,93.52C382.371,93.138 382.408,92.946 382.48,92.946L388.111,92.946C389.118,92.946 390.042,94.238 390.886,96.822C391.729,99.406 392.402,102.875 392.905,107.23C393.409,111.584 393.66,116.513 393.66,122.016C393.66,125.605 393.556,128.858 393.348,131.777C393.139,134.696 392.896,137.161 392.62,139.17C392.343,141.18 392.092,142.663 391.865,143.62C392.871,149.506 393.375,156.421 393.375,164.364L393.402,194.51C393.402,194.989 393.357,195.228 393.266,195.228L390.11,195.228C390.038,195.228 390.002,195.084 390.002,194.797L390.002,164.364C390.002,160.823 389.766,157.76 389.294,155.177C388.823,152.593 388.243,151.301 387.553,151.301L385.717,151.301L385.69,194.51C385.69,194.989 385.654,195.228 385.581,195.228ZM388.111,110.532L385.717,110.532L385.717,133.644L388.111,133.644C388.682,133.644 389.192,132.519 389.641,130.27C390.09,128.021 390.314,125.27 390.314,122.016C390.314,118.905 390.097,116.214 389.662,113.941C389.226,111.668 388.709,110.532 388.111,110.532Z" style="fill:rgb(11,101,157);fill-rule:nonzero;"/>
                <path d="M401.561,196.663C400.573,196.663 399.661,195.324 398.827,192.644C398.002,189.964 397.342,186.387 396.848,181.913C396.354,177.439 396.107,172.523 396.107,167.163L396.107,160.416C396.107,159.89 396.152,159.627 396.243,159.627L399.371,159.627C399.444,159.627 399.48,159.89 399.48,160.416L399.48,167.163C399.48,170.369 399.684,173.133 400.092,175.453C400.5,177.774 400.99,178.935 401.561,178.935C402.141,178.935 402.635,177.75 403.043,175.382C403.451,173.013 403.656,170.274 403.656,167.163C403.656,163.574 403.211,160.44 402.323,157.76C402.178,157.282 401.989,156.696 401.758,156.002C401.527,155.308 401.253,154.507 400.935,153.597C400.618,152.688 400.31,151.791 400.01,150.906C399.711,150.021 399.421,149.171 399.14,148.358C398.124,145.2 397.369,141.24 396.875,136.479C396.381,131.718 396.134,126.37 396.134,120.437C396.134,114.982 396.388,110.053 396.896,105.651C397.403,101.296 398.068,97.839 398.888,95.279C399.709,92.719 400.6,91.439 401.561,91.439C402.549,91.439 403.456,92.731 404.281,95.315C405.106,97.947 405.766,101.44 406.26,105.794C406.754,110.149 407.001,115.03 407.001,120.437L407.001,132.495C407.001,132.878 406.965,133.069 406.893,133.069L403.764,133.069C403.692,133.069 403.656,132.878 403.656,132.495L403.628,120.437C403.628,116.991 403.424,114.192 403.016,112.039C402.608,109.886 402.123,108.809 401.561,108.809C400.99,108.809 400.5,109.957 400.092,112.254C399.684,114.551 399.48,117.279 399.48,120.437C399.48,123.643 399.609,126.322 399.868,128.476C400.126,130.629 400.6,132.687 401.289,134.648C401.361,134.84 401.529,135.318 401.792,136.084C402.055,136.85 402.348,137.699 402.669,138.632C402.991,139.565 403.284,140.403 403.547,141.144C403.81,141.886 403.968,142.329 404.023,142.472C404.948,145.2 405.68,148.549 406.219,152.521C406.759,156.492 407.029,161.373 407.029,167.163C407.029,172.762 406.784,177.786 406.294,182.236C405.795,186.686 405.134,190.203 404.308,192.787C403.483,195.371 402.567,196.663 401.561,196.663Z" style="fill:rgb(11,101,157);fill-rule:nonzero;"/>
                <path d="M421.633,195.228L418.505,195.228C418.414,195.228 418.369,194.989 418.369,194.51L418.423,93.52C418.423,93.138 418.459,92.946 418.532,92.946L427.454,92.946C427.545,92.946 427.59,93.138 427.59,93.52L427.59,110.101C427.59,110.484 427.554,110.675 427.481,110.675L421.769,110.675L421.769,133.5L427.481,133.5C427.554,133.5 427.59,133.739 427.59,134.218L427.617,150.87C427.617,151.253 427.572,151.444 427.481,151.444L421.769,151.444L421.769,194.51C421.769,194.989 421.724,195.228 421.633,195.228Z" style="fill:rgb(11,101,157);fill-rule:nonzero;"/>
                <path d="M436.334,196.663C435.346,196.663 434.434,195.324 433.6,192.644C432.775,189.964 432.111,186.387 431.608,181.913C431.104,177.439 430.853,172.523 430.853,167.163L430.88,120.58C430.88,115.125 431.129,110.22 431.628,105.866C432.118,101.464 432.78,97.935 433.614,95.279C434.448,92.623 435.355,91.295 436.334,91.295C437.35,91.295 438.261,92.611 439.068,95.243C439.884,97.875 440.539,101.404 441.033,105.83C441.527,110.256 441.775,115.173 441.775,120.58L441.802,167.163C441.802,172.523 441.557,177.427 441.067,181.877C440.569,186.375 439.907,189.964 439.082,192.644C438.256,195.324 437.341,196.663 436.334,196.663ZM436.334,178.935C436.896,178.935 437.386,177.726 437.803,175.31C438.22,172.893 438.429,170.178 438.429,167.163L438.401,120.58C438.401,117.326 438.206,114.575 437.817,112.326C437.427,110.077 436.933,108.952 436.334,108.952C435.763,108.952 435.273,110.053 434.865,112.254C434.457,114.455 434.253,117.231 434.253,120.58L434.253,167.163C434.253,170.369 434.457,173.133 434.865,175.453C435.273,177.774 435.763,178.935 436.334,178.935Z" style="fill:rgb(11,101,157);fill-rule:nonzero;"/>
                <path d="M450.11,196.663C449.131,196.663 448.224,195.324 447.39,192.644C446.556,189.964 445.892,186.363 445.398,181.841C444.903,177.32 444.656,172.379 444.656,167.02L444.711,93.52C444.711,93.138 444.747,92.946 444.819,92.946L447.948,92.946C448.02,92.946 448.057,93.138 448.057,93.52L448.057,167.02C448.057,170.321 448.256,173.133 448.655,175.453C449.054,177.774 449.539,178.935 450.11,178.935C450.709,178.935 451.208,177.774 451.607,175.453C452.005,173.133 452.205,170.321 452.205,167.02L452.205,93.52C452.205,93.138 452.241,92.946 452.314,92.946L455.442,92.946C455.515,92.946 455.551,93.138 455.551,93.52L455.605,167.02C455.605,172.427 455.36,177.403 454.871,181.949C454.372,186.447 453.71,190.024 452.885,192.68C452.06,195.335 451.135,196.663 450.11,196.663Z" style="fill:rgb(11,101,157);fill-rule:nonzero;"/>
                <path d="M461.915,195.228L459.126,195.228C458.981,195.228 458.909,194.893 458.909,194.223L458.881,94.095C458.881,93.329 458.954,92.946 459.099,92.946L461.615,92.946L466.321,150.87L466.185,94.095C466.185,93.329 466.267,92.946 466.43,92.946L469.191,92.946C469.3,92.946 469.354,93.329 469.354,94.095L469.382,194.366C469.382,194.941 469.336,195.228 469.246,195.228L466.797,195.228L461.969,141.108L462.173,194.079C462.173,194.845 462.087,195.228 461.915,195.228Z" style="fill:rgb(11,101,157);fill-rule:nonzero;"/>
                <path d="M478.017,195.084L473.025,195.228C472.934,195.228 472.889,194.989 472.889,194.51L472.943,93.52C472.943,93.138 472.98,92.946 473.052,92.946L478.261,92.803C479.295,92.659 480.229,93.903 481.063,96.535C481.907,99.167 482.58,102.72 483.083,107.194C483.586,111.668 483.838,116.609 483.838,122.016L483.838,164.22C483.838,169.867 483.58,175.035 483.063,179.724C482.537,184.366 481.839,188.062 480.968,190.814C480.098,193.565 479.114,194.989 478.017,195.084ZM478.261,110.388L476.316,110.532L476.289,177.14L478.017,177.14C478.706,177.14 479.286,175.872 479.758,173.336C480.229,170.8 480.465,167.761 480.465,164.22L480.465,121.872C480.465,118.762 480.247,116.046 479.812,113.726C479.377,111.405 478.86,110.292 478.261,110.388Z" style="fill:rgb(11,101,157);fill-rule:nonzero;"/>
                <path d="M485.618,194.51L489.073,93.52C489.091,93.138 489.136,92.946 489.209,92.946L493.248,92.946C493.321,92.946 493.366,93.138 493.384,93.52L496.703,194.51C496.712,194.989 496.676,195.228 496.594,195.228L493.507,195.228C493.416,195.228 493.366,194.989 493.357,194.51L493.058,183.744L489.263,183.744L488.964,194.51C488.955,194.989 488.909,195.228 488.828,195.228L485.727,195.228C485.654,195.228 485.618,194.989 485.618,194.51ZM491.358,126.753L491.194,121.298L491.072,126.753L489.821,168.025L492.5,168.025L491.358,126.753Z" style="fill:rgb(11,101,157);fill-rule:nonzero;"/>
                <path d="M503.801,195.228L500.659,195.228C500.578,195.228 500.537,194.989 500.537,194.51L500.537,110.675L496.919,110.675C496.828,110.675 496.783,110.436 496.783,109.957L496.81,93.52C496.81,93.138 496.846,92.946 496.919,92.946L507.501,92.946C507.6,92.946 507.65,93.138 507.65,93.52L507.65,109.957C507.65,110.436 507.614,110.675 507.541,110.675L503.883,110.675L503.91,194.51C503.91,194.989 503.874,195.228 503.801,195.228Z" style="fill:rgb(11,101,157);fill-rule:nonzero;"/>
                <path d="M513.375,195.228L510.219,195.228C510.128,195.228 510.083,194.989 510.083,194.51L510.11,93.52C510.11,93.138 510.147,92.946 510.219,92.946L513.347,92.946C513.42,92.946 513.456,93.138 513.456,93.52L513.483,194.51C513.483,194.989 513.447,195.228 513.375,195.228Z" style="fill:rgb(11,101,157);fill-rule:nonzero;"/>
                <path d="M522.173,196.663C521.185,196.663 520.273,195.324 519.439,192.644C518.614,189.964 517.95,186.387 517.446,181.913C516.943,177.439 516.692,172.523 516.692,167.163L516.719,120.58C516.719,115.125 516.968,110.22 517.467,105.866C517.956,101.464 518.618,97.935 519.453,95.279C520.287,92.623 521.194,91.295 522.173,91.295C523.188,91.295 524.1,92.611 524.907,95.243C525.723,97.875 526.378,101.404 526.872,105.83C527.366,110.256 527.613,115.173 527.613,120.58L527.641,167.163C527.641,172.523 527.396,177.427 526.906,181.877C526.407,186.375 525.745,189.964 524.92,192.644C524.095,195.324 523.179,196.663 522.173,196.663ZM522.173,178.935C522.735,178.935 523.225,177.726 523.642,175.31C524.059,172.893 524.267,170.178 524.267,167.163L524.24,120.58C524.24,117.326 524.045,114.575 523.655,112.326C523.266,110.077 522.771,108.952 522.173,108.952C521.602,108.952 521.112,110.053 520.704,112.254C520.296,114.455 520.092,117.231 520.092,120.58L520.092,167.163C520.092,170.369 520.296,173.133 520.704,175.453C521.112,177.774 521.602,178.935 522.173,178.935Z" style="fill:rgb(11,101,157);fill-rule:nonzero;"/>
                <path d="M533.855,195.228L531.066,195.228C530.921,195.228 530.849,194.893 530.849,194.223L530.822,94.095C530.822,93.329 530.894,92.946 531.039,92.946L533.555,92.946L538.261,150.87L538.125,94.095C538.125,93.329 538.207,92.946 538.37,92.946L541.131,92.946C541.24,92.946 541.294,93.329 541.294,94.095L541.322,194.366C541.322,194.941 541.276,195.228 541.186,195.228L538.737,195.228L533.909,141.108L534.113,194.079C534.113,194.845 534.027,195.228 533.855,195.228Z" style="fill:rgb(11,101,157);fill-rule:nonzero;"/>
            </g>
            <g transform="matrix(1.1253,0,0,0.523526,-460.593,73.1535)">
                <path d="M142.108,211.927C139.333,211.927 136.775,210.395 134.433,207.331C132.117,204.266 130.265,200.176 128.877,195.06C127.49,189.944 126.796,184.322 126.796,178.194L126.796,170.479C126.796,169.877 126.924,169.576 127.178,169.576L135.96,169.576C136.164,169.576 136.266,169.877 136.266,170.479L136.266,178.194C136.266,181.86 136.839,185.02 137.984,187.673C139.13,190.327 140.504,191.654 142.108,191.654C143.737,191.654 145.125,190.3 146.27,187.591C147.416,184.883 147.988,181.75 147.988,178.194C147.988,174.09 146.741,170.506 144.246,167.442C143.839,166.895 143.311,166.224 142.662,165.431C142.013,164.637 141.243,163.721 140.352,162.681C139.461,161.642 138.595,160.616 137.755,159.603C136.915,158.591 136.1,157.62 135.311,156.69C132.46,153.078 130.341,148.551 128.954,143.106C127.566,137.662 126.873,131.547 126.873,124.762C126.873,118.525 127.585,112.889 129.011,107.855C130.436,102.875 132.301,98.922 134.605,95.995C136.909,93.067 139.41,91.604 142.108,91.604C144.883,91.604 147.428,93.081 149.745,96.036C152.061,99.045 153.913,103.04 155.301,108.019C156.688,112.998 157.382,118.579 157.382,124.762L157.382,138.551C157.382,138.989 157.28,139.208 157.076,139.208L148.294,139.208C148.09,139.208 147.988,138.989 147.988,138.551L147.912,124.762C147.912,120.823 147.339,117.622 146.194,115.159C145.048,112.697 143.686,111.466 142.108,111.466C140.504,111.466 139.13,112.779 137.984,115.406C136.839,118.032 136.266,121.151 136.266,124.762C136.266,128.428 136.629,131.493 137.354,133.955C138.08,136.417 139.41,138.77 141.344,141.013C141.548,141.232 142.019,141.779 142.757,142.655C143.495,143.53 144.316,144.502 145.22,145.569C146.124,146.636 146.945,147.593 147.683,148.441C148.421,149.289 148.867,149.795 149.019,149.96C151.616,153.078 153.672,156.909 155.186,161.45C156.701,165.992 157.458,171.573 157.458,178.194C157.458,184.596 156.771,190.341 155.396,195.43C153.996,200.518 152.138,204.54 149.821,207.495C147.505,210.449 144.934,211.927 142.108,211.927Z" style="fill:rgb(11,101,157);fill-rule:nonzero;"/>
                <path d="M172.436,210.285L163.653,210.285C163.399,210.285 163.271,210.012 163.271,209.465L163.424,93.984C163.424,93.546 163.526,93.327 163.73,93.327L188.778,93.327C189.033,93.327 189.16,93.546 189.16,93.984L189.16,112.943C189.16,113.381 189.058,113.6 188.855,113.6L172.817,113.6L172.817,139.7L188.855,139.7C189.058,139.7 189.16,139.974 189.16,140.521L189.237,159.562C189.237,160 189.109,160.219 188.855,160.219L172.817,160.219L172.817,209.465C172.817,210.012 172.69,210.285 172.436,210.285Z" style="fill:rgb(11,101,157);fill-rule:nonzero;"/>
                <path d="M211.049,211.927C208.274,211.927 205.716,210.395 203.374,207.331C201.057,204.266 199.193,200.176 197.78,195.06C196.367,189.944 195.661,184.322 195.661,178.194L195.737,124.926C195.737,118.689 196.437,113.08 197.837,108.101C199.212,103.067 201.07,99.032 203.412,95.995C205.754,92.958 208.3,91.44 211.049,91.44C213.9,91.44 216.458,92.944 218.724,95.954C221.015,98.963 222.854,102.999 224.242,108.06C225.629,113.121 226.323,118.743 226.323,124.926L226.399,178.194C226.399,184.322 225.712,189.93 224.337,195.019C222.937,200.163 221.079,204.266 218.762,207.331C216.446,210.395 213.875,211.927 211.049,211.927ZM211.049,191.654C212.627,191.654 214.002,190.272 215.173,187.509C216.344,184.746 216.929,181.641 216.929,178.194L216.853,124.926C216.853,121.206 216.306,118.059 215.211,115.488C214.116,112.916 212.729,111.63 211.049,111.63C209.445,111.63 208.071,112.889 206.925,115.406C205.78,117.923 205.207,121.096 205.207,124.926L205.207,178.194C205.207,181.86 205.78,185.02 206.925,187.673C208.071,190.327 209.445,191.654 211.049,191.654Z" style="fill:rgb(11,101,157);fill-rule:nonzero;"/>
                <path d="M241.835,210.285L233.052,210.285C232.798,210.285 232.67,210.012 232.67,209.465L232.823,93.984C232.823,93.546 232.925,93.327 233.129,93.327L258.178,93.327C258.432,93.327 258.559,93.546 258.559,93.984L258.559,112.943C258.559,113.381 258.458,113.6 258.254,113.6L242.217,113.6L242.217,139.7L258.254,139.7C258.458,139.7 258.559,139.974 258.559,140.521L258.636,159.562C258.636,160 258.508,160.219 258.254,160.219L242.217,160.219L242.217,209.465C242.217,210.012 242.089,210.285 241.835,210.285Z" style="fill:rgb(11,101,157);fill-rule:nonzero;"/>
                <g transform="matrix(1,0,0,1,-22.2142,0)">
                    <path d="M315.32,210.285L290.042,210.285C289.838,210.285 289.736,210.012 289.736,209.465L289.812,93.984C289.812,93.546 289.914,93.327 290.118,93.327L315.243,93.327C315.447,93.327 315.549,93.601 315.549,94.148L315.549,112.943C315.549,113.381 315.447,113.6 315.243,113.6L299.206,113.6L299.206,139.864L315.243,139.864C315.447,139.864 315.549,140.083 315.549,140.521L315.625,159.562C315.625,160 315.523,160.219 315.32,160.219L299.206,160.219L299.206,189.602L315.32,189.602C315.523,189.602 315.625,189.876 315.625,190.423L315.625,209.629C315.625,210.066 315.523,210.285 315.32,210.285Z" style="fill:rgb(175,37,37);fill-rule:nonzero;"/>
                </g>
                <g transform="matrix(1,0,0,1,-22.2142,0)">
                    <path d="M329.342,210.285L320.56,210.285C320.382,210.285 320.305,210.012 320.331,209.465L329.266,149.467L320.484,93.984C320.433,93.546 320.509,93.327 320.713,93.327L329.495,93.327C329.75,93.327 329.902,93.546 329.953,93.984L335.184,133.955L340.492,93.984C340.543,93.546 340.708,93.327 340.989,93.327L349.656,93.327C349.86,93.327 349.936,93.546 349.885,93.984L341.141,149.303L349.962,209.465C350.064,210.012 349.987,210.285 349.733,210.285L340.989,210.285C340.759,210.285 340.594,210.012 340.492,209.465L335.184,166.046L329.801,209.465C329.775,210.012 329.622,210.285 329.342,210.285Z" style="fill:rgb(175,37,37);fill-rule:nonzero;"/>
                </g>
                <g transform="matrix(1,0,0,1,-22.2142,0)">
                    <path d="M364.099,210.285L355.317,210.285C355.062,210.285 354.935,210.012 354.935,209.465L355.088,93.984C355.088,93.546 355.189,93.327 355.393,93.327L370.438,93.327C375.223,93.327 379.01,96.46 381.798,102.725C384.585,108.99 385.979,117.512 385.979,128.292C385.979,136.171 385.253,143.038 383.802,148.893C382.326,154.693 380.417,159.179 378.075,162.353C375.733,165.527 373.187,167.113 370.438,167.113L364.481,167.113L364.481,209.465C364.481,210.012 364.354,210.285 364.099,210.285ZM370.438,113.272L364.481,113.436L364.481,146.759L370.438,146.759C372.092,146.759 373.531,145.049 374.753,141.629C375.974,138.209 376.585,133.763 376.585,128.292C376.585,123.914 376.038,120.317 374.943,117.499C373.849,114.681 372.347,113.272 370.438,113.272Z" style="fill:rgb(175,37,37);fill-rule:nonzero;"/>
                </g>
                <g transform="matrix(1,0,0,1,-22.2142,0)">
                    <path d="M406.149,211.927C403.374,211.927 400.816,210.395 398.474,207.331C396.158,204.266 394.293,200.176 392.88,195.06C391.467,189.944 390.761,184.322 390.761,178.194L390.837,124.926C390.837,118.689 391.537,113.08 392.937,108.101C394.312,103.067 396.17,99.032 398.512,95.995C400.854,92.958 403.4,91.44 406.149,91.44C409,91.44 411.559,92.944 413.824,95.954C416.115,98.963 417.954,102.999 419.342,108.06C420.729,113.121 421.423,118.743 421.423,124.926L421.499,178.194C421.499,184.322 420.812,189.93 419.437,195.019C418.037,200.163 416.179,204.266 413.862,207.331C411.546,210.395 408.975,211.927 406.149,211.927ZM406.149,191.654C407.727,191.654 409.102,190.272 410.273,187.509C411.444,184.746 412.03,181.641 412.03,178.194L411.953,124.926C411.953,121.206 411.406,118.059 410.311,115.488C409.217,112.916 407.829,111.63 406.149,111.63C404.545,111.63 403.171,112.889 402.025,115.406C400.88,117.923 400.307,121.096 400.307,124.926L400.307,178.194C400.307,181.86 400.88,185.02 402.025,187.673C403.171,190.327 404.545,191.654 406.149,191.654Z" style="fill:rgb(175,37,37);fill-rule:nonzero;"/>
                </g>
                <g transform="matrix(1,0,0,1,-22.2142,0)">
                    <path d="M441.059,211.927C438.284,211.927 435.726,210.395 433.384,207.331C431.067,204.266 429.215,200.176 427.828,195.06C426.441,189.944 425.747,184.322 425.747,178.194L425.747,170.479C425.747,169.877 425.874,169.576 426.129,169.576L434.911,169.576C435.115,169.576 435.217,169.877 435.217,170.479L435.217,178.194C435.217,181.86 435.789,185.02 436.935,187.673C438.08,190.327 439.455,191.654 441.059,191.654C442.688,191.654 444.075,190.3 445.221,187.591C446.366,184.883 446.939,181.75 446.939,178.194C446.939,174.09 445.692,170.506 443.197,167.442C442.79,166.895 442.262,166.224 441.612,165.431C440.963,164.637 440.193,163.721 439.302,162.681C438.411,161.642 437.546,160.616 436.706,159.603C435.866,158.591 435.051,157.62 434.262,156.69C431.411,153.078 429.292,148.551 427.904,143.106C426.517,137.662 425.823,131.547 425.823,124.762C425.823,118.525 426.536,112.889 427.962,107.855C429.387,102.875 431.252,98.922 433.556,95.995C435.859,93.067 438.36,91.604 441.059,91.604C443.833,91.604 446.379,93.081 448.696,96.036C451.012,99.045 452.864,103.04 454.251,108.019C455.639,112.998 456.332,118.579 456.332,124.762L456.332,138.551C456.332,138.989 456.231,139.208 456.027,139.208L447.245,139.208C447.041,139.208 446.939,138.989 446.939,138.551L446.863,124.762C446.863,120.823 446.29,117.622 445.144,115.159C443.999,112.697 442.637,111.466 441.059,111.466C439.455,111.466 438.08,112.779 436.935,115.406C435.789,118.032 435.217,121.151 435.217,124.762C435.217,128.428 435.579,131.493 436.305,133.955C437.03,136.417 438.36,138.77 440.295,141.013C440.499,141.232 440.97,141.779 441.708,142.655C442.446,143.53 443.267,144.502 444.171,145.569C445.074,146.636 445.895,147.593 446.634,148.441C447.372,149.289 447.817,149.795 447.97,149.96C450.567,153.078 452.622,156.909 454.137,161.45C455.651,165.992 456.409,171.573 456.409,178.194C456.409,184.596 455.721,190.341 454.347,195.43C452.947,200.518 451.088,204.54 448.772,207.495C446.455,210.449 443.884,211.927 441.059,211.927Z" style="fill:rgb(175,37,37);fill-rule:nonzero;"/>
                </g>
                <g transform="matrix(1,0,0,1,-22.2142,0)">
                    <path d="M487.805,210.285L462.527,210.285C462.324,210.285 462.222,210.012 462.222,209.465L462.298,93.984C462.298,93.546 462.4,93.327 462.604,93.327L487.729,93.327C487.933,93.327 488.035,93.601 488.035,94.148L488.035,112.943C488.035,113.381 487.933,113.6 487.729,113.6L471.692,113.6L471.692,139.864L487.729,139.864C487.933,139.864 488.035,140.083 488.035,140.521L488.111,159.562C488.111,160 488.009,160.219 487.805,160.219L471.692,160.219L471.692,189.602L487.805,189.602C488.009,189.602 488.111,189.876 488.111,190.423L488.111,209.629C488.111,210.066 488.009,210.285 487.805,210.285Z" style="fill:rgb(175,37,37);fill-rule:nonzero;"/>
                </g>
                <g transform="matrix(1,0,0,1,-22.2142,0)">
                    <path d="M509.847,210.121L495.833,210.285C495.579,210.285 495.451,210.012 495.451,209.465L495.604,93.984C495.604,93.546 495.706,93.327 495.91,93.327L510.534,93.163C513.436,92.999 516.058,94.422 518.4,97.431C520.768,100.441 522.658,104.503 524.071,109.619C525.483,114.735 526.19,120.385 526.19,126.568L526.19,174.829C526.19,181.285 525.464,187.195 524.013,192.557C522.537,197.864 520.577,202.091 518.133,205.238C515.689,208.384 512.927,210.012 509.847,210.121ZM510.534,113.272L505.074,113.436L504.997,189.602L509.847,189.602C511.782,189.602 513.411,188.152 514.734,185.252C516.058,182.352 516.72,178.878 516.72,174.829L516.72,126.404C516.72,122.847 516.109,119.742 514.887,117.088C513.665,114.434 512.214,113.162 510.534,113.272Z" style="fill:rgb(175,37,37);fill-rule:nonzero;"/>
                </g>
            </g>
        </g>
        <g id="Logo" transform="matrix(0.186435,0,0,0.186435,-370.861,69.1836)">
            <g transform="matrix(4.29002,0,0,4.61684,-613.815,-140.461)">
                <ellipse cx="124.401" cy="181.279" rx="34.454" ry="35.123" style="fill:white;"/>
            </g>
            <g transform="matrix(4.16667,0,0,4.16667,64.8542,604.603)">
                <path d="M0,-9.242L-6.718,-9.242C-4.11,-6.511 -1.847,-3.403 0.001,0L0,-9.242Z" style="fill:white;fill-rule:nonzero;"/>
            </g>
            <g transform="matrix(4.16667,0,0,4.16667,-257.448,566.105)">
                <path d="M0,8.727C1.91,5.504 4.206,2.568 6.828,0L0,0.001L0,8.727Z" style="fill:white;fill-rule:nonzero;"/>
            </g>
            <g transform="matrix(4.16667,0,0,4.16667,-95.4687,406.785)">
                <path d="M0,-15.053C-0.939,-15.051 -1.699,-14.287 -1.697,-13.347L-1.669,0C-1.185,-0.01 -0.702,-0.021 -0.216,-0.021C-0.146,-0.021 -0.079,-0.019 -0.01,-0.018C0.004,-0.018 0.019,-0.019 0.032,-0.019C0.603,-0.02 1.168,-0.007 1.734,0.002L1.705,-13.355C1.703,-14.295 0.939,-15.055 0,-15.053" style="fill:rgb(15,102,159);fill-rule:nonzero;"/>
            </g>
            <g transform="matrix(4.16667,0,0,4.16667,-136.163,409.487)">
                <path d="M0,-14.713C-0.939,-14.711 -1.7,-13.948 -1.698,-13.008L-1.67,-0.093C-1.67,-0.061 -1.664,-0.029 -1.66,0.002C-1.648,0 -1.637,-0.002 -1.624,-0.003C-0.517,-0.137 0.604,-0.247 1.732,-0.341L1.705,-13.015C1.703,-13.955 0.939,-14.715 0,-14.713" style="fill:rgb(15,102,159);fill-rule:nonzero;"/>
            </g>
            <g transform="matrix(4.16667,0,0,4.16667,-172.125,415.499)">
                <path d="M0,-13.368C-0.783,-13.366 -1.417,-12.73 -1.415,-11.947L-1.39,0.001C-1.379,-0.002 -1.369,-0.004 -1.358,-0.007C-0.436,-0.215 0.498,-0.409 1.445,-0.587L1.421,-11.953C1.419,-12.736 0.783,-13.369 0,-13.368" style="fill:rgb(15,102,159);fill-rule:nonzero;"/>
            </g>
            <g transform="matrix(4.16667,0,0,4.16667,-205.475,424.638)">
                <path d="M0,-10.718C-0.626,-10.717 -1.133,-10.207 -1.132,-9.581L-1.111,-0.003C-1.111,-0.002 -1.11,-0.001 -1.11,0.001C-1.099,-0.004 -1.086,-0.008 -1.074,-0.011C-0.343,-0.266 0.401,-0.509 1.156,-0.741L1.137,-9.586C1.136,-10.213 0.627,-10.719 0,-10.718" style="fill:rgb(15,102,159);fill-rule:nonzero;"/>
            </g>
            <g transform="matrix(4.16667,0,0,4.16667,-235.821,394.68)">
                <path d="M0,9.733C0.55,9.467 1.109,9.208 1.68,8.956L1.662,0.84C1.661,0.37 1.279,-0.01 0.81,-0.009C0.339,-0.008 -0.041,0.374 -0.04,0.843L-0.021,9.743L0,9.733Z" style="fill:rgb(15,102,159);fill-rule:nonzero;"/>
            </g>
            <g transform="matrix(4.16667,0,0,4.16667,-55.0229,409.728)">
                <path d="M0,-14.813C-0.94,-14.811 -1.7,-14.04 -1.698,-13.09L-1.671,-0.369C-1.659,-0.368 -1.647,-0.367 -1.636,-0.366C-0.503,-0.266 0.616,-0.139 1.728,0.002C1.729,-0.016 1.732,-0.033 1.732,-0.051L1.705,-13.098C1.703,-14.047 0.939,-14.815 0,-14.813" style="fill:rgb(15,102,159);fill-rule:nonzero;"/>
            </g>
            <g transform="matrix(4.16667,0,0,4.16667,-18.3449,416.068)">
                <path d="M0,-13.584C-0.783,-13.583 -1.416,-12.938 -1.414,-12.144L-1.39,-0.607L-1.357,-0.601C-0.41,-0.415 0.524,-0.214 1.447,0.001L1.422,-12.15C1.42,-12.944 0.783,-13.585 0,-13.584" style="fill:rgb(15,102,159);fill-rule:nonzero;"/>
            </g>
            <g transform="matrix(4.16667,0,0,4.16667,14.2642,425.208)">
                <path d="M0,-10.904C-0.627,-10.903 -1.134,-10.387 -1.132,-9.753L-1.113,-0.751C-0.441,-0.539 0.225,-0.321 0.878,-0.093C0.968,-0.062 1.057,-0.03 1.146,0.001C1.151,-0.017 1.157,-0.034 1.157,-0.053L1.137,-9.758C1.135,-10.392 0.626,-10.905 0,-10.904" style="fill:rgb(15,102,159);fill-rule:nonzero;"/>
            </g>
            <g transform="matrix(4.16667,0,0,4.16667,44.0655,395.301)">
                <path d="M0,9.695L-0.019,0.85C-0.02,0.38 -0.401,0 -0.871,0.001C-1.342,0.002 -1.722,0.383 -1.721,0.853L-1.703,8.897C-1.143,9.147 -0.594,9.404 -0.054,9.669C-0.035,9.677 -0.018,9.686 0,9.695" style="fill:rgb(15,102,159);fill-rule:nonzero;"/>
            </g>
            <g transform="matrix(4.16667,0,0,4.16667,-96.0712,289.55)">
                <path d="M0,-8.672C-1.251,-8.669 -2.267,-7.65 -2.265,-6.398L-2.25,0.002C-1.897,-0.007 -1.542,-0.011 -1.188,-0.016C-1.164,-0.017 -1.14,-0.017 -1.116,-0.018L1.152,-0.016C1.531,-0.01 1.91,-0.009 2.287,0.002L2.273,-6.408C2.271,-7.659 1.251,-8.674 0,-8.672" style="fill:white;fill-rule:nonzero;"/>
            </g>
            <g transform="matrix(4.16667,0,0,4.16667,-127.63,292.249)">
                <path d="M0,-8.62C-1.251,-8.617 -2.267,-7.598 -2.264,-6.346L-2.25,-0.017C-2.25,-0.011 -2.248,-0.005 -2.247,0.002C-1.887,-0.049 -1.521,-0.089 -1.157,-0.135C-1.144,-0.137 -1.13,-0.138 -1.115,-0.14L1.152,-0.386C1.517,-0.419 1.879,-0.455 2.245,-0.483C2.259,-0.484 2.273,-0.484 2.287,-0.485L2.274,-6.356C2.271,-7.607 1.251,-8.622 0,-8.62" style="fill:white;fill-rule:nonzero;"/>
            </g>
            <g transform="matrix(4.16667,0,0,4.16667,-156.797,297.79)">
                <path d="M0,-8.212C-1.094,-8.21 -1.983,-7.317 -1.98,-6.223L-1.967,0.002C-1.937,-0.005 -1.907,-0.014 -1.877,-0.022C-1.531,-0.109 -1.183,-0.191 -0.833,-0.272L0.867,-0.644C0.898,-0.65 0.929,-0.657 0.959,-0.664C1.306,-0.734 1.652,-0.807 2.001,-0.873L1.989,-6.231C1.987,-7.326 1.095,-8.214 0,-8.212" style="fill:white;fill-rule:nonzero;"/>
            </g>
            <g transform="matrix(4.16667,0,0,4.16667,-175.323,281.236)">
                <path d="M0,4.658L-0.009,0.548C-0.011,-0.39 -0.775,-1.152 -1.714,-1.15C-2.652,-1.148 -3.413,-0.383 -3.411,0.555L-3.4,5.81C-3.063,5.683 -2.729,5.554 -2.386,5.434C-2.347,5.42 -2.306,5.408 -2.267,5.394L-1.133,5.021C-0.795,4.91 -0.46,4.795 -0.116,4.691C-0.078,4.679 -0.038,4.669 0,4.658" style="fill:white;fill-rule:nonzero;"/>
            </g>
            <g transform="matrix(4.16667,0,0,4.16667,-205.454,314.789)">
                <path d="M0,-6.928C-0.782,-6.926 -1.417,-6.263 -1.415,-5.45L-1.403,0.002L-1.159,-0.09C-1.115,-0.112 -1.069,-0.132 -1.025,-0.155C-0.778,-0.277 -0.523,-0.393 -0.271,-0.511L0.296,-0.779C0.378,-0.818 0.459,-0.857 0.542,-0.895C0.834,-1.027 1.132,-1.153 1.43,-1.279L1.421,-5.457C1.419,-6.27 0.781,-6.93 0,-6.928" style="fill:white;fill-rule:nonzero;"/>
            </g>
            <g transform="matrix(4.16667,0,0,4.16667,-59.112,282.826)">
                <path d="M0.014,2.164C0.057,2.17 0.101,2.173 0.144,2.179C0.479,2.224 0.813,2.269 1.146,2.317C1.146,2.31 1.148,2.302 1.148,2.294L1.135,-4.169C1.132,-5.446 0.112,-6.483 -1.139,-6.48C-2.39,-6.478 -3.405,-5.437 -3.403,-4.159L-3.391,1.807C-3.344,1.811 -3.296,1.813 -3.25,1.817C-2.917,1.844 -2.586,1.874 -2.256,1.905" style="fill:white;fill-rule:nonzero;"/>
            </g>
            <g transform="matrix(4.16667,0,0,4.16667,-34.4987,298.18)">
                <path d="M0,-8.369C-1.095,-8.367 -1.983,-7.456 -1.981,-6.339L-1.97,-0.891C-1.938,-0.885 -1.908,-0.879 -1.877,-0.873C-1.528,-0.805 -1.181,-0.737 -0.835,-0.664L0.868,-0.275C0.898,-0.267 0.929,-0.261 0.959,-0.254C1.308,-0.169 1.657,-0.087 2.003,0.002L1.989,-6.348C1.987,-7.465 1.095,-8.371 0,-8.369" style="fill:white;fill-rule:nonzero;"/>
            </g>
            <g transform="matrix(4.16667,0,0,4.16667,-8.87619,305.994)">
                <path d="M0,-7.182C-0.938,-7.18 -1.7,-6.398 -1.698,-5.439L-1.688,-1.173C-1.329,-1.062 -0.975,-0.943 -0.619,-0.826C-0.597,-0.819 -0.575,-0.811 -0.554,-0.804L0.581,-0.419C0.94,-0.291 1.296,-0.158 1.649,-0.023C1.672,-0.015 1.694,-0.007 1.717,0.002L1.705,-5.446C1.703,-6.406 0.938,-7.184 0,-7.182" style="fill:white;fill-rule:nonzero;"/>
            </g>
            <g transform="matrix(4.16667,0,0,4.16667,19.2121,308.965)">
                <path d="M0,-4.078C-0.002,-4.912 -0.64,-5.588 -1.421,-5.586C-2.203,-5.584 -2.838,-4.905 -2.836,-4.072L-2.827,0.188C-2.445,0.355 -2.066,0.526 -1.692,0.7L-1.124,0.965C-0.821,1.109 -0.517,1.251 -0.22,1.401L0.011,1.51L0.011,1.444L0,-4.078Z" style="fill:white;fill-rule:nonzero;"/>
            </g>
            <g transform="matrix(4.16667,0,0,4.16667,6.15047,572.76)">
                <path d="M0,59.194C-0.597,59.689 -1.21,60.16 -1.837,60.612C-4.237,62.341 -6.85,63.744 -9.62,64.772C-13.055,66.046 -16.729,66.748 -20.554,66.748C-24.378,66.748 -28.054,66.047 -31.488,64.773C-34.259,63.746 -36.871,62.343 -39.271,60.614C-39.898,60.162 -40.512,59.691 -41.109,59.196C-41.657,58.742 -42.189,58.267 -42.711,57.778C-45.864,54.824 -48.523,51.26 -50.519,47.246C-50.796,46.688 -51.059,46.12 -51.311,45.545C-51.716,44.617 -52.085,43.668 -52.42,42.701C-52.614,42.14 -52.797,41.573 -52.967,40.999C-54.032,37.404 -54.614,33.575 -54.614,29.598C-54.615,16.532 -48.394,5.027 -39.019,-1.598C-38.313,-2.096 -37.594,-2.574 -36.854,-3.015C-35.991,-3.531 -35.104,-4 -34.197,-4.434C-31.662,-5.648 -28.968,-6.534 -26.156,-7.043C-24.333,-7.373 -22.465,-7.554 -20.558,-7.554C-18.65,-7.554 -16.781,-7.374 -14.958,-7.044C-12.147,-6.535 -9.452,-5.649 -6.917,-4.435C-6.012,-4.002 -5.124,-3.532 -4.261,-3.017C-3.521,-2.576 -2.802,-2.098 -2.097,-1.599C7.28,5.025 13.502,16.529 13.503,29.595C13.503,33.572 12.921,37.402 11.856,40.996C11.687,41.569 11.504,42.137 11.31,42.698C10.975,43.665 10.606,44.614 10.2,45.542C9.949,46.117 9.687,46.685 9.408,47.243C7.414,51.258 4.755,54.822 1.603,57.776C1.081,58.264 0.549,58.74 0,59.194M4.228,59.194C4.694,58.734 5.149,58.26 5.594,57.776C8.404,54.712 10.758,51.156 12.541,47.243C12.796,46.683 13.039,46.116 13.271,45.542C13.562,44.819 13.84,44.089 14.092,43.345C14.164,43.132 14.226,42.913 14.295,42.698C14.476,42.135 14.646,41.569 14.803,40.996C15.072,40.017 15.309,39.023 15.509,38.014C16.049,35.298 16.339,32.483 16.339,29.595C16.339,26.707 16.048,23.892 15.509,21.176C15.146,19.351 14.675,17.569 14.09,15.845C11.749,8.937 7.69,2.925 2.486,-1.599C1.921,-2.091 1.342,-2.562 0.751,-3.017C0.109,-3.511 -0.543,-3.987 -1.213,-4.435C-2.679,-5.417 -4.213,-6.288 -5.804,-7.044C-7.81,-7.996 -9.907,-8.757 -12.078,-9.312C-14.803,-10.01 -17.64,-10.39 -20.558,-10.39C-23.476,-10.39 -26.312,-10.009 -29.037,-9.312C-31.208,-8.756 -33.306,-7.995 -35.311,-7.043C-36.902,-6.287 -38.437,-5.415 -39.901,-4.433C-40.571,-3.985 -41.225,-3.509 -41.865,-3.015C-42.456,-2.56 -43.035,-2.088 -43.601,-1.598C-52.036,5.737 -57.451,16.993 -57.45,29.599C-57.45,33.56 -56.908,37.384 -55.914,41C-55.756,41.572 -55.586,42.139 -55.405,42.701C-55.096,43.666 -54.755,44.615 -54.38,45.545C-54.148,46.119 -53.906,46.686 -53.651,47.246C-51.867,51.159 -49.514,54.715 -46.702,57.778C-46.258,58.263 -45.804,58.736 -45.337,59.196C-44.84,59.685 -44.328,60.155 -43.808,60.614C-42.029,62.183 -40.116,63.58 -38.086,64.774C-35.626,66.219 -32.995,67.363 -30.24,68.176C-27.151,69.088 -23.905,69.584 -20.554,69.584C-17.202,69.584 -13.957,69.088 -10.868,68.175C-8.112,67.362 -5.482,66.218 -3.022,64.772C-0.992,63.578 0.921,62.181 2.699,60.612C3.22,60.152 3.731,59.682 4.228,59.194" style="fill:rgb(15,102,159);fill-rule:nonzero;"/>
            </g>
            <g transform="matrix(4.16667,0,0,4.16667,0.820056,642.083)">
                <path d="M0,26.061C-0.046,27.071 -0.219,28.018 -0.522,28.905C-0.725,29.497 -0.975,30.066 -1.293,30.606C-2.126,32.019 -3.352,33.261 -4.996,34.344C-6.799,35.532 -8.959,36.42 -11.453,37.011C-11.912,37.12 -12.39,37.212 -12.871,37.3C-13.332,37.385 -13.808,37.455 -14.289,37.52L-14.289,44.296L-16.225,44.297L-16.225,43.976L-16.226,42.557L-16.226,37.73C-16.692,37.769 -17.159,37.808 -17.644,37.83C-18.106,37.851 -18.583,37.858 -19.062,37.864C-19.274,37.867 -19.477,37.88 -19.692,37.88C-20.214,37.88 -20.72,37.86 -21.225,37.838C-21.706,37.817 -22.177,37.782 -22.643,37.742C-23.123,37.7 -23.597,37.649 -24.061,37.587L-24.061,44.297L-25.997,44.297L-25.997,37.253C-26.479,37.153 -26.953,37.043 -27.415,36.917C-27.897,36.787 -28.372,36.647 -28.833,36.49C-30.371,35.964 -31.794,35.295 -33.089,34.474C-34.832,33.369 -36.228,32.084 -37.306,30.608C-37.7,30.068 -38.049,29.5 -38.357,28.907C-38.628,28.386 -38.875,27.852 -39.08,27.289L-33.091,26.337C-32.795,27.253 -32.41,28.11 -31.942,28.906C-31.589,29.509 -31.182,30.075 -30.731,30.608C-30.171,31.271 -29.541,31.883 -28.833,32.436C-28.688,32.55 -28.55,32.667 -28.398,32.775C-28.08,33.005 -27.751,33.219 -27.416,33.421C-26.96,33.696 -26.483,33.937 -25.997,34.161L-25.998,30.607L-25.998,14.05L-25.999,10.225C-26.489,9.969 -26.962,9.717 -27.417,9.471C-27.909,9.203 -28.384,8.941 -28.835,8.685C-31.535,7.15 -33.479,5.82 -34.638,4.709C-36.54,2.887 -37.464,0.926 -37.464,-1.284C-37.465,-4.421 -35.98,-6.974 -32.929,-9.087C-31.698,-9.939 -30.33,-10.626 -28.836,-11.153C-28.374,-11.316 -27.903,-11.466 -27.418,-11.598C-26.957,-11.723 -26.482,-11.831 -26,-11.928L-26,-18.235L-24.837,-18.235L-24.063,-18.236L-24.063,-12.235C-23.6,-12.29 -23.127,-12.333 -22.646,-12.364C-22.183,-12.394 -21.706,-12.407 -21.228,-12.416C-21.041,-12.419 -20.861,-12.432 -20.672,-12.432C-20.123,-12.432 -19.591,-12.416 -19.063,-12.395C-18.58,-12.376 -18.11,-12.344 -17.646,-12.308C-17.163,-12.27 -16.69,-12.223 -16.228,-12.167L-16.228,-15.596L-16.229,-18.236L-14.292,-18.236L-14.292,-15.327L-14.291,-11.865C-13.806,-11.772 -13.333,-11.667 -12.873,-11.551C-12.386,-11.427 -11.913,-11.291 -11.455,-11.141C-10.23,-10.74 -9.101,-10.256 -8.096,-9.669C-5.517,-8.164 -3.568,-6.021 -2.176,-3.15L-7.219,-2.083C-8.267,-4.356 -9.695,-6.163 -11.455,-7.508C-11.574,-7.599 -11.681,-7.707 -11.803,-7.793C-12.146,-8.037 -12.505,-8.255 -12.873,-8.462C-13.327,-8.717 -13.801,-8.942 -14.291,-9.143L-14.291,-5.352L-14.29,7.544L-14.29,11.311C-13.798,11.546 -13.325,11.772 -12.872,11.992C-12.378,12.23 -11.9,12.462 -11.454,12.682C-10.43,13.185 -9.529,13.638 -8.762,14.036C-5.701,15.646 -3.429,17.432 -2.007,19.342C-0.871,20.868 -0.227,22.52 -0.036,24.359C0.003,24.74 0.03,25.126 0.03,25.524C0.03,25.708 0.008,25.881 0,26.061M0.724,17.311C-1.005,14.989 -3.663,12.873 -7.186,11.02C-8.334,10.424 -9.768,9.712 -11.454,8.897L-11.455,-2.658C-10.821,-1.758 -10.282,-0.717 -9.845,0.465L-9.335,1.844L2.473,-0.656L1.791,-2.502C0.124,-7.016 -2.625,-10.416 -6.38,-12.608C-7.88,-13.484 -9.582,-14.174 -11.455,-14.694L-11.456,-18.236L-11.456,-21.072L-19.064,-21.072L-19.064,-18.236L-19.063,-15.796C-19.594,-15.815 -20.124,-15.835 -20.673,-15.835C-20.861,-15.835 -21.041,-15.821 -21.228,-15.818L-21.228,-21.072L-28.836,-21.071L-28.836,-14.722C-31.055,-14.064 -33.074,-13.125 -34.865,-11.885C-38.849,-9.128 -40.867,-5.561 -40.867,-1.283C-40.867,1.859 -39.563,4.703 -36.993,7.166C-35.392,8.702 -32.697,10.488 -28.834,12.572L-28.834,27.479C-29.115,27.037 -29.354,26.562 -29.562,26.062C-29.783,25.53 -29.961,24.962 -30.099,24.361C-30.121,24.264 -30.149,24.173 -30.17,24.075L-30.495,22.479L-42.341,24.361L-43.327,24.519L-42.97,26.063L-42.916,26.296C-42.705,27.206 -42.414,28.069 -42.08,28.907C-41.848,29.492 -41.586,30.06 -41.293,30.608C-39.862,33.293 -37.738,35.557 -34.91,37.349C-33.081,38.508 -31.044,39.398 -28.833,40.047L-28.833,47.133L-21.225,47.133L-21.225,41.24C-20.718,41.26 -20.213,41.283 -19.692,41.283C-19.477,41.283 -19.274,41.269 -19.062,41.267L-19.062,42.558L-19.061,43.976L-19.061,47.133L-11.452,47.132L-11.453,43.975L-11.453,40.479C-8.242,39.805 -5.445,38.715 -3.123,37.186C-0.407,35.395 1.473,33.193 2.502,30.606C2.721,30.057 2.896,29.488 3.038,28.905C3.258,28 3.368,27.047 3.402,26.061C3.408,25.88 3.434,25.707 3.434,25.523C3.434,25.131 3.417,24.743 3.386,24.359C3.181,21.78 2.289,19.413 0.724,17.311" style="fill:rgb(175,37,37);fill-rule:nonzero;"/>
            </g>
            <g transform="matrix(4.16667,0,0,4.16667,-107.509,647.46)">
                <path d="M0,3.812L0,-10.516C-0.498,-10.316 -0.972,-10.088 -1.419,-9.829C-1.619,-9.712 -1.819,-9.596 -2.009,-9.468C-2.305,-9.269 -2.578,-9.058 -2.836,-8.838C-4.501,-7.42 -5.377,-5.591 -5.377,-3.492C-5.377,-1.852 -4.544,-0.206 -2.836,1.49C-2.419,1.904 -1.94,2.322 -1.418,2.743C-0.979,3.097 -0.515,3.452 0,3.812Z" style="fill:rgb(175,37,37);fill-rule:nonzero;"/>
            </g>
            <g transform="matrix(4.16667,0,0,4.16667,-83.5712,671.212)">
                <path d="M0,-13.819C0.409,-13.819 0.803,-13.799 1.19,-13.769L1.191,-1.744C0.404,-2.149 -0.316,-2.538 -0.973,-2.911L-0.973,-13.767C-0.65,-13.787 -0.341,-13.819 0,-13.819M-0.973,0.962C-0.283,1.326 0.429,1.692 1.191,2.063C1.647,2.285 2.126,2.511 2.609,2.736C2.712,2.784 2.807,2.831 2.91,2.879C3.293,3.058 3.662,3.231 4.027,3.403L4.027,-0.357L4.026,-13.221L4.026,-16.756C3.565,-16.868 3.095,-16.963 2.608,-17.034C2.146,-17.101 1.675,-17.155 1.19,-17.185C0.801,-17.209 0.404,-17.222 0,-17.222C-0.331,-17.222 -0.653,-17.211 -0.974,-17.195C-1.46,-17.171 -1.933,-17.13 -2.392,-17.07C-2.881,-17.007 -3.352,-16.919 -3.81,-16.815L-3.809,-13.277L-3.809,-0.639C-3.357,-0.364 -2.885,-0.089 -2.391,0.19C-1.937,0.446 -1.464,0.703 -0.973,0.962" style="fill:rgb(175,37,37);fill-rule:nonzero;"/>
            </g>
            <g transform="matrix(4.16667,0,0,4.16667,-87.6195,703.706)">
                <path d="M0,17.267L0,1.585C0.769,1.956 1.491,2.319 2.163,2.672L2.164,9.571L2.164,17.433C1.409,17.424 0.688,17.369 0,17.267M5,20.672L5,9.571L4.999,4.266L4.999,0.33C4.542,0.077 4.071,-0.176 3.581,-0.431C3.121,-0.67 2.652,-0.91 2.163,-1.151C1.646,-1.406 1.12,-1.662 0.57,-1.919L0.377,-2.008C0.248,-2.069 0.127,-2.129 -0.001,-2.189C-0.485,-2.42 -0.957,-2.649 -1.419,-2.874C-1.904,-3.111 -2.377,-3.345 -2.837,-3.575L-2.836,0.221L-2.836,16.512L-2.835,20.113C-2.374,20.252 -1.9,20.368 -1.418,20.467C-0.955,20.562 -0.481,20.636 0.001,20.694C0.702,20.779 1.423,20.828 2.164,20.835C2.233,20.836 2.3,20.842 2.37,20.842C2.782,20.842 3.186,20.828 3.582,20.805C4.066,20.777 4.539,20.733 5,20.672Z" style="fill:rgb(175,37,37);fill-rule:nonzero;"/>
            </g>
            <g transform="matrix(4.16667,0,0,4.16667,-39.4833,747.302)">
                <path d="M0,0.809C-0.009,1.9 -0.294,2.831 -0.87,3.653C-1.119,4.009 -1.418,4.347 -1.78,4.664L-1.78,3.653L-1.781,0.809L-1.781,-2.582C-1.176,-1.951 -0.771,-1.39 -0.497,-0.893C-0.124,-0.218 0.003,0.335 0.003,0.755C0.003,0.773 0,0.79 0,0.809M-1.781,-7.098C-2.227,-7.434 -2.694,-7.771 -3.199,-8.109C-3.649,-8.411 -4.119,-8.713 -4.617,-9.017L-4.617,-0.892L-4.616,0.809L-4.616,9.826C-4.129,9.699 -3.652,9.557 -3.198,9.386C-2.703,9.2 -2.235,8.978 -1.78,8.739C-1.275,8.474 -0.787,8.186 -0.333,7.857C0.682,7.122 1.48,6.283 2.084,5.354C2.432,4.818 2.715,4.251 2.925,3.653C3.233,2.77 3.397,1.823 3.402,0.809C3.402,0.79 3.405,0.773 3.405,0.754C3.405,0.203 3.314,-0.346 3.166,-0.893C2.604,-2.964 0.987,-5.01 -1.781,-7.098" style="fill:rgb(175,37,37);fill-rule:nonzero;"/>
            </g>
            <g transform="matrix(4.16667,0,0,4.16667,-79.6608,83.6367)">
                <path d="M0,188.469C-4.973,188.469 -9.723,187.432 -14.09,185.566C-16.272,184.633 -18.359,183.493 -20.327,182.163C-22.149,180.931 -23.87,179.539 -25.472,178.004C-25.952,177.544 -26.423,177.071 -26.882,176.586C-27.318,176.124 -27.744,175.652 -28.159,175.168C-30.832,172.06 -33.073,168.513 -34.775,164.636C-35.021,164.075 -35.259,163.509 -35.482,162.934C-35.844,162.005 -36.166,161.053 -36.466,160.091C-36.641,159.529 -36.805,158.962 -36.958,158.389C-37.938,154.722 -38.475,150.853 -38.475,146.848C-38.475,134.514 -33.486,123.421 -25.582,115.793C-25.077,115.305 -24.559,114.833 -24.03,114.375C-23.465,113.884 -22.886,113.412 -22.295,112.956C-21.07,112.011 -19.798,111.135 -18.474,110.347C-17.028,109.488 -15.524,108.734 -13.976,108.078C-12.595,107.494 -11.18,106.985 -9.728,106.574C-8.036,106.096 -6.297,105.747 -4.524,105.522C-3.04,105.333 -1.534,105.224 -0.005,105.224C4.923,105.224 9.633,106.242 13.967,108.077C15.517,108.733 17.021,109.487 18.465,110.345C19.789,111.133 21.062,112.009 22.287,112.954C22.877,113.41 23.456,113.882 24.021,114.372C24.55,114.831 25.068,115.302 25.574,115.79C26.153,116.349 26.716,116.926 27.263,117.521C30.285,120.807 32.806,124.631 34.685,128.854C35.208,130.031 35.682,131.239 36.103,132.473C36.68,134.165 37.149,135.911 37.521,137.697C38.135,140.642 38.469,143.701 38.469,146.844C38.47,149.988 38.135,153.047 37.521,155.993C37.354,156.8 37.164,157.597 36.954,158.386C36.801,158.958 36.637,159.525 36.462,160.088C36.345,160.465 36.231,160.844 36.104,161.216C35.907,161.794 35.698,162.365 35.479,162.931C35.255,163.506 35.018,164.072 34.771,164.633C34.742,164.7 34.716,164.769 34.687,164.836C32.996,168.636 30.783,172.111 28.157,175.165C27.741,175.649 27.315,176.122 26.879,176.583C26.421,177.069 25.95,177.541 25.47,178.001C23.868,179.536 22.147,180.929 20.325,182.161C18.357,183.492 16.271,184.632 14.088,185.565C9.722,187.431 4.972,188.469 0,188.469M-20.51,186.498L-16.163,186.497C-14.645,187.22 -13.077,187.845 -11.467,188.364C-14.599,188.127 -17.628,187.492 -20.51,186.498M-26.905,183.583L-21.262,183.583C-20.319,184.219 -19.352,184.811 -18.359,185.363L-23.396,185.364C-24.597,184.831 -25.769,184.238 -26.905,183.583M-29.164,182.164C-29.868,181.689 -30.558,181.19 -31.23,180.668L-25.066,180.668C-24.467,181.185 -23.854,181.683 -23.228,182.163C-23.104,182.259 -22.98,182.355 -22.856,182.448L-28.75,182.448C-28.89,182.357 -29.025,182.258 -29.164,182.164M-53.253,182.165L-53.254,164.637L-45.503,164.636L-45.502,178.005L-36.727,178.005C-35.276,179.512 -33.721,180.902 -32.072,182.164L-53.253,182.165ZM-53.254,163.199L-53.255,160.092L-47.057,160.092C-46.774,161.056 -46.45,162.001 -46.107,162.935L-53.254,162.935L-53.254,163.199ZM-53.257,110.349L-51.265,110.349L-51.263,158.39L-53.255,158.39L-53.257,110.349ZM-48.346,154.222L-48.346,158.39L-51.263,158.39L-51.265,110.349L-48.348,110.349L-48.347,140.48C-48.687,142.719 -48.869,145.012 -48.869,147.351C-48.869,149.691 -48.686,151.984 -48.346,154.222M-20.391,109.539L-23.853,109.539C-22.656,108.989 -21.43,108.498 -20.174,108.079C-19.827,107.963 -19.475,107.864 -19.124,107.758L-17.314,107.758C-17.513,107.861 -17.708,107.972 -17.904,108.078C-18.751,108.535 -19.58,109.021 -20.391,109.539ZM-29.047,112.454C-28.092,111.815 -27.107,111.222 -26.1,110.674L-22.26,110.673L-22.074,110.673C-22.867,111.238 -23.641,111.832 -24.393,112.454L-29.047,112.454ZM-32.868,115.37C-32.479,115.031 -32.086,114.697 -31.683,114.375C-31.345,114.105 -30.998,113.847 -30.651,113.589L-25.714,113.589C-25.998,113.845 -26.276,114.11 -26.555,114.375C-26.896,114.7 -27.231,115.032 -27.562,115.369L-32.868,115.37ZM-35.904,118.284C-35.329,117.669 -34.729,117.08 -34.119,116.504L-28.642,116.504C-29.167,117.081 -29.676,117.676 -30.171,118.284L-35.904,118.284ZM-38.38,121.199C-37.909,120.59 -37.417,119.999 -36.915,119.419L-31.074,119.419C-31.516,119.999 -31.941,120.594 -32.354,121.199L-38.38,121.199ZM-40.427,124.115C-40.038,123.509 -39.632,122.916 -39.214,122.334L-33.104,122.334C-33.476,122.918 -33.836,123.511 -34.183,124.115L-40.427,124.115ZM-42.13,127.03C-41.809,126.427 -41.473,125.833 -41.124,125.249L-34.806,125.249C-35.119,125.834 -35.42,126.427 -35.709,127.03L-42.13,127.03ZM-36.991,129.945L-43.547,129.945C-43.283,129.343 -43.007,128.75 -42.717,128.165L-42.669,128.164L-36.243,128.164C-36.505,128.751 -36.754,129.344 -36.991,129.945ZM-38.016,132.86L-44.698,132.86C-44.504,132.308 -44.303,131.761 -44.086,131.22C-44.067,131.173 -44.046,131.127 -44.026,131.079L-37.409,131.079C-37.623,131.667 -37.825,132.26 -38.016,132.86ZM-38.841,135.775L-45.608,135.775C-45.572,135.645 -45.541,135.513 -45.504,135.384C-45.371,134.916 -45.225,134.455 -45.077,133.994L-38.371,133.994C-38.541,134.582 -38.694,135.177 -38.841,135.775M-46.591,154.4L-39.552,154.4C-39.454,154.997 -39.348,155.591 -39.227,156.18L-46.267,156.18C-46.387,155.592 -46.494,154.998 -46.591,154.4ZM-46.974,151.485L-39.942,151.485C-39.884,152.082 -39.813,152.676 -39.732,153.265L-45.503,153.265L-46.765,153.266C-46.845,152.676 -46.918,152.083 -46.974,151.485ZM-47.139,148.57L-40.136,148.57C-40.113,149.167 -40.077,149.76 -40.033,150.35L-47.055,150.35C-47.095,149.76 -47.122,149.167 -47.139,148.57ZM-47.128,145.655L-42.668,145.655L-40.148,145.654C-40.158,146.052 -40.176,146.448 -40.176,146.848C-40.176,147.045 -40.165,147.239 -40.162,147.435L-47.166,147.435C-47.166,147.407 -47.168,147.38 -47.168,147.351C-47.168,146.782 -47.149,146.218 -47.128,145.655M-39.452,138.69L-46.304,138.69C-46.184,138.093 -46.055,137.498 -45.91,136.91L-45.504,136.91L-44.086,136.909L-39.098,136.909C-39.227,137.499 -39.346,138.092 -39.452,138.69ZM-39.99,142.739C-40.042,143.33 -40.087,143.923 -40.116,144.52L-47.066,144.52C-47.028,143.924 -46.981,143.329 -46.92,142.74L-44.086,142.74L-42.668,142.739L-39.99,142.739ZM-39.871,141.605L-46.785,141.605C-46.707,141.007 -46.614,140.414 -46.512,139.825L-44.086,139.825L-42.668,139.824L-39.641,139.824C-39.729,140.414 -39.805,141.008 -39.871,141.605ZM-45.505,112.957L-45.505,130.207C-46.304,132.152 -46.972,134.171 -47.496,136.253L-47.497,110.349L-28.915,110.348C-30.198,111.148 -31.44,112.014 -32.628,112.957L-45.505,112.957ZM-35.841,115.793C-38.463,118.36 -40.759,121.297 -42.669,124.519L-42.669,115.793L-35.841,115.793ZM-38.53,159.095L-45.563,159.095C-45.628,158.862 -45.688,158.626 -45.75,158.39C-45.844,158.032 -45.937,157.676 -46.021,157.315L-44.085,157.315L-42.667,157.314L-39.033,157.314L-39.033,157.081C-38.935,157.52 -38.828,157.956 -38.717,158.389C-38.656,158.625 -38.595,158.861 -38.53,159.095ZM-42.667,162.011L-44.635,162.011C-44.846,161.423 -45.042,160.829 -45.228,160.23L-42.667,160.23L-38.205,160.229C-38.024,160.828 -37.835,161.423 -37.631,162.01L-42.667,162.011ZM-42.667,164.926L-43.474,164.926C-43.517,164.83 -43.555,164.732 -43.596,164.636C-43.763,164.254 -43.929,163.871 -44.085,163.482C-44.13,163.37 -44.173,163.257 -44.217,163.145L-42.667,163.145L-37.215,163.144C-37.025,163.647 -36.825,164.143 -36.618,164.636C-36.578,164.733 -36.538,164.829 -36.497,164.925L-42.667,164.926ZM-42.038,167.84C-42.252,167.443 -42.465,167.044 -42.667,166.638C-42.762,166.447 -42.852,166.253 -42.943,166.06L-42.667,166.06L-35.996,166.059C-35.719,166.661 -35.43,167.255 -35.128,167.84L-42.038,167.84ZM-40.313,170.755C-40.691,170.172 -41.058,169.579 -41.408,168.974L-34.522,168.974C-34.188,169.577 -33.843,170.171 -33.482,170.755L-40.313,170.755ZM-39.726,174.485C-39.62,174.622 -39.521,174.765 -39.414,174.901C-39.346,174.989 -39.284,175.082 -39.215,175.169L-42.666,175.169L-42.667,170.182C-42.545,170.388 -42.405,170.581 -42.28,170.784C-42.223,170.878 -42.161,170.968 -42.104,171.061C-41.362,172.245 -40.57,173.387 -39.726,174.485M-38.241,173.67C-38.694,173.089 -39.136,172.497 -39.559,171.889L-32.754,171.889C-32.354,172.494 -31.941,173.088 -31.515,173.67L-38.241,173.67ZM-28.15,177.719C-28.06,177.816 -27.966,177.908 -27.874,178.004C-27.382,178.516 -26.877,179.014 -26.361,179.499L-32.665,179.5C-33.23,179.016 -33.785,178.52 -34.324,178.004C-34.424,177.909 -34.526,177.816 -34.625,177.719L-28.15,177.719ZM-35.736,176.585C-36.173,176.124 -36.599,175.652 -37.014,175.169C-37.117,175.048 -37.221,174.927 -37.323,174.804L-30.657,174.804C-30.561,174.927 -30.462,175.047 -30.364,175.168C-29.978,175.65 -29.582,176.122 -29.176,176.585L-35.736,176.585ZM-53.257,102.512L-30.712,102.511L30.495,102.508L45.15,102.507L45.15,103.481L-53.257,103.486L-53.257,105.187L-16.102,105.185L-15.746,105.185C-16.137,105.259 -16.528,105.328 -16.914,105.414C-19.634,106.017 -22.249,106.92 -24.737,108.079L-53.257,108.08L-53.257,102.512ZM-53.257,100.874L-30.712,100.873L30.495,100.83L45.15,100.869L45.15,102.507L30.495,102.508L-30.712,102.511L-53.257,102.512L-53.257,100.874ZM30.712,98.602L15.314,98.602L-4.12,92.216L-23.361,98.604L-39.935,98.605L-4.047,87.194L30.712,98.602ZM-4.036,83.395L40.321,98.601L30.712,98.602L-4.047,87.194L-39.53,98.489L-39.935,98.605L-48.229,98.605L-4.036,83.395ZM-39.366,88.667L-38.614,88.165C-30.124,83.416 -18.394,80.634 -5.771,80.396L-45.389,94.208C-44.439,92.711 -42.031,90.447 -39.366,88.667M-35.799,83.607C-36.369,83.859 -36.929,84.117 -37.479,84.384L-37.499,84.394C-37.871,84.573 -38.247,84.75 -38.609,84.936L-38.609,72.94C-37.93,71.46 -36.855,70.051 -35.441,68.741L-34.307,82.964C-34.42,83.013 -35.665,83.547 -35.776,83.596C-35.784,83.599 -35.792,83.603 -35.799,83.607M-32.056,82.099C-32.429,82.242 -33.94,82.815 -34.307,82.964L-35.441,68.741C-35.087,68.459 -32.443,66.454 -32.057,66.184L-32.056,82.099ZM-29.039,81.099C-29.794,81.331 -30.538,81.574 -31.27,81.829C-31.281,81.833 -31.294,81.837 -31.306,81.841C-31.556,81.927 -31.81,82.011 -32.056,82.099L-32.057,66.184C-30.812,65.406 -29.438,64.678 -27.941,64.013L-27.94,80.763C-28.302,80.868 -28.655,80.98 -29.011,81.09C-29.021,81.093 -29.029,81.096 -29.039,81.099M-24.556,79.873C-24.931,79.969 -27.569,80.662 -27.94,80.763L-27.941,64.013C-27.606,63.877 -26.131,63.264 -25.786,63.134L-24.557,62.689L-24.556,79.873ZM-20.746,79.06C-21.693,79.238 -22.627,79.432 -23.55,79.64C-23.561,79.643 -23.57,79.645 -23.581,79.648C-23.907,79.721 -24.232,79.796 -24.556,79.873L-24.557,62.689C-23.121,62.193 -21.606,61.747 -20.023,61.357L-18.888,78.736C-19.12,78.778 -20.483,79.01 -20.714,79.053C-20.725,79.055 -20.735,79.058 -20.746,79.06M-16.637,78.395C-17.012,78.451 -18.516,78.675 -18.888,78.736L-20.023,61.357C-19.653,61.274 -17.015,60.705 -16.638,60.628L-16.637,78.395ZM-11.828,77.863C-12.957,77.957 -14.077,78.067 -15.185,78.201C-15.197,78.202 -15.209,78.204 -15.221,78.206C-15.696,78.264 -16.166,78.33 -16.637,78.395L-16.638,60.628C-14.624,60.255 -12.523,59.969 -10.354,59.779L-10.354,77.754C-10.835,77.786 -11.315,77.82 -11.794,77.86C-11.805,77.861 -11.816,77.862 -11.828,77.863M-6.968,77.583L-10.354,77.754L-10.354,59.779C-9.984,59.752 -7.342,59.583 -6.969,59.562L-6.968,77.583ZM-4.011,56.189C9.478,56.189 22.041,60.474 30.61,67.953L30.611,69.75C28.731,67.293 25.845,65.051 22.037,63.161C21.547,62.918 21.021,62.7 20.508,62.472L20.415,62.43C13.657,59.445 5.082,57.796 -4.011,57.796C-9.524,57.797 -14.84,58.417 -19.69,59.555L-20.023,59.634C-22.665,60.27 -25.174,61.052 -27.474,62L-27.941,62.211C-28.661,62.518 -29.379,62.827 -30.058,63.164C-33.851,65.047 -36.729,67.28 -38.609,69.727L-38.609,67.939C-30.041,60.47 -17.487,56.19 -4.011,56.189M-36.153,60.973C-28.127,55.045 -16.491,51.653 -4.011,51.652C8.241,51.651 19.684,54.917 27.693,60.644C28.334,61.278 28.859,61.952 29.279,62.591C20.362,56.318 8.532,52.786 -4.011,52.786C-16.62,52.787 -28.511,56.357 -37.444,62.694C-37.098,62.139 -36.669,61.548 -36.153,60.973M-28.761,54.198C-29.059,54.324 -29.356,54.45 -29.648,54.582C-29.731,54.62 -29.812,54.659 -29.895,54.698C-30.001,54.749 -30.108,54.8 -30.216,54.85C-30.298,54.888 -30.379,54.927 -30.461,54.966C-30.714,55.083 -30.969,55.199 -31.216,55.322C-31.26,55.344 -31.306,55.365 -31.35,55.387L-31.594,55.479L-32.37,55.769L-32.37,46.411C-31.01,45.632 -29.526,44.917 -27.937,44.272L-27.937,53.849C-28.131,53.928 -28.322,54.01 -28.514,54.091C-28.597,54.126 -28.678,54.162 -28.761,54.198M-22.959,52.082C-22.997,52.093 -23.037,52.103 -23.075,52.115C-23.419,52.219 -23.754,52.334 -24.092,52.445C-24.131,52.458 -24.171,52.47 -24.21,52.483C-24.55,52.594 -24.89,52.703 -25.226,52.818C-25.265,52.832 -25.306,52.844 -25.345,52.858C-25.687,52.977 -26.022,53.107 -26.359,53.234C-26.398,53.249 -26.439,53.263 -26.479,53.278C-26.681,53.354 -26.887,53.426 -27.087,53.503L-27.087,43.931C-25.558,43.347 -23.937,42.826 -22.242,42.369L-22.242,51.879C-22.48,51.948 -22.721,52.012 -22.959,52.082M-17.554,50.733C-17.584,50.74 -17.614,50.747 -17.646,50.753C-18.186,50.864 -18.723,50.979 -19.255,51.103C-19.285,51.11 -19.315,51.117 -19.346,51.125C-19.695,51.206 -20.044,51.288 -20.39,51.375C-20.42,51.383 -20.449,51.391 -20.479,51.399C-20.785,51.477 -21.089,51.557 -21.391,51.639L-21.392,42.146C-19.542,41.677 -17.61,41.285 -15.613,40.973L-15.613,50.366C-15.882,50.413 -16.151,50.456 -16.419,50.506C-16.45,50.511 -16.48,50.518 -16.512,50.524C-16.86,50.59 -17.207,50.662 -17.554,50.733M-9.226,49.582C-9.239,49.583 -9.254,49.583 -9.268,49.584C-9.634,49.612 -9.996,49.648 -10.36,49.681C-10.374,49.683 -10.388,49.684 -10.401,49.685C-11.148,49.754 -11.891,49.835 -12.628,49.927C-12.643,49.929 -12.656,49.93 -12.67,49.932C-13.033,49.978 -13.399,50.018 -13.76,50.069C-13.77,50.07 -13.779,50.071 -13.788,50.072C-14.115,50.119 -14.438,50.177 -14.762,50.228L-14.763,40.845C-12.647,40.541 -10.469,40.322 -8.24,40.202L-8.239,49.519C-8.568,49.539 -8.898,49.557 -9.226,49.582M-5.127,49.403C-5.48,49.408 -5.836,49.412 -6.188,49.422C-6.213,49.423 -6.237,49.422 -6.261,49.423C-6.639,49.435 -7.013,49.456 -7.389,49.474L-7.389,40.167C-6.271,40.119 -5.146,40.088 -4.011,40.088C-2.818,40.088 -1.638,40.121 -0.466,40.174L-0.465,49.483C-0.884,49.462 -1.302,49.437 -1.724,49.424C-2.1,49.411 -2.479,49.409 -2.857,49.404C-3.242,49.397 -3.625,49.383 -4.011,49.383C-4.36,49.383 -4.706,49.395 -5.055,49.402C-5.078,49.402 -5.103,49.403 -5.127,49.403M5.075,49.985C5.032,49.979 4.988,49.975 4.945,49.969C4.24,49.878 3.531,49.794 2.816,49.723C2.77,49.719 2.723,49.715 2.676,49.711C2.346,49.679 2.015,49.649 1.682,49.622C1.636,49.618 1.588,49.616 1.541,49.612C1.157,49.581 0.772,49.552 0.386,49.528L0.386,40.213C2.726,40.344 5.011,40.583 7.223,40.917L7.224,50.306C6.884,50.249 6.545,50.191 6.202,50.14C6.161,50.134 6.119,50.129 6.078,50.123C5.745,50.074 5.411,50.029 5.075,49.985M12.842,51.492C12.496,51.403 12.146,51.321 11.798,51.237C11.768,51.229 11.737,51.223 11.707,51.216C11.173,51.087 10.639,50.96 10.097,50.845C10.065,50.839 10.035,50.833 10.004,50.826C9.658,50.754 9.311,50.685 8.962,50.617C8.931,50.612 8.9,50.605 8.869,50.599C8.604,50.547 8.341,50.492 8.074,50.444L8.073,41.045C10.073,41.372 12.006,41.779 13.852,42.264L13.853,51.773C13.545,51.687 13.242,51.596 12.933,51.514C12.902,51.507 12.872,51.5 12.842,51.492M18.705,53.367C18.683,53.359 18.66,53.351 18.638,53.343C18.284,53.208 17.929,53.075 17.569,52.947C17.548,52.939 17.526,52.93 17.504,52.922C17.151,52.798 16.793,52.68 16.435,52.562C16.413,52.554 16.392,52.547 16.369,52.54C16.014,52.423 15.659,52.304 15.3,52.193C15.277,52.186 15.257,52.178 15.234,52.172C15.059,52.117 14.881,52.066 14.703,52.013L14.702,42.502C16.307,42.95 17.841,43.456 19.293,44.02L19.293,53.585C19.101,53.509 18.9,53.44 18.705,53.367M23.74,55.589L23.51,55.48C23.213,55.33 22.908,55.188 22.605,55.044C22.497,54.993 22.392,54.94 22.284,54.889C22.203,54.851 22.118,54.816 22.037,54.779C21.663,54.604 21.284,54.433 20.902,54.267C20.825,54.234 20.751,54.197 20.674,54.164C20.498,54.089 20.321,54.015 20.144,53.942L20.144,44.378L20.207,44.386C21.742,45.023 23.175,45.725 24.491,46.489L24.491,55.941L23.74,55.589ZM-6.598,36.01C-5.74,35.982 -4.879,35.964 -4.012,35.964C-3.144,35.964 -2.282,35.982 -1.425,36.009C8.704,36.328 18.023,38.518 24.603,42.141C24.621,42.472 24.588,42.764 24.533,43.012L24.49,43.012L24.49,43.188C24.412,43.466 24.318,43.664 24.259,43.772C16.97,39.976 6.808,37.819 -4.011,37.82C-14.709,37.82 -24.762,39.932 -32.032,43.65C-32.187,43.382 -32.454,42.802 -32.438,42.041C-25.871,38.479 -16.631,36.326 -6.598,36.01M-28.234,36.974C-27.949,36.803 -27.697,36.638 -27.459,36.475C-27.189,36.318 -26.922,36.161 -26.644,36.011C-26.518,35.942 -26.386,35.879 -26.258,35.812L-26.227,35.828C-26.219,35.813 -26.21,35.799 -26.202,35.784C-20.261,32.694 -12.387,30.954 -4.012,30.954C4.363,30.953 12.237,32.692 18.18,35.782C18.187,35.797 18.196,35.811 18.204,35.826L18.235,35.81C18.363,35.877 18.495,35.94 18.621,36.008C18.929,36.174 19.225,36.347 19.521,36.521C19.741,36.668 19.976,36.818 20.232,36.971C21.099,37.49 21.836,38.024 22.453,38.567C20.161,37.571 17.652,36.712 14.967,36.008C9.238,34.507 2.739,33.695 -4.012,33.695C-10.762,33.696 -17.261,34.508 -22.989,36.01C-25.647,36.707 -28.133,37.556 -30.406,38.539C-29.806,38.008 -29.086,37.483 -28.234,36.974M-22.972,30.435L-22.735,30.107C-19.492,25.625 -15.693,22.387 -11.605,20.589C-15.684,23.104 -18.535,27.404 -20.08,31.504C-21.72,31.997 -23.287,32.567 -24.764,33.209C-24.187,32.242 -23.592,31.312 -22.972,30.435M-8.106,19.918C-10.885,21.838 -13.252,25.344 -15.077,30.281C-16.439,30.542 -17.764,30.857 -19.051,31.213C-17.187,26.668 -13.445,21.685 -8.106,19.918M-9.467,7.454C-8.052,6.757 -6.151,6.364 -4.122,6.364C-2.292,6.364 -0.569,6.686 0.79,7.26L0.795,7.269L1.107,7.429C1.529,7.647 1.968,7.911 2.331,8.161C2.232,8.164 2.125,8.166 2.008,8.166L1.766,8.166C0.176,7.39 -1.915,6.952 -4.122,6.952C-6.329,6.952 -8.419,7.39 -10.01,8.166L-10.325,8.166C-10.441,8.166 -10.549,8.165 -10.647,8.162C-10.297,7.921 -9.876,7.667 -9.467,7.454M-4.159,3.697C-2.503,3.751 -1.005,4.609 0.081,6.103C-1.177,5.722 -2.619,5.513 -4.122,5.513C-5.662,5.513 -7.141,5.731 -8.419,6.13C-7.332,4.618 -5.825,3.752 -4.159,3.697M-4.243,-1.287C-4.062,-1.287 -3.718,-0.873 -3.718,-0.224C-3.718,0.426 -4.062,0.84 -4.243,0.84C-4.423,0.84 -4.768,0.426 -4.768,-0.224C-4.768,-0.873 -4.423,-1.287 -4.243,-1.287M-0.779,19.906C4.593,21.638 8.36,26.522 10.247,30.999C8.91,30.654 7.529,30.361 6.117,30.115C4.27,25.198 1.96,21.782 -0.779,19.906M-1.293,15.73C-1.575,15.695 -2.422,15.62 -2.706,15.595L-2.706,8.725C-1.579,8.88 0.019,9.23 0.874,9.627L0.874,16.115C0.53,16.036 0.187,15.954 -0.158,15.892L-0.159,10.259C-0.159,9.946 -0.413,9.692 -0.726,9.692C-1.039,9.692 -1.293,9.946 -1.293,10.259L-1.293,15.73ZM-3.055,19.646C0.236,20.952 2.988,24.405 5.146,29.949C3.731,29.729 2.283,29.565 0.813,29.449C0.188,26.238 -0.962,22.389 -3.055,19.646M-0.067,29.381C-1.367,29.297 -2.683,29.252 -4.01,29.252L-4.01,19.803C-1.886,22.36 -0.712,26.167 -0.067,29.381M-5.069,10.26L-5.069,15.584C-5.307,15.596 -5.546,15.595 -5.782,15.615L-5.783,8.745C-5.246,8.685 -4.689,8.654 -4.122,8.654C-3.64,8.654 -3.168,8.68 -2.706,8.725L-2.706,15.595C-2.926,15.582 -3.146,15.573 -3.367,15.567L-3.368,10.259C-3.368,9.789 -3.749,9.408 -4.219,9.408C-4.688,9.408 -5.069,9.79 -5.069,10.26M-4.861,19.779L-4.86,29.265C-6.201,29.284 -7.528,29.345 -8.838,29.449C-8.199,26.236 -7.024,22.365 -4.861,19.779M-5.853,19.66C-7.962,22.433 -9.108,26.33 -9.724,29.52C-11.214,29.661 -12.675,29.862 -14.104,30.11C-12.481,25.888 -9.856,21.277 -5.853,19.66M-8.383,16.004C-8.652,16.06 -8.923,16.114 -9.19,16.179L-9.191,9.66C-8.384,9.275 -6.846,8.911 -5.783,8.745L-5.782,15.615C-6.082,15.648 -6.95,15.752 -7.248,15.798L-7.249,10.26C-7.249,9.946 -7.503,9.692 -7.815,9.692C-8.129,9.692 -8.383,9.946 -8.383,10.26L-8.383,16.004ZM14.244,29.486L16.121,32.184C16.332,32.517 16.536,32.864 16.741,33.207C15.032,32.464 13.198,31.824 11.276,31.282C9.549,26.831 5.978,21.832 0.804,19.593C5.748,20.939 10.368,24.355 14.244,29.486M30.612,84.944C30.312,84.79 30.001,84.644 29.694,84.494C29.677,84.486 29.659,84.477 29.641,84.468C29.101,84.204 28.552,83.946 27.991,83.696C27.974,83.688 27.957,83.679 27.939,83.672C27.867,83.639 26.659,83.116 26.587,83.084L27.721,69.02C29.003,70.262 29.98,71.59 30.611,72.979L30.612,84.944ZM24.336,66.366L27.721,69.02L26.587,83.084C26.222,82.932 24.71,82.35 24.337,82.204L24.336,66.366ZM23.42,81.884C22.767,81.656 22.101,81.438 21.429,81.226C21.343,81.199 21.26,81.169 21.174,81.142C20.953,81.073 19.596,80.671 19.374,80.604L20.508,64.282C21.895,64.926 23.179,65.621 24.336,66.366L24.337,82.204C24.124,82.126 23.906,82.052 23.688,81.978C23.599,81.947 23.51,81.915 23.42,81.884M17.123,62.889L18.869,63.565C19.039,63.635 20.34,64.211 20.508,64.282L19.374,80.604C19.007,80.5 17.497,80.106 17.124,80.007L17.123,62.889ZM16.163,79.785C15.24,79.569 14.306,79.368 13.358,79.182L13.326,79.177C13.06,79.124 11.663,78.871 11.394,78.821L12.527,61.486C14.136,61.898 15.673,62.366 17.123,62.889L17.124,80.007C16.814,79.93 16.498,79.863 16.186,79.79C16.179,79.788 16.171,79.787 16.163,79.785M9.143,60.727L10.515,61.011C10.809,61.074 12.237,61.418 12.527,61.486L11.394,78.821C11.023,78.758 9.517,78.523 9.144,78.464L9.143,60.727ZM4.277,77.896C4.266,77.895 4.254,77.894 4.242,77.893C3.758,77.851 3.268,77.821 2.78,77.786L2.779,59.817C4.98,60.024 7.106,60.332 9.143,60.727L9.144,78.464C8.652,78.393 8.158,78.329 7.662,78.266C7.655,78.265 7.647,78.264 7.641,78.264C6.529,78.123 5.41,77.996 4.277,77.896M-0.606,59.578L2.779,59.817L2.78,77.786C2.409,77.764 0.334,77.526 -0.605,77.602L-0.606,59.578ZM-4.01,77.534C-4.496,77.534 -4.979,77.546 -5.463,77.555C-5.545,77.557 -5.628,77.558 -5.711,77.559C-6.13,77.567 -6.551,77.57 -6.968,77.583L-6.969,59.562C-5.992,59.523 -5.008,59.498 -4.01,59.498C-2.861,59.498 -1.728,59.527 -0.606,59.578L-0.605,77.602C-1.171,77.582 -1.738,77.569 -2.308,77.559C-2.806,77.55 -3.304,77.54 -3.804,77.537C-3.873,77.537 -3.94,77.534 -4.01,77.534M31.369,88.663C33.753,90.256 35.932,92.235 37.045,93.707L-2.285,80.395C10.407,80.629 22.201,83.432 30.709,88.222L31.369,88.663ZM45.15,108.075L17.612,108.077C15.699,106.892 13.388,105.922 10.986,105.184L45.15,105.182L45.15,108.075ZM45.152,158.386L42.919,158.386L42.916,110.344L45.15,110.344L45.152,158.386ZM40,110.344L42.916,110.344L42.919,158.386L40.002,158.386L40,110.344ZM24.978,112.954C23.894,112.024 22.765,111.153 21.595,110.345L39.148,110.344L39.15,138.612C38.704,136.125 38.344,133.715 37.521,131.397L37.52,112.953L24.978,112.954ZM34.685,125.032C32.837,121.629 30.573,118.521 27.966,115.79L34.684,115.79L34.685,125.032ZM45.153,162.93L37.522,162.931L37.522,162.293C37.78,161.566 38.022,160.832 38.245,160.087L45.153,160.087L45.153,162.93ZM30.362,175.165C31.981,173.149 33.431,170.972 34.687,168.658L34.687,175.165L30.362,175.165ZM45.154,182.16L23.226,182.161C24.87,180.9 26.423,179.509 27.872,178.001L37.523,178.001L37.522,164.633L45.153,164.632L45.154,182.16ZM48.554,185.563L48.554,182.16L48.557,182.16L48.553,99.031L48.553,97.794L47.676,97.497L41.215,95.118C41.019,91.714 36.364,88.011 34.015,86.352L34.014,64.651L33.94,64.409C33.872,64.184 32.332,59.294 27.895,56.476L27.894,43.541C28.03,42.822 28.075,41.972 27.882,41.013C27.362,38.425 25.376,36.083 21.979,34.051C21.667,33.865 21.422,33.704 21.23,33.569L18.934,30.268C18.315,29.299 17.671,28.382 17.009,27.501L15.684,25.831C11.991,21.432 7.725,18.334 3.143,16.755L3.143,10.385C4.057,10.282 5.085,9.961 5.324,8.97C5.424,8.561 5.717,7.341 2.479,5.588C1.297,3.659 -0.252,2.323 -1.985,1.746C-1.65,1.196 -1.449,0.521 -1.449,-0.224C-1.449,-2.092 -2.677,-3.556 -4.243,-3.556C-5.81,-3.556 -7.036,-2.092 -7.036,-0.224C-7.036,0.548 -6.819,1.241 -6.463,1.8C-8.144,2.4 -9.645,3.709 -10.796,5.589C-14.034,7.342 -13.74,8.562 -13.642,8.971C-13.401,9.962 -12.374,10.282 -11.46,10.386L-11.459,16.861C-15.92,18.466 -20.075,21.514 -23.683,25.804L-25.395,27.976L-25.634,28.31L-29.593,33.812C-29.707,33.886 -29.837,33.967 -29.981,34.053C-33.346,36.066 -35.283,38.389 -35.741,40.959C-35.877,41.717 -35.862,42.405 -35.773,43.02L-35.772,56.242C-40.307,59.048 -41.871,64.029 -41.939,64.256L-42.013,64.497L-42.012,86.356C-44.457,88.083 -49.671,92.023 -49.484,95.537L-56.66,97.502L-56.656,182.165L-56.656,185.568L-26.823,185.567C-24.486,186.832 -22.02,187.859 -19.448,188.619C-10.98,190.167 -4.526,190.688 0.241,190.349C3.893,190.052 7.433,189.59 10.633,188.618C13.197,187.858 15.658,186.831 17.991,185.565L48.554,185.563Z" style="fill:rgb(15,102,159);fill-rule:nonzero;"/>
            </g>
        </g>
    </g>
</svg>
