<?xml version="1.0" encoding="UTF-8" standalone="no"?>
<!DOCTYPE svg PUBLIC "-//W3C//DTD SVG 1.1//EN" "http://www.w3.org/Graphics/SVG/1.1/DTD/svg11.dtd">
<svg width="100%" height="100%" viewBox="0 0 299 16" version="1.1" xmlns="http://www.w3.org/2000/svg" xmlns:xlink="http://www.w3.org/1999/xlink" xml:space="preserve" xmlns:serif="http://www.serif.com/" style="fill-rule:evenodd;clip-rule:evenodd;stroke-linejoin:round;stroke-miterlimit:2;">
    <g transform="matrix(0.667842,0,0,0.140926,-84.2666,-12.8747)">
        <path d="M132.628,203.257C131.459,203.257 130.381,201.834 129.394,198.988C128.419,196.143 127.639,192.344 127.054,187.593C126.47,182.841 126.177,177.62 126.177,171.928L126.177,164.763C126.177,164.204 126.231,163.925 126.338,163.925L130.038,163.925C130.124,163.925 130.167,164.204 130.167,164.763L130.167,171.928C130.167,175.333 130.408,178.268 130.89,180.732C131.373,183.197 131.952,184.429 132.628,184.429C133.314,184.429 133.898,183.172 134.381,180.656C134.863,178.141 135.105,175.231 135.105,171.928C135.105,168.117 134.579,164.788 133.528,161.943C133.357,161.435 133.134,160.812 132.861,160.075C132.587,159.338 132.263,158.487 131.888,157.522C131.512,156.556 131.148,155.603 130.794,154.663C130.44,153.723 130.097,152.821 129.764,151.957C128.563,148.603 127.671,144.398 127.086,139.342C126.502,134.285 126.21,128.607 126.21,122.305C126.21,116.512 126.51,111.278 127.11,106.603C127.711,101.978 128.496,98.307 129.467,95.588C130.437,92.87 131.491,91.51 132.628,91.51C133.796,91.51 134.869,92.882 135.844,95.626C136.82,98.421 137.6,102.131 138.185,106.755C138.769,111.38 139.061,116.563 139.061,122.305L139.061,135.111C139.061,135.518 139.019,135.721 138.933,135.721L135.233,135.721C135.147,135.721 135.105,135.518 135.105,135.111L135.072,122.305C135.072,118.646 134.831,115.674 134.349,113.387C133.866,111.1 133.292,109.957 132.628,109.957C131.952,109.957 131.373,111.176 130.89,113.616C130.408,116.055 130.167,118.951 130.167,122.305C130.167,125.71 130.319,128.556 130.625,130.843C130.931,133.129 131.491,135.315 132.306,137.398C132.392,137.601 132.59,138.109 132.901,138.923C133.212,139.736 133.558,140.638 133.938,141.629C134.319,142.619 134.665,143.509 134.976,144.296C135.287,145.084 135.475,145.554 135.539,145.707C136.633,148.603 137.499,152.16 138.137,156.378C138.775,160.596 139.094,165.779 139.094,171.928C139.094,177.874 138.804,183.21 138.225,187.936C137.635,192.662 136.852,196.397 135.877,199.141C134.901,201.885 133.818,203.257 132.628,203.257Z" style="fill:rgb(5,77,121);fill-rule:nonzero;"/>
        <path d="M147.747,201.732L144.032,201.732C143.935,201.732 143.887,201.478 143.887,200.97L143.887,111.939L139.608,111.939C139.501,111.939 139.448,111.685 139.448,111.176L139.48,93.721C139.48,93.314 139.523,93.111 139.608,93.111L152.122,93.111C152.24,93.111 152.299,93.314 152.299,93.721L152.299,111.176C152.299,111.685 152.256,111.939 152.171,111.939L147.844,111.939L147.876,200.97C147.876,201.478 147.833,201.732 147.747,201.732Z" style="fill:rgb(5,77,121);fill-rule:nonzero;"/>
        <path d="M150.803,200.97L154.889,93.721C154.91,93.314 154.964,93.111 155.05,93.111L159.827,93.111C159.913,93.111 159.967,93.314 159.988,93.721L163.913,200.97C163.923,201.478 163.881,201.732 163.784,201.732L160.133,201.732C160.026,201.732 159.967,201.478 159.956,200.97L159.602,189.536L155.114,189.536L154.76,200.97C154.75,201.478 154.696,201.732 154.6,201.732L150.932,201.732C150.846,201.732 150.803,201.478 150.803,200.97ZM157.591,129.013L157.398,123.22L157.254,129.013L155.774,172.843L158.942,172.843L157.591,129.013Z" style="fill:rgb(5,77,121);fill-rule:nonzero;"/>
        <path d="M171.022,201.732L167.307,201.732C167.21,201.732 167.162,201.478 167.162,200.97L167.162,111.939L162.883,111.939C162.776,111.939 162.722,111.685 162.722,111.176L162.755,93.721C162.755,93.314 162.797,93.111 162.883,93.111L175.397,93.111C175.515,93.111 175.574,93.314 175.574,93.721L175.574,111.176C175.574,111.685 175.531,111.939 175.446,111.939L171.119,111.939L171.151,200.97C171.151,201.478 171.108,201.732 171.022,201.732Z" style="fill:rgb(5,77,121);fill-rule:nonzero;"/>
        <path d="M187.944,201.732L177.295,201.732C177.21,201.732 177.167,201.478 177.167,200.97L177.199,93.721C177.199,93.314 177.242,93.111 177.328,93.111L187.911,93.111C187.997,93.111 188.04,93.365 188.04,93.873L188.04,111.329C188.04,111.735 187.997,111.939 187.911,111.939L181.156,111.939L181.156,136.331L187.911,136.331C187.997,136.331 188.04,136.534 188.04,136.941L188.072,154.625C188.072,155.032 188.029,155.235 187.944,155.235L181.156,155.235L181.156,182.524L187.944,182.524C188.029,182.524 188.072,182.778 188.072,183.286L188.072,201.123C188.072,201.529 188.029,201.732 187.944,201.732Z" style="fill:rgb(5,77,121);fill-rule:nonzero;"/>
        <path d="M203.417,201.732L199.718,201.732C199.611,201.732 199.557,201.478 199.557,200.97L199.621,93.721C199.621,93.314 199.664,93.111 199.75,93.111L210.302,93.111C210.409,93.111 210.462,93.314 210.462,93.721L210.462,111.329C210.462,111.735 210.42,111.939 210.334,111.939L203.578,111.939L203.578,136.178L210.334,136.178C210.42,136.178 210.462,136.432 210.462,136.941L210.495,154.625C210.495,155.032 210.441,155.235 210.334,155.235L203.578,155.235L203.578,200.97C203.578,201.478 203.525,201.732 203.417,201.732Z" style="fill:rgb(5,77,121);fill-rule:nonzero;"/>
        <path d="M217.315,201.732L213.583,201.732C213.476,201.732 213.422,201.478 213.422,200.97L213.454,93.721C213.454,93.314 213.497,93.111 213.583,93.111L217.282,93.111C217.368,93.111 217.411,93.314 217.411,93.721L217.443,200.97C217.443,201.478 217.4,201.732 217.315,201.732Z" style="fill:rgb(5,77,121);fill-rule:nonzero;"/>
        <path d="M223.926,201.732L220.628,201.732C220.457,201.732 220.371,201.377 220.371,200.665L220.339,94.33C220.339,93.517 220.424,93.111 220.596,93.111L223.572,93.111L229.137,154.625L228.976,94.33C228.976,93.517 229.073,93.111 229.266,93.111L232.531,93.111C232.66,93.111 232.724,93.517 232.724,94.33L232.756,200.818C232.756,201.428 232.703,201.732 232.595,201.732L229.7,201.732L223.99,144.258L224.231,200.513C224.231,201.326 224.129,201.732 223.926,201.732Z" style="fill:rgb(5,77,121);fill-rule:nonzero;"/>
        <path d="M234.509,200.97L238.595,93.721C238.616,93.314 238.67,93.111 238.756,93.111L243.533,93.111C243.619,93.111 243.672,93.314 243.694,93.721L247.619,200.97C247.629,201.478 247.586,201.732 247.49,201.732L243.839,201.732C243.731,201.732 243.672,201.478 243.662,200.97L243.308,189.536L238.82,189.536L238.466,200.97C238.456,201.478 238.402,201.732 238.305,201.732L234.638,201.732C234.552,201.732 234.509,201.478 234.509,200.97ZM241.297,129.013L241.104,123.22L240.959,129.013L239.48,172.843L242.648,172.843L241.297,129.013Z" style="fill:rgb(5,77,121);fill-rule:nonzero;"/>
        <path d="M253.264,201.732L249.967,201.732C249.795,201.732 249.71,201.377 249.71,200.665L249.678,94.33C249.678,93.517 249.763,93.111 249.935,93.111L252.911,93.111L258.476,154.625L258.315,94.33C258.315,93.517 258.412,93.111 258.605,93.111L261.87,93.111C261.999,93.111 262.063,93.517 262.063,94.33L262.095,200.818C262.095,201.428 262.041,201.732 261.934,201.732L259.039,201.732L253.329,144.258L253.57,200.513C253.57,201.326 253.468,201.732 253.264,201.732Z" style="fill:rgb(5,77,121);fill-rule:nonzero;"/>
        <path d="M271.022,203.257C269.832,203.257 268.744,201.834 267.757,198.988C266.781,196.143 266.006,192.319 265.433,187.516C264.859,182.714 264.572,177.366 264.572,171.471L264.604,122.763C264.604,116.97 264.883,111.735 265.441,107.06C265.998,102.334 266.768,98.536 267.749,95.664C268.73,92.793 269.821,91.358 271.022,91.358C272.245,91.358 273.333,92.755 274.287,95.55C275.253,98.345 276.022,102.118 276.596,106.87C277.169,111.621 277.456,116.919 277.456,122.763L277.456,129.928C277.456,130.334 277.413,130.538 277.328,130.538L273.628,130.538C273.542,130.538 273.499,130.334 273.499,129.928L273.499,122.763C273.499,119.307 273.263,116.334 272.792,113.844C272.32,111.354 271.73,110.109 271.022,110.109C270.239,110.109 269.639,111.38 269.221,113.92C268.803,116.461 268.593,119.409 268.593,122.763L268.593,171.471C268.593,175.282 268.829,178.395 269.301,180.809C269.773,183.222 270.347,184.429 271.022,184.429C271.73,184.429 272.32,183.095 272.792,180.427C273.263,177.759 273.499,174.774 273.499,171.471L273.499,164.229C273.499,163.823 273.542,163.62 273.628,163.62L277.36,163.62C277.445,163.62 277.488,163.823 277.488,164.229L277.488,171.471C277.488,177.315 277.199,182.651 276.62,187.478C276.03,192.255 275.253,196.079 274.287,198.95C273.322,201.821 272.234,203.257 271.022,203.257Z" style="fill:rgb(5,77,121);fill-rule:nonzero;"/>
        <path d="M283.761,201.732L280.03,201.732C279.923,201.732 279.869,201.478 279.869,200.97L279.901,93.721C279.901,93.314 279.944,93.111 280.03,93.111L283.729,93.111C283.815,93.111 283.858,93.314 283.858,93.721L283.89,200.97C283.89,201.478 283.847,201.732 283.761,201.732Z" style="fill:rgb(5,77,121);fill-rule:nonzero;"/>
        <path d="M285.676,200.97L289.761,93.721C289.783,93.314 289.836,93.111 289.922,93.111L294.699,93.111C294.785,93.111 294.839,93.314 294.86,93.721L298.785,200.97C298.796,201.478 298.753,201.732 298.656,201.732L295.005,201.732C294.898,201.732 294.839,201.478 294.828,200.97L294.474,189.536L289.986,189.536L289.632,200.97C289.622,201.478 289.568,201.732 289.472,201.732L285.804,201.732C285.718,201.732 285.676,201.478 285.676,200.97ZM292.463,129.013L292.27,123.22L292.126,129.013L290.646,172.843L293.815,172.843L292.463,129.013Z" style="fill:rgb(5,77,121);fill-rule:nonzero;"/>
        <path d="M311.621,201.732L300.972,201.732C300.887,201.732 300.844,201.478 300.844,200.97L300.876,93.873C300.876,93.365 300.929,93.111 301.037,93.111L304.704,93.111C304.811,93.111 304.865,93.365 304.865,93.873L304.833,182.524L311.621,182.524C311.728,182.524 311.781,182.778 311.781,183.286L311.781,200.97C311.781,201.478 311.728,201.732 311.621,201.732Z" style="fill:rgb(5,77,121);fill-rule:nonzero;"/>
        <path d="M328.574,203.257C327.405,203.257 326.328,201.834 325.341,198.988C324.365,196.143 323.58,192.344 322.985,187.593C322.389,182.841 322.092,177.62 322.092,171.928L322.124,122.458C322.124,116.665 322.419,111.456 323.009,106.832C323.588,102.156 324.371,98.409 325.357,95.588C326.344,92.768 327.416,91.358 328.574,91.358C329.775,91.358 330.853,92.755 331.807,95.55C332.772,98.345 333.547,102.093 334.131,106.793C334.716,111.494 335.008,116.715 335.008,122.458L335.04,171.928C335.04,177.62 334.751,182.829 334.172,187.554C333.582,192.331 332.799,196.143 331.823,198.988C330.847,201.834 329.764,203.257 328.574,203.257ZM328.574,184.429C329.239,184.429 329.818,183.146 330.311,180.58C330.805,178.014 331.051,175.13 331.051,171.928L331.019,122.458C331.019,119.002 330.788,116.08 330.327,113.692C329.866,111.303 329.282,110.109 328.574,110.109C327.899,110.109 327.319,111.278 326.837,113.616C326.354,115.953 326.113,118.901 326.113,122.458L326.113,171.928C326.113,175.333 326.354,178.268 326.837,180.732C327.319,183.197 327.899,184.429 328.574,184.429Z" style="fill:rgb(5,77,121);fill-rule:nonzero;"/>
        <path d="M341.378,201.732L337.678,201.732C337.571,201.732 337.517,201.478 337.517,200.97L337.582,93.721C337.582,93.314 337.625,93.111 337.71,93.111L348.262,93.111C348.369,93.111 348.423,93.314 348.423,93.721L348.423,111.329C348.423,111.735 348.38,111.939 348.294,111.939L341.539,111.939L341.539,136.178L348.294,136.178C348.38,136.178 348.423,136.432 348.423,136.941L348.455,154.625C348.455,155.032 348.401,155.235 348.294,155.235L341.539,155.235L341.539,200.97C341.539,201.478 341.485,201.732 341.378,201.732Z" style="fill:rgb(5,77,121);fill-rule:nonzero;"/>
        <path d="M355.243,201.732L351.543,201.732C351.436,201.732 351.383,201.478 351.383,200.97L351.447,93.721C351.447,93.314 351.49,93.111 351.576,93.111L362.127,93.111C362.234,93.111 362.288,93.314 362.288,93.721L362.288,111.329C362.288,111.735 362.245,111.939 362.159,111.939L355.404,111.939L355.404,136.178L362.159,136.178C362.245,136.178 362.288,136.432 362.288,136.941L362.32,154.625C362.32,155.032 362.267,155.235 362.159,155.235L355.404,155.235L355.404,200.97C355.404,201.478 355.35,201.732 355.243,201.732Z" style="fill:rgb(5,77,121);fill-rule:nonzero;"/>
        <path d="M369.14,201.732L365.409,201.732C365.301,201.732 365.248,201.478 365.248,200.97L365.28,93.721C365.28,93.314 365.323,93.111 365.409,93.111L369.108,93.111C369.194,93.111 369.237,93.314 369.237,93.721L369.269,200.97C369.269,201.478 369.226,201.732 369.14,201.732Z" style="fill:rgb(5,77,121);fill-rule:nonzero;"/>
        <path d="M378.228,203.257C377.038,203.257 375.95,201.834 374.963,198.988C373.987,196.143 373.212,192.319 372.639,187.516C372.065,182.714 371.778,177.366 371.778,171.471L371.81,122.763C371.81,116.97 372.089,111.735 372.647,107.06C373.204,102.334 373.974,98.536 374.955,95.664C375.936,92.793 377.027,91.358 378.228,91.358C379.451,91.358 380.539,92.755 381.494,95.55C382.459,98.345 383.228,102.118 383.802,106.87C384.375,111.621 384.662,116.919 384.662,122.763L384.662,129.928C384.662,130.334 384.619,130.538 384.534,130.538L380.834,130.538C380.748,130.538 380.705,130.334 380.705,129.928L380.705,122.763C380.705,119.307 380.469,116.334 379.998,113.844C379.526,111.354 378.936,110.109 378.228,110.109C377.445,110.109 376.845,111.38 376.427,113.92C376.009,116.461 375.799,119.409 375.799,122.763L375.799,171.471C375.799,175.282 376.035,178.395 376.507,180.809C376.979,183.222 377.553,184.429 378.228,184.429C378.936,184.429 379.526,183.095 379.998,180.427C380.469,177.759 380.705,174.774 380.705,171.471L380.705,164.229C380.705,163.823 380.748,163.62 380.834,163.62L384.566,163.62C384.652,163.62 384.694,163.823 384.694,164.229L384.694,171.471C384.694,177.315 384.405,182.651 383.826,187.478C383.236,192.255 382.459,196.079 381.494,198.95C380.528,201.821 379.44,203.257 378.228,203.257Z" style="fill:rgb(5,77,121);fill-rule:nonzero;"/>
        <path d="M397.852,201.732L387.204,201.732C387.118,201.732 387.075,201.478 387.075,200.97L387.107,93.721C387.107,93.314 387.15,93.111 387.236,93.111L397.82,93.111C397.905,93.111 397.948,93.365 397.948,93.873L397.948,111.329C397.948,111.735 397.905,111.939 397.82,111.939L391.064,111.939L391.064,136.331L397.82,136.331C397.905,136.331 397.948,136.534 397.948,136.941L397.981,154.625C397.981,155.032 397.938,155.235 397.852,155.235L391.064,155.235L391.064,182.524L397.852,182.524C397.938,182.524 397.981,182.778 397.981,183.286L397.981,201.123C397.981,201.529 397.938,201.732 397.852,201.732Z" style="fill:rgb(5,77,121);fill-rule:nonzero;"/>
        <path d="M404.768,201.732L401.037,201.732C400.951,201.732 400.908,201.478 400.908,200.97L400.972,93.721C400.972,93.314 401.015,93.111 401.101,93.111L407.76,93.111C408.95,93.111 410.044,94.483 411.042,97.227C412.039,99.971 412.835,103.655 413.43,108.28C414.025,112.904 414.323,118.138 414.323,123.982C414.323,127.794 414.2,131.249 413.953,134.349C413.706,137.449 413.419,140.066 413.092,142.2C412.765,144.335 412.468,145.91 412.2,146.926C413.39,153.177 413.985,160.52 413.985,168.955L414.017,200.97C414.017,201.478 413.964,201.732 413.856,201.732L410.125,201.732C410.039,201.732 409.996,201.58 409.996,201.275L409.996,168.955C409.996,165.195 409.717,161.943 409.16,159.199C408.602,156.454 407.916,155.082 407.101,155.082L404.929,155.082L404.897,200.97C404.897,201.478 404.854,201.732 404.768,201.732ZM407.76,111.786L404.929,111.786L404.929,136.331L407.76,136.331C408.436,136.331 409.039,135.137 409.57,132.748C410.101,130.36 410.366,127.438 410.366,123.982C410.366,120.679 410.109,117.821 409.594,115.407C409.079,112.993 408.468,111.786 407.76,111.786Z" style="fill:rgb(5,77,121);fill-rule:nonzero;"/>
        <path d="M422.381,203.257C421.213,203.257 420.135,201.834 419.148,198.988C418.173,196.143 417.392,192.344 416.808,187.593C416.224,182.841 415.931,177.62 415.931,171.928L415.931,164.763C415.931,164.204 415.985,163.925 416.092,163.925L419.792,163.925C419.878,163.925 419.92,164.204 419.92,164.763L419.92,171.928C419.92,175.333 420.162,178.268 420.644,180.732C421.127,183.197 421.706,184.429 422.381,184.429C423.068,184.429 423.652,183.172 424.135,180.656C424.617,178.141 424.858,175.231 424.858,171.928C424.858,168.117 424.333,164.788 423.282,161.943C423.111,161.435 422.888,160.812 422.615,160.075C422.341,159.338 422.017,158.487 421.641,157.522C421.266,156.556 420.902,155.603 420.548,154.663C420.194,153.723 419.851,152.821 419.518,151.957C418.317,148.603 417.425,144.398 416.84,139.342C416.256,134.285 415.964,128.607 415.964,122.305C415.964,116.512 416.264,111.278 416.864,106.603C417.465,101.978 418.25,98.307 419.221,95.588C420.191,92.87 421.245,91.51 422.381,91.51C423.55,91.51 424.623,92.882 425.598,95.626C426.574,98.421 427.354,102.131 427.939,106.755C428.523,111.38 428.815,116.563 428.815,122.305L428.815,135.111C428.815,135.518 428.772,135.721 428.687,135.721L424.987,135.721C424.901,135.721 424.858,135.518 424.858,135.111L424.826,122.305C424.826,118.646 424.585,115.674 424.102,113.387C423.62,111.1 423.046,109.957 422.381,109.957C421.706,109.957 421.127,111.176 420.644,113.616C420.162,116.055 419.92,118.951 419.92,122.305C419.92,125.71 420.073,128.556 420.379,130.843C420.684,133.129 421.245,135.315 422.06,137.398C422.145,137.601 422.344,138.109 422.655,138.923C422.966,139.736 423.312,140.638 423.692,141.629C424.073,142.619 424.419,143.509 424.73,144.296C425.041,145.084 425.228,145.554 425.293,145.707C426.387,148.603 427.252,152.16 427.89,156.378C428.529,160.596 428.848,165.779 428.848,171.928C428.848,177.874 428.558,183.21 427.979,187.936C427.389,192.662 426.606,196.397 425.631,199.141C424.655,201.885 423.572,203.257 422.381,203.257Z" style="fill:rgb(5,77,121);fill-rule:nonzero;"/>
        <path d="M443.549,201.732L439.85,201.732C439.742,201.732 439.689,201.478 439.689,200.97L439.753,93.721C439.753,93.314 439.796,93.111 439.882,93.111L450.434,93.111C450.541,93.111 450.594,93.314 450.594,93.721L450.594,111.329C450.594,111.735 450.551,111.939 450.466,111.939L443.71,111.939L443.71,136.178L450.466,136.178C450.551,136.178 450.594,136.432 450.594,136.941L450.627,154.625C450.627,155.032 450.573,155.235 450.466,155.235L443.71,155.235L443.71,200.97C443.71,201.478 443.656,201.732 443.549,201.732Z" style="fill:rgb(5,77,121);fill-rule:nonzero;"/>
        <path d="M459.65,203.257C458.481,203.257 457.404,201.834 456.417,198.988C455.441,196.143 454.656,192.344 454.061,187.593C453.466,182.841 453.168,177.62 453.168,171.928L453.2,122.458C453.2,116.665 453.495,111.456 454.085,106.832C454.664,102.156 455.447,98.409 456.433,95.588C457.42,92.768 458.492,91.358 459.65,91.358C460.851,91.358 461.929,92.755 462.883,95.55C463.848,98.345 464.623,102.093 465.208,106.793C465.792,111.494 466.084,116.715 466.084,122.458L466.116,171.928C466.116,177.62 465.827,182.829 465.248,187.554C464.658,192.331 463.875,196.143 462.899,198.988C461.924,201.834 460.84,203.257 459.65,203.257ZM459.65,184.429C460.315,184.429 460.894,183.146 461.387,180.58C461.881,178.014 462.127,175.13 462.127,171.928L462.095,122.458C462.095,119.002 461.865,116.08 461.403,113.692C460.942,111.303 460.358,110.109 459.65,110.109C458.975,110.109 458.396,111.278 457.913,113.616C457.43,115.953 457.189,118.901 457.189,122.458L457.189,171.928C457.189,175.333 457.43,178.268 457.913,180.732C458.396,183.197 458.975,184.429 459.65,184.429Z" style="fill:rgb(5,77,121);fill-rule:nonzero;"/>
        <path d="M474.657,203.257C473.499,203.257 472.427,201.834 471.44,198.988C470.454,196.143 469.668,192.319 469.084,187.516C468.5,182.714 468.207,177.467 468.207,171.776L468.272,93.721C468.272,93.314 468.315,93.111 468.4,93.111L472.1,93.111C472.186,93.111 472.229,93.314 472.229,93.721L472.229,171.776C472.229,175.282 472.465,178.268 472.936,180.732C473.408,183.197 473.982,184.429 474.657,184.429C475.365,184.429 475.955,183.197 476.427,180.732C476.899,178.268 477.134,175.282 477.134,171.776L477.134,93.721C477.134,93.314 477.177,93.111 477.263,93.111L480.963,93.111C481.048,93.111 481.091,93.314 481.091,93.721L481.156,171.776C481.156,177.518 480.866,182.803 480.287,187.631C479.697,192.408 478.915,196.206 477.939,199.026C476.963,201.847 475.869,203.257 474.657,203.257Z" style="fill:rgb(5,77,121);fill-rule:nonzero;"/>
        <path d="M487.332,201.732L484.035,201.732C483.863,201.732 483.778,201.377 483.778,200.665L483.745,94.33C483.745,93.517 483.831,93.111 484.003,93.111L486.978,93.111L492.544,154.625L492.383,94.33C492.383,93.517 492.48,93.111 492.673,93.111L495.938,93.111C496.066,93.111 496.131,93.517 496.131,94.33L496.163,200.818C496.163,201.428 496.109,201.732 496.002,201.732L493.107,201.732L487.397,144.258L487.638,200.513C487.638,201.326 487.536,201.732 487.332,201.732Z" style="fill:rgb(5,77,121);fill-rule:nonzero;"/>
        <path d="M505.09,201.58L499.187,201.732C499.08,201.732 499.026,201.478 499.026,200.97L499.09,93.721C499.09,93.314 499.133,93.111 499.219,93.111L505.38,92.958C506.602,92.806 507.707,94.127 508.693,96.922C509.69,99.717 510.487,103.49 511.082,108.242C511.677,112.993 511.974,118.24 511.974,123.982L511.974,168.803C511.974,174.799 511.669,180.288 511.058,185.268C510.436,190.197 509.61,194.123 508.581,197.045C507.551,199.967 506.388,201.478 505.09,201.58ZM505.38,111.634L503.079,111.786L503.047,182.524L505.09,182.524C505.905,182.524 506.591,181.177 507.149,178.484C507.707,175.79 507.985,172.563 507.985,168.803L507.985,123.83C507.985,120.527 507.728,117.643 507.213,115.178C506.699,112.714 506.087,111.532 505.38,111.634Z" style="fill:rgb(5,77,121);fill-rule:nonzero;"/>
        <path d="M512.795,200.97L516.88,93.721C516.902,93.314 516.955,93.111 517.041,93.111L521.818,93.111C521.904,93.111 521.958,93.314 521.979,93.721L525.904,200.97C525.915,201.478 525.872,201.732 525.775,201.732L522.124,201.732C522.017,201.732 521.958,201.478 521.947,200.97L521.593,189.536L517.106,189.536L516.752,200.97C516.741,201.478 516.687,201.732 516.591,201.732L512.923,201.732C512.838,201.732 512.795,201.478 512.795,200.97ZM519.583,129.013L519.39,123.22L519.245,129.013L517.765,172.843L520.934,172.843L519.583,129.013Z" style="fill:rgb(5,77,121);fill-rule:nonzero;"/>
        <path d="M533.014,201.732L529.298,201.732C529.201,201.732 529.153,201.478 529.153,200.97L529.153,111.939L524.875,111.939C524.767,111.939 524.714,111.685 524.714,111.176L524.746,93.721C524.746,93.314 524.789,93.111 524.875,93.111L537.389,93.111C537.507,93.111 537.566,93.314 537.566,93.721L537.566,111.176C537.566,111.685 537.523,111.939 537.437,111.939L533.11,111.939L533.142,200.97C533.142,201.478 533.099,201.732 533.014,201.732Z" style="fill:rgb(5,77,121);fill-rule:nonzero;"/>
        <path d="M543.051,201.732L539.319,201.732C539.212,201.732 539.158,201.478 539.158,200.97L539.19,93.721C539.19,93.314 539.233,93.111 539.319,93.111L543.018,93.111C543.104,93.111 543.147,93.314 543.147,93.721L543.179,200.97C543.179,201.478 543.136,201.732 543.051,201.732Z" style="fill:rgb(5,77,121);fill-rule:nonzero;"/>
        <path d="M552.171,203.257C551.002,203.257 549.924,201.834 548.938,198.988C547.962,196.143 547.176,192.344 546.581,187.593C545.986,182.841 545.688,177.62 545.688,171.928L545.721,122.458C545.721,116.665 546.016,111.456 546.605,106.832C547.184,102.156 547.967,98.409 548.954,95.588C549.94,92.768 551.013,91.358 552.171,91.358C553.372,91.358 554.449,92.755 555.404,95.55C556.369,98.345 557.144,102.093 557.728,106.793C558.312,111.494 558.605,116.715 558.605,122.458L558.637,171.928C558.637,177.62 558.347,182.829 557.768,187.554C557.178,192.331 556.396,196.143 555.42,198.988C554.444,201.834 553.361,203.257 552.171,203.257ZM552.171,184.429C552.836,184.429 553.415,183.146 553.908,180.58C554.401,178.014 554.648,175.13 554.648,171.928L554.616,122.458C554.616,119.002 554.385,116.08 553.924,113.692C553.463,111.303 552.878,110.109 552.171,110.109C551.495,110.109 550.916,111.278 550.434,113.616C549.951,115.953 549.71,118.901 549.71,122.458L549.71,171.928C549.71,175.333 549.951,178.268 550.434,180.732C550.916,183.197 551.495,184.429 552.171,184.429Z" style="fill:rgb(5,77,121);fill-rule:nonzero;"/>
        <path d="M564.701,201.732L561.403,201.732C561.232,201.732 561.146,201.377 561.146,200.665L561.114,94.33C561.114,93.517 561.2,93.111 561.371,93.111L564.347,93.111L569.912,154.625L569.752,94.33C569.752,93.517 569.848,93.111 570.041,93.111L573.306,93.111C573.435,93.111 573.499,93.517 573.499,94.33L573.531,200.818C573.531,201.428 573.478,201.732 573.371,201.732L570.475,201.732L564.765,144.258L565.006,200.513C565.006,201.326 564.905,201.732 564.701,201.732Z" style="fill:rgb(5,77,121);fill-rule:nonzero;"/>
    </g>
</svg>
