<?xml version="1.0" encoding="UTF-8" standalone="no"?>
<!DOCTYPE svg PUBLIC "-//W3C//DTD SVG 1.1//EN" "http://www.w3.org/Graphics/SVG/1.1/DTD/svg11.dtd">
<svg width="100%" height="100%" viewBox="0 0 271 270" version="1.1" xmlns="http://www.w3.org/2000/svg" xmlns:xlink="http://www.w3.org/1999/xlink" xml:space="preserve" xmlns:serif="http://www.serif.com/" style="fill-rule:evenodd;clip-rule:evenodd;stroke-linejoin:round;stroke-miterlimit:2;">
    <g id="WY" transform="matrix(1.03987,0,0,1.03987,-0.0350124,-0.94938)">
        <g id="Wyoming" transform="matrix(2.07161,0,0,2.04774,-476.761,-220.452)">
            <path d="M355.252,137.414L344.703,136.607L312.615,133.312L296.382,131.254L268.033,127.139L248.143,124.167L246.724,135.343L242.885,159.603L237.626,190.01L236.095,200.526L234.426,212.415L240.949,213.343L266.829,215.843L287.398,218.15L324.182,222.266L348.003,225.126L352.507,180.933L353.947,155.556L355.252,137.414Z" style="fill:rgb(46,98,126);fill-opacity:0.15;fill-rule:nonzero;"/>
        </g>
        <g id="Wyoming1" serif:id="Wyoming" transform="matrix(2.07161,0,0,2.04774,-484.761,-230.452)">
            <path d="M355.252,137.414L344.703,136.607L312.615,133.312L296.382,131.254L268.033,127.139L248.143,124.167L246.724,135.343L242.885,159.603L237.626,190.01L236.095,200.526L234.426,212.415L240.949,213.343L266.829,215.843L287.398,218.15L324.182,222.266L348.003,225.126L352.507,180.933L353.947,155.556L355.252,137.414Z" style="fill:rgb(0,156,244);fill-rule:nonzero;"/>
        </g>
    </g>
</svg>
