<?xml version="1.0" encoding="UTF-8" standalone="no"?>
<!DOCTYPE svg PUBLIC "-//W3C//DTD SVG 1.1//EN" "http://www.w3.org/Graphics/SVG/1.1/DTD/svg11.dtd">
<svg width="100%" height="100%" viewBox="0 0 33 33" version="1.1" xmlns="http://www.w3.org/2000/svg" xmlns:xlink="http://www.w3.org/1999/xlink" xml:space="preserve" xmlns:serif="http://www.serif.com/" style="fill-rule:evenodd;clip-rule:evenodd;stroke-linejoin:round;stroke-miterlimit:2;">
    <g id="YouTube" transform="matrix(0.0326157,0,0,0.0326157,80.9448,-557.52)">
        <g transform="matrix(1,0,0,1,-2476.45,17098.9)">
            <g>
                <path d="M410.7,607.4C484.2,569.3 557.1,531.5 630.7,493.3C556.9,454.8 484.1,416.8 410.7,378.5L410.7,607.4Z" style="fill:white;fill-rule:nonzero;"/>
            </g>
        </g>
        <g transform="matrix(1,0,0,1,-2476.45,17098.9)">
            <path d="M500,10C229.4,10 10,229.4 10,500C10,770.6 229.4,990 500,990C770.6,990 990,770.6 990,500C990,229.4 770.6,10 500,10ZM833.9,663.6C825.4,700.4 795.3,727.5 759.1,731.6C673.3,741.2 586.5,741.3 500,741.2C413.5,741.3 326.7,741.2 240.9,731.6C204.7,727.6 174.6,700.4 166.1,663.6C154,611.1 154,553.9 154,500C154,446.1 154.1,388.8 166.2,336.4C174.7,299.6 204.7,272.5 241,268.4C326.8,258.8 413.7,258.8 500.1,258.8C586.5,258.7 673.4,258.8 759.2,268.4C795.4,272.5 825.5,299.6 834,336.4C846.1,388.8 846,446 846,500C846,554 845.9,611.2 833.9,663.6Z" style="fill:none;fill-rule:nonzero;stroke:white;stroke-width:30.66px;"/>
        </g>
    </g>
</svg>
