<?xml version="1.0" encoding="UTF-8" standalone="no"?>
<!DOCTYPE svg PUBLIC "-//W3C//DTD SVG 1.1//EN" "http://www.w3.org/Graphics/SVG/1.1/DTD/svg11.dtd">
<svg width="100%" height="100%" viewBox="0 0 25 25" version="1.1" xmlns="http://www.w3.org/2000/svg" xmlns:xlink="http://www.w3.org/1999/xlink" xml:space="preserve" xmlns:serif="http://www.serif.com/" style="fill-rule:evenodd;clip-rule:evenodd;stroke-linejoin:round;stroke-miterlimit:2;">
    <g id="Loupe-Icon" serif:id="Loupe Icon" transform="matrix(1.5552,0,0,1.5486,-1864.68,-1773.15)">
        <path d="M1214.7,1160.7C1214.3,1161.09 1213.66,1161.09 1213.27,1160.7L1210.18,1157.61C1209.01,1158.48 1207.57,1159 1206,1159C1202.13,1159 1199,1155.87 1199,1152C1199,1148.13 1202.13,1145 1206,1145C1209.87,1145 1213,1148.13 1213,1152C1213,1153.57 1212.48,1155.01 1211.61,1156.18L1214.7,1159.27C1215.09,1159.66 1215.09,1160.3 1214.7,1160.7ZM1206,1147C1203.24,1147 1201,1149.24 1201,1152C1201,1154.76 1203.24,1157 1206,1157C1208.76,1157 1211,1154.76 1211,1152C1211,1149.24 1208.76,1147 1206,1147Z" style="fill:white;"/>
    </g>
</svg>
