<?xml version="1.0" encoding="UTF-8" standalone="no"?>
<!DOCTYPE svg PUBLIC "-//W3C//DTD SVG 1.1//EN" "http://www.w3.org/Graphics/SVG/1.1/DTD/svg11.dtd">
<svg width="100%" height="100%" viewBox="0 0 216 33" version="1.1" xmlns="http://www.w3.org/2000/svg" xmlns:xlink="http://www.w3.org/1999/xlink" xml:space="preserve" xmlns:serif="http://www.serif.com/" style="fill-rule:evenodd;clip-rule:evenodd;stroke-linejoin:round;stroke-miterlimit:2;">
    <g transform="matrix(0.566418,0,0,0.208952,-71.8338,-19.1763)">
        <path d="M142.492,247.287C139.652,247.287 137.034,245.309 134.637,241.354C132.266,237.399 130.371,232.12 128.951,225.517C127.531,218.914 126.821,211.657 126.821,203.747L126.821,193.789C126.821,193.012 126.952,192.624 127.212,192.624L136.2,192.624C136.409,192.624 136.513,193.012 136.513,193.789L136.513,203.747C136.513,208.479 137.099,212.557 138.272,215.983C139.444,219.408 140.851,221.121 142.492,221.121C144.16,221.121 145.58,219.373 146.752,215.877C147.924,212.381 148.511,208.338 148.511,203.747C148.511,198.45 147.234,193.825 144.681,189.87C144.264,189.163 143.723,188.298 143.059,187.274C142.395,186.25 141.606,185.067 140.695,183.725C139.783,182.384 138.897,181.059 138.037,179.753C137.177,178.446 136.344,177.193 135.536,175.992C132.618,171.331 130.449,165.487 129.029,158.46C127.609,151.433 126.899,143.541 126.899,134.783C126.899,126.732 127.629,119.458 129.088,112.961C130.547,106.534 132.455,101.431 134.813,97.653C137.171,93.875 139.731,91.986 142.492,91.986C145.332,91.986 147.937,93.892 150.308,97.706C152.679,101.59 154.574,106.746 155.994,113.173C157.414,119.599 158.124,126.803 158.124,134.783L158.124,152.58C158.124,153.145 158.02,153.428 157.811,153.428L148.823,153.428C148.615,153.428 148.511,153.145 148.511,152.58L148.432,134.783C148.432,129.698 147.846,125.567 146.674,122.389C145.501,119.211 144.108,117.622 142.492,117.622C140.851,117.622 139.444,119.317 138.272,122.707C137.099,126.097 136.513,130.122 136.513,134.783C136.513,139.515 136.884,143.47 137.627,146.648C138.369,149.826 139.731,152.863 141.711,155.758C141.919,156.041 142.401,156.747 143.157,157.877C143.912,159.007 144.752,160.261 145.677,161.638C146.602,163.015 147.442,164.251 148.198,165.346C148.953,166.44 149.409,167.094 149.566,167.305C152.223,171.331 154.327,176.275 155.877,182.136C157.427,187.998 158.202,195.202 158.202,203.747C158.202,212.01 157.499,219.426 156.092,225.994C154.659,232.562 152.757,237.752 150.386,241.566C148.016,245.38 145.384,247.287 142.492,247.287Z" style="fill:rgb(5,77,121);fill-rule:nonzero;"/>
        <path d="M173.131,245.168L164.142,245.168C163.882,245.168 163.752,244.815 163.752,244.108L163.908,95.058C163.908,94.493 164.012,94.21 164.221,94.21L189.857,94.21C190.117,94.21 190.248,94.493 190.248,95.058L190.248,119.529C190.248,120.094 190.143,120.376 189.935,120.376L173.522,120.376L173.522,154.064L189.935,154.064C190.143,154.064 190.248,154.417 190.248,155.123L190.326,179.7C190.326,180.265 190.195,180.547 189.935,180.547L173.522,180.547L173.522,244.108C173.522,244.815 173.391,245.168 173.131,245.168Z" style="fill:rgb(5,77,121);fill-rule:nonzero;"/>
        <path d="M212.249,247.287C209.41,247.287 206.791,245.309 204.394,241.354C202.024,237.399 200.115,232.12 198.669,225.517C197.223,218.914 196.5,211.657 196.5,203.747L196.579,134.995C196.579,126.944 197.295,119.705 198.728,113.278C200.135,106.781 202.037,101.573 204.434,97.653C206.83,93.733 209.436,91.774 212.249,91.774C215.167,91.774 217.786,93.716 220.104,97.6C222.449,101.484 224.332,106.693 225.751,113.226C227.171,119.758 227.881,127.015 227.881,134.995L227.959,203.747C227.959,211.657 227.256,218.896 225.849,225.464C224.416,232.102 222.514,237.399 220.144,241.354C217.773,245.309 215.141,247.287 212.249,247.287ZM212.249,221.121C213.865,221.121 215.272,219.337 216.47,215.771C217.669,212.204 218.268,208.196 218.268,203.747L218.19,134.995C218.19,130.193 217.629,126.132 216.509,122.813C215.389,119.493 213.969,117.834 212.249,117.834C210.608,117.834 209.201,119.458 208.029,122.707C206.856,125.955 206.27,130.052 206.27,134.995L206.27,203.747C206.27,208.479 206.856,212.557 208.029,215.983C209.201,219.408 210.608,221.121 212.249,221.121Z" style="fill:rgb(5,77,121);fill-rule:nonzero;"/>
        <path d="M243.357,245.168L234.369,245.168C234.108,245.168 233.978,244.815 233.978,244.108L234.134,95.058C234.134,94.493 234.238,94.21 234.447,94.21L260.083,94.21C260.343,94.21 260.474,94.493 260.474,95.058L260.474,119.529C260.474,120.094 260.37,120.376 260.161,120.376L243.748,120.376L243.748,154.064L260.161,154.064C260.37,154.064 260.474,154.417 260.474,155.123L260.552,179.7C260.552,180.265 260.422,180.547 260.161,180.547L243.748,180.547L243.748,244.108C243.748,244.815 243.617,245.168 243.357,245.168Z" style="fill:rgb(5,77,121);fill-rule:nonzero;"/>
        <path d="M293.528,245.168L267.657,245.168C267.448,245.168 267.344,244.815 267.344,244.108L267.422,95.058C267.422,94.493 267.527,94.21 267.735,94.21L293.449,94.21C293.658,94.21 293.762,94.563 293.762,95.269L293.762,119.529C293.762,120.094 293.658,120.376 293.449,120.376L277.036,120.376L277.036,154.275L293.449,154.275C293.658,154.275 293.762,154.558 293.762,155.123L293.84,179.7C293.84,180.265 293.736,180.547 293.528,180.547L277.036,180.547L277.036,218.472L293.528,218.472C293.736,218.472 293.84,218.825 293.84,219.531L293.84,244.32C293.84,244.885 293.736,245.168 293.528,245.168Z" style="fill:rgb(175,37,37);fill-rule:nonzero;"/>
        <path d="M307.479,245.168L298.491,245.168C298.308,245.168 298.23,244.815 298.256,244.108L307.401,166.67L298.413,95.058C298.361,94.493 298.439,94.21 298.647,94.21L307.635,94.21C307.896,94.21 308.052,94.493 308.104,95.058L313.458,146.648L318.89,95.058C318.942,94.493 319.112,94.21 319.398,94.21L328.269,94.21C328.478,94.21 328.556,94.493 328.504,95.058L319.555,166.458L328.582,244.108C328.686,244.815 328.608,245.168 328.348,245.168L319.398,245.168C319.164,245.168 318.995,244.815 318.89,244.108L313.458,188.069L307.948,244.108C307.922,244.815 307.766,245.168 307.479,245.168Z" style="fill:rgb(175,37,37);fill-rule:nonzero;"/>
        <path d="M342.651,245.168L333.662,245.168C333.402,245.168 333.272,244.815 333.272,244.108L333.428,95.058C333.428,94.493 333.532,94.21 333.741,94.21L349.138,94.21C354.036,94.21 357.911,98.253 360.764,106.34C363.617,114.426 365.043,125.426 365.043,139.339C365.043,149.508 364.301,158.372 362.816,165.928C361.305,173.414 359.351,179.205 356.954,183.302C354.557,187.398 351.952,189.446 349.138,189.446L343.042,189.446L343.042,244.108C343.042,244.815 342.911,245.168 342.651,245.168ZM349.138,119.952L343.042,120.164L343.042,163.174L349.138,163.174C350.831,163.174 352.303,160.967 353.554,156.553C354.805,152.139 355.43,146.401 355.43,139.339C355.43,133.689 354.87,129.045 353.749,125.408C352.629,121.771 351.092,119.952 349.138,119.952Z" style="fill:rgb(175,37,37);fill-rule:nonzero;"/>
        <path d="M385.287,247.287C382.447,247.287 379.829,245.309 377.432,241.354C375.061,237.399 373.152,232.12 371.707,225.517C370.261,218.914 369.538,211.657 369.538,203.747L369.616,134.995C369.616,126.944 370.332,119.705 371.765,113.278C373.172,106.781 375.074,101.573 377.471,97.653C379.868,93.733 382.473,91.774 385.287,91.774C388.205,91.774 390.823,93.716 393.142,97.6C395.486,101.484 397.369,106.693 398.789,113.226C400.209,119.758 400.919,127.015 400.919,134.995L400.997,203.747C400.997,211.657 400.293,218.896 398.886,225.464C397.454,232.102 395.552,237.399 393.181,241.354C390.81,245.309 388.179,247.287 385.287,247.287ZM385.287,221.121C386.902,221.121 388.309,219.337 389.507,215.771C390.706,212.204 391.305,208.196 391.305,203.747L391.227,134.995C391.227,130.193 390.667,126.132 389.546,122.813C388.426,119.493 387.006,117.834 385.287,117.834C383.645,117.834 382.238,119.458 381.066,122.707C379.894,125.955 379.308,130.052 379.308,134.995L379.308,203.747C379.308,208.479 379.894,212.557 381.066,215.983C382.238,219.408 383.645,221.121 385.287,221.121Z" style="fill:rgb(175,37,37);fill-rule:nonzero;"/>
        <path d="M420.615,247.287C417.775,247.287 415.157,245.309 412.76,241.354C410.389,237.399 408.494,232.12 407.074,225.517C405.654,218.914 404.944,211.657 404.944,203.747L404.944,193.789C404.944,193.012 405.074,192.624 405.335,192.624L414.323,192.624C414.531,192.624 414.636,193.012 414.636,193.789L414.636,203.747C414.636,208.479 415.222,212.557 416.394,215.983C417.567,219.408 418.973,221.121 420.615,221.121C422.282,221.121 423.702,219.373 424.874,215.877C426.047,212.381 426.633,208.338 426.633,203.747C426.633,198.45 425.356,193.825 422.803,189.87C422.386,189.163 421.846,188.298 421.181,187.274C420.517,186.25 419.729,185.067 418.817,183.725C417.905,182.384 417.019,181.059 416.16,179.753C415.3,178.446 414.466,177.193 413.659,175.992C410.741,171.331 408.572,165.487 407.152,158.46C405.732,151.433 405.022,143.541 405.022,134.783C405.022,126.732 405.751,119.458 407.21,112.961C408.669,106.534 410.578,101.431 412.936,97.653C415.293,93.875 417.853,91.986 420.615,91.986C423.455,91.986 426.06,93.892 428.431,97.706C430.801,101.59 432.697,106.746 434.117,113.173C435.537,119.599 436.247,126.803 436.247,134.783L436.247,152.58C436.247,153.145 436.142,153.428 435.934,153.428L426.946,153.428C426.737,153.428 426.633,153.145 426.633,152.58L426.555,134.783C426.555,129.698 425.969,125.567 424.796,122.389C423.624,119.211 422.23,117.622 420.615,117.622C418.973,117.622 417.567,119.317 416.394,122.707C415.222,126.097 414.636,130.122 414.636,134.783C414.636,139.515 415.007,143.47 415.749,146.648C416.492,149.826 417.853,152.863 419.833,155.758C420.042,156.041 420.524,156.747 421.279,157.877C422.035,159.007 422.875,160.261 423.8,161.638C424.725,163.015 425.565,164.251 426.32,165.346C427.076,166.44 427.532,167.094 427.688,167.305C430.346,171.331 432.449,176.275 434,182.136C435.55,187.998 436.325,195.202 436.325,203.747C436.325,212.01 435.621,219.426 434.214,225.994C432.782,232.562 430.88,237.752 428.509,241.566C426.138,245.38 423.507,247.287 420.615,247.287Z" style="fill:rgb(175,37,37);fill-rule:nonzero;"/>
        <path d="M468.057,245.168L442.187,245.168C441.978,245.168 441.874,244.815 441.874,244.108L441.952,95.058C441.952,94.493 442.056,94.21 442.265,94.21L467.979,94.21C468.188,94.21 468.292,94.563 468.292,95.269L468.292,119.529C468.292,120.094 468.188,120.376 467.979,120.376L451.566,120.376L451.566,154.275L467.979,154.275C468.188,154.275 468.292,154.558 468.292,155.123L468.37,179.7C468.37,180.265 468.266,180.547 468.057,180.547L451.566,180.547L451.566,218.472L468.057,218.472C468.266,218.472 468.37,218.825 468.37,219.531L468.37,244.32C468.37,244.885 468.266,245.168 468.057,245.168Z" style="fill:rgb(175,37,37);fill-rule:nonzero;"/>
        <path d="M490.216,244.956L475.873,245.168C475.613,245.168 475.483,244.815 475.483,244.108L475.639,95.058C475.639,94.493 475.743,94.21 475.952,94.21L490.919,93.998C493.889,93.786 496.573,95.623 498.969,99.507C501.392,103.391 503.327,108.635 504.773,115.238C506.219,121.842 506.942,129.133 506.942,137.114L506.942,199.404C506.942,207.737 506.199,215.365 504.714,222.286C503.203,229.136 501.197,234.592 498.696,238.653C496.195,242.714 493.368,244.815 490.216,244.956ZM490.919,119.952L485.331,120.164L485.252,218.472L490.216,218.472C492.196,218.472 493.863,216.601 495.218,212.858C496.573,209.115 497.25,204.63 497.25,199.404L497.25,136.902C497.25,132.312 496.625,128.304 495.374,124.878C494.124,121.453 492.639,119.811 490.919,119.952Z" style="fill:rgb(175,37,37);fill-rule:nonzero;"/>
    </g>
</svg>
